<?xml version="1.0" standalone="no"?>
<mlt LC_NUMERIC="C" version="7.30.0" title="Shotcut version 25.01.25" producer="main_bin">
  <profile description="PAL 4:3 DV or DVD" width="1920" height="1080" progressive="1" sample_aspect_num="1" sample_aspect_den="1" display_aspect_num="16" display_aspect_den="9" frame_rate_num="24" frame_rate_den="1" colorspace="709"/>
  <playlist id="main_bin" title="Shotcut version 25.01.25">
    <property name="shotcut:projectAudioChannels">2</property>
    <property name="shotcut:projectFolder">0</property>
    <property name="shotcut:skipConvert">0</property>
    <property name="xml_retain">1</property>
  </playlist>
  <producer id="black" in="00:00:00.000" out="00:05:26.625">
    <property name="length">00:05:26.667</property>
    <property name="eof">pause</property>
    <property name="resource">0</property>
    <property name="aspect_ratio">1</property>
    <property name="mlt_service">color</property>
    <property name="mlt_image_format">rgba</property>
    <property name="set.test_audio">0</property>
  </producer>
  <playlist id="background">
    <entry producer="black" in="00:00:00.000" out="00:05:26.625"/>
  </playlist>
  <producer id="producer0" in="00:00:00.000" out="03:59:59.958">
    <property name="length">04:00:00.000</property>
    <property name="eof">pause</property>
    <property name="resource">rendered animations/1intro-map.png</property>
    <property name="ttl">1</property>
    <property name="aspect_ratio">1</property>
    <property name="meta.media.progressive">1</property>
    <property name="seekable">1</property>
    <property name="format">2</property>
    <property name="meta.media.width">1920</property>
    <property name="meta.media.height">1080</property>
    <property name="mlt_service">qimage</property>
    <property name="creation_time">2025-12-19T02:58:55</property>
    <property name="shotcut:skipConvert">1</property>
    <property name="shotcut:hash">588307567ff53be81c97758e3bc95233</property>
    <property name="shotcut:caption">1intro-map.png</property>
    <property name="meta.shotcut.vui">1</property>
    <property name="xml">was here</property>
    <filter id="filter0" out="00:00:05.500">
      <property name="background">color:#00000000</property>
      <property name="mlt_service">affine</property>
      <property name="shotcut:filter">affineSizePosition</property>
      <property name="transition.fix_rotate_x">00:00:00.000=0;00:00:05.500=0</property>
      <property name="transition.fill">1</property>
      <property name="transition.distort">0</property>
      <property name="transition.rect">00:00:00.000=-2262.95 -19.1175 5536.59 3114.33 1;00:00:05.500=0 0 1920 1080 1</property>
      <property name="transition.valign">middle</property>
      <property name="transition.halign">center</property>
      <property name="shotcut:animIn">00:00:00.000</property>
      <property name="shotcut:animOut">00:00:05.542</property>
      <property name="transition.threads">0</property>
    </filter>
  </producer>
  <chain id="chain0" out="00:00:08.000">
    <property name="length">00:00:08.042</property>
    <property name="eof">pause</property>
    <property name="resource">rendered animations/1intro-map.mkv</property>
    <property name="mlt_service">avformat-novalidate</property>
    <property name="meta.media.nb_streams">1</property>
    <property name="meta.media.0.stream.type">video</property>
    <property name="meta.media.0.stream.frame_rate">24</property>
    <property name="meta.media.0.stream.sample_aspect_ratio">1</property>
    <property name="meta.media.0.codec.width">1920</property>
    <property name="meta.media.0.codec.height">1080</property>
    <property name="meta.media.0.codec.rotate">0</property>
    <property name="meta.media.0.codec.pix_fmt">yuv420p</property>
    <property name="meta.media.0.codec.sample_aspect_ratio">1</property>
    <property name="meta.media.0.codec.colorspace">709</property>
    <property name="meta.media.0.codec.name">h264</property>
    <property name="meta.media.0.codec.long_name">H.264 / AVC / MPEG-4 AVC / MPEG-4 part 10</property>
    <property name="meta.media.0.codec.bit_rate">0</property>
    <property name="meta.attr.0.stream.ENCODER.markup">Lavc58.134.100 libopenh264</property>
    <property name="meta.attr.0.stream.DURATION.markup">00:00:08.042000000</property>
    <property name="meta.attr.ENCODER.markup">Lavf58.76.100</property>
    <property name="seekable">1</property>
    <property name="meta.media.sample_aspect_num">1</property>
    <property name="meta.media.sample_aspect_den">1</property>
    <property name="audio_index">-1</property>
    <property name="video_index">0</property>
    <property name="creation_time">2025-12-19T03:00:35</property>
    <property name="vstream">0</property>
    <property name="meta.media.frame_rate_num">24</property>
    <property name="meta.media.frame_rate_den">1</property>
    <property name="meta.media.colorspace">709</property>
    <property name="meta.media.color_trc">2</property>
    <property name="meta.media.has_b_frames">0</property>
    <property name="meta.media.width">1920</property>
    <property name="meta.media.height">1080</property>
    <property name="meta.media.aspect_ratio">1</property>
    <property name="meta.media.color_range">mpeg</property>
    <property name="shotcut:skipConvert">1</property>
    <property name="shotcut:hash">3cba982628124321718792df9c444d5f</property>
    <property name="meta.media.top_field_first">0</property>
    <property name="meta.media.progressive">1</property>
    <property name="shotcut:caption">1intro-map.mkv</property>
    <property name="xml">was here</property>
  </chain>
  <producer id="producer1" in="00:00:00.000" out="03:59:59.958">
    <property name="length">04:00:00.000</property>
    <property name="eof">pause</property>
    <property name="resource">rendered animations/1intro-map-filled.png</property>
    <property name="ttl">1</property>
    <property name="aspect_ratio">1</property>
    <property name="meta.media.progressive">1</property>
    <property name="seekable">1</property>
    <property name="format">2</property>
    <property name="meta.media.width">1920</property>
    <property name="meta.media.height">1080</property>
    <property name="mlt_service">qimage</property>
    <property name="creation_time">2025-12-19T03:01:14</property>
    <property name="shotcut:skipConvert">1</property>
    <property name="shotcut:hash">4ea8936ddc902d62e63cccd0aeea07e2</property>
    <property name="shotcut:caption">1intro-map-filled.png</property>
    <property name="xml">was here</property>
  </producer>
  <producer id="producer2" in="00:00:00.000" out="03:59:59.958">
    <property name="length">04:00:00.000</property>
    <property name="eof">pause</property>
    <property name="resource">rendered animations/1intro-map-tension.png</property>
    <property name="ttl">1</property>
    <property name="aspect_ratio">1</property>
    <property name="meta.media.progressive">1</property>
    <property name="seekable">1</property>
    <property name="format">2</property>
    <property name="meta.media.width">1920</property>
    <property name="meta.media.height">1080</property>
    <property name="mlt_service">qimage</property>
    <property name="creation_time">2025-12-19T03:01:59</property>
    <property name="shotcut:skipConvert">1</property>
    <property name="shotcut:hash">604b61b0958ae70c94cc58b0c5ab81c1</property>
    <property name="shotcut:caption">1intro-map-tension.png</property>
    <property name="meta.shotcut.vui">1</property>
    <property name="xml">was here</property>
    <filter id="filter1" out="00:00:05.667">
      <property name="background">color:#00000000</property>
      <property name="mlt_service">affine</property>
      <property name="shotcut:filter">affineSizePosition</property>
      <property name="transition.fix_rotate_x">00:00:00.000=0;00:00:05.667=0</property>
      <property name="transition.fill">1</property>
      <property name="transition.distort">0</property>
      <property name="transition.rect">00:00:00.000=0 0 1920 1080 1;00:00:05.667=-191.378 -76.9813 4097.28 2304.72 1</property>
      <property name="transition.valign">middle</property>
      <property name="transition.halign">center</property>
      <property name="shotcut:animIn">00:00:05.708</property>
      <property name="shotcut:animOut">00:00:00.000</property>
      <property name="transition.threads">0</property>
    </filter>
  </producer>
  <producer id="producer3" in="00:00:00.000" out="03:59:59.958">
    <property name="length">04:00:00.000</property>
    <property name="eof">pause</property>
    <property name="resource">rendered animations/2kindergarteners-explanation1.png</property>
    <property name="ttl">1</property>
    <property name="aspect_ratio">1</property>
    <property name="meta.media.progressive">1</property>
    <property name="seekable">1</property>
    <property name="format">2</property>
    <property name="meta.media.width">1920</property>
    <property name="meta.media.height">1080</property>
    <property name="mlt_service">qimage</property>
    <property name="creation_time">2025-12-14T06:12:07</property>
    <property name="shotcut:skipConvert">1</property>
    <property name="shotcut:hash">618063b3fd2d8151fe29f3c3850e9d1a</property>
    <property name="shotcut:caption">2kindergarteners-explanation1.png</property>
    <property name="xml">was here</property>
  </producer>
  <producer id="producer4" in="00:00:00.000" out="03:59:59.958">
    <property name="length">04:00:00.000</property>
    <property name="eof">pause</property>
    <property name="resource">rendered animations/2kindergarteners-explanation2.png</property>
    <property name="ttl">1</property>
    <property name="aspect_ratio">1</property>
    <property name="meta.media.progressive">1</property>
    <property name="seekable">1</property>
    <property name="format">2</property>
    <property name="meta.media.width">1920</property>
    <property name="meta.media.height">1080</property>
    <property name="mlt_service">qimage</property>
    <property name="creation_time">2025-12-14T06:12:17</property>
    <property name="shotcut:skipConvert">1</property>
    <property name="shotcut:hash">00ec6ef372a4fe9f1dc6de414aa877bb</property>
    <property name="shotcut:caption">2kindergarteners-explanation2.png</property>
    <property name="xml">was here</property>
  </producer>
  <producer id="producer5" in="00:00:00.000" out="03:59:59.958">
    <property name="length">04:00:00.000</property>
    <property name="eof">pause</property>
    <property name="resource">rendered animations/2kindergarteners-explanation3.png</property>
    <property name="ttl">1</property>
    <property name="aspect_ratio">1</property>
    <property name="meta.media.progressive">1</property>
    <property name="seekable">1</property>
    <property name="format">2</property>
    <property name="meta.media.width">1920</property>
    <property name="meta.media.height">1080</property>
    <property name="mlt_service">qimage</property>
    <property name="creation_time">2025-12-14T06:12:36</property>
    <property name="shotcut:skipConvert">1</property>
    <property name="shotcut:hash">a66cd716218db17ef6f0d28ea0137fb2</property>
    <property name="shotcut:caption">2kindergarteners-explanation3.png</property>
    <property name="xml">was here</property>
  </producer>
  <producer id="producer6" in="00:00:00.000" out="03:59:59.958">
    <property name="length">04:00:00.000</property>
    <property name="eof">pause</property>
    <property name="resource">rendered animations/2kindergarteners-explanation4.png</property>
    <property name="ttl">1</property>
    <property name="aspect_ratio">1</property>
    <property name="meta.media.progressive">1</property>
    <property name="seekable">1</property>
    <property name="format">2</property>
    <property name="meta.media.width">1920</property>
    <property name="meta.media.height">1080</property>
    <property name="mlt_service">qimage</property>
    <property name="creation_time">2025-12-14T06:12:51</property>
    <property name="shotcut:skipConvert">1</property>
    <property name="shotcut:hash">b115c6c5d34d844a94a867b2178d0f5c</property>
    <property name="shotcut:caption">2kindergarteners-explanation4.png</property>
    <property name="xml">was here</property>
  </producer>
  <producer id="producer7" in="00:00:00.000" out="03:59:59.958">
    <property name="length">04:00:00.000</property>
    <property name="eof">pause</property>
    <property name="resource">rendered animations/2kindergarteners-explanation5.png</property>
    <property name="ttl">1</property>
    <property name="aspect_ratio">1</property>
    <property name="meta.media.progressive">1</property>
    <property name="seekable">1</property>
    <property name="format">2</property>
    <property name="meta.media.width">1920</property>
    <property name="meta.media.height">1080</property>
    <property name="mlt_service">qimage</property>
    <property name="creation_time">2025-12-14T06:13:03</property>
    <property name="shotcut:skipConvert">1</property>
    <property name="shotcut:hash">6bdde5e959252676404b9579d613200e</property>
    <property name="shotcut:caption">2kindergarteners-explanation5.png</property>
    <property name="xml">was here</property>
  </producer>
  <producer id="producer8" in="00:00:00.000" out="03:59:59.958">
    <property name="length">04:00:00.000</property>
    <property name="eof">pause</property>
    <property name="resource">rendered animations/2kindergarteners-explanation6.png</property>
    <property name="ttl">1</property>
    <property name="aspect_ratio">1</property>
    <property name="meta.media.progressive">1</property>
    <property name="seekable">1</property>
    <property name="format">2</property>
    <property name="meta.media.width">1920</property>
    <property name="meta.media.height">1080</property>
    <property name="mlt_service">qimage</property>
    <property name="creation_time">2025-12-18T08:34:32</property>
    <property name="shotcut:skipConvert">1</property>
    <property name="shotcut:hash">650505da0fe3d833bb60f1cafd0ff5bd</property>
    <property name="shotcut:caption">2kindergarteners-explanation6.png</property>
    <property name="xml">was here</property>
  </producer>
  <producer id="producer9" in="00:00:00.000" out="03:59:59.958">
    <property name="length">04:00:00.000</property>
    <property name="eof">pause</property>
    <property name="resource">rendered animations/2kindergarteners-explanation7.png</property>
    <property name="ttl">1</property>
    <property name="aspect_ratio">1</property>
    <property name="meta.media.progressive">1</property>
    <property name="seekable">1</property>
    <property name="format">2</property>
    <property name="meta.media.width">1920</property>
    <property name="meta.media.height">1080</property>
    <property name="mlt_service">qimage</property>
    <property name="creation_time">2025-12-18T08:34:44</property>
    <property name="shotcut:skipConvert">1</property>
    <property name="shotcut:hash">182a2703b8c3a528451e93c633d528be</property>
    <property name="shotcut:caption">2kindergarteners-explanation7.png</property>
    <property name="xml">was here</property>
  </producer>
  <producer id="producer10" in="00:00:00.000" out="03:59:59.958">
    <property name="length">04:00:00.000</property>
    <property name="eof">pause</property>
    <property name="resource">rendered animations/2kindergarteners-explanation8.png</property>
    <property name="ttl">1</property>
    <property name="aspect_ratio">1</property>
    <property name="meta.media.progressive">1</property>
    <property name="seekable">1</property>
    <property name="format">2</property>
    <property name="meta.media.width">1920</property>
    <property name="meta.media.height">1080</property>
    <property name="mlt_service">qimage</property>
    <property name="creation_time">2025-12-18T08:34:59</property>
    <property name="shotcut:skipConvert">1</property>
    <property name="shotcut:hash">2a49740f6d3a8d2091f1cb7d975ab5de</property>
    <property name="shotcut:caption">2kindergarteners-explanation8.png</property>
    <property name="xml">was here</property>
  </producer>
  <producer id="producer11" in="00:00:00.000" out="03:59:59.958">
    <property name="length">04:00:00.000</property>
    <property name="eof">pause</property>
    <property name="resource">rendered animations/3.0character-intros.png</property>
    <property name="ttl">1</property>
    <property name="aspect_ratio">1</property>
    <property name="meta.media.progressive">1</property>
    <property name="seekable">1</property>
    <property name="format">2</property>
    <property name="meta.media.width">1920</property>
    <property name="meta.media.height">1080</property>
    <property name="mlt_service">qimage</property>
    <property name="creation_time">2025-12-13T23:25:40</property>
    <property name="shotcut:skipConvert">1</property>
    <property name="shotcut:hash">7e9278c389f4cf0ebf12a715d7eb2dc2</property>
    <property name="shotcut:caption">3.0character-intros.png</property>
    <property name="meta.shotcut.vui">1</property>
    <property name="xml">was here</property>
    <filter id="filter2" out="00:00:11.542">
      <property name="background">color:#00000000</property>
      <property name="mlt_service">affine</property>
      <property name="shotcut:filter">affineSizePosition</property>
      <property name="transition.fix_rotate_x">00:00:00.000=0;00:00:11.083=0</property>
      <property name="transition.fill">1</property>
      <property name="transition.distort">0</property>
      <property name="transition.rect">00:00:00.000=0 0 1920 1080 1;00:00:11.083=-1390.2 -1393.11 4865.28 2736.72 1</property>
      <property name="transition.valign">middle</property>
      <property name="transition.halign">center</property>
      <property name="shotcut:animIn">00:00:11.125</property>
      <property name="shotcut:animOut">00:00:00.000</property>
      <property name="transition.threads">0</property>
    </filter>
  </producer>
  <producer id="producer12" in="00:00:00.000" out="03:59:59.958">
    <property name="length">04:00:00.000</property>
    <property name="eof">pause</property>
    <property name="resource">rendered animations/3.1character-intros-aurora0.png</property>
    <property name="ttl">1</property>
    <property name="aspect_ratio">1</property>
    <property name="meta.media.progressive">1</property>
    <property name="seekable">1</property>
    <property name="format">2</property>
    <property name="meta.media.width">1920</property>
    <property name="meta.media.height">1080</property>
    <property name="mlt_service">qimage</property>
    <property name="creation_time">2025-12-14T19:22:00</property>
    <property name="shotcut:skipConvert">1</property>
    <property name="shotcut:hash">7a1c0646d352747597aaa52efea03a03</property>
    <property name="shotcut:caption">3.1character-intros-aurora0.png</property>
    <property name="xml">was here</property>
  </producer>
  <producer id="producer13" in="00:00:00.000" out="03:59:59.958">
    <property name="length">04:00:00.000</property>
    <property name="eof">pause</property>
    <property name="resource">rendered animations/3.1character-intros-aurora1.png</property>
    <property name="ttl">1</property>
    <property name="aspect_ratio">1</property>
    <property name="meta.media.progressive">1</property>
    <property name="seekable">1</property>
    <property name="format">2</property>
    <property name="meta.media.width">1920</property>
    <property name="meta.media.height">1080</property>
    <property name="mlt_service">qimage</property>
    <property name="creation_time">2025-12-14T19:22:12</property>
    <property name="shotcut:skipConvert">1</property>
    <property name="shotcut:hash">38d97f3414b3a2f225a061345f13ec68</property>
    <property name="shotcut:caption">3.1character-intros-aurora1.png</property>
    <property name="xml">was here</property>
  </producer>
  <producer id="producer14" in="00:00:00.000" out="03:59:59.958">
    <property name="length">04:00:00.000</property>
    <property name="eof">pause</property>
    <property name="resource">rendered animations/3.1character-intros-aurora2.png</property>
    <property name="ttl">1</property>
    <property name="aspect_ratio">1</property>
    <property name="meta.media.progressive">1</property>
    <property name="seekable">1</property>
    <property name="format">2</property>
    <property name="meta.media.width">1920</property>
    <property name="meta.media.height">1080</property>
    <property name="mlt_service">qimage</property>
    <property name="creation_time">2025-12-14T19:22:24</property>
    <property name="shotcut:skipConvert">1</property>
    <property name="shotcut:hash">6a97d440b4314e359c8845243fe558e7</property>
    <property name="shotcut:caption">3.1character-intros-aurora2.png</property>
    <property name="xml">was here</property>
  </producer>
  <producer id="producer15" in="00:00:00.000" out="03:59:59.958">
    <property name="length">04:00:00.000</property>
    <property name="eof">pause</property>
    <property name="resource">rendered animations/3.1character-intros-aurora3.png</property>
    <property name="ttl">1</property>
    <property name="aspect_ratio">1</property>
    <property name="meta.media.progressive">1</property>
    <property name="seekable">1</property>
    <property name="format">2</property>
    <property name="meta.media.width">1920</property>
    <property name="meta.media.height">1080</property>
    <property name="mlt_service">qimage</property>
    <property name="creation_time">2025-12-14T19:22:43</property>
    <property name="shotcut:skipConvert">1</property>
    <property name="shotcut:hash">976e951807368eb7c913ff39e83fe286</property>
    <property name="shotcut:caption">3.1character-intros-aurora3.png</property>
    <property name="xml">was here</property>
  </producer>
  <producer id="producer16" in="00:00:00.000" out="03:59:59.958">
    <property name="length">04:00:00.000</property>
    <property name="eof">pause</property>
    <property name="resource">rendered animations/3.1character-intros-aurora4.png</property>
    <property name="ttl">1</property>
    <property name="aspect_ratio">1</property>
    <property name="meta.media.progressive">1</property>
    <property name="seekable">1</property>
    <property name="format">2</property>
    <property name="meta.media.width">1920</property>
    <property name="meta.media.height">1080</property>
    <property name="mlt_service">qimage</property>
    <property name="creation_time">2025-12-14T19:22:54</property>
    <property name="shotcut:skipConvert">1</property>
    <property name="shotcut:hash">d2a27904ab59317a2d4c35fe9d0060b0</property>
    <property name="shotcut:caption">3.1character-intros-aurora4.png</property>
    <property name="xml">was here</property>
  </producer>
  <producer id="producer17" in="00:00:00.000" out="03:59:59.958">
    <property name="length">04:00:00.000</property>
    <property name="eof">pause</property>
    <property name="resource">rendered animations/3.1character-intros-yogurt0.png</property>
    <property name="ttl">1</property>
    <property name="aspect_ratio">1</property>
    <property name="meta.media.progressive">1</property>
    <property name="seekable">1</property>
    <property name="format">2</property>
    <property name="meta.media.width">1920</property>
    <property name="meta.media.height">1080</property>
    <property name="mlt_service">qimage</property>
    <property name="creation_time">2025-12-14T19:26:25</property>
    <property name="shotcut:skipConvert">1</property>
    <property name="shotcut:hash">6a59a34b8c797667e98ebc54f5d80eca</property>
    <property name="shotcut:caption">3.1character-intros-yogurt0.png</property>
    <property name="xml">was here</property>
  </producer>
  <producer id="producer18" in="00:00:00.000" out="03:59:59.958">
    <property name="length">04:00:00.000</property>
    <property name="eof">pause</property>
    <property name="resource">rendered animations/3.1character-intros-yogurt1.png</property>
    <property name="ttl">1</property>
    <property name="aspect_ratio">1</property>
    <property name="meta.media.progressive">1</property>
    <property name="seekable">1</property>
    <property name="format">2</property>
    <property name="meta.media.width">1920</property>
    <property name="meta.media.height">1080</property>
    <property name="mlt_service">qimage</property>
    <property name="creation_time">2025-12-14T19:26:33</property>
    <property name="shotcut:skipConvert">1</property>
    <property name="shotcut:hash">330775927725a5ae20877bc296a21981</property>
    <property name="shotcut:caption">3.1character-intros-yogurt1.png</property>
    <property name="xml">was here</property>
  </producer>
  <producer id="producer19" in="00:00:00.000" out="03:59:59.958">
    <property name="length">04:00:00.000</property>
    <property name="eof">pause</property>
    <property name="resource">rendered animations/3.1character-intros-yogurt2.png</property>
    <property name="ttl">1</property>
    <property name="aspect_ratio">1</property>
    <property name="meta.media.progressive">1</property>
    <property name="seekable">1</property>
    <property name="format">2</property>
    <property name="meta.media.width">1920</property>
    <property name="meta.media.height">1080</property>
    <property name="mlt_service">qimage</property>
    <property name="creation_time">2025-12-14T19:26:43</property>
    <property name="shotcut:skipConvert">1</property>
    <property name="shotcut:hash">dc39ec7c9b2a87b0e1fc5dc9b6b7abac</property>
    <property name="shotcut:caption">3.1character-intros-yogurt2.png</property>
    <property name="xml">was here</property>
  </producer>
  <producer id="producer20" in="00:00:00.000" out="03:59:59.958">
    <property name="length">04:00:00.000</property>
    <property name="eof">pause</property>
    <property name="resource">rendered animations/3.1character-intros-yogurt3.png</property>
    <property name="ttl">1</property>
    <property name="aspect_ratio">1</property>
    <property name="meta.media.progressive">1</property>
    <property name="seekable">1</property>
    <property name="format">2</property>
    <property name="meta.media.width">1920</property>
    <property name="meta.media.height">1080</property>
    <property name="mlt_service">qimage</property>
    <property name="creation_time">2025-12-14T19:26:54</property>
    <property name="shotcut:skipConvert">1</property>
    <property name="shotcut:hash">f395226cd0bca22fc54ebc18b82d7171</property>
    <property name="shotcut:caption">3.1character-intros-yogurt3.png</property>
    <property name="xml">was here</property>
  </producer>
  <producer id="producer21" in="00:00:00.000" out="03:59:59.958">
    <property name="length">04:00:00.000</property>
    <property name="eof">pause</property>
    <property name="resource">rendered animations/3.1character-intros-yogurt4.png</property>
    <property name="ttl">1</property>
    <property name="aspect_ratio">1</property>
    <property name="meta.media.progressive">1</property>
    <property name="seekable">1</property>
    <property name="format">2</property>
    <property name="meta.media.width">1920</property>
    <property name="meta.media.height">1080</property>
    <property name="mlt_service">qimage</property>
    <property name="creation_time">2025-12-14T19:27:04</property>
    <property name="shotcut:skipConvert">1</property>
    <property name="shotcut:hash">8e3c6a37dd814f7c35de0ae55d1fa15e</property>
    <property name="shotcut:caption">3.1character-intros-yogurt4.png</property>
    <property name="xml">was here</property>
  </producer>
  <producer id="producer22" in="00:00:00.000" out="03:59:59.958">
    <property name="length">04:00:00.000</property>
    <property name="eof">pause</property>
    <property name="resource">rendered animations/3.1character-intros-bingo0.png</property>
    <property name="ttl">1</property>
    <property name="aspect_ratio">1</property>
    <property name="meta.media.progressive">1</property>
    <property name="seekable">1</property>
    <property name="format">2</property>
    <property name="meta.media.width">1920</property>
    <property name="meta.media.height">1080</property>
    <property name="mlt_service">qimage</property>
    <property name="creation_time">2025-12-14T19:37:39</property>
    <property name="shotcut:skipConvert">1</property>
    <property name="shotcut:hash">e3941b896b0fc2dbad192be323028b9d</property>
    <property name="shotcut:caption">3.1character-intros-bingo0.png</property>
    <property name="xml">was here</property>
  </producer>
  <producer id="producer23" in="00:00:00.000" out="03:59:59.958">
    <property name="length">04:00:00.000</property>
    <property name="eof">pause</property>
    <property name="resource">rendered animations/3.1character-intros-bingo1.png</property>
    <property name="ttl">1</property>
    <property name="aspect_ratio">1</property>
    <property name="meta.media.progressive">1</property>
    <property name="seekable">1</property>
    <property name="format">2</property>
    <property name="meta.media.width">1920</property>
    <property name="meta.media.height">1080</property>
    <property name="mlt_service">qimage</property>
    <property name="creation_time">2025-12-14T19:39:10</property>
    <property name="shotcut:skipConvert">1</property>
    <property name="shotcut:hash">5b8a79f5451202695c806a19a079b399</property>
    <property name="shotcut:caption">3.1character-intros-bingo1.png</property>
    <property name="xml">was here</property>
  </producer>
  <producer id="producer24" in="00:00:00.000" out="03:59:59.958">
    <property name="length">04:00:00.000</property>
    <property name="eof">pause</property>
    <property name="resource">rendered animations/3.1character-intros-bingo2.png</property>
    <property name="ttl">1</property>
    <property name="aspect_ratio">1</property>
    <property name="meta.media.progressive">1</property>
    <property name="seekable">1</property>
    <property name="format">2</property>
    <property name="meta.media.width">1920</property>
    <property name="meta.media.height">1080</property>
    <property name="mlt_service">qimage</property>
    <property name="creation_time">2025-12-14T19:39:20</property>
    <property name="shotcut:skipConvert">1</property>
    <property name="shotcut:hash">8b2465f7ae333f7caaffaffd8220a6bf</property>
    <property name="shotcut:caption">3.1character-intros-bingo2.png</property>
    <property name="xml">was here</property>
  </producer>
  <producer id="producer25" in="00:00:00.000" out="03:59:59.958">
    <property name="length">04:00:00.000</property>
    <property name="eof">pause</property>
    <property name="resource">rendered animations/3.1character-intros-bingo3.png</property>
    <property name="ttl">1</property>
    <property name="aspect_ratio">1</property>
    <property name="meta.media.progressive">1</property>
    <property name="seekable">1</property>
    <property name="format">2</property>
    <property name="meta.media.width">1920</property>
    <property name="meta.media.height">1080</property>
    <property name="mlt_service">qimage</property>
    <property name="creation_time">2025-12-14T19:39:40</property>
    <property name="shotcut:skipConvert">1</property>
    <property name="shotcut:hash">23ac19bd7fcdd78e326dcee1209d6652</property>
    <property name="shotcut:caption">3.1character-intros-bingo3.png</property>
    <property name="xml">was here</property>
  </producer>
  <producer id="producer26" in="00:00:00.000" out="03:59:59.958">
    <property name="length">04:00:00.000</property>
    <property name="eof">pause</property>
    <property name="resource">rendered animations/3.1character-intros-bingo4.png</property>
    <property name="ttl">1</property>
    <property name="aspect_ratio">1</property>
    <property name="meta.media.progressive">1</property>
    <property name="seekable">1</property>
    <property name="format">2</property>
    <property name="meta.media.width">1920</property>
    <property name="meta.media.height">1080</property>
    <property name="mlt_service">qimage</property>
    <property name="creation_time">2025-12-14T19:39:54</property>
    <property name="shotcut:skipConvert">1</property>
    <property name="shotcut:hash">9393f4a58d3e126504c788fedd7696e2</property>
    <property name="shotcut:caption">3.1character-intros-bingo4.png</property>
    <property name="xml">was here</property>
  </producer>
  <producer id="producer27" in="00:00:00.000" out="03:59:59.958">
    <property name="length">04:00:00.000</property>
    <property name="eof">pause</property>
    <property name="resource">rendered animations/3.1character-intros-bingo5.png</property>
    <property name="ttl">1</property>
    <property name="aspect_ratio">1</property>
    <property name="meta.media.progressive">1</property>
    <property name="seekable">1</property>
    <property name="format">2</property>
    <property name="meta.media.width">1920</property>
    <property name="meta.media.height">1080</property>
    <property name="mlt_service">qimage</property>
    <property name="creation_time">2025-12-14T19:40:04</property>
    <property name="shotcut:skipConvert">1</property>
    <property name="shotcut:hash">7ee9124b8557f7280dc13f5b324e195c</property>
    <property name="shotcut:caption">3.1character-intros-bingo5.png</property>
    <property name="xml">was here</property>
  </producer>
  <producer id="producer28" in="00:00:00.000" out="03:59:59.958">
    <property name="length">04:00:00.000</property>
    <property name="eof">pause</property>
    <property name="resource">rendered animations/3.1character-intros-bingo6.png</property>
    <property name="ttl">1</property>
    <property name="aspect_ratio">1</property>
    <property name="meta.media.progressive">1</property>
    <property name="seekable">1</property>
    <property name="format">2</property>
    <property name="meta.media.width">1920</property>
    <property name="meta.media.height">1080</property>
    <property name="mlt_service">qimage</property>
    <property name="creation_time">2025-12-14T19:40:14</property>
    <property name="shotcut:skipConvert">1</property>
    <property name="shotcut:hash">0aa0dcbcede094a4eb6a101d02979490</property>
    <property name="shotcut:caption">3.1character-intros-bingo6.png</property>
    <property name="xml">was here</property>
  </producer>
  <producer id="producer29" in="00:00:00.000" out="03:59:59.958">
    <property name="length">04:00:00.000</property>
    <property name="eof">pause</property>
    <property name="resource">rendered animations/3.1character-intros-bingocheese.png</property>
    <property name="ttl">1</property>
    <property name="aspect_ratio">1</property>
    <property name="meta.media.progressive">1</property>
    <property name="seekable">1</property>
    <property name="format">2</property>
    <property name="meta.media.width">1920</property>
    <property name="meta.media.height">1080</property>
    <property name="mlt_service">qimage</property>
    <property name="creation_time">2025-12-14T19:45:28</property>
    <property name="shotcut:skipConvert">1</property>
    <property name="shotcut:hash">5140a1d1577aee2721127ac98c8b6fc8</property>
    <property name="shotcut:caption">3.1character-intros-bingocheese.png</property>
    <property name="xml">was here</property>
  </producer>
  <producer id="producer30" in="00:00:00.000" out="03:59:59.958">
    <property name="length">04:00:00.000</property>
    <property name="eof">pause</property>
    <property name="resource">rendered animations/3.1character-intros-bingo7.png</property>
    <property name="ttl">1</property>
    <property name="aspect_ratio">1</property>
    <property name="meta.media.progressive">1</property>
    <property name="seekable">1</property>
    <property name="format">2</property>
    <property name="meta.media.width">1920</property>
    <property name="meta.media.height">1080</property>
    <property name="mlt_service">qimage</property>
    <property name="creation_time">2025-12-14T19:40:40</property>
    <property name="shotcut:skipConvert">1</property>
    <property name="shotcut:hash">d0780e9318e259b64e611abc1525ca13</property>
    <property name="shotcut:caption">3.1character-intros-bingo7.png</property>
    <property name="xml">was here</property>
  </producer>
  <producer id="producer31" in="00:00:00.000" out="03:59:59.958">
    <property name="length">04:00:00.000</property>
    <property name="eof">pause</property>
    <property name="resource">rendered animations/3.1character-intros-bingo8.png</property>
    <property name="ttl">1</property>
    <property name="aspect_ratio">1</property>
    <property name="meta.media.progressive">1</property>
    <property name="seekable">1</property>
    <property name="format">2</property>
    <property name="meta.media.width">1920</property>
    <property name="meta.media.height">1080</property>
    <property name="mlt_service">qimage</property>
    <property name="creation_time">2025-12-14T19:41:17</property>
    <property name="shotcut:skipConvert">1</property>
    <property name="shotcut:hash">9ffc8943f9644fb87ebaad0390fbfa54</property>
    <property name="shotcut:caption">3.1character-intros-bingo8.png</property>
    <property name="xml">was here</property>
  </producer>
  <producer id="producer32" in="00:00:00.000" out="03:59:59.958">
    <property name="length">04:00:00.000</property>
    <property name="eof">pause</property>
    <property name="resource">rendered animations/3.1character-intros-junior0.png</property>
    <property name="ttl">1</property>
    <property name="aspect_ratio">1</property>
    <property name="meta.media.progressive">1</property>
    <property name="seekable">1</property>
    <property name="format">2</property>
    <property name="meta.media.width">1920</property>
    <property name="meta.media.height">1080</property>
    <property name="mlt_service">qimage</property>
    <property name="creation_time">2025-12-14T19:55:54</property>
    <property name="shotcut:skipConvert">1</property>
    <property name="shotcut:hash">a0f7c850a0515a8b683567a42d22ab78</property>
    <property name="shotcut:caption">3.1character-intros-junior0.png</property>
    <property name="xml">was here</property>
  </producer>
  <producer id="producer33" in="00:00:00.000" out="03:59:59.958">
    <property name="length">04:00:00.000</property>
    <property name="eof">pause</property>
    <property name="resource">rendered animations/3.1character-intros-junior1.png</property>
    <property name="ttl">1</property>
    <property name="aspect_ratio">1</property>
    <property name="meta.media.progressive">1</property>
    <property name="seekable">1</property>
    <property name="format">2</property>
    <property name="meta.media.width">1920</property>
    <property name="meta.media.height">1080</property>
    <property name="mlt_service">qimage</property>
    <property name="creation_time">2025-12-14T19:56:06</property>
    <property name="shotcut:skipConvert">1</property>
    <property name="shotcut:hash">b69094bc516361050cb49151ebd6606e</property>
    <property name="shotcut:caption">3.1character-intros-junior1.png</property>
    <property name="xml">was here</property>
  </producer>
  <producer id="producer34" in="00:00:00.000" out="03:59:59.958">
    <property name="length">04:00:00.000</property>
    <property name="eof">pause</property>
    <property name="resource">rendered animations/3.1character-intros-junior2.png</property>
    <property name="ttl">1</property>
    <property name="aspect_ratio">1</property>
    <property name="meta.media.progressive">1</property>
    <property name="seekable">1</property>
    <property name="format">2</property>
    <property name="meta.media.width">1920</property>
    <property name="meta.media.height">1080</property>
    <property name="mlt_service">qimage</property>
    <property name="creation_time">2025-12-14T21:00:49</property>
    <property name="shotcut:skipConvert">1</property>
    <property name="shotcut:hash">94dc3ae9f7ff4b50ee7a8aa33bf8e6d8</property>
    <property name="shotcut:caption">3.1character-intros-junior2.png</property>
    <property name="xml">was here</property>
  </producer>
  <producer id="producer35" in="00:00:00.000" out="03:59:59.958">
    <property name="length">04:00:00.000</property>
    <property name="eof">pause</property>
    <property name="resource">rendered animations/3.1character-intros-junior3.png</property>
    <property name="ttl">1</property>
    <property name="aspect_ratio">1</property>
    <property name="meta.media.progressive">1</property>
    <property name="seekable">1</property>
    <property name="format">2</property>
    <property name="meta.media.width">1920</property>
    <property name="meta.media.height">1080</property>
    <property name="mlt_service">qimage</property>
    <property name="creation_time">2025-12-14T21:01:08</property>
    <property name="shotcut:skipConvert">1</property>
    <property name="shotcut:hash">269f7f27999b3a399f90550595394713</property>
    <property name="shotcut:caption">3.1character-intros-junior3.png</property>
    <property name="xml">was here</property>
  </producer>
  <producer id="producer36" in="00:00:00.000" out="03:59:59.958">
    <property name="length">04:00:00.000</property>
    <property name="eof">pause</property>
    <property name="resource">rendered animations/4junior-contemplation1.png</property>
    <property name="ttl">1</property>
    <property name="aspect_ratio">1</property>
    <property name="meta.media.progressive">1</property>
    <property name="seekable">1</property>
    <property name="format">2</property>
    <property name="meta.media.width">1920</property>
    <property name="meta.media.height">1080</property>
    <property name="mlt_service">qimage</property>
    <property name="creation_time">2025-12-14T06:21:46</property>
    <property name="shotcut:skipConvert">1</property>
    <property name="shotcut:hash">23a2e7414c64a55cf6911f8a9d744e62</property>
    <property name="shotcut:caption">4junior-contemplation1.png</property>
    <property name="xml">was here</property>
  </producer>
  <producer id="producer37" in="00:00:00.000" out="03:59:59.958">
    <property name="length">04:00:00.000</property>
    <property name="eof">pause</property>
    <property name="resource">rendered animations/4junior-contemplation2.png</property>
    <property name="ttl">1</property>
    <property name="aspect_ratio">1</property>
    <property name="meta.media.progressive">1</property>
    <property name="seekable">1</property>
    <property name="format">2</property>
    <property name="meta.media.width">1920</property>
    <property name="meta.media.height">1080</property>
    <property name="mlt_service">qimage</property>
    <property name="creation_time">2025-12-14T06:22:49</property>
    <property name="shotcut:skipConvert">1</property>
    <property name="shotcut:hash">c7f8586e5bf60c6841ed51e6fd317612</property>
    <property name="shotcut:caption">4junior-contemplation2.png</property>
    <property name="xml">was here</property>
  </producer>
  <producer id="producer38" in="00:00:00.000" out="03:59:59.958">
    <property name="length">04:00:00.000</property>
    <property name="eof">pause</property>
    <property name="resource">rendered animations/4junior-contemplation3.png</property>
    <property name="ttl">1</property>
    <property name="aspect_ratio">1</property>
    <property name="meta.media.progressive">1</property>
    <property name="seekable">1</property>
    <property name="format">2</property>
    <property name="meta.media.width">1920</property>
    <property name="meta.media.height">1080</property>
    <property name="mlt_service">qimage</property>
    <property name="creation_time">2025-12-14T06:23:21</property>
    <property name="shotcut:skipConvert">1</property>
    <property name="shotcut:hash">336904b6b2889893df0058555fd7b380</property>
    <property name="shotcut:caption">4junior-contemplation3.png</property>
    <property name="xml">was here</property>
  </producer>
  <producer id="producer39" in="00:00:00.000" out="03:59:59.958">
    <property name="length">04:00:00.000</property>
    <property name="eof">pause</property>
    <property name="resource">rendered animations/4junior-contemplation4.png</property>
    <property name="ttl">1</property>
    <property name="aspect_ratio">1</property>
    <property name="meta.media.progressive">1</property>
    <property name="seekable">1</property>
    <property name="format">2</property>
    <property name="meta.media.width">1920</property>
    <property name="meta.media.height">1080</property>
    <property name="mlt_service">qimage</property>
    <property name="creation_time">2025-12-14T06:23:49</property>
    <property name="shotcut:skipConvert">1</property>
    <property name="shotcut:hash">902c0c3ea4e8c1df7f1adaf177616c4e</property>
    <property name="shotcut:caption">4junior-contemplation4.png</property>
    <property name="xml">was here</property>
  </producer>
  <producer id="producer40" in="00:00:00.000" out="03:59:59.958">
    <property name="length">04:00:00.000</property>
    <property name="eof">pause</property>
    <property name="resource">rendered animations/4junior-contemplation5.png</property>
    <property name="ttl">1</property>
    <property name="aspect_ratio">1</property>
    <property name="meta.media.progressive">1</property>
    <property name="seekable">1</property>
    <property name="format">2</property>
    <property name="meta.media.width">1920</property>
    <property name="meta.media.height">1080</property>
    <property name="mlt_service">qimage</property>
    <property name="creation_time">2025-12-14T06:24:45</property>
    <property name="shotcut:skipConvert">1</property>
    <property name="shotcut:hash">821aacc315ab468a3541e6b23169ff8e</property>
    <property name="shotcut:caption">4junior-contemplation5.png</property>
    <property name="xml">was here</property>
  </producer>
  <producer id="producer41" in="00:00:00.000" out="00:00:39.458">
    <property name="length">00:00:39.500</property>
    <property name="eof">pause</property>
    <property name="resource">0.25:rendered animations/4junior-contemplation.mkv</property>
    <property name="aspect_ratio">1</property>
    <property name="meta.media.nb_streams">1</property>
    <property name="meta.media.0.stream.type">video</property>
    <property name="meta.media.0.stream.frame_rate">24</property>
    <property name="meta.media.0.stream.sample_aspect_ratio">1</property>
    <property name="meta.media.0.codec.width">1920</property>
    <property name="meta.media.0.codec.height">1080</property>
    <property name="meta.media.0.codec.rotate">0</property>
    <property name="meta.media.0.codec.pix_fmt">yuv420p</property>
    <property name="meta.media.0.codec.sample_aspect_ratio">1</property>
    <property name="meta.media.0.codec.colorspace">709</property>
    <property name="meta.media.0.codec.name">h264</property>
    <property name="meta.media.0.codec.long_name">H.264 / AVC / MPEG-4 AVC / MPEG-4 part 10</property>
    <property name="meta.media.0.codec.bit_rate">0</property>
    <property name="meta.attr.0.stream.ENCODER.markup">Lavc58.134.100 libopenh264</property>
    <property name="meta.attr.0.stream.DURATION.markup">00:00:14.625000000</property>
    <property name="meta.attr.ENCODER.markup">Lavf58.76.100</property>
    <property name="seekable">1</property>
    <property name="meta.media.sample_aspect_num">1</property>
    <property name="meta.media.sample_aspect_den">1</property>
    <property name="audio_index">-1</property>
    <property name="video_index">0</property>
    <property name="warp_speed">0.25</property>
    <property name="warp_resource">rendered animations/4junior-contemplation.mkv</property>
    <property name="mlt_service">timewarp</property>
    <property name="shotcut:producer">avformat</property>
    <property name="video_delay">0</property>
    <property name="vstream">0</property>
    <property name="shotcut:hash">8ef12587331efacc98213bd1da96be3a</property>
    <property name="shotcut:skipConvert">1</property>
    <property name="shotcut:caption">4junior-contemplation.mkv (0.25x)</property>
    <property name="xml">was here</property>
    <property name="meta.media.frame_rate_num">24</property>
    <property name="meta.media.frame_rate_den">1</property>
    <property name="meta.media.colorspace">709</property>
    <property name="meta.media.color_trc">2</property>
    <property name="meta.media.has_b_frames">0</property>
    <property name="meta.media.width">1920</property>
    <property name="meta.media.height">1080</property>
    <property name="meta.media.aspect_ratio">1</property>
    <property name="meta.media.color_range">mpeg</property>
    <property name="meta.media.top_field_first">0</property>
    <property name="meta.media.progressive">1</property>
  </producer>
  <producer id="producer42" in="00:00:00.000" out="03:59:59.958">
    <property name="length">04:00:00.000</property>
    <property name="eof">pause</property>
    <property name="resource">rendered animations/4junior-contemplation6.png</property>
    <property name="ttl">1</property>
    <property name="aspect_ratio">1</property>
    <property name="meta.media.progressive">1</property>
    <property name="seekable">1</property>
    <property name="format">2</property>
    <property name="meta.media.width">1920</property>
    <property name="meta.media.height">1080</property>
    <property name="mlt_service">qimage</property>
    <property name="creation_time">2025-12-14T06:26:40</property>
    <property name="shotcut:skipConvert">1</property>
    <property name="shotcut:hash">6296e055dc1cdcc70f8dc84983a7645a</property>
    <property name="shotcut:caption">4junior-contemplation6.png</property>
    <property name="xml">was here</property>
  </producer>
  <chain id="chain3" out="00:00:09.833">
    <property name="length">00:00:09.875</property>
    <property name="eof">pause</property>
    <property name="resource">rendered animations/4junior-contemplation.mkv</property>
    <property name="mlt_service">avformat-novalidate</property>
    <property name="meta.media.nb_streams">1</property>
    <property name="meta.media.0.stream.type">video</property>
    <property name="meta.media.0.stream.frame_rate">24</property>
    <property name="meta.media.0.stream.sample_aspect_ratio">1</property>
    <property name="meta.media.0.codec.width">1920</property>
    <property name="meta.media.0.codec.height">1080</property>
    <property name="meta.media.0.codec.rotate">0</property>
    <property name="meta.media.0.codec.pix_fmt">yuv420p</property>
    <property name="meta.media.0.codec.sample_aspect_ratio">1</property>
    <property name="meta.media.0.codec.colorspace">709</property>
    <property name="meta.media.0.codec.name">h264</property>
    <property name="meta.media.0.codec.long_name">H.264 / AVC / MPEG-4 AVC / MPEG-4 part 10</property>
    <property name="meta.media.0.codec.bit_rate">0</property>
    <property name="meta.attr.0.stream.ENCODER.markup">Lavc58.134.100 libopenh264</property>
    <property name="meta.attr.0.stream.DURATION.markup">00:00:14.625000000</property>
    <property name="meta.attr.ENCODER.markup">Lavf58.76.100</property>
    <property name="seekable">1</property>
    <property name="meta.media.sample_aspect_num">1</property>
    <property name="meta.media.sample_aspect_den">1</property>
    <property name="audio_index">-1</property>
    <property name="video_index">0</property>
    <property name="creation_time">2025-12-14T06:25:24</property>
    <property name="vstream">0</property>
    <property name="meta.media.frame_rate_num">24</property>
    <property name="meta.media.frame_rate_den">1</property>
    <property name="meta.media.colorspace">709</property>
    <property name="meta.media.color_trc">2</property>
    <property name="meta.media.has_b_frames">0</property>
    <property name="meta.media.width">1920</property>
    <property name="meta.media.height">1080</property>
    <property name="meta.media.aspect_ratio">1</property>
    <property name="meta.media.color_range">mpeg</property>
    <property name="shotcut:skipConvert">1</property>
    <property name="shotcut:hash">8ef12587331efacc98213bd1da96be3a</property>
    <property name="meta.media.top_field_first">0</property>
    <property name="meta.media.progressive">1</property>
    <property name="shotcut:caption">4junior-contemplation.mkv</property>
    <property name="xml">was here</property>
  </chain>
  <producer id="producer43" in="00:00:00.000" out="03:59:59.958">
    <property name="length">04:00:00.000</property>
    <property name="eof">pause</property>
    <property name="resource">rendered animations/4junior-contemplation7.png</property>
    <property name="ttl">1</property>
    <property name="aspect_ratio">1</property>
    <property name="meta.media.progressive">1</property>
    <property name="seekable">1</property>
    <property name="format">2</property>
    <property name="meta.media.width">1920</property>
    <property name="meta.media.height">1080</property>
    <property name="mlt_service">qimage</property>
    <property name="creation_time">2025-12-14T06:28:38</property>
    <property name="shotcut:skipConvert">1</property>
    <property name="shotcut:hash">279c7110e7a3ac90d08a9e5edcd08221</property>
    <property name="shotcut:caption">4junior-contemplation7.png</property>
    <property name="xml">was here</property>
  </producer>
  <producer id="producer44" in="00:00:00.000" out="03:59:59.958">
    <property name="length">04:00:00.000</property>
    <property name="eof">pause</property>
    <property name="resource">rendered animations/4junior-contemplation8.png</property>
    <property name="ttl">1</property>
    <property name="aspect_ratio">1</property>
    <property name="meta.media.progressive">1</property>
    <property name="seekable">1</property>
    <property name="format">2</property>
    <property name="meta.media.width">1920</property>
    <property name="meta.media.height">1080</property>
    <property name="mlt_service">qimage</property>
    <property name="creation_time">2025-12-14T06:29:19</property>
    <property name="shotcut:skipConvert">1</property>
    <property name="shotcut:hash">67ccb59408ca00bfb70429e803f35117</property>
    <property name="shotcut:caption">4junior-contemplation8.png</property>
    <property name="xml">was here</property>
    <property name="meta.shotcut.vui">1</property>
    <filter id="filter3" out="00:00:07.333">
      <property name="background">color:#00000000</property>
      <property name="mlt_service">affine</property>
      <property name="shotcut:filter">affineSizePosition</property>
      <property name="transition.fix_rotate_x">0</property>
      <property name="transition.fill">1</property>
      <property name="transition.distort">0</property>
      <property name="transition.rect">00:00:00.000=-1591.24 -431.749 3505.92 1972.08 1;00:00:07.333=0 0.08 1920 1080 1</property>
      <property name="transition.valign">middle</property>
      <property name="transition.halign">center</property>
      <property name="shotcut:animIn">00:00:00.000</property>
      <property name="shotcut:animOut">00:00:00.000</property>
      <property name="transition.threads">0</property>
    </filter>
  </producer>
  <producer id="producer45" in="00:00:00.000" out="03:59:59.958">
    <property name="length">04:00:00.000</property>
    <property name="eof">pause</property>
    <property name="resource">rendered animations/4junior-contemplation9.png</property>
    <property name="ttl">1</property>
    <property name="aspect_ratio">1</property>
    <property name="meta.media.progressive">1</property>
    <property name="seekable">1</property>
    <property name="format">2</property>
    <property name="meta.media.width">1920</property>
    <property name="meta.media.height">1080</property>
    <property name="mlt_service">qimage</property>
    <property name="creation_time">2025-12-14T06:30:02</property>
    <property name="shotcut:skipConvert">1</property>
    <property name="shotcut:hash">87ed81ef483dfa1be5ff686b303b3922</property>
    <property name="shotcut:caption">4junior-contemplation9.png</property>
    <property name="xml">was here</property>
  </producer>
  <chain id="chain4" out="00:00:14.583">
    <property name="length">00:00:14.625</property>
    <property name="eof">pause</property>
    <property name="resource">rendered animations/4junior-contemplation.mkv</property>
    <property name="mlt_service">avformat-novalidate</property>
    <property name="meta.media.nb_streams">1</property>
    <property name="meta.media.0.stream.type">video</property>
    <property name="meta.media.0.stream.frame_rate">24</property>
    <property name="meta.media.0.stream.sample_aspect_ratio">1</property>
    <property name="meta.media.0.codec.width">1920</property>
    <property name="meta.media.0.codec.height">1080</property>
    <property name="meta.media.0.codec.rotate">0</property>
    <property name="meta.media.0.codec.pix_fmt">yuv420p</property>
    <property name="meta.media.0.codec.sample_aspect_ratio">1</property>
    <property name="meta.media.0.codec.colorspace">709</property>
    <property name="meta.media.0.codec.name">h264</property>
    <property name="meta.media.0.codec.long_name">H.264 / AVC / MPEG-4 AVC / MPEG-4 part 10</property>
    <property name="meta.media.0.codec.bit_rate">0</property>
    <property name="meta.attr.0.stream.ENCODER.markup">Lavc58.134.100 libopenh264</property>
    <property name="meta.attr.0.stream.DURATION.markup">00:00:14.625000000</property>
    <property name="meta.attr.ENCODER.markup">Lavf58.76.100</property>
    <property name="seekable">1</property>
    <property name="meta.media.sample_aspect_num">1</property>
    <property name="meta.media.sample_aspect_den">1</property>
    <property name="audio_index">-1</property>
    <property name="video_index">0</property>
    <property name="creation_time">2025-12-14T06:46:05</property>
    <property name="vstream">0</property>
    <property name="meta.media.frame_rate_num">24</property>
    <property name="meta.media.frame_rate_den">1</property>
    <property name="meta.media.colorspace">709</property>
    <property name="meta.media.color_trc">2</property>
    <property name="meta.media.has_b_frames">0</property>
    <property name="meta.media.width">1920</property>
    <property name="meta.media.height">1080</property>
    <property name="meta.media.aspect_ratio">1</property>
    <property name="meta.media.color_range">mpeg</property>
    <property name="shotcut:skipConvert">1</property>
    <property name="shotcut:hash">db0e688d346ce7cb1a0022d81bd4f215</property>
    <property name="meta.media.top_field_first">0</property>
    <property name="meta.media.progressive">1</property>
    <property name="shotcut:caption">4junior-contemplation.mkv</property>
    <property name="xml">was here</property>
  </chain>
  <producer id="producer46" in="00:00:00.000" out="03:59:59.958">
    <property name="length">04:00:00.000</property>
    <property name="eof">pause</property>
    <property name="resource">rendered animations/4junior-contemplation9.png</property>
    <property name="ttl">1</property>
    <property name="aspect_ratio">1</property>
    <property name="meta.media.progressive">1</property>
    <property name="seekable">1</property>
    <property name="format">2</property>
    <property name="meta.media.width">1920</property>
    <property name="meta.media.height">1080</property>
    <property name="mlt_service">qimage</property>
    <property name="creation_time">2025-12-14T06:30:02</property>
    <property name="shotcut:skipConvert">1</property>
    <property name="shotcut:hash">87ed81ef483dfa1be5ff686b303b3922</property>
    <property name="shotcut:caption">4junior-contemplation9.png</property>
    <property name="xml">was here</property>
    <filter id="filter4" out="00:00:00.750">
      <property name="start">1</property>
      <property name="level">00:00:00.292=1;00:00:00.750=0</property>
      <property name="mlt_service">brightness</property>
      <property name="shotcut:filter">fadeOutBrightness</property>
      <property name="alpha">1</property>
      <property name="shotcut:animOut">12</property>
    </filter>
    <filter id="filter5" out="00:00:00.750">
      <property name="window">75</property>
      <property name="max_gain">20dB</property>
      <property name="level">00:00:00.292=0;00:00:00.750=-60</property>
      <property name="mlt_service">volume</property>
      <property name="shotcut:filter">fadeOutVolume</property>
      <property name="shotcut:animOut">12</property>
    </filter>
  </producer>
  <producer id="producer47" in="00:00:00.000" out="03:59:59.958">
    <property name="length">04:00:00.000</property>
    <property name="eof">pause</property>
    <property name="resource">rendered animations/4.1junior-contemplation.png</property>
    <property name="ttl">1</property>
    <property name="aspect_ratio">1</property>
    <property name="meta.media.progressive">1</property>
    <property name="seekable">1</property>
    <property name="format">2</property>
    <property name="meta.media.width">1920</property>
    <property name="meta.media.height">1080</property>
    <property name="mlt_service">qimage</property>
    <property name="creation_time">2025-12-18T04:54:48</property>
    <property name="shotcut:skipConvert">1</property>
    <property name="shotcut:hash">5d7c20c3e558cf1de1f1d44edf96021b</property>
    <property name="shotcut:caption">4.1junior-contemplation.png</property>
    <property name="meta.shotcut.vui">1</property>
    <property name="xml">was here</property>
    <filter id="filter6" out="00:00:08.792">
      <property name="start">1</property>
      <property name="level">00:00:00.000=0;00:00:00.375=1</property>
      <property name="mlt_service">brightness</property>
      <property name="shotcut:filter">fadeInBrightness</property>
      <property name="alpha">1</property>
      <property name="shotcut:animIn">10</property>
      <property name="disable">1</property>
    </filter>
    <filter id="filter7" out="00:00:08.792">
      <property name="background">color:#00000000</property>
      <property name="mlt_service">affine</property>
      <property name="shotcut:filter">affineSizePosition</property>
      <property name="transition.fix_rotate_x">0</property>
      <property name="transition.fill">1</property>
      <property name="transition.distort">0</property>
      <property name="transition.rect">00:00:00.000=-4383 -2511.64 11136 6264 1;00:00:01.000=-1936.56 -1128.96 6179.22 3475.81 1;00:00:07.042=0 0 1920 1080 1;00:00:08.792=-4289.79 -2595.21 11136 6264 1</property>
      <property name="transition.valign">middle</property>
      <property name="transition.halign">center</property>
      <property name="shotcut:animIn">00:00:00.000</property>
      <property name="shotcut:animOut">00:00:00.000</property>
      <property name="transition.threads">0</property>
    </filter>
  </producer>
  <chain id="chain2" out="00:00:04.000">
    <property name="length">00:00:04.042</property>
    <property name="eof">pause</property>
    <property name="resource">rendered animations/5.0juniorNO.mkv</property>
    <property name="mlt_service">avformat</property>
    <property name="meta.media.nb_streams">1</property>
    <property name="meta.media.0.stream.type">video</property>
    <property name="meta.media.0.stream.frame_rate">24</property>
    <property name="meta.media.0.stream.sample_aspect_ratio">1</property>
    <property name="meta.media.0.codec.width">1920</property>
    <property name="meta.media.0.codec.height">1080</property>
    <property name="meta.media.0.codec.rotate">0</property>
    <property name="meta.media.0.codec.pix_fmt">yuv420p</property>
    <property name="meta.media.0.codec.sample_aspect_ratio">1</property>
    <property name="meta.media.0.codec.colorspace">709</property>
    <property name="meta.media.0.codec.name">h264</property>
    <property name="meta.media.0.codec.long_name">H.264 / AVC / MPEG-4 AVC / MPEG-4 part 10</property>
    <property name="meta.media.0.codec.bit_rate">0</property>
    <property name="meta.attr.0.stream.ENCODER.markup">Lavc58.134.100 libopenh264</property>
    <property name="meta.attr.0.stream.DURATION.markup">00:00:04.042000000</property>
    <property name="meta.attr.ENCODER.markup">Lavf58.76.100</property>
    <property name="seekable">1</property>
    <property name="meta.media.sample_aspect_num">1</property>
    <property name="meta.media.sample_aspect_den">1</property>
    <property name="audio_index">-1</property>
    <property name="video_index">0</property>
    <property name="vstream">0</property>
    <property name="meta.media.frame_rate_num">24</property>
    <property name="meta.media.frame_rate_den">1</property>
    <property name="meta.media.colorspace">709</property>
    <property name="meta.media.color_trc">2</property>
    <property name="meta.media.has_b_frames">0</property>
    <property name="meta.media.width">1920</property>
    <property name="meta.media.height">1080</property>
    <property name="meta.media.aspect_ratio">1</property>
    <property name="meta.media.color_range">mpeg</property>
    <property name="video_delay">0</property>
    <property name="shotcut:hash">bebf3d14467af5869207eea73cd8387c</property>
    <property name="shotcut:skipConvert">1</property>
    <property name="shotcut:caption">5.0juniorNO.mkv</property>
    <property name="shotcut:producer">avformat</property>
    <property name="xml">was here</property>
    <property name="meta.media.top_field_first">0</property>
    <property name="meta.media.progressive">1</property>
  </chain>
  <chain id="chain6" out="00:00:01.625">
    <property name="length">00:00:01.667</property>
    <property name="eof">pause</property>
    <property name="resource">rendered animations/5.1juniorNO.mkv</property>
    <property name="mlt_service">avformat-novalidate</property>
    <property name="meta.media.nb_streams">1</property>
    <property name="meta.media.0.stream.type">video</property>
    <property name="meta.media.0.stream.frame_rate">24</property>
    <property name="meta.media.0.stream.sample_aspect_ratio">1</property>
    <property name="meta.media.0.codec.width">1920</property>
    <property name="meta.media.0.codec.height">1080</property>
    <property name="meta.media.0.codec.rotate">0</property>
    <property name="meta.media.0.codec.pix_fmt">yuv420p</property>
    <property name="meta.media.0.codec.sample_aspect_ratio">1</property>
    <property name="meta.media.0.codec.colorspace">709</property>
    <property name="meta.media.0.codec.name">h264</property>
    <property name="meta.media.0.codec.long_name">H.264 / AVC / MPEG-4 AVC / MPEG-4 part 10</property>
    <property name="meta.media.0.codec.bit_rate">0</property>
    <property name="meta.attr.0.stream.ENCODER.markup">Lavc58.134.100 libopenh264</property>
    <property name="meta.attr.0.stream.DURATION.markup">00:00:01.667000000</property>
    <property name="meta.attr.ENCODER.markup">Lavf58.76.100</property>
    <property name="seekable">1</property>
    <property name="meta.media.sample_aspect_num">1</property>
    <property name="meta.media.sample_aspect_den">1</property>
    <property name="audio_index">-1</property>
    <property name="video_index">0</property>
    <property name="creation_time">2025-12-14T07:19:09</property>
    <property name="vstream">0</property>
    <property name="meta.media.frame_rate_num">24</property>
    <property name="meta.media.frame_rate_den">1</property>
    <property name="meta.media.colorspace">709</property>
    <property name="meta.media.color_trc">2</property>
    <property name="meta.media.has_b_frames">0</property>
    <property name="meta.media.width">1920</property>
    <property name="meta.media.height">1080</property>
    <property name="meta.media.aspect_ratio">1</property>
    <property name="meta.media.color_range">mpeg</property>
    <property name="shotcut:skipConvert">1</property>
    <property name="shotcut:hash">8a6ce75870ba063722e9b1a4de06ba76</property>
    <property name="meta.media.top_field_first">0</property>
    <property name="meta.media.progressive">1</property>
    <property name="shotcut:caption">5.1juniorNO.mkv</property>
    <property name="xml">was here</property>
  </chain>
  <producer id="producer48" in="00:00:00.000" out="03:59:59.958">
    <property name="length">04:00:00.000</property>
    <property name="eof">pause</property>
    <property name="resource">rendered animations/5.2juniorNO1.png</property>
    <property name="ttl">1</property>
    <property name="aspect_ratio">1</property>
    <property name="meta.media.progressive">1</property>
    <property name="seekable">1</property>
    <property name="format">2</property>
    <property name="meta.media.width">1920</property>
    <property name="meta.media.height">1080</property>
    <property name="mlt_service">qimage</property>
    <property name="creation_time">2025-12-14T07:20:58</property>
    <property name="shotcut:skipConvert">1</property>
    <property name="shotcut:hash">56a07f68d186561637522defb2b9c17b</property>
    <property name="shotcut:caption">5.2juniorNO1.png</property>
    <property name="xml">was here</property>
    <filter id="filter8" out="00:00:01.292">
      <property name="hradius">00:00:00.000=9.2;00:00:00.208=9.2;00:00:00.333=9.2;00:00:01.292=0</property>
      <property name="vradius">00:00:00.000=0;00:00:00.208=0;00:00:00.333=0;00:00:01.292=0</property>
      <property name="mlt_service">box_blur</property>
      <property name="shotcut:animIn">00:00:00.250</property>
      <property name="shotcut:animOut">00:00:01.000</property>
    </filter>
  </producer>
  <producer id="producer49" in="00:00:00.000" out="03:59:59.958">
    <property name="length">04:00:00.000</property>
    <property name="eof">pause</property>
    <property name="resource">rendered animations/5.2juniorNO2.png</property>
    <property name="ttl">1</property>
    <property name="aspect_ratio">1</property>
    <property name="meta.media.progressive">1</property>
    <property name="seekable">1</property>
    <property name="format">2</property>
    <property name="meta.media.width">1920</property>
    <property name="meta.media.height">1080</property>
    <property name="mlt_service">qimage</property>
    <property name="creation_time">2025-12-14T07:21:07</property>
    <property name="shotcut:skipConvert">1</property>
    <property name="shotcut:hash">8e5b88c5fc348e4ff04a076b456b40ee</property>
    <property name="shotcut:caption">5.2juniorNO2.png</property>
    <property name="xml">was here</property>
    <filter id="filter9" out="00:00:01.375">
      <property name="hradius">00:00:00.000=0;00:00:00.167=9.2;00:00:00.292=9.2;00:00:01.375=0</property>
      <property name="vradius">00:00:00.000=0;00:00:00.167=0;00:00:00.292=0;00:00:01.375=0</property>
      <property name="mlt_service">box_blur</property>
      <property name="shotcut:animIn">00:00:00.208</property>
      <property name="shotcut:animOut">00:00:01.125</property>
    </filter>
  </producer>
  <producer id="producer50" in="00:00:00.000" out="03:59:59.958">
    <property name="length">04:00:00.000</property>
    <property name="eof">pause</property>
    <property name="resource">rendered animations/5.2juniorNO3.png</property>
    <property name="ttl">1</property>
    <property name="aspect_ratio">1</property>
    <property name="meta.media.progressive">1</property>
    <property name="seekable">1</property>
    <property name="format">2</property>
    <property name="meta.media.width">1920</property>
    <property name="meta.media.height">1080</property>
    <property name="mlt_service">qimage</property>
    <property name="creation_time">2025-12-14T07:21:19</property>
    <property name="shotcut:skipConvert">1</property>
    <property name="shotcut:hash">12c70feb393031eaf0bc43d4de8d1c0b</property>
    <property name="shotcut:caption">5.2juniorNO3.png</property>
    <property name="xml">was here</property>
    <filter id="filter10" in="00:00:00.208" out="00:00:00.708">
      <property name="hradius">00:00:00.000=0;00:00:00.083=9.2;00:00:00.167=9.2;00:00:00.500=0</property>
      <property name="vradius">00:00:00.000=0;00:00:00.083=0;00:00:00.167=0;00:00:00.500=0</property>
      <property name="mlt_service">box_blur</property>
      <property name="shotcut:animIn">00:00:00.125</property>
      <property name="shotcut:animOut">00:00:00.375</property>
    </filter>
  </producer>
  <producer id="producer51" in="00:00:00.000" out="03:59:59.958">
    <property name="length">04:00:00.000</property>
    <property name="eof">pause</property>
    <property name="resource">rendered animations/5.2juniorNO4.png</property>
    <property name="ttl">1</property>
    <property name="aspect_ratio">1</property>
    <property name="meta.media.progressive">1</property>
    <property name="seekable">1</property>
    <property name="format">2</property>
    <property name="meta.media.width">1920</property>
    <property name="meta.media.height">1080</property>
    <property name="mlt_service">qimage</property>
    <property name="creation_time">2025-12-14T07:21:34</property>
    <property name="shotcut:skipConvert">1</property>
    <property name="shotcut:hash">982fd1689df0a51f00b3509b538b42e1</property>
    <property name="shotcut:caption">5.2juniorNO4.png</property>
    <property name="xml">was here</property>
    <filter id="filter11" in="00:00:00.500" out="00:00:00.958">
      <property name="hradius">00:00:00.000=0;00:00:00.208=18</property>
      <property name="vradius">00:00:00.000=0;00:00:00.208=0</property>
      <property name="mlt_service">box_blur</property>
      <property name="shotcut:animIn">00:00:00.250</property>
    </filter>
  </producer>
  <chain id="chain7" out="00:00:02.083">
    <property name="length">00:00:02.125</property>
    <property name="eof">pause</property>
    <property name="resource">rendered animations/5.3juniorNO.mkv</property>
    <property name="mlt_service">avformat-novalidate</property>
    <property name="meta.media.nb_streams">1</property>
    <property name="meta.media.0.stream.type">video</property>
    <property name="meta.media.0.stream.frame_rate">24</property>
    <property name="meta.media.0.stream.sample_aspect_ratio">1</property>
    <property name="meta.media.0.codec.width">1920</property>
    <property name="meta.media.0.codec.height">1080</property>
    <property name="meta.media.0.codec.rotate">0</property>
    <property name="meta.media.0.codec.pix_fmt">yuv420p</property>
    <property name="meta.media.0.codec.sample_aspect_ratio">1</property>
    <property name="meta.media.0.codec.colorspace">709</property>
    <property name="meta.media.0.codec.name">h264</property>
    <property name="meta.media.0.codec.long_name">H.264 / AVC / MPEG-4 AVC / MPEG-4 part 10</property>
    <property name="meta.media.0.codec.bit_rate">0</property>
    <property name="meta.attr.0.stream.ENCODER.markup">Lavc58.134.100 libopenh264</property>
    <property name="meta.attr.0.stream.DURATION.markup">00:00:02.125000000</property>
    <property name="meta.attr.ENCODER.markup">Lavf58.76.100</property>
    <property name="seekable">1</property>
    <property name="meta.media.sample_aspect_num">1</property>
    <property name="meta.media.sample_aspect_den">1</property>
    <property name="audio_index">-1</property>
    <property name="video_index">0</property>
    <property name="creation_time">2025-12-14T07:28:42</property>
    <property name="vstream">0</property>
    <property name="meta.media.frame_rate_num">24</property>
    <property name="meta.media.frame_rate_den">1</property>
    <property name="meta.media.colorspace">709</property>
    <property name="meta.media.color_trc">2</property>
    <property name="meta.media.has_b_frames">0</property>
    <property name="meta.media.width">1920</property>
    <property name="meta.media.height">1080</property>
    <property name="meta.media.aspect_ratio">1</property>
    <property name="meta.media.color_range">mpeg</property>
    <property name="shotcut:skipConvert">1</property>
    <property name="shotcut:hash">bdd6003afd8d39f08dd9606cb34997fe</property>
    <property name="meta.media.top_field_first">0</property>
    <property name="meta.media.progressive">1</property>
    <property name="shotcut:caption">5.3juniorNO.mkv</property>
    <property name="xml">was here</property>
    <filter id="filter12" out="00:00:01.667">
      <property name="version">0.1</property>
      <property name="mlt_service">frei0r.glitch0r</property>
      <property name="0">0.119</property>
      <property name="1">0.154</property>
      <property name="2">0.098</property>
      <property name="3">0.077</property>
    </filter>
  </chain>
  <producer id="producer52" in="00:00:00.000" out="00:00:20.875">
    <property name="length">00:00:20.917</property>
    <property name="eof">pause</property>
    <property name="resource">0.5:rendered animations/6initialfight.mkv</property>
    <property name="aspect_ratio">1</property>
    <property name="meta.media.nb_streams">1</property>
    <property name="meta.media.0.stream.type">video</property>
    <property name="meta.media.0.stream.frame_rate">24</property>
    <property name="meta.media.0.stream.sample_aspect_ratio">1</property>
    <property name="meta.media.0.codec.width">1920</property>
    <property name="meta.media.0.codec.height">1080</property>
    <property name="meta.media.0.codec.rotate">0</property>
    <property name="meta.media.0.codec.pix_fmt">yuv420p</property>
    <property name="meta.media.0.codec.sample_aspect_ratio">1</property>
    <property name="meta.media.0.codec.colorspace">709</property>
    <property name="meta.media.0.codec.name">h264</property>
    <property name="meta.media.0.codec.long_name">H.264 / AVC / MPEG-4 AVC / MPEG-4 part 10</property>
    <property name="meta.media.0.codec.bit_rate">0</property>
    <property name="meta.attr.0.stream.ENCODER.markup">Lavc58.134.100 libopenh264</property>
    <property name="meta.attr.0.stream.DURATION.markup">00:00:16.709000000</property>
    <property name="meta.attr.ENCODER.markup">Lavf58.76.100</property>
    <property name="seekable">1</property>
    <property name="meta.media.sample_aspect_num">1</property>
    <property name="meta.media.sample_aspect_den">1</property>
    <property name="audio_index">-1</property>
    <property name="video_index">0</property>
    <property name="warp_speed">0.5</property>
    <property name="warp_resource">rendered animations/6initialfight.mkv</property>
    <property name="mlt_service">timewarp</property>
    <property name="shotcut:producer">avformat</property>
    <property name="video_delay">0</property>
    <property name="vstream">0</property>
    <property name="shotcut:hash">7176a22feb34ac1b6eb299e0a1dd878d</property>
    <property name="shotcut:skipConvert">1</property>
    <property name="shotcut:caption">6initialfight.mkv (0.5x)</property>
    <property name="xml">was here</property>
    <property name="meta.media.frame_rate_num">24</property>
    <property name="meta.media.frame_rate_den">1</property>
    <property name="meta.media.colorspace">709</property>
    <property name="meta.media.color_trc">2</property>
    <property name="meta.media.has_b_frames">0</property>
    <property name="meta.media.width">1920</property>
    <property name="meta.media.height">1080</property>
    <property name="meta.media.aspect_ratio">1</property>
    <property name="meta.media.color_range">mpeg</property>
    <property name="meta.media.top_field_first">0</property>
    <property name="meta.media.progressive">1</property>
    <property name="meta.shotcut.vui">1</property>
    <filter id="filter13" out="00:00:01.292">
      <property name="background">color:#00000000</property>
      <property name="mlt_service">affine</property>
      <property name="shotcut:filter">affineSizePosition</property>
      <property name="transition.fix_rotate_x">0</property>
      <property name="transition.fill">1</property>
      <property name="transition.distort">0</property>
      <property name="transition.rect">00:00:00.000=-2233.92 -1256.5 6387.84 3593 1;00:00:00.292=0 0 1920 1080 1</property>
      <property name="transition.valign">middle</property>
      <property name="transition.halign">center</property>
      <property name="shotcut:animIn">00:00:00.000</property>
      <property name="shotcut:animOut">00:00:00.000</property>
      <property name="transition.threads">0</property>
    </filter>
  </producer>
  <producer id="producer53" in="00:00:00.000" out="00:00:12.292">
    <property name="length">00:00:12.333</property>
    <property name="eof">pause</property>
    <property name="resource">0.85:rendered animations/6initialfight.mkv</property>
    <property name="aspect_ratio">1</property>
    <property name="meta.media.nb_streams">1</property>
    <property name="meta.media.0.stream.type">video</property>
    <property name="meta.media.0.stream.frame_rate">24</property>
    <property name="meta.media.0.stream.sample_aspect_ratio">1</property>
    <property name="meta.media.0.codec.width">1920</property>
    <property name="meta.media.0.codec.height">1080</property>
    <property name="meta.media.0.codec.rotate">0</property>
    <property name="meta.media.0.codec.pix_fmt">yuv420p</property>
    <property name="meta.media.0.codec.sample_aspect_ratio">1</property>
    <property name="meta.media.0.codec.colorspace">709</property>
    <property name="meta.media.0.codec.name">h264</property>
    <property name="meta.media.0.codec.long_name">H.264 / AVC / MPEG-4 AVC / MPEG-4 part 10</property>
    <property name="meta.media.0.codec.bit_rate">0</property>
    <property name="meta.attr.0.stream.ENCODER.markup">Lavc58.134.100 libopenh264</property>
    <property name="meta.attr.0.stream.DURATION.markup">00:00:16.709000000</property>
    <property name="meta.attr.ENCODER.markup">Lavf58.76.100</property>
    <property name="seekable">1</property>
    <property name="meta.media.sample_aspect_num">1</property>
    <property name="meta.media.sample_aspect_den">1</property>
    <property name="audio_index">-1</property>
    <property name="video_index">0</property>
    <property name="warp_speed">0.85</property>
    <property name="warp_resource">rendered animations/6initialfight.mkv</property>
    <property name="mlt_service">timewarp</property>
    <property name="shotcut:producer">avformat</property>
    <property name="video_delay">0</property>
    <property name="vstream">0</property>
    <property name="shotcut:hash">7176a22feb34ac1b6eb299e0a1dd878d</property>
    <property name="shotcut:skipConvert">1</property>
    <property name="shotcut:caption">6initialfight.mkv (0.85x)</property>
    <property name="xml">was here</property>
    <property name="meta.media.frame_rate_num">24</property>
    <property name="meta.media.frame_rate_den">1</property>
    <property name="meta.media.colorspace">709</property>
    <property name="meta.media.color_trc">2</property>
    <property name="meta.media.has_b_frames">0</property>
    <property name="meta.media.width">1920</property>
    <property name="meta.media.height">1080</property>
    <property name="meta.media.aspect_ratio">1</property>
    <property name="meta.media.color_range">mpeg</property>
    <property name="meta.media.top_field_first">0</property>
    <property name="meta.media.progressive">1</property>
    <property name="meta.shotcut.vui">1</property>
    <filter id="filter14" in="00:00:01.167" out="00:00:02.667">
      <property name="background">color:#00000000</property>
      <property name="mlt_service">affine</property>
      <property name="shotcut:filter">affineSizePosition</property>
      <property name="transition.fix_rotate_x">0</property>
      <property name="transition.fill">1</property>
      <property name="transition.distort">0</property>
      <property name="transition.rect">00:00:00.042=-10.7038 -55.6725 2112 1188 1;00:00:01.500=-191.331 -55.6725 2112 1188 1</property>
      <property name="transition.valign">middle</property>
      <property name="transition.halign">center</property>
      <property name="shotcut:animIn">00:00:00.000</property>
      <property name="shotcut:animOut">00:00:00.000</property>
      <property name="transition.threads">0</property>
    </filter>
  </producer>
  <chain id="chain5" out="00:00:11.333">
    <property name="length">00:00:11.375</property>
    <property name="eof">pause</property>
    <property name="resource">rendered animations/6initialfight2.mkv</property>
    <property name="mlt_service">avformat-novalidate</property>
    <property name="meta.media.nb_streams">1</property>
    <property name="meta.media.0.stream.type">video</property>
    <property name="meta.media.0.stream.frame_rate">24</property>
    <property name="meta.media.0.stream.sample_aspect_ratio">1</property>
    <property name="meta.media.0.codec.width">1920</property>
    <property name="meta.media.0.codec.height">1080</property>
    <property name="meta.media.0.codec.rotate">0</property>
    <property name="meta.media.0.codec.pix_fmt">yuv420p</property>
    <property name="meta.media.0.codec.sample_aspect_ratio">1</property>
    <property name="meta.media.0.codec.colorspace">709</property>
    <property name="meta.media.0.codec.name">h264</property>
    <property name="meta.media.0.codec.long_name">H.264 / AVC / MPEG-4 AVC / MPEG-4 part 10</property>
    <property name="meta.media.0.codec.bit_rate">0</property>
    <property name="meta.attr.0.stream.ENCODER.markup">Lavc58.134.100 libopenh264</property>
    <property name="meta.attr.0.stream.DURATION.markup">00:00:16.709000000</property>
    <property name="meta.attr.ENCODER.markup">Lavf58.76.100</property>
    <property name="seekable">1</property>
    <property name="meta.media.sample_aspect_num">1</property>
    <property name="meta.media.sample_aspect_den">1</property>
    <property name="audio_index">-1</property>
    <property name="video_index">0</property>
    <property name="creation_time">2025-12-14T23:49:52</property>
    <property name="vstream">0</property>
    <property name="meta.media.frame_rate_num">24</property>
    <property name="meta.media.frame_rate_den">1</property>
    <property name="meta.media.colorspace">709</property>
    <property name="meta.media.color_trc">2</property>
    <property name="meta.media.has_b_frames">0</property>
    <property name="meta.media.width">1920</property>
    <property name="meta.media.height">1080</property>
    <property name="meta.media.aspect_ratio">1</property>
    <property name="meta.media.color_range">mpeg</property>
    <property name="shotcut:skipConvert">1</property>
    <property name="shotcut:hash">0f4c8b5a5ce38b04d9ba51b82f7440d0</property>
    <property name="meta.media.top_field_first">0</property>
    <property name="meta.media.progressive">1</property>
    <property name="shotcut:caption">6initialfight2.mkv</property>
    <property name="xml">was here</property>
    <property name="meta.shotcut.vui">1</property>
    <filter id="filter15" in="00:00:06.333" out="00:00:08.958">
      <property name="background">color:#00000000</property>
      <property name="mlt_service">affine</property>
      <property name="shotcut:filter">affineSizePosition</property>
      <property name="transition.fix_rotate_x">0</property>
      <property name="transition.fill">1</property>
      <property name="transition.distort">0</property>
      <property name="transition.rect">00:00:00.000=-96 -54 2112 1188 1;00:00:01.000=0 0 1920 1080 1;00:00:02.292=-96 -54 2112 1188 1;00:00:02.542=0 0 1920 1080 1</property>
      <property name="transition.valign">middle</property>
      <property name="transition.halign">center</property>
      <property name="shotcut:animIn">00:00:00.000</property>
      <property name="shotcut:animOut">00:00:00.000</property>
      <property name="transition.threads">0</property>
    </filter>
  </chain>
  <producer id="producer54" in="00:00:00.000" out="00:00:12.292">
    <property name="length">00:00:12.333</property>
    <property name="eof">pause</property>
    <property name="resource">0.85:rendered animations/6initialfight.mkv</property>
    <property name="aspect_ratio">1</property>
    <property name="meta.media.nb_streams">1</property>
    <property name="meta.media.0.stream.type">video</property>
    <property name="meta.media.0.stream.frame_rate">24</property>
    <property name="meta.media.0.stream.sample_aspect_ratio">1</property>
    <property name="meta.media.0.codec.width">1920</property>
    <property name="meta.media.0.codec.height">1080</property>
    <property name="meta.media.0.codec.rotate">0</property>
    <property name="meta.media.0.codec.pix_fmt">yuv420p</property>
    <property name="meta.media.0.codec.sample_aspect_ratio">1</property>
    <property name="meta.media.0.codec.colorspace">709</property>
    <property name="meta.media.0.codec.name">h264</property>
    <property name="meta.media.0.codec.long_name">H.264 / AVC / MPEG-4 AVC / MPEG-4 part 10</property>
    <property name="meta.media.0.codec.bit_rate">0</property>
    <property name="meta.attr.0.stream.ENCODER.markup">Lavc58.134.100 libopenh264</property>
    <property name="meta.attr.0.stream.DURATION.markup">00:00:16.709000000</property>
    <property name="meta.attr.ENCODER.markup">Lavf58.76.100</property>
    <property name="seekable">1</property>
    <property name="meta.media.sample_aspect_num">1</property>
    <property name="meta.media.sample_aspect_den">1</property>
    <property name="audio_index">-1</property>
    <property name="video_index">0</property>
    <property name="warp_speed">0.85</property>
    <property name="warp_resource">rendered animations/6initialfight.mkv</property>
    <property name="mlt_service">timewarp</property>
    <property name="shotcut:producer">avformat</property>
    <property name="video_delay">0</property>
    <property name="vstream">0</property>
    <property name="shotcut:hash">7176a22feb34ac1b6eb299e0a1dd878d</property>
    <property name="shotcut:skipConvert">1</property>
    <property name="shotcut:caption">6initialfight.mkv (0.85x)</property>
    <property name="xml">was here</property>
    <property name="meta.media.frame_rate_num">24</property>
    <property name="meta.media.frame_rate_den">1</property>
    <property name="meta.media.colorspace">709</property>
    <property name="meta.media.color_trc">2</property>
    <property name="meta.media.has_b_frames">0</property>
    <property name="meta.media.width">1920</property>
    <property name="meta.media.height">1080</property>
    <property name="meta.media.aspect_ratio">1</property>
    <property name="meta.media.color_range">mpeg</property>
    <property name="meta.media.top_field_first">0</property>
    <property name="meta.media.progressive">1</property>
    <property name="meta.shotcut.vui">1</property>
    <filter id="filter16" in="00:00:02.750" out="00:00:04.250">
      <property name="background">color:#00000000</property>
      <property name="mlt_service">affine</property>
      <property name="shotcut:filter">affineSizePosition</property>
      <property name="transition.fix_rotate_x">0</property>
      <property name="transition.fill">1</property>
      <property name="transition.distort">0</property>
      <property name="transition.rect">00:00:00.000=-196.348 -55.6725 2112 1188 1;00:00:01.500=-4.01394 -59.0174 2112 1188 1</property>
      <property name="transition.valign">middle</property>
      <property name="transition.halign">center</property>
      <property name="shotcut:animIn">00:00:00.000</property>
      <property name="shotcut:animOut">00:00:00.000</property>
      <property name="transition.threads">0</property>
    </filter>
  </producer>
  <chain id="chain8" out="00:00:16.667">
    <property name="length">00:00:16.708</property>
    <property name="eof">pause</property>
    <property name="resource">rendered animations/6initialfight2.mkv</property>
    <property name="mlt_service">avformat-novalidate</property>
    <property name="meta.media.nb_streams">1</property>
    <property name="meta.media.0.stream.type">video</property>
    <property name="meta.media.0.stream.frame_rate">24</property>
    <property name="meta.media.0.stream.sample_aspect_ratio">1</property>
    <property name="meta.media.0.codec.width">1920</property>
    <property name="meta.media.0.codec.height">1080</property>
    <property name="meta.media.0.codec.rotate">0</property>
    <property name="meta.media.0.codec.pix_fmt">yuv420p</property>
    <property name="meta.media.0.codec.sample_aspect_ratio">1</property>
    <property name="meta.media.0.codec.colorspace">709</property>
    <property name="meta.media.0.codec.name">h264</property>
    <property name="meta.media.0.codec.long_name">H.264 / AVC / MPEG-4 AVC / MPEG-4 part 10</property>
    <property name="meta.media.0.codec.bit_rate">0</property>
    <property name="meta.attr.0.stream.ENCODER.markup">Lavc58.134.100 libopenh264</property>
    <property name="meta.attr.0.stream.DURATION.markup">00:00:16.709000000</property>
    <property name="meta.attr.ENCODER.markup">Lavf58.76.100</property>
    <property name="seekable">1</property>
    <property name="meta.media.sample_aspect_num">1</property>
    <property name="meta.media.sample_aspect_den">1</property>
    <property name="audio_index">-1</property>
    <property name="video_index">0</property>
    <property name="creation_time">2025-12-15T01:29:24</property>
    <property name="vstream">0</property>
    <property name="meta.media.frame_rate_num">24</property>
    <property name="meta.media.frame_rate_den">1</property>
    <property name="meta.media.colorspace">709</property>
    <property name="meta.media.color_trc">2</property>
    <property name="meta.media.has_b_frames">0</property>
    <property name="meta.media.width">1920</property>
    <property name="meta.media.height">1080</property>
    <property name="meta.media.aspect_ratio">1</property>
    <property name="meta.media.color_range">mpeg</property>
    <property name="shotcut:skipConvert">1</property>
    <property name="shotcut:hash">3ae370a194d6ab28ebe056961e9af331</property>
    <property name="meta.media.top_field_first">0</property>
    <property name="meta.media.progressive">1</property>
    <property name="shotcut:caption">6initialfight2.mkv</property>
    <property name="xml">was here</property>
  </chain>
  <chain id="chain9" out="00:00:16.667">
    <property name="length">00:00:16.708</property>
    <property name="eof">pause</property>
    <property name="resource">rendered animations/6initialfight2.mkv</property>
    <property name="mlt_service">avformat-novalidate</property>
    <property name="meta.media.nb_streams">1</property>
    <property name="meta.media.0.stream.type">video</property>
    <property name="meta.media.0.stream.frame_rate">24</property>
    <property name="meta.media.0.stream.sample_aspect_ratio">1</property>
    <property name="meta.media.0.codec.width">1920</property>
    <property name="meta.media.0.codec.height">1080</property>
    <property name="meta.media.0.codec.rotate">0</property>
    <property name="meta.media.0.codec.pix_fmt">yuv420p</property>
    <property name="meta.media.0.codec.sample_aspect_ratio">1</property>
    <property name="meta.media.0.codec.colorspace">709</property>
    <property name="meta.media.0.codec.name">h264</property>
    <property name="meta.media.0.codec.long_name">H.264 / AVC / MPEG-4 AVC / MPEG-4 part 10</property>
    <property name="meta.media.0.codec.bit_rate">0</property>
    <property name="meta.attr.0.stream.ENCODER.markup">Lavc58.134.100 libopenh264</property>
    <property name="meta.attr.0.stream.DURATION.markup">00:00:16.709000000</property>
    <property name="meta.attr.ENCODER.markup">Lavf58.76.100</property>
    <property name="seekable">1</property>
    <property name="meta.media.sample_aspect_num">1</property>
    <property name="meta.media.sample_aspect_den">1</property>
    <property name="audio_index">-1</property>
    <property name="video_index">0</property>
    <property name="creation_time">2025-12-15T01:29:24</property>
    <property name="vstream">0</property>
    <property name="meta.media.frame_rate_num">24</property>
    <property name="meta.media.frame_rate_den">1</property>
    <property name="meta.media.colorspace">709</property>
    <property name="meta.media.color_trc">2</property>
    <property name="meta.media.has_b_frames">0</property>
    <property name="meta.media.width">1920</property>
    <property name="meta.media.height">1080</property>
    <property name="meta.media.aspect_ratio">1</property>
    <property name="meta.media.color_range">mpeg</property>
    <property name="shotcut:skipConvert">1</property>
    <property name="shotcut:hash">3ae370a194d6ab28ebe056961e9af331</property>
    <property name="meta.media.top_field_first">0</property>
    <property name="meta.media.progressive">1</property>
    <property name="shotcut:caption">6initialfight2.mkv</property>
    <property name="xml">was here</property>
  </chain>
  <chain id="chain10" out="00:00:16.667">
    <property name="length">00:00:16.708</property>
    <property name="eof">pause</property>
    <property name="resource">rendered animations/6initialfight2.mkv</property>
    <property name="mlt_service">avformat-novalidate</property>
    <property name="meta.media.nb_streams">1</property>
    <property name="meta.media.0.stream.type">video</property>
    <property name="meta.media.0.stream.frame_rate">24</property>
    <property name="meta.media.0.stream.sample_aspect_ratio">1</property>
    <property name="meta.media.0.codec.width">1920</property>
    <property name="meta.media.0.codec.height">1080</property>
    <property name="meta.media.0.codec.rotate">0</property>
    <property name="meta.media.0.codec.pix_fmt">yuv420p</property>
    <property name="meta.media.0.codec.sample_aspect_ratio">1</property>
    <property name="meta.media.0.codec.colorspace">709</property>
    <property name="meta.media.0.codec.name">h264</property>
    <property name="meta.media.0.codec.long_name">H.264 / AVC / MPEG-4 AVC / MPEG-4 part 10</property>
    <property name="meta.media.0.codec.bit_rate">0</property>
    <property name="meta.attr.0.stream.ENCODER.markup">Lavc58.134.100 libopenh264</property>
    <property name="meta.attr.0.stream.DURATION.markup">00:00:16.709000000</property>
    <property name="meta.attr.ENCODER.markup">Lavf58.76.100</property>
    <property name="seekable">1</property>
    <property name="meta.media.sample_aspect_num">1</property>
    <property name="meta.media.sample_aspect_den">1</property>
    <property name="audio_index">-1</property>
    <property name="video_index">0</property>
    <property name="creation_time">2025-12-15T01:29:24</property>
    <property name="vstream">0</property>
    <property name="meta.media.frame_rate_num">24</property>
    <property name="meta.media.frame_rate_den">1</property>
    <property name="meta.media.colorspace">709</property>
    <property name="meta.media.color_trc">2</property>
    <property name="meta.media.has_b_frames">0</property>
    <property name="meta.media.width">1920</property>
    <property name="meta.media.height">1080</property>
    <property name="meta.media.aspect_ratio">1</property>
    <property name="meta.media.color_range">mpeg</property>
    <property name="shotcut:skipConvert">1</property>
    <property name="shotcut:hash">3ae370a194d6ab28ebe056961e9af331</property>
    <property name="meta.media.top_field_first">0</property>
    <property name="meta.media.progressive">1</property>
    <property name="shotcut:caption">6initialfight2.mkv</property>
    <property name="xml">was here</property>
  </chain>
  <producer id="producer55" in="00:00:00.000" out="00:00:12.292">
    <property name="length">00:00:12.333</property>
    <property name="eof">pause</property>
    <property name="resource">0.85:rendered animations/6initialfight.mkv</property>
    <property name="aspect_ratio">1</property>
    <property name="meta.media.nb_streams">1</property>
    <property name="meta.media.0.stream.type">video</property>
    <property name="meta.media.0.stream.frame_rate">24</property>
    <property name="meta.media.0.stream.sample_aspect_ratio">1</property>
    <property name="meta.media.0.codec.width">1920</property>
    <property name="meta.media.0.codec.height">1080</property>
    <property name="meta.media.0.codec.rotate">0</property>
    <property name="meta.media.0.codec.pix_fmt">yuv420p</property>
    <property name="meta.media.0.codec.sample_aspect_ratio">1</property>
    <property name="meta.media.0.codec.colorspace">709</property>
    <property name="meta.media.0.codec.name">h264</property>
    <property name="meta.media.0.codec.long_name">H.264 / AVC / MPEG-4 AVC / MPEG-4 part 10</property>
    <property name="meta.media.0.codec.bit_rate">0</property>
    <property name="meta.attr.0.stream.ENCODER.markup">Lavc58.134.100 libopenh264</property>
    <property name="meta.attr.0.stream.DURATION.markup">00:00:16.709000000</property>
    <property name="meta.attr.ENCODER.markup">Lavf58.76.100</property>
    <property name="seekable">1</property>
    <property name="meta.media.sample_aspect_num">1</property>
    <property name="meta.media.sample_aspect_den">1</property>
    <property name="audio_index">-1</property>
    <property name="video_index">0</property>
    <property name="warp_speed">0.85</property>
    <property name="warp_resource">rendered animations/6initialfight.mkv</property>
    <property name="mlt_service">timewarp</property>
    <property name="shotcut:producer">avformat</property>
    <property name="video_delay">0</property>
    <property name="vstream">0</property>
    <property name="shotcut:hash">7176a22feb34ac1b6eb299e0a1dd878d</property>
    <property name="shotcut:skipConvert">1</property>
    <property name="shotcut:caption">6initialfight.mkv (0.85x)</property>
    <property name="xml">was here</property>
    <property name="meta.media.frame_rate_num">24</property>
    <property name="meta.media.frame_rate_den">1</property>
    <property name="meta.media.colorspace">709</property>
    <property name="meta.media.color_trc">2</property>
    <property name="meta.media.has_b_frames">0</property>
    <property name="meta.media.width">1920</property>
    <property name="meta.media.height">1080</property>
    <property name="meta.media.aspect_ratio">1</property>
    <property name="meta.media.color_range">mpeg</property>
    <property name="meta.media.top_field_first">0</property>
    <property name="meta.media.progressive">1</property>
    <property name="meta.shotcut.vui">1</property>
    <filter id="filter17" in="00:00:04.292" out="00:00:07.417">
      <property name="background">color:#00000000</property>
      <property name="mlt_service">affine</property>
      <property name="shotcut:filter">affineSizePosition</property>
      <property name="transition.fix_rotate_x">0</property>
      <property name="transition.fill">1</property>
      <property name="transition.distort">0</property>
      <property name="transition.rect">00:00:00.000=-187.986 -47.3101 2112 1188 1;00:00:01.417=-9.03136 -45.6376 2112 1188 1;00:00:03.125=-186.314 -50.6551 2112 1188 1</property>
      <property name="transition.valign">middle</property>
      <property name="transition.halign">center</property>
      <property name="shotcut:animIn">00:00:00.000</property>
      <property name="shotcut:animOut">00:00:00.000</property>
      <property name="transition.threads">0</property>
    </filter>
  </producer>
  <chain id="chain1" out="00:00:16.667">
    <property name="length">00:00:16.708</property>
    <property name="eof">pause</property>
    <property name="resource">rendered animations/6initialfight.mkv</property>
    <property name="mlt_service">avformat-novalidate</property>
    <property name="meta.media.nb_streams">1</property>
    <property name="meta.media.0.stream.type">video</property>
    <property name="meta.media.0.stream.frame_rate">24</property>
    <property name="meta.media.0.stream.sample_aspect_ratio">1</property>
    <property name="meta.media.0.codec.width">1920</property>
    <property name="meta.media.0.codec.height">1080</property>
    <property name="meta.media.0.codec.rotate">0</property>
    <property name="meta.media.0.codec.pix_fmt">yuv420p</property>
    <property name="meta.media.0.codec.sample_aspect_ratio">1</property>
    <property name="meta.media.0.codec.colorspace">709</property>
    <property name="meta.media.0.codec.name">h264</property>
    <property name="meta.media.0.codec.long_name">H.264 / AVC / MPEG-4 AVC / MPEG-4 part 10</property>
    <property name="meta.media.0.codec.bit_rate">0</property>
    <property name="meta.attr.0.stream.ENCODER.markup">Lavc58.134.100 libopenh264</property>
    <property name="meta.attr.0.stream.DURATION.markup">00:00:16.709000000</property>
    <property name="meta.attr.ENCODER.markup">Lavf58.76.100</property>
    <property name="seekable">1</property>
    <property name="meta.media.sample_aspect_num">1</property>
    <property name="meta.media.sample_aspect_den">1</property>
    <property name="audio_index">-1</property>
    <property name="video_index">0</property>
    <property name="creation_time">2025-12-19T06:29:08</property>
    <property name="vstream">0</property>
    <property name="meta.media.frame_rate_num">24</property>
    <property name="meta.media.frame_rate_den">1</property>
    <property name="meta.media.colorspace">709</property>
    <property name="meta.media.color_trc">2</property>
    <property name="meta.media.has_b_frames">0</property>
    <property name="meta.media.width">1920</property>
    <property name="meta.media.height">1080</property>
    <property name="meta.media.aspect_ratio">1</property>
    <property name="meta.media.color_range">mpeg</property>
    <property name="shotcut:skipConvert">1</property>
    <property name="shotcut:hash">9381e97f1a647417209988a0f9f7bdab</property>
    <property name="meta.media.top_field_first">0</property>
    <property name="meta.media.progressive">1</property>
    <property name="shotcut:caption">6initialfight.mkv</property>
    <property name="xml">was here</property>
  </chain>
  <chain id="chain11" out="00:00:16.667">
    <property name="length">00:00:16.708</property>
    <property name="eof">pause</property>
    <property name="resource">rendered animations/6initialfight.mkv</property>
    <property name="mlt_service">avformat-novalidate</property>
    <property name="meta.media.nb_streams">1</property>
    <property name="meta.media.0.stream.type">video</property>
    <property name="meta.media.0.stream.frame_rate">24</property>
    <property name="meta.media.0.stream.sample_aspect_ratio">1</property>
    <property name="meta.media.0.codec.width">1920</property>
    <property name="meta.media.0.codec.height">1080</property>
    <property name="meta.media.0.codec.rotate">0</property>
    <property name="meta.media.0.codec.pix_fmt">yuv420p</property>
    <property name="meta.media.0.codec.sample_aspect_ratio">1</property>
    <property name="meta.media.0.codec.colorspace">709</property>
    <property name="meta.media.0.codec.name">h264</property>
    <property name="meta.media.0.codec.long_name">H.264 / AVC / MPEG-4 AVC / MPEG-4 part 10</property>
    <property name="meta.media.0.codec.bit_rate">0</property>
    <property name="meta.attr.0.stream.ENCODER.markup">Lavc58.134.100 libopenh264</property>
    <property name="meta.attr.0.stream.DURATION.markup">00:00:16.709000000</property>
    <property name="meta.attr.ENCODER.markup">Lavf58.76.100</property>
    <property name="seekable">1</property>
    <property name="meta.media.sample_aspect_num">1</property>
    <property name="meta.media.sample_aspect_den">1</property>
    <property name="audio_index">-1</property>
    <property name="video_index">0</property>
    <property name="creation_time">2025-12-19T06:29:08</property>
    <property name="vstream">0</property>
    <property name="meta.media.frame_rate_num">24</property>
    <property name="meta.media.frame_rate_den">1</property>
    <property name="meta.media.colorspace">709</property>
    <property name="meta.media.color_trc">2</property>
    <property name="meta.media.has_b_frames">0</property>
    <property name="meta.media.width">1920</property>
    <property name="meta.media.height">1080</property>
    <property name="meta.media.aspect_ratio">1</property>
    <property name="meta.media.color_range">mpeg</property>
    <property name="shotcut:skipConvert">1</property>
    <property name="shotcut:hash">9381e97f1a647417209988a0f9f7bdab</property>
    <property name="meta.media.top_field_first">0</property>
    <property name="meta.media.progressive">1</property>
    <property name="shotcut:caption">6initialfight.mkv</property>
    <property name="xml">was here</property>
    <property name="meta.shotcut.vui">1</property>
    <filter id="filter18" in="00:00:14.833" out="00:00:15.958">
      <property name="background">color:#00000000</property>
      <property name="mlt_service">affine</property>
      <property name="shotcut:filter">affineSizePosition</property>
      <property name="transition.fix_rotate_x">0</property>
      <property name="transition.fill">1</property>
      <property name="transition.distort">0</property>
      <property name="transition.rect">00:00:00.000=-96 -54 2112 1188 1;00:00:01.125=0 0 1920 1080 1</property>
      <property name="transition.valign">middle</property>
      <property name="transition.halign">center</property>
      <property name="shotcut:animIn">00:00:00.000</property>
      <property name="shotcut:animOut">00:00:00.000</property>
      <property name="transition.threads">0</property>
    </filter>
  </chain>
  <chain id="chain12" out="00:00:04.958">
    <property name="length">00:00:05.000</property>
    <property name="eof">pause</property>
    <property name="resource">rendered animations/7catchingup.mkv</property>
    <property name="mlt_service">avformat-novalidate</property>
    <property name="meta.media.nb_streams">1</property>
    <property name="meta.media.0.stream.type">video</property>
    <property name="meta.media.0.stream.frame_rate">24</property>
    <property name="meta.media.0.stream.sample_aspect_ratio">1</property>
    <property name="meta.media.0.codec.width">1920</property>
    <property name="meta.media.0.codec.height">1080</property>
    <property name="meta.media.0.codec.rotate">0</property>
    <property name="meta.media.0.codec.pix_fmt">yuv420p</property>
    <property name="meta.media.0.codec.sample_aspect_ratio">1</property>
    <property name="meta.media.0.codec.colorspace">709</property>
    <property name="meta.media.0.codec.name">h264</property>
    <property name="meta.media.0.codec.long_name">H.264 / AVC / MPEG-4 AVC / MPEG-4 part 10</property>
    <property name="meta.media.0.codec.bit_rate">0</property>
    <property name="meta.attr.0.stream.ENCODER.markup">Lavc58.134.100 libopenh264</property>
    <property name="meta.attr.0.stream.DURATION.markup">00:00:05.000000000</property>
    <property name="meta.attr.ENCODER.markup">Lavf58.76.100</property>
    <property name="seekable">1</property>
    <property name="meta.media.sample_aspect_num">1</property>
    <property name="meta.media.sample_aspect_den">1</property>
    <property name="audio_index">-1</property>
    <property name="video_index">0</property>
    <property name="creation_time">2025-12-15T01:42:18</property>
    <property name="vstream">0</property>
    <property name="meta.media.frame_rate_num">24</property>
    <property name="meta.media.frame_rate_den">1</property>
    <property name="meta.media.colorspace">709</property>
    <property name="meta.media.color_trc">2</property>
    <property name="meta.media.has_b_frames">0</property>
    <property name="meta.media.width">1920</property>
    <property name="meta.media.height">1080</property>
    <property name="meta.media.aspect_ratio">1</property>
    <property name="meta.media.color_range">mpeg</property>
    <property name="shotcut:skipConvert">1</property>
    <property name="shotcut:hash">721d5b6f2fd6355d2d50d43f7ab7d4c7</property>
    <property name="meta.media.top_field_first">0</property>
    <property name="meta.media.progressive">1</property>
    <property name="shotcut:caption">7catchingup.mkv</property>
    <property name="xml">was here</property>
    <property name="meta.shotcut.vui">1</property>
    <filter id="filter20" out="00:00:00.917">
      <property name="background">color:#00000000</property>
      <property name="mlt_service">affine</property>
      <property name="shotcut:filter">affineSizePosition</property>
      <property name="transition.fix_rotate_x">0</property>
      <property name="transition.fill">1</property>
      <property name="transition.distort">0</property>
      <property name="transition.rect">00:00:00.000=-2.34146 -62.3624 2112 1188 1;00:00:00.917=-194.676 -68.6899 2112 1188 1</property>
      <property name="transition.valign">middle</property>
      <property name="transition.halign">center</property>
      <property name="shotcut:animIn">00:00:00.000</property>
      <property name="shotcut:animOut">00:00:00.000</property>
      <property name="transition.threads">0</property>
    </filter>
  </chain>
  <chain id="chain13" out="00:00:04.958">
    <property name="length">00:00:05.000</property>
    <property name="eof">pause</property>
    <property name="resource">rendered animations/7catchingup.mkv</property>
    <property name="mlt_service">avformat-novalidate</property>
    <property name="meta.media.nb_streams">1</property>
    <property name="meta.media.0.stream.type">video</property>
    <property name="meta.media.0.stream.frame_rate">24</property>
    <property name="meta.media.0.stream.sample_aspect_ratio">1</property>
    <property name="meta.media.0.codec.width">1920</property>
    <property name="meta.media.0.codec.height">1080</property>
    <property name="meta.media.0.codec.rotate">0</property>
    <property name="meta.media.0.codec.pix_fmt">yuv420p</property>
    <property name="meta.media.0.codec.sample_aspect_ratio">1</property>
    <property name="meta.media.0.codec.colorspace">709</property>
    <property name="meta.media.0.codec.name">h264</property>
    <property name="meta.media.0.codec.long_name">H.264 / AVC / MPEG-4 AVC / MPEG-4 part 10</property>
    <property name="meta.media.0.codec.bit_rate">0</property>
    <property name="meta.attr.0.stream.ENCODER.markup">Lavc58.134.100 libopenh264</property>
    <property name="meta.attr.0.stream.DURATION.markup">00:00:05.000000000</property>
    <property name="meta.attr.ENCODER.markup">Lavf58.76.100</property>
    <property name="seekable">1</property>
    <property name="meta.media.sample_aspect_num">1</property>
    <property name="meta.media.sample_aspect_den">1</property>
    <property name="audio_index">-1</property>
    <property name="video_index">0</property>
    <property name="creation_time">2025-12-15T01:42:18</property>
    <property name="vstream">0</property>
    <property name="meta.media.frame_rate_num">24</property>
    <property name="meta.media.frame_rate_den">1</property>
    <property name="meta.media.colorspace">709</property>
    <property name="meta.media.color_trc">2</property>
    <property name="meta.media.has_b_frames">0</property>
    <property name="meta.media.width">1920</property>
    <property name="meta.media.height">1080</property>
    <property name="meta.media.aspect_ratio">1</property>
    <property name="meta.media.color_range">mpeg</property>
    <property name="shotcut:skipConvert">1</property>
    <property name="shotcut:hash">721d5b6f2fd6355d2d50d43f7ab7d4c7</property>
    <property name="meta.media.top_field_first">0</property>
    <property name="meta.media.progressive">1</property>
    <property name="shotcut:caption">7catchingup.mkv</property>
    <property name="xml">was here</property>
  </chain>
  <chain id="chain14" out="00:00:08.292">
    <property name="length">00:00:08.333</property>
    <property name="eof">pause</property>
    <property name="resource">rendered animations/8.0juniorintrouble.mkv</property>
    <property name="mlt_service">avformat-novalidate</property>
    <property name="meta.media.nb_streams">1</property>
    <property name="meta.media.0.stream.type">video</property>
    <property name="meta.media.0.stream.frame_rate">24</property>
    <property name="meta.media.0.stream.sample_aspect_ratio">1</property>
    <property name="meta.media.0.codec.width">1920</property>
    <property name="meta.media.0.codec.height">1080</property>
    <property name="meta.media.0.codec.rotate">0</property>
    <property name="meta.media.0.codec.pix_fmt">yuv420p</property>
    <property name="meta.media.0.codec.sample_aspect_ratio">1</property>
    <property name="meta.media.0.codec.colorspace">709</property>
    <property name="meta.media.0.codec.name">h264</property>
    <property name="meta.media.0.codec.long_name">H.264 / AVC / MPEG-4 AVC / MPEG-4 part 10</property>
    <property name="meta.media.0.codec.bit_rate">0</property>
    <property name="meta.attr.0.stream.ENCODER.markup">Lavc58.134.100 libopenh264</property>
    <property name="meta.attr.0.stream.DURATION.markup">00:00:08.334000000</property>
    <property name="meta.attr.ENCODER.markup">Lavf58.76.100</property>
    <property name="seekable">1</property>
    <property name="meta.media.sample_aspect_num">1</property>
    <property name="meta.media.sample_aspect_den">1</property>
    <property name="audio_index">-1</property>
    <property name="video_index">0</property>
    <property name="creation_time">2025-12-18T07:59:20</property>
    <property name="vstream">0</property>
    <property name="meta.media.frame_rate_num">24</property>
    <property name="meta.media.frame_rate_den">1</property>
    <property name="meta.media.colorspace">709</property>
    <property name="meta.media.color_trc">2</property>
    <property name="meta.media.has_b_frames">0</property>
    <property name="meta.media.width">1920</property>
    <property name="meta.media.height">1080</property>
    <property name="meta.media.aspect_ratio">1</property>
    <property name="meta.media.color_range">mpeg</property>
    <property name="shotcut:skipConvert">1</property>
    <property name="shotcut:hash">a1e5bd56790364ace1a25d3d03e5fdca</property>
    <property name="meta.media.top_field_first">0</property>
    <property name="meta.media.progressive">1</property>
    <property name="shotcut:caption">8.0juniorintrouble.mkv</property>
    <property name="xml">was here</property>
  </chain>
  <chain id="chain15" out="00:00:08.292">
    <property name="length">00:00:08.333</property>
    <property name="eof">pause</property>
    <property name="resource">rendered animations/8.0juniorintrouble.mkv</property>
    <property name="mlt_service">avformat-novalidate</property>
    <property name="meta.media.nb_streams">1</property>
    <property name="meta.media.0.stream.type">video</property>
    <property name="meta.media.0.stream.frame_rate">24</property>
    <property name="meta.media.0.stream.sample_aspect_ratio">1</property>
    <property name="meta.media.0.codec.width">1920</property>
    <property name="meta.media.0.codec.height">1080</property>
    <property name="meta.media.0.codec.rotate">0</property>
    <property name="meta.media.0.codec.pix_fmt">yuv420p</property>
    <property name="meta.media.0.codec.sample_aspect_ratio">1</property>
    <property name="meta.media.0.codec.colorspace">709</property>
    <property name="meta.media.0.codec.name">h264</property>
    <property name="meta.media.0.codec.long_name">H.264 / AVC / MPEG-4 AVC / MPEG-4 part 10</property>
    <property name="meta.media.0.codec.bit_rate">0</property>
    <property name="meta.attr.0.stream.ENCODER.markup">Lavc58.134.100 libopenh264</property>
    <property name="meta.attr.0.stream.DURATION.markup">00:00:08.334000000</property>
    <property name="meta.attr.ENCODER.markup">Lavf58.76.100</property>
    <property name="seekable">1</property>
    <property name="meta.media.sample_aspect_num">1</property>
    <property name="meta.media.sample_aspect_den">1</property>
    <property name="audio_index">-1</property>
    <property name="video_index">0</property>
    <property name="creation_time">2025-12-18T07:59:20</property>
    <property name="vstream">0</property>
    <property name="meta.media.frame_rate_num">24</property>
    <property name="meta.media.frame_rate_den">1</property>
    <property name="meta.media.colorspace">709</property>
    <property name="meta.media.color_trc">2</property>
    <property name="meta.media.has_b_frames">0</property>
    <property name="meta.media.width">1920</property>
    <property name="meta.media.height">1080</property>
    <property name="meta.media.aspect_ratio">1</property>
    <property name="meta.media.color_range">mpeg</property>
    <property name="shotcut:skipConvert">1</property>
    <property name="shotcut:hash">a1e5bd56790364ace1a25d3d03e5fdca</property>
    <property name="meta.media.top_field_first">0</property>
    <property name="meta.media.progressive">1</property>
    <property name="shotcut:caption">8.0juniorintrouble.mkv</property>
    <property name="xml">was here</property>
  </chain>
  <chain id="chain17" out="00:00:03.958">
    <property name="length">00:00:04.000</property>
    <property name="eof">pause</property>
    <property name="resource">rendered animations/8.1juniorintrouble.mkv</property>
    <property name="mlt_service">avformat-novalidate</property>
    <property name="meta.media.nb_streams">1</property>
    <property name="meta.media.0.stream.type">video</property>
    <property name="meta.media.0.stream.frame_rate">24</property>
    <property name="meta.media.0.stream.sample_aspect_ratio">1</property>
    <property name="meta.media.0.codec.width">1920</property>
    <property name="meta.media.0.codec.height">1080</property>
    <property name="meta.media.0.codec.rotate">0</property>
    <property name="meta.media.0.codec.pix_fmt">yuv420p</property>
    <property name="meta.media.0.codec.sample_aspect_ratio">1</property>
    <property name="meta.media.0.codec.colorspace">709</property>
    <property name="meta.media.0.codec.name">h264</property>
    <property name="meta.media.0.codec.long_name">H.264 / AVC / MPEG-4 AVC / MPEG-4 part 10</property>
    <property name="meta.media.0.codec.bit_rate">0</property>
    <property name="meta.attr.0.stream.ENCODER.markup">Lavc58.134.100 libopenh264</property>
    <property name="meta.attr.0.stream.DURATION.markup">00:00:04.000000000</property>
    <property name="meta.attr.ENCODER.markup">Lavf58.76.100</property>
    <property name="seekable">1</property>
    <property name="meta.media.sample_aspect_num">1</property>
    <property name="meta.media.sample_aspect_den">1</property>
    <property name="audio_index">-1</property>
    <property name="video_index">0</property>
    <property name="creation_time">2025-12-15T02:07:24</property>
    <property name="vstream">0</property>
    <property name="meta.media.frame_rate_num">24</property>
    <property name="meta.media.frame_rate_den">1</property>
    <property name="meta.media.colorspace">709</property>
    <property name="meta.media.color_trc">2</property>
    <property name="meta.media.has_b_frames">0</property>
    <property name="meta.media.width">1920</property>
    <property name="meta.media.height">1080</property>
    <property name="meta.media.aspect_ratio">1</property>
    <property name="meta.media.color_range">mpeg</property>
    <property name="shotcut:skipConvert">1</property>
    <property name="shotcut:hash">e1390cced291ca20449d61b258a42ee1</property>
    <property name="meta.media.top_field_first">0</property>
    <property name="meta.media.progressive">1</property>
    <property name="shotcut:caption">8.1juniorintrouble.mkv</property>
    <property name="xml">was here</property>
  </chain>
  <chain id="chain18" out="00:00:03.958">
    <property name="length">00:00:04.000</property>
    <property name="eof">pause</property>
    <property name="resource">rendered animations/8.1juniorintrouble.mkv</property>
    <property name="mlt_service">avformat-novalidate</property>
    <property name="meta.media.nb_streams">1</property>
    <property name="meta.media.0.stream.type">video</property>
    <property name="meta.media.0.stream.frame_rate">24</property>
    <property name="meta.media.0.stream.sample_aspect_ratio">1</property>
    <property name="meta.media.0.codec.width">1920</property>
    <property name="meta.media.0.codec.height">1080</property>
    <property name="meta.media.0.codec.rotate">0</property>
    <property name="meta.media.0.codec.pix_fmt">yuv420p</property>
    <property name="meta.media.0.codec.sample_aspect_ratio">1</property>
    <property name="meta.media.0.codec.colorspace">709</property>
    <property name="meta.media.0.codec.name">h264</property>
    <property name="meta.media.0.codec.long_name">H.264 / AVC / MPEG-4 AVC / MPEG-4 part 10</property>
    <property name="meta.media.0.codec.bit_rate">0</property>
    <property name="meta.attr.0.stream.ENCODER.markup">Lavc58.134.100 libopenh264</property>
    <property name="meta.attr.0.stream.DURATION.markup">00:00:04.000000000</property>
    <property name="meta.attr.ENCODER.markup">Lavf58.76.100</property>
    <property name="seekable">1</property>
    <property name="meta.media.sample_aspect_num">1</property>
    <property name="meta.media.sample_aspect_den">1</property>
    <property name="audio_index">-1</property>
    <property name="video_index">0</property>
    <property name="creation_time">2025-12-15T02:07:24</property>
    <property name="vstream">0</property>
    <property name="meta.media.frame_rate_num">24</property>
    <property name="meta.media.frame_rate_den">1</property>
    <property name="meta.media.colorspace">709</property>
    <property name="meta.media.color_trc">2</property>
    <property name="meta.media.has_b_frames">0</property>
    <property name="meta.media.width">1920</property>
    <property name="meta.media.height">1080</property>
    <property name="meta.media.aspect_ratio">1</property>
    <property name="meta.media.color_range">mpeg</property>
    <property name="shotcut:skipConvert">1</property>
    <property name="shotcut:hash">e1390cced291ca20449d61b258a42ee1</property>
    <property name="meta.media.top_field_first">0</property>
    <property name="meta.media.progressive">1</property>
    <property name="shotcut:caption">8.1juniorintrouble.mkv</property>
    <property name="xml">was here</property>
  </chain>
  <chain id="chain19" out="00:00:03.958">
    <property name="length">00:00:04.000</property>
    <property name="eof">pause</property>
    <property name="resource">rendered animations/8.1juniorintrouble.mkv</property>
    <property name="mlt_service">avformat-novalidate</property>
    <property name="meta.media.nb_streams">1</property>
    <property name="meta.media.0.stream.type">video</property>
    <property name="meta.media.0.stream.frame_rate">24</property>
    <property name="meta.media.0.stream.sample_aspect_ratio">1</property>
    <property name="meta.media.0.codec.width">1920</property>
    <property name="meta.media.0.codec.height">1080</property>
    <property name="meta.media.0.codec.rotate">0</property>
    <property name="meta.media.0.codec.pix_fmt">yuv420p</property>
    <property name="meta.media.0.codec.sample_aspect_ratio">1</property>
    <property name="meta.media.0.codec.colorspace">709</property>
    <property name="meta.media.0.codec.name">h264</property>
    <property name="meta.media.0.codec.long_name">H.264 / AVC / MPEG-4 AVC / MPEG-4 part 10</property>
    <property name="meta.media.0.codec.bit_rate">0</property>
    <property name="meta.attr.0.stream.ENCODER.markup">Lavc58.134.100 libopenh264</property>
    <property name="meta.attr.0.stream.DURATION.markup">00:00:04.000000000</property>
    <property name="meta.attr.ENCODER.markup">Lavf58.76.100</property>
    <property name="seekable">1</property>
    <property name="meta.media.sample_aspect_num">1</property>
    <property name="meta.media.sample_aspect_den">1</property>
    <property name="audio_index">-1</property>
    <property name="video_index">0</property>
    <property name="creation_time">2025-12-15T02:07:24</property>
    <property name="vstream">0</property>
    <property name="meta.media.frame_rate_num">24</property>
    <property name="meta.media.frame_rate_den">1</property>
    <property name="meta.media.colorspace">709</property>
    <property name="meta.media.color_trc">2</property>
    <property name="meta.media.has_b_frames">0</property>
    <property name="meta.media.width">1920</property>
    <property name="meta.media.height">1080</property>
    <property name="meta.media.aspect_ratio">1</property>
    <property name="meta.media.color_range">mpeg</property>
    <property name="shotcut:skipConvert">1</property>
    <property name="shotcut:hash">e1390cced291ca20449d61b258a42ee1</property>
    <property name="meta.media.top_field_first">0</property>
    <property name="meta.media.progressive">1</property>
    <property name="shotcut:caption">8.1juniorintrouble.mkv</property>
    <property name="xml">was here</property>
  </chain>
  <chain id="chain20" out="00:00:03.958">
    <property name="length">00:00:04.000</property>
    <property name="eof">pause</property>
    <property name="resource">rendered animations/8.1juniorintrouble.mkv</property>
    <property name="mlt_service">avformat-novalidate</property>
    <property name="meta.media.nb_streams">1</property>
    <property name="meta.media.0.stream.type">video</property>
    <property name="meta.media.0.stream.frame_rate">24</property>
    <property name="meta.media.0.stream.sample_aspect_ratio">1</property>
    <property name="meta.media.0.codec.width">1920</property>
    <property name="meta.media.0.codec.height">1080</property>
    <property name="meta.media.0.codec.rotate">0</property>
    <property name="meta.media.0.codec.pix_fmt">yuv420p</property>
    <property name="meta.media.0.codec.sample_aspect_ratio">1</property>
    <property name="meta.media.0.codec.colorspace">709</property>
    <property name="meta.media.0.codec.name">h264</property>
    <property name="meta.media.0.codec.long_name">H.264 / AVC / MPEG-4 AVC / MPEG-4 part 10</property>
    <property name="meta.media.0.codec.bit_rate">0</property>
    <property name="meta.attr.0.stream.ENCODER.markup">Lavc58.134.100 libopenh264</property>
    <property name="meta.attr.0.stream.DURATION.markup">00:00:04.000000000</property>
    <property name="meta.attr.ENCODER.markup">Lavf58.76.100</property>
    <property name="seekable">1</property>
    <property name="meta.media.sample_aspect_num">1</property>
    <property name="meta.media.sample_aspect_den">1</property>
    <property name="audio_index">-1</property>
    <property name="video_index">0</property>
    <property name="creation_time">2025-12-15T02:07:24</property>
    <property name="vstream">0</property>
    <property name="meta.media.frame_rate_num">24</property>
    <property name="meta.media.frame_rate_den">1</property>
    <property name="meta.media.colorspace">709</property>
    <property name="meta.media.color_trc">2</property>
    <property name="meta.media.has_b_frames">0</property>
    <property name="meta.media.width">1920</property>
    <property name="meta.media.height">1080</property>
    <property name="meta.media.aspect_ratio">1</property>
    <property name="meta.media.color_range">mpeg</property>
    <property name="shotcut:skipConvert">1</property>
    <property name="shotcut:hash">e1390cced291ca20449d61b258a42ee1</property>
    <property name="meta.media.top_field_first">0</property>
    <property name="meta.media.progressive">1</property>
    <property name="shotcut:caption">8.1juniorintrouble.mkv</property>
    <property name="xml">was here</property>
  </chain>
  <chain id="chain16" out="00:00:04.875">
    <property name="length">00:00:04.917</property>
    <property name="eof">pause</property>
    <property name="resource">rendered animations/9.0JuniorTired.mkv</property>
    <property name="mlt_service">avformat-novalidate</property>
    <property name="meta.media.nb_streams">1</property>
    <property name="meta.media.0.stream.type">video</property>
    <property name="meta.media.0.stream.frame_rate">24</property>
    <property name="meta.media.0.stream.sample_aspect_ratio">1</property>
    <property name="meta.media.0.codec.width">1920</property>
    <property name="meta.media.0.codec.height">1080</property>
    <property name="meta.media.0.codec.rotate">0</property>
    <property name="meta.media.0.codec.pix_fmt">yuv420p</property>
    <property name="meta.media.0.codec.sample_aspect_ratio">1</property>
    <property name="meta.media.0.codec.colorspace">709</property>
    <property name="meta.media.0.codec.name">h264</property>
    <property name="meta.media.0.codec.long_name">H.264 / AVC / MPEG-4 AVC / MPEG-4 part 10</property>
    <property name="meta.media.0.codec.bit_rate">0</property>
    <property name="meta.attr.0.stream.ENCODER.markup">Lavc58.134.100 libopenh264</property>
    <property name="meta.attr.0.stream.DURATION.markup">00:00:04.917000000</property>
    <property name="meta.attr.ENCODER.markup">Lavf58.76.100</property>
    <property name="seekable">1</property>
    <property name="meta.media.sample_aspect_num">1</property>
    <property name="meta.media.sample_aspect_den">1</property>
    <property name="audio_index">-1</property>
    <property name="video_index">0</property>
    <property name="creation_time">2025-12-19T04:32:53</property>
    <property name="vstream">0</property>
    <property name="meta.media.frame_rate_num">24</property>
    <property name="meta.media.frame_rate_den">1</property>
    <property name="meta.media.colorspace">709</property>
    <property name="meta.media.color_trc">2</property>
    <property name="meta.media.has_b_frames">0</property>
    <property name="meta.media.width">1920</property>
    <property name="meta.media.height">1080</property>
    <property name="meta.media.aspect_ratio">1</property>
    <property name="meta.media.color_range">mpeg</property>
    <property name="shotcut:skipConvert">1</property>
    <property name="shotcut:hash">7c8a6d8e6a6916c41064ef150882884b</property>
    <property name="meta.media.top_field_first">0</property>
    <property name="meta.media.progressive">1</property>
    <property name="shotcut:caption">9.0JuniorTired.mkv</property>
    <property name="xml">was here</property>
  </chain>
  <producer id="producer59" in="00:00:00.000" out="03:59:59.958">
    <property name="length">04:00:00.000</property>
    <property name="eof">pause</property>
    <property name="resource">images/white.png</property>
    <property name="ttl">1</property>
    <property name="aspect_ratio">1</property>
    <property name="meta.media.progressive">1</property>
    <property name="seekable">1</property>
    <property name="format">2</property>
    <property name="meta.media.width">1920</property>
    <property name="meta.media.height">1080</property>
    <property name="mlt_service">qimage</property>
    <property name="creation_time">2025-12-15T02:36:30</property>
    <property name="shotcut:skipConvert">1</property>
    <property name="shotcut:hash">ec205f39903ee801e2ba54b9f6853b69</property>
    <property name="shotcut:caption">white.png</property>
    <property name="xml">was here</property>
  </producer>
  <producer id="producer60" in="00:00:00.000" out="03:59:59.958">
    <property name="length">04:00:00.000</property>
    <property name="eof">pause</property>
    <property name="resource">images/white.png</property>
    <property name="ttl">1</property>
    <property name="aspect_ratio">1</property>
    <property name="meta.media.progressive">1</property>
    <property name="seekable">1</property>
    <property name="format">2</property>
    <property name="meta.media.width">1920</property>
    <property name="meta.media.height">1080</property>
    <property name="mlt_service">qimage</property>
    <property name="creation_time">2025-12-15T02:36:30</property>
    <property name="shotcut:skipConvert">1</property>
    <property name="shotcut:hash">ec205f39903ee801e2ba54b9f6853b69</property>
    <property name="shotcut:caption">white.png</property>
    <property name="xml">was here</property>
  </producer>
  <chain id="chain22" out="00:00:06.917">
    <property name="length">00:00:06.958</property>
    <property name="eof">pause</property>
    <property name="resource">rendered animations/12portalback-2.mkv</property>
    <property name="mlt_service">avformat-novalidate</property>
    <property name="meta.media.nb_streams">1</property>
    <property name="meta.media.0.stream.type">video</property>
    <property name="meta.media.0.stream.frame_rate">24</property>
    <property name="meta.media.0.stream.sample_aspect_ratio">1</property>
    <property name="meta.media.0.codec.width">1920</property>
    <property name="meta.media.0.codec.height">1080</property>
    <property name="meta.media.0.codec.rotate">0</property>
    <property name="meta.media.0.codec.pix_fmt">yuv420p</property>
    <property name="meta.media.0.codec.sample_aspect_ratio">1</property>
    <property name="meta.media.0.codec.colorspace">709</property>
    <property name="meta.media.0.codec.name">h264</property>
    <property name="meta.media.0.codec.long_name">H.264 / AVC / MPEG-4 AVC / MPEG-4 part 10</property>
    <property name="meta.media.0.codec.bit_rate">0</property>
    <property name="meta.attr.0.stream.ENCODER.markup">Lavc58.134.100 libopenh264</property>
    <property name="meta.attr.0.stream.DURATION.markup">00:00:06.959000000</property>
    <property name="meta.attr.ENCODER.markup">Lavf58.76.100</property>
    <property name="seekable">1</property>
    <property name="meta.media.sample_aspect_num">1</property>
    <property name="meta.media.sample_aspect_den">1</property>
    <property name="audio_index">-1</property>
    <property name="video_index">0</property>
    <property name="creation_time">2025-12-16T01:54:08</property>
    <property name="vstream">0</property>
    <property name="meta.media.frame_rate_num">24</property>
    <property name="meta.media.frame_rate_den">1</property>
    <property name="meta.media.colorspace">709</property>
    <property name="meta.media.color_trc">2</property>
    <property name="meta.media.has_b_frames">0</property>
    <property name="meta.media.width">1920</property>
    <property name="meta.media.height">1080</property>
    <property name="meta.media.aspect_ratio">1</property>
    <property name="meta.media.color_range">mpeg</property>
    <property name="shotcut:skipConvert">1</property>
    <property name="shotcut:hash">97e5c8b1903e4718387ccc603ed037ba</property>
    <property name="meta.media.top_field_first">0</property>
    <property name="meta.media.progressive">1</property>
    <property name="shotcut:caption">12portalback-2.mkv</property>
    <property name="xml">was here</property>
  </chain>
  <chain id="chain78" out="00:00:03.958">
    <property name="length">00:00:04.000</property>
    <property name="eof">pause</property>
    <property name="resource">rendered animations/12portalback.mkv</property>
    <property name="mlt_service">avformat-novalidate</property>
    <property name="meta.media.nb_streams">1</property>
    <property name="meta.media.0.stream.type">video</property>
    <property name="meta.media.0.stream.frame_rate">24</property>
    <property name="meta.media.0.stream.sample_aspect_ratio">1</property>
    <property name="meta.media.0.codec.width">1920</property>
    <property name="meta.media.0.codec.height">1080</property>
    <property name="meta.media.0.codec.rotate">0</property>
    <property name="meta.media.0.codec.pix_fmt">yuv420p</property>
    <property name="meta.media.0.codec.sample_aspect_ratio">1</property>
    <property name="meta.media.0.codec.colorspace">709</property>
    <property name="meta.media.0.codec.name">h264</property>
    <property name="meta.media.0.codec.long_name">H.264 / AVC / MPEG-4 AVC / MPEG-4 part 10</property>
    <property name="meta.media.0.codec.bit_rate">0</property>
    <property name="meta.attr.0.stream.ENCODER.markup">Lavc58.134.100 libopenh264</property>
    <property name="meta.attr.0.stream.DURATION.markup">00:00:04.000000000</property>
    <property name="meta.attr.ENCODER.markup">Lavf58.76.100</property>
    <property name="seekable">1</property>
    <property name="meta.media.sample_aspect_num">1</property>
    <property name="meta.media.sample_aspect_den">1</property>
    <property name="audio_index">-1</property>
    <property name="video_index">0</property>
    <property name="creation_time">2025-12-15T03:46:03</property>
    <property name="vstream">0</property>
    <property name="meta.media.frame_rate_num">24</property>
    <property name="meta.media.frame_rate_den">1</property>
    <property name="meta.media.colorspace">709</property>
    <property name="meta.media.color_trc">2</property>
    <property name="meta.media.has_b_frames">0</property>
    <property name="meta.media.width">1920</property>
    <property name="meta.media.height">1080</property>
    <property name="meta.media.aspect_ratio">1</property>
    <property name="meta.media.color_range">mpeg</property>
    <property name="shotcut:skipConvert">1</property>
    <property name="shotcut:hash">2cbdec0df1590b0bce362855dabfe7d4</property>
    <property name="meta.media.top_field_first">0</property>
    <property name="meta.media.progressive">1</property>
    <property name="shotcut:caption">12portalback.mkv</property>
    <property name="xml">was here</property>
  </chain>
  <chain id="chain23" out="00:00:03.958">
    <property name="length">00:00:04.000</property>
    <property name="eof">pause</property>
    <property name="resource">rendered animations/12portalback.mkv</property>
    <property name="mlt_service">avformat-novalidate</property>
    <property name="meta.media.nb_streams">1</property>
    <property name="meta.media.0.stream.type">video</property>
    <property name="meta.media.0.stream.frame_rate">24</property>
    <property name="meta.media.0.stream.sample_aspect_ratio">1</property>
    <property name="meta.media.0.codec.width">1920</property>
    <property name="meta.media.0.codec.height">1080</property>
    <property name="meta.media.0.codec.rotate">0</property>
    <property name="meta.media.0.codec.pix_fmt">yuv420p</property>
    <property name="meta.media.0.codec.sample_aspect_ratio">1</property>
    <property name="meta.media.0.codec.colorspace">709</property>
    <property name="meta.media.0.codec.name">h264</property>
    <property name="meta.media.0.codec.long_name">H.264 / AVC / MPEG-4 AVC / MPEG-4 part 10</property>
    <property name="meta.media.0.codec.bit_rate">0</property>
    <property name="meta.attr.0.stream.ENCODER.markup">Lavc58.134.100 libopenh264</property>
    <property name="meta.attr.0.stream.DURATION.markup">00:00:04.000000000</property>
    <property name="meta.attr.ENCODER.markup">Lavf58.76.100</property>
    <property name="seekable">1</property>
    <property name="meta.media.sample_aspect_num">1</property>
    <property name="meta.media.sample_aspect_den">1</property>
    <property name="audio_index">-1</property>
    <property name="video_index">0</property>
    <property name="creation_time">2025-12-15T03:46:03</property>
    <property name="vstream">0</property>
    <property name="meta.media.frame_rate_num">24</property>
    <property name="meta.media.frame_rate_den">1</property>
    <property name="meta.media.colorspace">709</property>
    <property name="meta.media.color_trc">2</property>
    <property name="meta.media.has_b_frames">0</property>
    <property name="meta.media.width">1920</property>
    <property name="meta.media.height">1080</property>
    <property name="meta.media.aspect_ratio">1</property>
    <property name="meta.media.color_range">mpeg</property>
    <property name="shotcut:skipConvert">1</property>
    <property name="shotcut:hash">2cbdec0df1590b0bce362855dabfe7d4</property>
    <property name="meta.media.top_field_first">0</property>
    <property name="meta.media.progressive">1</property>
    <property name="shotcut:caption">12portalback.mkv</property>
    <property name="xml">was here</property>
  </chain>
  <chain id="chain79" out="00:00:03.958">
    <property name="length">00:00:04.000</property>
    <property name="eof">pause</property>
    <property name="resource">rendered animations/12portalback.mkv</property>
    <property name="mlt_service">avformat-novalidate</property>
    <property name="meta.media.nb_streams">1</property>
    <property name="meta.media.0.stream.type">video</property>
    <property name="meta.media.0.stream.frame_rate">24</property>
    <property name="meta.media.0.stream.sample_aspect_ratio">1</property>
    <property name="meta.media.0.codec.width">1920</property>
    <property name="meta.media.0.codec.height">1080</property>
    <property name="meta.media.0.codec.rotate">0</property>
    <property name="meta.media.0.codec.pix_fmt">yuv420p</property>
    <property name="meta.media.0.codec.sample_aspect_ratio">1</property>
    <property name="meta.media.0.codec.colorspace">709</property>
    <property name="meta.media.0.codec.name">h264</property>
    <property name="meta.media.0.codec.long_name">H.264 / AVC / MPEG-4 AVC / MPEG-4 part 10</property>
    <property name="meta.media.0.codec.bit_rate">0</property>
    <property name="meta.attr.0.stream.ENCODER.markup">Lavc58.134.100 libopenh264</property>
    <property name="meta.attr.0.stream.DURATION.markup">00:00:04.000000000</property>
    <property name="meta.attr.ENCODER.markup">Lavf58.76.100</property>
    <property name="seekable">1</property>
    <property name="meta.media.sample_aspect_num">1</property>
    <property name="meta.media.sample_aspect_den">1</property>
    <property name="audio_index">-1</property>
    <property name="video_index">0</property>
    <property name="creation_time">2025-12-15T03:46:03</property>
    <property name="vstream">0</property>
    <property name="meta.media.frame_rate_num">24</property>
    <property name="meta.media.frame_rate_den">1</property>
    <property name="meta.media.colorspace">709</property>
    <property name="meta.media.color_trc">2</property>
    <property name="meta.media.has_b_frames">0</property>
    <property name="meta.media.width">1920</property>
    <property name="meta.media.height">1080</property>
    <property name="meta.media.aspect_ratio">1</property>
    <property name="meta.media.color_range">mpeg</property>
    <property name="shotcut:skipConvert">1</property>
    <property name="shotcut:hash">2cbdec0df1590b0bce362855dabfe7d4</property>
    <property name="meta.media.top_field_first">0</property>
    <property name="meta.media.progressive">1</property>
    <property name="shotcut:caption">12portalback.mkv</property>
    <property name="xml">was here</property>
  </chain>
  <chain id="chain80" out="00:00:03.958">
    <property name="length">00:00:04.000</property>
    <property name="eof">pause</property>
    <property name="resource">rendered animations/12portalback.mkv</property>
    <property name="mlt_service">avformat-novalidate</property>
    <property name="meta.media.nb_streams">1</property>
    <property name="meta.media.0.stream.type">video</property>
    <property name="meta.media.0.stream.frame_rate">24</property>
    <property name="meta.media.0.stream.sample_aspect_ratio">1</property>
    <property name="meta.media.0.codec.width">1920</property>
    <property name="meta.media.0.codec.height">1080</property>
    <property name="meta.media.0.codec.rotate">0</property>
    <property name="meta.media.0.codec.pix_fmt">yuv420p</property>
    <property name="meta.media.0.codec.sample_aspect_ratio">1</property>
    <property name="meta.media.0.codec.colorspace">709</property>
    <property name="meta.media.0.codec.name">h264</property>
    <property name="meta.media.0.codec.long_name">H.264 / AVC / MPEG-4 AVC / MPEG-4 part 10</property>
    <property name="meta.media.0.codec.bit_rate">0</property>
    <property name="meta.attr.0.stream.ENCODER.markup">Lavc58.134.100 libopenh264</property>
    <property name="meta.attr.0.stream.DURATION.markup">00:00:04.000000000</property>
    <property name="meta.attr.ENCODER.markup">Lavf58.76.100</property>
    <property name="seekable">1</property>
    <property name="meta.media.sample_aspect_num">1</property>
    <property name="meta.media.sample_aspect_den">1</property>
    <property name="audio_index">-1</property>
    <property name="video_index">0</property>
    <property name="creation_time">2025-12-15T03:46:03</property>
    <property name="vstream">0</property>
    <property name="meta.media.frame_rate_num">24</property>
    <property name="meta.media.frame_rate_den">1</property>
    <property name="meta.media.colorspace">709</property>
    <property name="meta.media.color_trc">2</property>
    <property name="meta.media.has_b_frames">0</property>
    <property name="meta.media.width">1920</property>
    <property name="meta.media.height">1080</property>
    <property name="meta.media.aspect_ratio">1</property>
    <property name="meta.media.color_range">mpeg</property>
    <property name="shotcut:skipConvert">1</property>
    <property name="shotcut:hash">2cbdec0df1590b0bce362855dabfe7d4</property>
    <property name="meta.media.top_field_first">0</property>
    <property name="meta.media.progressive">1</property>
    <property name="shotcut:caption">12portalback.mkv</property>
    <property name="xml">was here</property>
  </chain>
  <chain id="chain21" out="00:00:03.958">
    <property name="length">00:00:04.000</property>
    <property name="eof">pause</property>
    <property name="resource">rendered animations/12portalback.mkv</property>
    <property name="mlt_service">avformat-novalidate</property>
    <property name="meta.media.nb_streams">1</property>
    <property name="meta.media.0.stream.type">video</property>
    <property name="meta.media.0.stream.frame_rate">24</property>
    <property name="meta.media.0.stream.sample_aspect_ratio">1</property>
    <property name="meta.media.0.codec.width">1920</property>
    <property name="meta.media.0.codec.height">1080</property>
    <property name="meta.media.0.codec.rotate">0</property>
    <property name="meta.media.0.codec.pix_fmt">yuv420p</property>
    <property name="meta.media.0.codec.sample_aspect_ratio">1</property>
    <property name="meta.media.0.codec.colorspace">709</property>
    <property name="meta.media.0.codec.name">h264</property>
    <property name="meta.media.0.codec.long_name">H.264 / AVC / MPEG-4 AVC / MPEG-4 part 10</property>
    <property name="meta.media.0.codec.bit_rate">0</property>
    <property name="meta.attr.0.stream.ENCODER.markup">Lavc58.134.100 libopenh264</property>
    <property name="meta.attr.0.stream.DURATION.markup">00:00:04.000000000</property>
    <property name="meta.attr.ENCODER.markup">Lavf58.76.100</property>
    <property name="seekable">1</property>
    <property name="meta.media.sample_aspect_num">1</property>
    <property name="meta.media.sample_aspect_den">1</property>
    <property name="audio_index">-1</property>
    <property name="video_index">0</property>
    <property name="creation_time">2025-12-15T03:46:03</property>
    <property name="vstream">0</property>
    <property name="meta.media.frame_rate_num">24</property>
    <property name="meta.media.frame_rate_den">1</property>
    <property name="meta.media.colorspace">709</property>
    <property name="meta.media.color_trc">2</property>
    <property name="meta.media.has_b_frames">0</property>
    <property name="meta.media.width">1920</property>
    <property name="meta.media.height">1080</property>
    <property name="meta.media.aspect_ratio">1</property>
    <property name="meta.media.color_range">mpeg</property>
    <property name="shotcut:skipConvert">1</property>
    <property name="shotcut:hash">2cbdec0df1590b0bce362855dabfe7d4</property>
    <property name="meta.media.top_field_first">0</property>
    <property name="meta.media.progressive">1</property>
    <property name="shotcut:caption">12portalback.mkv</property>
    <property name="xml">was here</property>
  </chain>
  <chain id="chain24" out="00:00:03.958">
    <property name="length">00:00:04.000</property>
    <property name="eof">pause</property>
    <property name="resource">rendered animations/12portalback.mkv</property>
    <property name="mlt_service">avformat-novalidate</property>
    <property name="meta.media.nb_streams">1</property>
    <property name="meta.media.0.stream.type">video</property>
    <property name="meta.media.0.stream.frame_rate">24</property>
    <property name="meta.media.0.stream.sample_aspect_ratio">1</property>
    <property name="meta.media.0.codec.width">1920</property>
    <property name="meta.media.0.codec.height">1080</property>
    <property name="meta.media.0.codec.rotate">0</property>
    <property name="meta.media.0.codec.pix_fmt">yuv420p</property>
    <property name="meta.media.0.codec.sample_aspect_ratio">1</property>
    <property name="meta.media.0.codec.colorspace">709</property>
    <property name="meta.media.0.codec.name">h264</property>
    <property name="meta.media.0.codec.long_name">H.264 / AVC / MPEG-4 AVC / MPEG-4 part 10</property>
    <property name="meta.media.0.codec.bit_rate">0</property>
    <property name="meta.attr.0.stream.ENCODER.markup">Lavc58.134.100 libopenh264</property>
    <property name="meta.attr.0.stream.DURATION.markup">00:00:04.000000000</property>
    <property name="meta.attr.ENCODER.markup">Lavf58.76.100</property>
    <property name="seekable">1</property>
    <property name="meta.media.sample_aspect_num">1</property>
    <property name="meta.media.sample_aspect_den">1</property>
    <property name="audio_index">-1</property>
    <property name="video_index">0</property>
    <property name="creation_time">2025-12-15T03:46:03</property>
    <property name="vstream">0</property>
    <property name="meta.media.frame_rate_num">24</property>
    <property name="meta.media.frame_rate_den">1</property>
    <property name="meta.media.colorspace">709</property>
    <property name="meta.media.color_trc">2</property>
    <property name="meta.media.has_b_frames">0</property>
    <property name="meta.media.width">1920</property>
    <property name="meta.media.height">1080</property>
    <property name="meta.media.aspect_ratio">1</property>
    <property name="meta.media.color_range">mpeg</property>
    <property name="shotcut:skipConvert">1</property>
    <property name="shotcut:hash">2cbdec0df1590b0bce362855dabfe7d4</property>
    <property name="meta.media.top_field_first">0</property>
    <property name="meta.media.progressive">1</property>
    <property name="shotcut:caption">12portalback.mkv</property>
    <property name="xml">was here</property>
  </chain>
  <chain id="chain81" out="00:00:03.958">
    <property name="length">00:00:04.000</property>
    <property name="eof">pause</property>
    <property name="resource">rendered animations/12portalback.mkv</property>
    <property name="mlt_service">avformat-novalidate</property>
    <property name="meta.media.nb_streams">1</property>
    <property name="meta.media.0.stream.type">video</property>
    <property name="meta.media.0.stream.frame_rate">24</property>
    <property name="meta.media.0.stream.sample_aspect_ratio">1</property>
    <property name="meta.media.0.codec.width">1920</property>
    <property name="meta.media.0.codec.height">1080</property>
    <property name="meta.media.0.codec.rotate">0</property>
    <property name="meta.media.0.codec.pix_fmt">yuv420p</property>
    <property name="meta.media.0.codec.sample_aspect_ratio">1</property>
    <property name="meta.media.0.codec.colorspace">709</property>
    <property name="meta.media.0.codec.name">h264</property>
    <property name="meta.media.0.codec.long_name">H.264 / AVC / MPEG-4 AVC / MPEG-4 part 10</property>
    <property name="meta.media.0.codec.bit_rate">0</property>
    <property name="meta.attr.0.stream.ENCODER.markup">Lavc58.134.100 libopenh264</property>
    <property name="meta.attr.0.stream.DURATION.markup">00:00:04.000000000</property>
    <property name="meta.attr.ENCODER.markup">Lavf58.76.100</property>
    <property name="seekable">1</property>
    <property name="meta.media.sample_aspect_num">1</property>
    <property name="meta.media.sample_aspect_den">1</property>
    <property name="audio_index">-1</property>
    <property name="video_index">0</property>
    <property name="creation_time">2025-12-15T03:46:03</property>
    <property name="vstream">0</property>
    <property name="meta.media.frame_rate_num">24</property>
    <property name="meta.media.frame_rate_den">1</property>
    <property name="meta.media.colorspace">709</property>
    <property name="meta.media.color_trc">2</property>
    <property name="meta.media.has_b_frames">0</property>
    <property name="meta.media.width">1920</property>
    <property name="meta.media.height">1080</property>
    <property name="meta.media.aspect_ratio">1</property>
    <property name="meta.media.color_range">mpeg</property>
    <property name="shotcut:skipConvert">1</property>
    <property name="shotcut:hash">2cbdec0df1590b0bce362855dabfe7d4</property>
    <property name="meta.media.top_field_first">0</property>
    <property name="meta.media.progressive">1</property>
    <property name="shotcut:caption">12portalback.mkv</property>
    <property name="xml">was here</property>
  </chain>
  <chain id="chain82" out="00:00:03.958">
    <property name="length">00:00:04.000</property>
    <property name="eof">pause</property>
    <property name="resource">rendered animations/12portalback.mkv</property>
    <property name="mlt_service">avformat-novalidate</property>
    <property name="meta.media.nb_streams">1</property>
    <property name="meta.media.0.stream.type">video</property>
    <property name="meta.media.0.stream.frame_rate">24</property>
    <property name="meta.media.0.stream.sample_aspect_ratio">1</property>
    <property name="meta.media.0.codec.width">1920</property>
    <property name="meta.media.0.codec.height">1080</property>
    <property name="meta.media.0.codec.rotate">0</property>
    <property name="meta.media.0.codec.pix_fmt">yuv420p</property>
    <property name="meta.media.0.codec.sample_aspect_ratio">1</property>
    <property name="meta.media.0.codec.colorspace">709</property>
    <property name="meta.media.0.codec.name">h264</property>
    <property name="meta.media.0.codec.long_name">H.264 / AVC / MPEG-4 AVC / MPEG-4 part 10</property>
    <property name="meta.media.0.codec.bit_rate">0</property>
    <property name="meta.attr.0.stream.ENCODER.markup">Lavc58.134.100 libopenh264</property>
    <property name="meta.attr.0.stream.DURATION.markup">00:00:04.000000000</property>
    <property name="meta.attr.ENCODER.markup">Lavf58.76.100</property>
    <property name="seekable">1</property>
    <property name="meta.media.sample_aspect_num">1</property>
    <property name="meta.media.sample_aspect_den">1</property>
    <property name="audio_index">-1</property>
    <property name="video_index">0</property>
    <property name="creation_time">2025-12-15T03:46:03</property>
    <property name="vstream">0</property>
    <property name="meta.media.frame_rate_num">24</property>
    <property name="meta.media.frame_rate_den">1</property>
    <property name="meta.media.colorspace">709</property>
    <property name="meta.media.color_trc">2</property>
    <property name="meta.media.has_b_frames">0</property>
    <property name="meta.media.width">1920</property>
    <property name="meta.media.height">1080</property>
    <property name="meta.media.aspect_ratio">1</property>
    <property name="meta.media.color_range">mpeg</property>
    <property name="shotcut:skipConvert">1</property>
    <property name="shotcut:hash">2cbdec0df1590b0bce362855dabfe7d4</property>
    <property name="meta.media.top_field_first">0</property>
    <property name="meta.media.progressive">1</property>
    <property name="shotcut:caption">12portalback.mkv</property>
    <property name="xml">was here</property>
  </chain>
  <chain id="chain84" out="00:00:03.958">
    <property name="length">00:00:04.000</property>
    <property name="eof">pause</property>
    <property name="resource">rendered animations/12portalback.mkv</property>
    <property name="mlt_service">avformat-novalidate</property>
    <property name="meta.media.nb_streams">1</property>
    <property name="meta.media.0.stream.type">video</property>
    <property name="meta.media.0.stream.frame_rate">24</property>
    <property name="meta.media.0.stream.sample_aspect_ratio">1</property>
    <property name="meta.media.0.codec.width">1920</property>
    <property name="meta.media.0.codec.height">1080</property>
    <property name="meta.media.0.codec.rotate">0</property>
    <property name="meta.media.0.codec.pix_fmt">yuv420p</property>
    <property name="meta.media.0.codec.sample_aspect_ratio">1</property>
    <property name="meta.media.0.codec.colorspace">709</property>
    <property name="meta.media.0.codec.name">h264</property>
    <property name="meta.media.0.codec.long_name">H.264 / AVC / MPEG-4 AVC / MPEG-4 part 10</property>
    <property name="meta.media.0.codec.bit_rate">0</property>
    <property name="meta.attr.0.stream.ENCODER.markup">Lavc58.134.100 libopenh264</property>
    <property name="meta.attr.0.stream.DURATION.markup">00:00:04.000000000</property>
    <property name="meta.attr.ENCODER.markup">Lavf58.76.100</property>
    <property name="seekable">1</property>
    <property name="meta.media.sample_aspect_num">1</property>
    <property name="meta.media.sample_aspect_den">1</property>
    <property name="audio_index">-1</property>
    <property name="video_index">0</property>
    <property name="creation_time">2025-12-15T03:46:03</property>
    <property name="vstream">0</property>
    <property name="meta.media.frame_rate_num">24</property>
    <property name="meta.media.frame_rate_den">1</property>
    <property name="meta.media.colorspace">709</property>
    <property name="meta.media.color_trc">2</property>
    <property name="meta.media.has_b_frames">0</property>
    <property name="meta.media.width">1920</property>
    <property name="meta.media.height">1080</property>
    <property name="meta.media.aspect_ratio">1</property>
    <property name="meta.media.color_range">mpeg</property>
    <property name="shotcut:skipConvert">1</property>
    <property name="shotcut:hash">2cbdec0df1590b0bce362855dabfe7d4</property>
    <property name="meta.media.top_field_first">0</property>
    <property name="meta.media.progressive">1</property>
    <property name="shotcut:caption">12portalback.mkv</property>
    <property name="xml">was here</property>
  </chain>
  <chain id="chain85" out="00:00:03.958">
    <property name="length">00:00:04.000</property>
    <property name="eof">pause</property>
    <property name="resource">rendered animations/12portalback.mkv</property>
    <property name="mlt_service">avformat-novalidate</property>
    <property name="meta.media.nb_streams">1</property>
    <property name="meta.media.0.stream.type">video</property>
    <property name="meta.media.0.stream.frame_rate">24</property>
    <property name="meta.media.0.stream.sample_aspect_ratio">1</property>
    <property name="meta.media.0.codec.width">1920</property>
    <property name="meta.media.0.codec.height">1080</property>
    <property name="meta.media.0.codec.rotate">0</property>
    <property name="meta.media.0.codec.pix_fmt">yuv420p</property>
    <property name="meta.media.0.codec.sample_aspect_ratio">1</property>
    <property name="meta.media.0.codec.colorspace">709</property>
    <property name="meta.media.0.codec.name">h264</property>
    <property name="meta.media.0.codec.long_name">H.264 / AVC / MPEG-4 AVC / MPEG-4 part 10</property>
    <property name="meta.media.0.codec.bit_rate">0</property>
    <property name="meta.attr.0.stream.ENCODER.markup">Lavc58.134.100 libopenh264</property>
    <property name="meta.attr.0.stream.DURATION.markup">00:00:04.000000000</property>
    <property name="meta.attr.ENCODER.markup">Lavf58.76.100</property>
    <property name="seekable">1</property>
    <property name="meta.media.sample_aspect_num">1</property>
    <property name="meta.media.sample_aspect_den">1</property>
    <property name="audio_index">-1</property>
    <property name="video_index">0</property>
    <property name="creation_time">2025-12-15T03:46:03</property>
    <property name="vstream">0</property>
    <property name="meta.media.frame_rate_num">24</property>
    <property name="meta.media.frame_rate_den">1</property>
    <property name="meta.media.colorspace">709</property>
    <property name="meta.media.color_trc">2</property>
    <property name="meta.media.has_b_frames">0</property>
    <property name="meta.media.width">1920</property>
    <property name="meta.media.height">1080</property>
    <property name="meta.media.aspect_ratio">1</property>
    <property name="meta.media.color_range">mpeg</property>
    <property name="shotcut:skipConvert">1</property>
    <property name="shotcut:hash">2cbdec0df1590b0bce362855dabfe7d4</property>
    <property name="meta.media.top_field_first">0</property>
    <property name="meta.media.progressive">1</property>
    <property name="shotcut:caption">12portalback.mkv</property>
    <property name="xml">was here</property>
  </chain>
  <chain id="chain86" out="00:00:03.958">
    <property name="length">00:00:04.000</property>
    <property name="eof">pause</property>
    <property name="resource">rendered animations/12portalback.mkv</property>
    <property name="mlt_service">avformat-novalidate</property>
    <property name="meta.media.nb_streams">1</property>
    <property name="meta.media.0.stream.type">video</property>
    <property name="meta.media.0.stream.frame_rate">24</property>
    <property name="meta.media.0.stream.sample_aspect_ratio">1</property>
    <property name="meta.media.0.codec.width">1920</property>
    <property name="meta.media.0.codec.height">1080</property>
    <property name="meta.media.0.codec.rotate">0</property>
    <property name="meta.media.0.codec.pix_fmt">yuv420p</property>
    <property name="meta.media.0.codec.sample_aspect_ratio">1</property>
    <property name="meta.media.0.codec.colorspace">709</property>
    <property name="meta.media.0.codec.name">h264</property>
    <property name="meta.media.0.codec.long_name">H.264 / AVC / MPEG-4 AVC / MPEG-4 part 10</property>
    <property name="meta.media.0.codec.bit_rate">0</property>
    <property name="meta.attr.0.stream.ENCODER.markup">Lavc58.134.100 libopenh264</property>
    <property name="meta.attr.0.stream.DURATION.markup">00:00:04.000000000</property>
    <property name="meta.attr.ENCODER.markup">Lavf58.76.100</property>
    <property name="seekable">1</property>
    <property name="meta.media.sample_aspect_num">1</property>
    <property name="meta.media.sample_aspect_den">1</property>
    <property name="audio_index">-1</property>
    <property name="video_index">0</property>
    <property name="creation_time">2025-12-15T03:46:03</property>
    <property name="vstream">0</property>
    <property name="meta.media.frame_rate_num">24</property>
    <property name="meta.media.frame_rate_den">1</property>
    <property name="meta.media.colorspace">709</property>
    <property name="meta.media.color_trc">2</property>
    <property name="meta.media.has_b_frames">0</property>
    <property name="meta.media.width">1920</property>
    <property name="meta.media.height">1080</property>
    <property name="meta.media.aspect_ratio">1</property>
    <property name="meta.media.color_range">mpeg</property>
    <property name="shotcut:skipConvert">1</property>
    <property name="shotcut:hash">2cbdec0df1590b0bce362855dabfe7d4</property>
    <property name="meta.media.top_field_first">0</property>
    <property name="meta.media.progressive">1</property>
    <property name="shotcut:caption">12portalback.mkv</property>
    <property name="xml">was here</property>
  </chain>
  <chain id="chain87" out="00:00:03.958">
    <property name="length">00:00:04.000</property>
    <property name="eof">pause</property>
    <property name="resource">rendered animations/12portalback.mkv</property>
    <property name="mlt_service">avformat-novalidate</property>
    <property name="meta.media.nb_streams">1</property>
    <property name="meta.media.0.stream.type">video</property>
    <property name="meta.media.0.stream.frame_rate">24</property>
    <property name="meta.media.0.stream.sample_aspect_ratio">1</property>
    <property name="meta.media.0.codec.width">1920</property>
    <property name="meta.media.0.codec.height">1080</property>
    <property name="meta.media.0.codec.rotate">0</property>
    <property name="meta.media.0.codec.pix_fmt">yuv420p</property>
    <property name="meta.media.0.codec.sample_aspect_ratio">1</property>
    <property name="meta.media.0.codec.colorspace">709</property>
    <property name="meta.media.0.codec.name">h264</property>
    <property name="meta.media.0.codec.long_name">H.264 / AVC / MPEG-4 AVC / MPEG-4 part 10</property>
    <property name="meta.media.0.codec.bit_rate">0</property>
    <property name="meta.attr.0.stream.ENCODER.markup">Lavc58.134.100 libopenh264</property>
    <property name="meta.attr.0.stream.DURATION.markup">00:00:04.000000000</property>
    <property name="meta.attr.ENCODER.markup">Lavf58.76.100</property>
    <property name="seekable">1</property>
    <property name="meta.media.sample_aspect_num">1</property>
    <property name="meta.media.sample_aspect_den">1</property>
    <property name="audio_index">-1</property>
    <property name="video_index">0</property>
    <property name="creation_time">2025-12-15T03:46:03</property>
    <property name="vstream">0</property>
    <property name="meta.media.frame_rate_num">24</property>
    <property name="meta.media.frame_rate_den">1</property>
    <property name="meta.media.colorspace">709</property>
    <property name="meta.media.color_trc">2</property>
    <property name="meta.media.has_b_frames">0</property>
    <property name="meta.media.width">1920</property>
    <property name="meta.media.height">1080</property>
    <property name="meta.media.aspect_ratio">1</property>
    <property name="meta.media.color_range">mpeg</property>
    <property name="shotcut:skipConvert">1</property>
    <property name="shotcut:hash">2cbdec0df1590b0bce362855dabfe7d4</property>
    <property name="meta.media.top_field_first">0</property>
    <property name="meta.media.progressive">1</property>
    <property name="shotcut:caption">12portalback.mkv</property>
    <property name="meta.shotcut.vui">1</property>
    <property name="xml">was here</property>
  </chain>
  <chain id="chain88" out="00:00:03.958">
    <property name="length">00:00:04.000</property>
    <property name="eof">pause</property>
    <property name="resource">rendered animations/12portalback.mkv</property>
    <property name="mlt_service">avformat-novalidate</property>
    <property name="meta.media.nb_streams">1</property>
    <property name="meta.media.0.stream.type">video</property>
    <property name="meta.media.0.stream.frame_rate">24</property>
    <property name="meta.media.0.stream.sample_aspect_ratio">1</property>
    <property name="meta.media.0.codec.width">1920</property>
    <property name="meta.media.0.codec.height">1080</property>
    <property name="meta.media.0.codec.rotate">0</property>
    <property name="meta.media.0.codec.pix_fmt">yuv420p</property>
    <property name="meta.media.0.codec.sample_aspect_ratio">1</property>
    <property name="meta.media.0.codec.colorspace">709</property>
    <property name="meta.media.0.codec.name">h264</property>
    <property name="meta.media.0.codec.long_name">H.264 / AVC / MPEG-4 AVC / MPEG-4 part 10</property>
    <property name="meta.media.0.codec.bit_rate">0</property>
    <property name="meta.attr.0.stream.ENCODER.markup">Lavc58.134.100 libopenh264</property>
    <property name="meta.attr.0.stream.DURATION.markup">00:00:04.000000000</property>
    <property name="meta.attr.ENCODER.markup">Lavf58.76.100</property>
    <property name="seekable">1</property>
    <property name="meta.media.sample_aspect_num">1</property>
    <property name="meta.media.sample_aspect_den">1</property>
    <property name="audio_index">-1</property>
    <property name="video_index">0</property>
    <property name="creation_time">2025-12-15T03:46:03</property>
    <property name="vstream">0</property>
    <property name="meta.media.frame_rate_num">24</property>
    <property name="meta.media.frame_rate_den">1</property>
    <property name="meta.media.colorspace">709</property>
    <property name="meta.media.color_trc">2</property>
    <property name="meta.media.has_b_frames">0</property>
    <property name="meta.media.width">1920</property>
    <property name="meta.media.height">1080</property>
    <property name="meta.media.aspect_ratio">1</property>
    <property name="meta.media.color_range">mpeg</property>
    <property name="shotcut:skipConvert">1</property>
    <property name="shotcut:hash">2cbdec0df1590b0bce362855dabfe7d4</property>
    <property name="meta.media.top_field_first">0</property>
    <property name="meta.media.progressive">1</property>
    <property name="shotcut:caption">12portalback.mkv</property>
    <property name="meta.shotcut.vui">1</property>
    <property name="xml">was here</property>
  </chain>
  <chain id="chain89" out="00:00:03.958">
    <property name="length">00:00:04.000</property>
    <property name="eof">pause</property>
    <property name="resource">rendered animations/12portalback.mkv</property>
    <property name="mlt_service">avformat-novalidate</property>
    <property name="meta.media.nb_streams">1</property>
    <property name="meta.media.0.stream.type">video</property>
    <property name="meta.media.0.stream.frame_rate">24</property>
    <property name="meta.media.0.stream.sample_aspect_ratio">1</property>
    <property name="meta.media.0.codec.width">1920</property>
    <property name="meta.media.0.codec.height">1080</property>
    <property name="meta.media.0.codec.rotate">0</property>
    <property name="meta.media.0.codec.pix_fmt">yuv420p</property>
    <property name="meta.media.0.codec.sample_aspect_ratio">1</property>
    <property name="meta.media.0.codec.colorspace">709</property>
    <property name="meta.media.0.codec.name">h264</property>
    <property name="meta.media.0.codec.long_name">H.264 / AVC / MPEG-4 AVC / MPEG-4 part 10</property>
    <property name="meta.media.0.codec.bit_rate">0</property>
    <property name="meta.attr.0.stream.ENCODER.markup">Lavc58.134.100 libopenh264</property>
    <property name="meta.attr.0.stream.DURATION.markup">00:00:04.000000000</property>
    <property name="meta.attr.ENCODER.markup">Lavf58.76.100</property>
    <property name="seekable">1</property>
    <property name="meta.media.sample_aspect_num">1</property>
    <property name="meta.media.sample_aspect_den">1</property>
    <property name="audio_index">-1</property>
    <property name="video_index">0</property>
    <property name="creation_time">2025-12-15T03:46:03</property>
    <property name="vstream">0</property>
    <property name="meta.media.frame_rate_num">24</property>
    <property name="meta.media.frame_rate_den">1</property>
    <property name="meta.media.colorspace">709</property>
    <property name="meta.media.color_trc">2</property>
    <property name="meta.media.has_b_frames">0</property>
    <property name="meta.media.width">1920</property>
    <property name="meta.media.height">1080</property>
    <property name="meta.media.aspect_ratio">1</property>
    <property name="meta.media.color_range">mpeg</property>
    <property name="shotcut:skipConvert">1</property>
    <property name="shotcut:hash">2cbdec0df1590b0bce362855dabfe7d4</property>
    <property name="meta.media.top_field_first">0</property>
    <property name="meta.media.progressive">1</property>
    <property name="shotcut:caption">12portalback.mkv</property>
    <property name="meta.shotcut.vui">1</property>
    <property name="xml">was here</property>
  </chain>
  <chain id="chain90" out="00:00:03.958">
    <property name="length">00:00:04.000</property>
    <property name="eof">pause</property>
    <property name="resource">rendered animations/12portalback.mkv</property>
    <property name="mlt_service">avformat-novalidate</property>
    <property name="meta.media.nb_streams">1</property>
    <property name="meta.media.0.stream.type">video</property>
    <property name="meta.media.0.stream.frame_rate">24</property>
    <property name="meta.media.0.stream.sample_aspect_ratio">1</property>
    <property name="meta.media.0.codec.width">1920</property>
    <property name="meta.media.0.codec.height">1080</property>
    <property name="meta.media.0.codec.rotate">0</property>
    <property name="meta.media.0.codec.pix_fmt">yuv420p</property>
    <property name="meta.media.0.codec.sample_aspect_ratio">1</property>
    <property name="meta.media.0.codec.colorspace">709</property>
    <property name="meta.media.0.codec.name">h264</property>
    <property name="meta.media.0.codec.long_name">H.264 / AVC / MPEG-4 AVC / MPEG-4 part 10</property>
    <property name="meta.media.0.codec.bit_rate">0</property>
    <property name="meta.attr.0.stream.ENCODER.markup">Lavc58.134.100 libopenh264</property>
    <property name="meta.attr.0.stream.DURATION.markup">00:00:04.000000000</property>
    <property name="meta.attr.ENCODER.markup">Lavf58.76.100</property>
    <property name="seekable">1</property>
    <property name="meta.media.sample_aspect_num">1</property>
    <property name="meta.media.sample_aspect_den">1</property>
    <property name="audio_index">-1</property>
    <property name="video_index">0</property>
    <property name="creation_time">2025-12-15T03:46:03</property>
    <property name="vstream">0</property>
    <property name="meta.media.frame_rate_num">24</property>
    <property name="meta.media.frame_rate_den">1</property>
    <property name="meta.media.colorspace">709</property>
    <property name="meta.media.color_trc">2</property>
    <property name="meta.media.has_b_frames">0</property>
    <property name="meta.media.width">1920</property>
    <property name="meta.media.height">1080</property>
    <property name="meta.media.aspect_ratio">1</property>
    <property name="meta.media.color_range">mpeg</property>
    <property name="shotcut:skipConvert">1</property>
    <property name="shotcut:hash">2cbdec0df1590b0bce362855dabfe7d4</property>
    <property name="meta.media.top_field_first">0</property>
    <property name="meta.media.progressive">1</property>
    <property name="shotcut:caption">12portalback.mkv</property>
    <property name="meta.shotcut.vui">1</property>
    <property name="xml">was here</property>
    <filter id="filter86" in="00:00:03.708" out="00:00:03.958">
      <property name="background">color:#00000000</property>
      <property name="mlt_service">affine</property>
      <property name="shotcut:filter">affineSizePosition</property>
      <property name="transition.fix_rotate_x">00:00:00.000=0;00:00:00.250=0</property>
      <property name="transition.fill">1</property>
      <property name="transition.distort">0</property>
      <property name="transition.rect">00:00:00.000=0 0 1920 1080 1;00:00:00.250=-2013.29 -1011.89 5952 3348 1</property>
      <property name="transition.valign">middle</property>
      <property name="transition.halign">center</property>
      <property name="shotcut:animIn">00:00:00.292</property>
      <property name="shotcut:animOut">00:00:00.000</property>
      <property name="transition.threads">0</property>
    </filter>
  </chain>
  <producer id="producer63" in="00:00:00.000" out="03:59:59.958">
    <property name="length">04:00:00.000</property>
    <property name="eof">pause</property>
    <property name="resource">rendered animations/13diana0.png</property>
    <property name="ttl">1</property>
    <property name="aspect_ratio">1</property>
    <property name="meta.media.progressive">1</property>
    <property name="seekable">1</property>
    <property name="format">2</property>
    <property name="meta.media.width">1920</property>
    <property name="meta.media.height">1080</property>
    <property name="mlt_service">qimage</property>
    <property name="creation_time">2025-12-15T03:57:41</property>
    <property name="shotcut:skipConvert">1</property>
    <property name="shotcut:hash">64f1d642d360b59d81b38c9deb3c5e84</property>
    <property name="shotcut:caption">13diana0.png</property>
    <property name="meta.shotcut.vui">1</property>
    <property name="xml">was here</property>
    <filter id="filter87" out="00:00:02.792">
      <property name="background">color:#00000000</property>
      <property name="mlt_service">affine</property>
      <property name="shotcut:filter">affineSizePosition</property>
      <property name="transition.fix_rotate_x">00:00:00.000=0;00:00:02.708=0</property>
      <property name="transition.fill">1</property>
      <property name="transition.distort">0</property>
      <property name="transition.rect">00:00:00.000=0 0 1920 1080 1;00:00:02.708=-640.071 -360 3200.64 1800 1</property>
      <property name="transition.valign">middle</property>
      <property name="transition.halign">center</property>
      <property name="shotcut:animIn">00:00:02.750</property>
      <property name="shotcut:animOut">00:00:00.000</property>
      <property name="transition.threads">0</property>
    </filter>
  </producer>
  <producer id="producer64" in="00:00:00.000" out="03:59:59.958">
    <property name="length">04:00:00.000</property>
    <property name="eof">pause</property>
    <property name="resource">rendered animations/13diana1.png</property>
    <property name="ttl">1</property>
    <property name="aspect_ratio">1</property>
    <property name="meta.media.progressive">1</property>
    <property name="seekable">1</property>
    <property name="format">2</property>
    <property name="meta.media.width">1920</property>
    <property name="meta.media.height">1080</property>
    <property name="mlt_service">qimage</property>
    <property name="creation_time">2025-12-15T03:58:15</property>
    <property name="shotcut:skipConvert">1</property>
    <property name="shotcut:hash">e96d18685c3fc948088c4d4aff70954a</property>
    <property name="shotcut:caption">13diana1.png</property>
    <property name="meta.shotcut.vui">1</property>
    <property name="xml">was here</property>
    <filter id="filter88" out="00:00:02.750">
      <property name="background">color:#00000000</property>
      <property name="mlt_service">affine</property>
      <property name="shotcut:filter">affineSizePosition</property>
      <property name="transition.fix_rotate_x">00:00:00.000=0;00:00:02.625=0</property>
      <property name="transition.fill">1</property>
      <property name="transition.distort">0</property>
      <property name="transition.rect">00:00:00.000=0 0 1920 1080 1;00:00:02.625=-790.859 -592.058 3841.92 2161.08 1</property>
      <property name="transition.valign">middle</property>
      <property name="transition.halign">center</property>
      <property name="shotcut:animIn">00:00:02.708</property>
      <property name="shotcut:animOut">00:00:00.000</property>
      <property name="transition.threads">0</property>
    </filter>
  </producer>
  <producer id="producer65" in="00:00:00.000" out="03:59:59.958">
    <property name="length">04:00:00.000</property>
    <property name="eof">pause</property>
    <property name="resource">rendered animations/13diana2.png</property>
    <property name="ttl">1</property>
    <property name="aspect_ratio">1</property>
    <property name="meta.media.progressive">1</property>
    <property name="seekable">1</property>
    <property name="format">2</property>
    <property name="meta.media.width">1920</property>
    <property name="meta.media.height">1080</property>
    <property name="mlt_service">qimage</property>
    <property name="creation_time">2025-12-15T03:58:26</property>
    <property name="shotcut:skipConvert">1</property>
    <property name="shotcut:hash">f1940fb517e6f9928e86ab6029a6a5ba</property>
    <property name="shotcut:caption">13diana2.png</property>
    <property name="meta.shotcut.vui">1</property>
    <property name="xml">was here</property>
    <filter id="filter89" out="00:00:02.625">
      <property name="background">color:#00000000</property>
      <property name="mlt_service">affine</property>
      <property name="shotcut:filter">affineSizePosition</property>
      <property name="transition.fix_rotate_x">00:00:00.000=0;00:00:02.583=0</property>
      <property name="transition.fill">1</property>
      <property name="transition.distort">0</property>
      <property name="transition.rect">00:00:00.000=0 0 1920 1080 1;00:00:02.583=-574.638 -186.108 3073.92 1729.08 1</property>
      <property name="transition.valign">middle</property>
      <property name="transition.halign">center</property>
      <property name="shotcut:animIn">00:00:02.625</property>
      <property name="shotcut:animOut">00:00:00.000</property>
      <property name="transition.threads">0</property>
    </filter>
  </producer>
  <producer id="producer66" in="00:00:00.000" out="03:59:59.958">
    <property name="length">04:00:00.000</property>
    <property name="eof">pause</property>
    <property name="resource">rendered animations/13diana3.png</property>
    <property name="ttl">1</property>
    <property name="aspect_ratio">1</property>
    <property name="meta.media.progressive">1</property>
    <property name="seekable">1</property>
    <property name="format">2</property>
    <property name="meta.media.width">1920</property>
    <property name="meta.media.height">1080</property>
    <property name="mlt_service">qimage</property>
    <property name="creation_time">2025-12-15T03:58:43</property>
    <property name="shotcut:skipConvert">1</property>
    <property name="shotcut:hash">c76a6c2a8fba4f80cce9a98c4553b140</property>
    <property name="shotcut:caption">13diana3.png</property>
    <property name="meta.shotcut.vui">1</property>
    <property name="xml">was here</property>
    <filter id="filter90" out="00:00:02.708">
      <property name="background">color:#00000000</property>
      <property name="mlt_service">affine</property>
      <property name="shotcut:filter">affineSizePosition</property>
      <property name="transition.fix_rotate_x">00:00:00.000=0;00:00:02.625=0</property>
      <property name="transition.fill">1</property>
      <property name="transition.distort">0</property>
      <property name="transition.rect">00:00:00.000=0 0 1920 1080 1;00:00:02.625=-467.919 -0.138191 2818.56 1585.44 1</property>
      <property name="transition.valign">middle</property>
      <property name="transition.halign">center</property>
      <property name="shotcut:animIn">00:00:02.667</property>
      <property name="shotcut:animOut">00:00:00.000</property>
      <property name="transition.threads">0</property>
    </filter>
  </producer>
  <chain id="chain25" out="00:00:05.833">
    <property name="length">00:00:05.875</property>
    <property name="eof">pause</property>
    <property name="resource">rendered animations/14.0secondfightandyogurt.mkv</property>
    <property name="mlt_service">avformat-novalidate</property>
    <property name="meta.media.nb_streams">1</property>
    <property name="meta.media.0.stream.type">video</property>
    <property name="meta.media.0.stream.frame_rate">24</property>
    <property name="meta.media.0.stream.sample_aspect_ratio">1</property>
    <property name="meta.media.0.codec.width">1920</property>
    <property name="meta.media.0.codec.height">1080</property>
    <property name="meta.media.0.codec.rotate">0</property>
    <property name="meta.media.0.codec.pix_fmt">yuv420p</property>
    <property name="meta.media.0.codec.sample_aspect_ratio">1</property>
    <property name="meta.media.0.codec.colorspace">709</property>
    <property name="meta.media.0.codec.name">h264</property>
    <property name="meta.media.0.codec.long_name">H.264 / AVC / MPEG-4 AVC / MPEG-4 part 10</property>
    <property name="meta.media.0.codec.bit_rate">0</property>
    <property name="meta.attr.0.stream.ENCODER.markup">Lavc58.134.100 libopenh264</property>
    <property name="meta.attr.0.stream.DURATION.markup">00:00:05.875000000</property>
    <property name="meta.attr.ENCODER.markup">Lavf58.76.100</property>
    <property name="seekable">1</property>
    <property name="meta.media.sample_aspect_num">1</property>
    <property name="meta.media.sample_aspect_den">1</property>
    <property name="audio_index">-1</property>
    <property name="video_index">0</property>
    <property name="creation_time">2025-12-15T07:36:30</property>
    <property name="vstream">0</property>
    <property name="meta.media.frame_rate_num">24</property>
    <property name="meta.media.frame_rate_den">1</property>
    <property name="meta.media.colorspace">709</property>
    <property name="meta.media.color_trc">2</property>
    <property name="meta.media.has_b_frames">0</property>
    <property name="meta.media.width">1920</property>
    <property name="meta.media.height">1080</property>
    <property name="meta.media.aspect_ratio">1</property>
    <property name="meta.media.color_range">mpeg</property>
    <property name="shotcut:skipConvert">1</property>
    <property name="shotcut:hash">43ccd2403324d8a622631885c78b01f9</property>
    <property name="meta.media.top_field_first">0</property>
    <property name="meta.media.progressive">1</property>
    <property name="shotcut:caption">14.0secondfightandyogurt.mkv</property>
    <property name="xml">was here</property>
  </chain>
  <chain id="chain26" out="00:00:03.958">
    <property name="length">00:00:04.000</property>
    <property name="eof">pause</property>
    <property name="resource">rendered animations/14.1secondfightandyogurt.mkv</property>
    <property name="mlt_service">avformat-novalidate</property>
    <property name="meta.media.nb_streams">1</property>
    <property name="meta.media.0.stream.type">video</property>
    <property name="meta.media.0.stream.frame_rate">24</property>
    <property name="meta.media.0.stream.sample_aspect_ratio">1</property>
    <property name="meta.media.0.codec.width">1920</property>
    <property name="meta.media.0.codec.height">1080</property>
    <property name="meta.media.0.codec.rotate">0</property>
    <property name="meta.media.0.codec.pix_fmt">yuv420p</property>
    <property name="meta.media.0.codec.sample_aspect_ratio">1</property>
    <property name="meta.media.0.codec.colorspace">709</property>
    <property name="meta.media.0.codec.name">h264</property>
    <property name="meta.media.0.codec.long_name">H.264 / AVC / MPEG-4 AVC / MPEG-4 part 10</property>
    <property name="meta.media.0.codec.bit_rate">0</property>
    <property name="meta.attr.0.stream.ENCODER.markup">Lavc58.134.100 libopenh264</property>
    <property name="meta.attr.0.stream.DURATION.markup">00:00:04.000000000</property>
    <property name="meta.attr.ENCODER.markup">Lavf58.76.100</property>
    <property name="seekable">1</property>
    <property name="meta.media.sample_aspect_num">1</property>
    <property name="meta.media.sample_aspect_den">1</property>
    <property name="audio_index">-1</property>
    <property name="video_index">0</property>
    <property name="creation_time">2025-12-16T00:26:19</property>
    <property name="vstream">0</property>
    <property name="meta.media.frame_rate_num">24</property>
    <property name="meta.media.frame_rate_den">1</property>
    <property name="meta.media.colorspace">709</property>
    <property name="meta.media.color_trc">2</property>
    <property name="meta.media.has_b_frames">0</property>
    <property name="meta.media.width">1920</property>
    <property name="meta.media.height">1080</property>
    <property name="meta.media.aspect_ratio">1</property>
    <property name="meta.media.color_range">mpeg</property>
    <property name="shotcut:skipConvert">1</property>
    <property name="shotcut:hash">f42041e381341282919d1b90195397f1</property>
    <property name="meta.media.top_field_first">0</property>
    <property name="meta.media.progressive">1</property>
    <property name="shotcut:caption">14.1secondfightandyogurt.mkv</property>
    <property name="xml">was here</property>
  </chain>
  <producer id="producer61" in="00:00:00.000" out="03:59:59.958">
    <property name="length">04:00:00.000</property>
    <property name="eof">pause</property>
    <property name="resource">rendered animations/14.2secondfightandyogurt.png</property>
    <property name="ttl">1</property>
    <property name="aspect_ratio">1</property>
    <property name="meta.media.progressive">1</property>
    <property name="seekable">1</property>
    <property name="format">2</property>
    <property name="meta.media.width">1920</property>
    <property name="meta.media.height">1080</property>
    <property name="mlt_service">qimage</property>
    <property name="creation_time">2025-12-16T00:30:55</property>
    <property name="shotcut:skipConvert">1</property>
    <property name="shotcut:hash">740582d1f54fa999164c250d5a9f0c3e</property>
    <property name="shotcut:caption">14.2secondfightandyogurt.png</property>
    <property name="meta.shotcut.vui">1</property>
    <property name="xml">was here</property>
    <filter id="filter21" out="00:00:01.167">
      <property name="background">color:#00000000</property>
      <property name="mlt_service">affine</property>
      <property name="shotcut:filter">affineSizePosition</property>
      <property name="transition.fix_rotate_x">00:00:00.000=0;00:00:01.083=0</property>
      <property name="transition.fill">1</property>
      <property name="transition.distort">0</property>
      <property name="transition.rect">00:00:00.000=0 0 1920 1080 1;00:00:01.083=-257.493 -144.5 2434.56 1369 1</property>
      <property name="transition.valign">middle</property>
      <property name="transition.halign">center</property>
      <property name="shotcut:animIn">00:00:01.125</property>
      <property name="shotcut:animOut">00:00:00.000</property>
      <property name="transition.threads">0</property>
    </filter>
  </producer>
  <chain id="chain27" out="00:00:05.042">
    <property name="length">00:00:05.083</property>
    <property name="eof">pause</property>
    <property name="resource">rendered animations/14.3secondfightandyogurt.mkv</property>
    <property name="mlt_service">avformat-novalidate</property>
    <property name="meta.media.nb_streams">1</property>
    <property name="meta.media.0.stream.type">video</property>
    <property name="meta.media.0.stream.frame_rate">24</property>
    <property name="meta.media.0.stream.sample_aspect_ratio">1</property>
    <property name="meta.media.0.codec.width">1920</property>
    <property name="meta.media.0.codec.height">1080</property>
    <property name="meta.media.0.codec.rotate">0</property>
    <property name="meta.media.0.codec.pix_fmt">yuv420p</property>
    <property name="meta.media.0.codec.sample_aspect_ratio">1</property>
    <property name="meta.media.0.codec.colorspace">709</property>
    <property name="meta.media.0.codec.name">h264</property>
    <property name="meta.media.0.codec.long_name">H.264 / AVC / MPEG-4 AVC / MPEG-4 part 10</property>
    <property name="meta.media.0.codec.bit_rate">0</property>
    <property name="meta.attr.0.stream.ENCODER.markup">Lavc58.134.100 libopenh264</property>
    <property name="meta.attr.0.stream.DURATION.markup">00:00:05.084000000</property>
    <property name="meta.attr.ENCODER.markup">Lavf58.76.100</property>
    <property name="seekable">1</property>
    <property name="meta.media.sample_aspect_num">1</property>
    <property name="meta.media.sample_aspect_den">1</property>
    <property name="audio_index">-1</property>
    <property name="video_index">0</property>
    <property name="creation_time">2025-12-16T23:08:38</property>
    <property name="vstream">0</property>
    <property name="meta.media.frame_rate_num">24</property>
    <property name="meta.media.frame_rate_den">1</property>
    <property name="meta.media.colorspace">709</property>
    <property name="meta.media.color_trc">2</property>
    <property name="meta.media.has_b_frames">0</property>
    <property name="meta.media.width">1920</property>
    <property name="meta.media.height">1080</property>
    <property name="meta.media.aspect_ratio">1</property>
    <property name="meta.media.color_range">mpeg</property>
    <property name="shotcut:skipConvert">1</property>
    <property name="shotcut:hash">8dced5a2cd04e04e0f3a10dd6e1c5bed</property>
    <property name="meta.media.top_field_first">0</property>
    <property name="meta.media.progressive">1</property>
    <property name="shotcut:caption">14.3secondfightandyogurt.mkv</property>
    <property name="xml">was here</property>
  </chain>
  <producer id="producer62" in="00:00:00.000" out="03:59:59.958">
    <property name="length">04:00:00.000</property>
    <property name="eof">pause</property>
    <property name="resource">rendered animations/14.3.1secondfightandyogurt.png</property>
    <property name="ttl">1</property>
    <property name="aspect_ratio">1</property>
    <property name="meta.media.progressive">1</property>
    <property name="seekable">1</property>
    <property name="format">2</property>
    <property name="meta.media.width">1920</property>
    <property name="meta.media.height">1080</property>
    <property name="mlt_service">qimage</property>
    <property name="creation_time">2025-12-16T23:10:23</property>
    <property name="shotcut:skipConvert">1</property>
    <property name="shotcut:hash">afdd330905072c2fb08ee3bd8636857d</property>
    <property name="shotcut:caption">14.3.1secondfightandyogurt.png</property>
    <property name="xml">was here</property>
  </producer>
  <producer id="producer67" in="00:00:00.000" out="03:59:59.958">
    <property name="length">04:00:00.000</property>
    <property name="eof">pause</property>
    <property name="resource">rendered animations/14.3.2secondfightandyogurt.png</property>
    <property name="ttl">1</property>
    <property name="aspect_ratio">1</property>
    <property name="meta.media.progressive">1</property>
    <property name="seekable">1</property>
    <property name="format">2</property>
    <property name="meta.media.width">1920</property>
    <property name="meta.media.height">1080</property>
    <property name="mlt_service">qimage</property>
    <property name="creation_time">2025-12-16T23:10:32</property>
    <property name="shotcut:skipConvert">1</property>
    <property name="shotcut:hash">84231f0243e4c200627f2820f28b0226</property>
    <property name="shotcut:caption">14.3.2secondfightandyogurt.png</property>
    <property name="xml">was here</property>
  </producer>
  <chain id="chain28" out="00:00:08.333">
    <property name="length">00:00:08.375</property>
    <property name="eof">pause</property>
    <property name="resource">rendered animations/14.4secondfightandyogurt.mkv</property>
    <property name="mlt_service">avformat-novalidate</property>
    <property name="meta.media.nb_streams">1</property>
    <property name="meta.media.0.stream.type">video</property>
    <property name="meta.media.0.stream.frame_rate">24</property>
    <property name="meta.media.0.stream.sample_aspect_ratio">1</property>
    <property name="meta.media.0.codec.width">1920</property>
    <property name="meta.media.0.codec.height">1080</property>
    <property name="meta.media.0.codec.rotate">0</property>
    <property name="meta.media.0.codec.pix_fmt">yuv420p</property>
    <property name="meta.media.0.codec.sample_aspect_ratio">1</property>
    <property name="meta.media.0.codec.colorspace">709</property>
    <property name="meta.media.0.codec.name">h264</property>
    <property name="meta.media.0.codec.long_name">H.264 / AVC / MPEG-4 AVC / MPEG-4 part 10</property>
    <property name="meta.media.0.codec.bit_rate">0</property>
    <property name="meta.attr.0.stream.ENCODER.markup">Lavc58.134.100 libopenh264</property>
    <property name="meta.attr.0.stream.DURATION.markup">00:00:08.375000000</property>
    <property name="meta.attr.ENCODER.markup">Lavf58.76.100</property>
    <property name="seekable">1</property>
    <property name="meta.media.sample_aspect_num">1</property>
    <property name="meta.media.sample_aspect_den">1</property>
    <property name="audio_index">-1</property>
    <property name="video_index">0</property>
    <property name="creation_time">2025-12-17T02:14:38</property>
    <property name="vstream">0</property>
    <property name="meta.media.frame_rate_num">24</property>
    <property name="meta.media.frame_rate_den">1</property>
    <property name="meta.media.colorspace">709</property>
    <property name="meta.media.color_trc">2</property>
    <property name="meta.media.has_b_frames">0</property>
    <property name="meta.media.width">1920</property>
    <property name="meta.media.height">1080</property>
    <property name="meta.media.aspect_ratio">1</property>
    <property name="meta.media.color_range">mpeg</property>
    <property name="shotcut:skipConvert">1</property>
    <property name="shotcut:hash">902320b35f584e1e82d152e21d9e3f29</property>
    <property name="meta.media.top_field_first">0</property>
    <property name="meta.media.progressive">1</property>
    <property name="shotcut:caption">14.4secondfightandyogurt.mkv</property>
    <property name="xml">was here</property>
  </chain>
  <chain id="chain29" out="00:00:02.708">
    <property name="length">00:00:02.750</property>
    <property name="eof">pause</property>
    <property name="resource">rendered animations/14.5secondfightandyogurt.mkv</property>
    <property name="mlt_service">avformat-novalidate</property>
    <property name="meta.media.nb_streams">1</property>
    <property name="meta.media.0.stream.type">video</property>
    <property name="meta.media.0.stream.frame_rate">24</property>
    <property name="meta.media.0.stream.sample_aspect_ratio">1</property>
    <property name="meta.media.0.codec.width">1920</property>
    <property name="meta.media.0.codec.height">1080</property>
    <property name="meta.media.0.codec.rotate">0</property>
    <property name="meta.media.0.codec.pix_fmt">yuv420p</property>
    <property name="meta.media.0.codec.sample_aspect_ratio">1</property>
    <property name="meta.media.0.codec.colorspace">709</property>
    <property name="meta.media.0.codec.name">h264</property>
    <property name="meta.media.0.codec.long_name">H.264 / AVC / MPEG-4 AVC / MPEG-4 part 10</property>
    <property name="meta.media.0.codec.bit_rate">0</property>
    <property name="meta.attr.0.stream.ENCODER.markup">Lavc58.134.100 libopenh264</property>
    <property name="meta.attr.0.stream.DURATION.markup">00:00:02.750000000</property>
    <property name="meta.attr.ENCODER.markup">Lavf58.76.100</property>
    <property name="seekable">1</property>
    <property name="meta.media.sample_aspect_num">1</property>
    <property name="meta.media.sample_aspect_den">1</property>
    <property name="audio_index">-1</property>
    <property name="video_index">0</property>
    <property name="creation_time">2025-12-17T02:09:12</property>
    <property name="vstream">0</property>
    <property name="meta.media.frame_rate_num">24</property>
    <property name="meta.media.frame_rate_den">1</property>
    <property name="meta.media.colorspace">709</property>
    <property name="meta.media.color_trc">2</property>
    <property name="meta.media.has_b_frames">0</property>
    <property name="meta.media.width">1920</property>
    <property name="meta.media.height">1080</property>
    <property name="meta.media.aspect_ratio">1</property>
    <property name="meta.media.color_range">mpeg</property>
    <property name="shotcut:skipConvert">1</property>
    <property name="shotcut:hash">f8a28efb50b9ce4d1050f2974b1a9c0b</property>
    <property name="meta.media.top_field_first">0</property>
    <property name="meta.media.progressive">1</property>
    <property name="shotcut:caption">14.5secondfightandyogurt.mkv</property>
    <property name="xml">was here</property>
  </chain>
  <chain id="chain30" out="00:00:17.333">
    <property name="length">00:00:17.375</property>
    <property name="eof">pause</property>
    <property name="resource">rendered animations/15nowaurorago.mkv</property>
    <property name="mlt_service">avformat-novalidate</property>
    <property name="meta.media.nb_streams">1</property>
    <property name="meta.media.0.stream.type">video</property>
    <property name="meta.media.0.stream.frame_rate">24</property>
    <property name="meta.media.0.stream.sample_aspect_ratio">1</property>
    <property name="meta.media.0.codec.width">1920</property>
    <property name="meta.media.0.codec.height">1080</property>
    <property name="meta.media.0.codec.rotate">0</property>
    <property name="meta.media.0.codec.pix_fmt">yuv420p</property>
    <property name="meta.media.0.codec.sample_aspect_ratio">1</property>
    <property name="meta.media.0.codec.colorspace">709</property>
    <property name="meta.media.0.codec.name">h264</property>
    <property name="meta.media.0.codec.long_name">H.264 / AVC / MPEG-4 AVC / MPEG-4 part 10</property>
    <property name="meta.media.0.codec.bit_rate">0</property>
    <property name="meta.attr.0.stream.ENCODER.markup">Lavc58.134.100 libopenh264</property>
    <property name="meta.attr.0.stream.DURATION.markup">00:00:17.375000000</property>
    <property name="meta.attr.ENCODER.markup">Lavf58.76.100</property>
    <property name="seekable">1</property>
    <property name="meta.media.sample_aspect_num">1</property>
    <property name="meta.media.sample_aspect_den">1</property>
    <property name="audio_index">-1</property>
    <property name="video_index">0</property>
    <property name="creation_time">2025-12-19T03:25:27</property>
    <property name="vstream">0</property>
    <property name="meta.media.frame_rate_num">24</property>
    <property name="meta.media.frame_rate_den">1</property>
    <property name="meta.media.colorspace">709</property>
    <property name="meta.media.color_trc">2</property>
    <property name="meta.media.has_b_frames">0</property>
    <property name="meta.media.width">1920</property>
    <property name="meta.media.height">1080</property>
    <property name="meta.media.aspect_ratio">1</property>
    <property name="meta.media.color_range">mpeg</property>
    <property name="shotcut:skipConvert">1</property>
    <property name="shotcut:hash">e839bbef1368da955e06997424dd2971</property>
    <property name="meta.media.top_field_first">0</property>
    <property name="meta.media.progressive">1</property>
    <property name="shotcut:caption">15nowaurorago.mkv</property>
    <property name="xml">was here</property>
  </chain>
  <producer id="producer68" in="00:00:00.000" out="00:00:10.833">
    <property name="length">00:00:10.875</property>
    <property name="eof">pause</property>
    <property name="resource">0.93:rendered animations/16juniorhelpbingo.mkv</property>
    <property name="aspect_ratio">1</property>
    <property name="meta.media.nb_streams">1</property>
    <property name="meta.media.0.stream.type">video</property>
    <property name="meta.media.0.stream.frame_rate">24</property>
    <property name="meta.media.0.stream.sample_aspect_ratio">1</property>
    <property name="meta.media.0.codec.width">1920</property>
    <property name="meta.media.0.codec.height">1080</property>
    <property name="meta.media.0.codec.rotate">0</property>
    <property name="meta.media.0.codec.pix_fmt">yuv420p</property>
    <property name="meta.media.0.codec.sample_aspect_ratio">1</property>
    <property name="meta.media.0.codec.colorspace">709</property>
    <property name="meta.media.0.codec.name">h264</property>
    <property name="meta.media.0.codec.long_name">H.264 / AVC / MPEG-4 AVC / MPEG-4 part 10</property>
    <property name="meta.media.0.codec.bit_rate">0</property>
    <property name="meta.attr.0.stream.ENCODER.markup">Lavc58.134.100 libopenh264</property>
    <property name="meta.attr.0.stream.DURATION.markup">00:00:10.125000000</property>
    <property name="meta.attr.ENCODER.markup">Lavf58.76.100</property>
    <property name="seekable">1</property>
    <property name="meta.media.sample_aspect_num">1</property>
    <property name="meta.media.sample_aspect_den">1</property>
    <property name="audio_index">-1</property>
    <property name="video_index">0</property>
    <property name="warp_speed">0.93</property>
    <property name="warp_resource">rendered animations/16juniorhelpbingo.mkv</property>
    <property name="mlt_service">timewarp</property>
    <property name="shotcut:producer">avformat</property>
    <property name="video_delay">0</property>
    <property name="vstream">0</property>
    <property name="shotcut:hash">c9fba217075d97f887f85e9111cc3bfa</property>
    <property name="shotcut:skipConvert">1</property>
    <property name="shotcut:caption">16juniorhelpbingo.mkv (0.93x)</property>
    <property name="xml">was here</property>
    <property name="meta.media.frame_rate_num">24</property>
    <property name="meta.media.frame_rate_den">1</property>
    <property name="meta.media.colorspace">709</property>
    <property name="meta.media.color_trc">2</property>
    <property name="meta.media.has_b_frames">0</property>
    <property name="meta.media.width">1920</property>
    <property name="meta.media.height">1080</property>
    <property name="meta.media.aspect_ratio">1</property>
    <property name="meta.media.color_range">mpeg</property>
    <property name="meta.media.top_field_first">0</property>
    <property name="meta.media.progressive">1</property>
  </producer>
  <producer id="producer69" in="00:00:00.000" out="03:59:59.958">
    <property name="length">04:00:00.000</property>
    <property name="eof">pause</property>
    <property name="resource">images/white.png</property>
    <property name="ttl">1</property>
    <property name="aspect_ratio">1</property>
    <property name="meta.media.progressive">1</property>
    <property name="seekable">1</property>
    <property name="format">2</property>
    <property name="meta.media.width">1920</property>
    <property name="meta.media.height">1080</property>
    <property name="mlt_service">qimage</property>
    <property name="creation_time">2025-12-15T02:36:30</property>
    <property name="shotcut:skipConvert">1</property>
    <property name="shotcut:hash">ec205f39903ee801e2ba54b9f6853b69</property>
    <property name="shotcut:caption">white.png</property>
    <property name="xml">was here</property>
  </producer>
  <producer id="producer70" in="00:00:00.000" out="03:59:59.958">
    <property name="length">04:00:00.000</property>
    <property name="eof">pause</property>
    <property name="resource">rendered animations/Credits-1.png</property>
    <property name="ttl">1</property>
    <property name="aspect_ratio">1</property>
    <property name="meta.media.progressive">1</property>
    <property name="seekable">1</property>
    <property name="format">2</property>
    <property name="meta.media.width">1920</property>
    <property name="meta.media.height">1080</property>
    <property name="mlt_service">qimage</property>
    <property name="creation_time">2025-12-18T02:31:30</property>
    <property name="shotcut:skipConvert">1</property>
    <property name="shotcut:hash">c755b9640c1261d1ea81428144a4adf2</property>
    <property name="shotcut:caption">Credits-1.png</property>
    <property name="xml">was here</property>
  </producer>
  <producer id="producer75" in="00:00:00.000" out="03:59:59.958">
    <property name="length">04:00:00.000</property>
    <property name="eof">pause</property>
    <property name="resource">rendered animations/Credits-5.png</property>
    <property name="ttl">1</property>
    <property name="aspect_ratio">1</property>
    <property name="meta.media.progressive">1</property>
    <property name="seekable">1</property>
    <property name="format">2</property>
    <property name="meta.media.width">1920</property>
    <property name="meta.media.height">1080</property>
    <property name="mlt_service">qimage</property>
    <property name="creation_time">2025-12-18T02:14:25</property>
    <property name="shotcut:skipConvert">1</property>
    <property name="shotcut:hash">9c646c5cf2755d8745bf1f40e79a516e</property>
    <property name="shotcut:caption">Credits-5.png</property>
    <property name="xml">was here</property>
  </producer>
  <producer id="producer76" in="00:00:00.000" out="03:59:59.958">
    <property name="length">04:00:00.000</property>
    <property name="eof">pause</property>
    <property name="resource">rendered animations/Credits-2.png</property>
    <property name="ttl">1</property>
    <property name="aspect_ratio">1</property>
    <property name="meta.media.progressive">1</property>
    <property name="seekable">1</property>
    <property name="format">2</property>
    <property name="meta.media.width">1920</property>
    <property name="meta.media.height">1080</property>
    <property name="mlt_service">qimage</property>
    <property name="creation_time">2025-12-18T02:13:51</property>
    <property name="shotcut:skipConvert">1</property>
    <property name="shotcut:hash">a07273bcefc13db5935c2e0237cc17ce</property>
    <property name="shotcut:caption">Credits-2.png</property>
    <property name="xml">was here</property>
  </producer>
  <producer id="producer77" in="00:00:00.000" out="03:59:59.958">
    <property name="length">04:00:00.000</property>
    <property name="eof">pause</property>
    <property name="resource">rendered animations/Credits-3.png</property>
    <property name="ttl">1</property>
    <property name="aspect_ratio">1</property>
    <property name="meta.media.progressive">1</property>
    <property name="seekable">1</property>
    <property name="format">2</property>
    <property name="meta.media.width">1920</property>
    <property name="meta.media.height">1080</property>
    <property name="mlt_service">qimage</property>
    <property name="creation_time">2025-12-18T02:14:01</property>
    <property name="shotcut:skipConvert">1</property>
    <property name="shotcut:hash">4f2b1656246e57afdec72a71aff7754b</property>
    <property name="shotcut:caption">Credits-3.png</property>
    <property name="xml">was here</property>
  </producer>
  <producer id="producer71" in="00:00:00.000" out="03:59:59.958">
    <property name="length">04:00:00.000</property>
    <property name="eof">pause</property>
    <property name="resource">rendered animations/Credits-4.png</property>
    <property name="ttl">1</property>
    <property name="aspect_ratio">1</property>
    <property name="meta.media.progressive">1</property>
    <property name="seekable">1</property>
    <property name="format">2</property>
    <property name="meta.media.width">1920</property>
    <property name="meta.media.height">1080</property>
    <property name="mlt_service">qimage</property>
    <property name="creation_time">2025-12-19T03:36:25</property>
    <property name="shotcut:skipConvert">1</property>
    <property name="shotcut:hash">9bfe149c3bd22609761a30491b935949</property>
    <property name="shotcut:caption">Credits-4.png</property>
    <property name="xml">was here</property>
  </producer>
  <producer id="producer79" in="00:00:00.000" out="03:59:59.958">
    <property name="length">04:00:00.000</property>
    <property name="eof">pause</property>
    <property name="resource">rendered animations/Credits-6.png</property>
    <property name="ttl">1</property>
    <property name="aspect_ratio">1</property>
    <property name="meta.media.progressive">1</property>
    <property name="seekable">1</property>
    <property name="format">2</property>
    <property name="meta.media.width">1920</property>
    <property name="meta.media.height">1080</property>
    <property name="mlt_service">qimage</property>
    <property name="creation_time">2025-12-18T02:15:49</property>
    <property name="shotcut:skipConvert">1</property>
    <property name="shotcut:hash">3beefb34702ec371c5ade0ad82aaea27</property>
    <property name="shotcut:caption">Credits-6.png</property>
    <property name="xml">was here</property>
  </producer>
  <playlist id="playlist0">
    <property name="shotcut:video">1</property>
    <property name="shotcut:name">V1</property>
    <entry producer="producer0" in="00:00:00.000" out="00:00:05.500"/>
    <entry producer="chain0" in="00:00:00.000" out="00:00:06.333"/>
    <entry producer="producer1" in="00:00:00.000" out="00:00:02.250"/>
    <entry producer="producer2" in="00:00:00.000" out="00:00:05.667"/>
    <entry producer="producer3" in="00:00:02.042" out="00:00:06.792"/>
    <entry producer="producer4" in="00:00:00.000" out="00:00:05.542"/>
    <entry producer="producer5" in="00:00:00.000" out="00:00:03.250"/>
    <entry producer="producer6" in="00:00:00.000" out="00:00:03.375"/>
    <entry producer="producer7" in="00:00:00.000" out="00:00:03.583"/>
    <blank length="00:00:05.292"/>
    <entry producer="producer8" in="00:00:00.000" out="00:00:03.958"/>
    <entry producer="producer9" in="00:00:00.000" out="00:00:01.625"/>
    <entry producer="producer10" in="00:00:00.000" out="00:00:02.708"/>
    <entry producer="producer11" in="00:00:00.000" out="00:00:11.542"/>
    <entry producer="producer12" in="00:00:00.000" out="00:00:01.208"/>
    <entry producer="producer13" in="00:00:00.000" out="00:00:01.208"/>
    <entry producer="producer14" in="00:00:00.000" out="00:00:01.208"/>
    <entry producer="producer15" in="00:00:00.000" out="00:00:01.208"/>
    <entry producer="producer16" in="00:00:00.000" out="00:00:02.042"/>
    <entry producer="producer17" in="00:00:00.000" out="00:00:01.250"/>
    <entry producer="producer18" in="00:00:00.000" out="00:00:01.208"/>
    <entry producer="producer19" in="00:00:00.000" out="00:00:01.292"/>
    <entry producer="producer20" in="00:00:00.000" out="00:00:01.208"/>
    <entry producer="producer21" in="00:00:00.000" out="00:00:01.875"/>
    <entry producer="producer22" in="00:00:00.000" out="00:00:01.208"/>
    <entry producer="producer23" in="00:00:00.000" out="00:00:01.208"/>
    <entry producer="producer24" in="00:00:00.000" out="00:00:01.208"/>
    <entry producer="producer25" in="00:00:00.000" out="00:00:01.208"/>
    <entry producer="producer26" in="00:00:00.000" out="00:00:00.417"/>
    <entry producer="producer27" in="00:00:00.083" out="00:00:00.417"/>
    <entry producer="producer28" in="00:00:00.000" out="00:00:00.292"/>
    <entry producer="producer29" in="00:00:00.000" out="00:00:00.333"/>
    <entry producer="producer30" in="00:00:00.000" out="00:00:00.292"/>
    <entry producer="producer31" in="00:00:00.458" out="00:00:00.542"/>
    <entry producer="producer32" in="00:00:00.000" out="00:00:01.250"/>
    <entry producer="producer33" in="00:00:00.000" out="00:00:01.208"/>
    <entry producer="producer34" in="00:00:00.000" out="00:00:01.208"/>
    <entry producer="producer35" in="00:00:00.000" out="00:00:03.958"/>
    <entry producer="producer36" in="00:00:00.042" out="00:00:01.750"/>
    <entry producer="producer37" in="00:00:00.000" out="00:00:02.333"/>
    <entry producer="producer38" in="00:00:00.000" out="00:00:02.208"/>
    <entry producer="producer39" in="00:00:00.000" out="00:00:04.292"/>
    <entry producer="producer40" in="00:00:01.042" out="00:00:04.125"/>
    <entry producer="producer41" in="00:00:18.500" out="00:00:21.167"/>
    <entry producer="producer42" in="00:00:00.000" out="00:00:04.042"/>
    <entry producer="chain3" in="00:00:06.458" out="00:00:07.417"/>
    <entry producer="producer43" in="00:00:00.000" out="00:00:01.917"/>
    <entry producer="producer44" in="00:00:00.000" out="00:00:07.333"/>
    <entry producer="producer45" in="00:00:00.000" out="00:00:00.750"/>
    <entry producer="chain4" in="00:00:09.500" out="00:00:11.458"/>
    <entry producer="producer46" in="00:00:00.000" out="00:00:00.750"/>
    <entry producer="producer47" in="00:00:00.000" out="00:00:08.792"/>
    <entry producer="chain2" in="00:00:00.000" out="00:00:04.000"/>
    <entry producer="chain6" in="00:00:00.000" out="00:00:01.208"/>
    <entry producer="producer48" in="00:00:00.000" out="00:00:01.292"/>
    <entry producer="producer49" in="00:00:00.000" out="00:00:01.375"/>
    <entry producer="producer50" in="00:00:00.208" out="00:00:00.708"/>
    <entry producer="producer51" in="00:00:00.500" out="00:00:00.958"/>
    <entry producer="chain7" in="00:00:00.000" out="00:00:01.667"/>
    <entry producer="producer52" in="00:00:00.000" out="00:00:01.292"/>
    <entry producer="producer53" in="00:00:01.167" out="00:00:02.667"/>
    <entry producer="chain5" in="00:00:06.333" out="00:00:08.958"/>
    <entry producer="producer54" in="00:00:02.750" out="00:00:04.250"/>
    <entry producer="chain8" in="00:00:09.000" out="00:00:10.333"/>
    <entry producer="chain9" in="00:00:11.000" out="00:00:12.292"/>
    <entry producer="chain10" in="00:00:11.000" out="00:00:11.625"/>
    <entry producer="producer55" in="00:00:04.292" out="00:00:07.417"/>
    <entry producer="chain1" in="00:00:13.333" out="00:00:14.792"/>
    <entry producer="chain11" in="00:00:14.833" out="00:00:15.958"/>
    <entry producer="chain12" in="00:00:00.000" out="00:00:00.917"/>
    <entry producer="chain13" in="00:00:00.958" out="00:00:03.042"/>
    <entry producer="chain14" in="00:00:00.000" out="00:00:01.208"/>
    <entry producer="chain15" in="00:00:01.250" out="00:00:08.208"/>
    <entry producer="chain17" in="00:00:00.000" out="00:00:01.917"/>
    <entry producer="chain18" in="00:00:00.000" out="00:00:00.917"/>
    <entry producer="chain19" in="00:00:02.000" out="00:00:03.958"/>
    <entry producer="chain20" in="00:00:02.000" out="00:00:03.958"/>
    <entry producer="chain16" in="00:00:00.000" out="00:00:04.875"/>
    <blank length="00:00:05.375"/>
    <entry producer="producer59" in="00:00:00.000" out="00:00:01.792"/>
    <blank length="00:00:08.708"/>
    <entry producer="producer60" in="00:00:00.000" out="00:00:01.792"/>
    <blank length="00:00:15.917"/>
    <entry producer="chain22" in="00:00:00.000" out="00:00:02.625"/>
    <entry producer="chain78" in="00:00:00.000" out="00:00:00.167"/>
    <entry producer="chain23" in="00:00:00.000" out="00:00:00.917"/>
    <entry producer="chain79" in="00:00:00.000" out="00:00:00.917"/>
    <entry producer="chain80" in="00:00:01.000" out="00:00:01.667"/>
    <entry producer="chain21" in="00:00:01.708" out="00:00:01.917"/>
    <entry producer="chain24" in="00:00:01.708" out="00:00:01.917"/>
    <entry producer="chain81" in="00:00:01.000" out="00:00:01.917"/>
    <entry producer="chain82" in="00:00:01.000" out="00:00:01.917"/>
    <entry producer="chain84" in="00:00:02.000" out="00:00:02.917"/>
    <entry producer="chain85" in="00:00:02.000" out="00:00:02.917"/>
    <entry producer="chain86" in="00:00:02.000" out="00:00:02.917"/>
    <entry producer="chain87" in="00:00:03.000" out="00:00:03.958"/>
    <entry producer="chain88" in="00:00:03.000" out="00:00:03.958"/>
    <entry producer="chain89" in="00:00:03.000" out="00:00:03.958"/>
    <entry producer="chain90" in="00:00:03.708" out="00:00:03.958"/>
    <entry producer="producer63" in="00:00:00.000" out="00:00:02.792"/>
    <entry producer="producer64" in="00:00:00.000" out="00:00:02.750"/>
    <entry producer="producer65" in="00:00:00.000" out="00:00:02.625"/>
    <entry producer="producer66" in="00:00:00.000" out="00:00:02.708"/>
    <entry producer="chain25" in="00:00:00.000" out="00:00:05.833"/>
    <entry producer="chain26" in="00:00:00.000" out="00:00:03.833"/>
    <entry producer="producer61" in="00:00:00.000" out="00:00:01.167"/>
    <entry producer="chain27" in="00:00:00.000" out="00:00:04.833"/>
    <entry producer="producer62" in="00:00:00.000" out="00:00:00.292"/>
    <entry producer="producer67" in="00:00:00.000" out="00:00:00.417"/>
    <entry producer="chain28" in="00:00:00.000" out="00:00:08.125"/>
    <entry producer="chain29" in="00:00:00.000" out="00:00:02.708"/>
    <entry producer="chain30" in="00:00:00.000" out="00:00:16.333"/>
    <entry producer="producer68" in="00:00:00.000" out="00:00:10.833"/>
    <entry producer="producer69" in="00:00:00.000" out="00:00:02.792"/>
    <blank length="00:00:08.250"/>
    <entry producer="producer70" in="00:00:00.000" out="00:00:02.833"/>
    <entry producer="producer75" in="00:00:00.375" out="00:00:02.875"/>
    <entry producer="producer76" in="00:00:00.000" out="00:00:02.083"/>
    <entry producer="producer77" in="00:00:00.000" out="00:00:01.292"/>
    <entry producer="producer71" in="00:00:00.000" out="00:00:01.875"/>
    <entry producer="producer79" in="00:00:00.000" out="00:00:01.208"/>
  </playlist>
  <chain id="chain31" out="00:07:34.042">
    <property name="length">00:07:34.083</property>
    <property name="eof">pause</property>
    <property name="resource">audio clips/marching_band.mp3</property>
    <property name="mlt_service">avformat-novalidate</property>
    <property name="meta.media.nb_streams">2</property>
    <property name="meta.media.0.stream.type">video</property>
    <property name="meta.media.0.stream.frame_rate">24</property>
    <property name="meta.media.0.stream.sample_aspect_ratio">1</property>
    <property name="meta.media.0.codec.width">1920</property>
    <property name="meta.media.0.codec.height">1080</property>
    <property name="meta.media.0.codec.rotate">0</property>
    <property name="meta.media.0.codec.pix_fmt">yuv420p</property>
    <property name="meta.media.0.codec.sample_aspect_ratio">1</property>
    <property name="meta.media.0.codec.colorspace">709</property>
    <property name="meta.media.0.codec.color_trc">1</property>
    <property name="meta.media.0.codec.name">h264</property>
    <property name="meta.media.0.codec.long_name">H.264 / AVC / MPEG-4 AVC / MPEG-4 part 10</property>
    <property name="meta.media.0.codec.bit_rate">13965</property>
    <property name="meta.attr.0.stream.handler_name.markup">VideoHandler</property>
    <property name="meta.attr.0.stream.vendor_id.markup">[0][0][0][0]</property>
    <property name="meta.media.1.stream.type">audio</property>
    <property name="meta.media.1.codec.sample_fmt">fltp</property>
    <property name="meta.media.1.codec.sample_rate">48000</property>
    <property name="meta.media.1.codec.channels">2</property>
    <property name="meta.media.1.codec.layout">stereo</property>
    <property name="meta.media.1.codec.name">aac</property>
    <property name="meta.media.1.codec.long_name">AAC (Advanced Audio Coding)</property>
    <property name="meta.media.1.codec.bit_rate">356114</property>
    <property name="meta.attr.1.stream.handler_name.markup">SoundHandler</property>
    <property name="meta.attr.1.stream.vendor_id.markup">[0][0][0][0]</property>
    <property name="meta.attr.major_brand.markup">isom</property>
    <property name="meta.attr.minor_version.markup">512</property>
    <property name="meta.attr.compatible_brands.markup">isomiso2avc1mp41</property>
    <property name="meta.attr.encoder.markup">Lavf61.7.100</property>
    <property name="seekable">1</property>
    <property name="meta.media.sample_aspect_num">1</property>
    <property name="meta.media.sample_aspect_den">1</property>
    <property name="audio_index">1</property>
    <property name="video_index">0</property>
    <property name="creation_time">2025-12-13T23:41:11</property>
    <property name="vstream">0</property>
    <property name="meta.media.frame_rate_num">24</property>
    <property name="meta.media.frame_rate_den">1</property>
    <property name="meta.media.colorspace">709</property>
    <property name="meta.media.color_trc">1</property>
    <property name="meta.media.has_b_frames">2</property>
    <property name="meta.media.width">1920</property>
    <property name="meta.media.height">1080</property>
    <property name="meta.media.aspect_ratio">1</property>
    <property name="meta.media.color_range">mpeg</property>
    <property name="astream">0</property>
    <property name="shotcut:skipConvert">1</property>
    <property name="shotcut:hash">c127f6e757d5fe4c2fc92fb2c42bc0d8</property>
    <property name="meta.media.top_field_first">0</property>
    <property name="meta.media.progressive">1</property>
    <property name="shotcut:caption">marching_band.mp3</property>
    <property name="xml">was here</property>
    <filter id="filter22" in="00:00:00.542" out="00:00:44.417">
      <property name="window">75</property>
      <property name="max_gain">20dB</property>
      <property name="level">-20</property>
      <property name="mlt_service">volume</property>
    </filter>
  </chain>
  <chain id="chain32" out="00:07:34.042">
    <property name="length">00:07:34.083</property>
    <property name="eof">pause</property>
    <property name="resource">audio clips/marching_band.mp3</property>
    <property name="mlt_service">avformat-novalidate</property>
    <property name="meta.media.nb_streams">2</property>
    <property name="meta.media.0.stream.type">video</property>
    <property name="meta.media.0.stream.frame_rate">24</property>
    <property name="meta.media.0.stream.sample_aspect_ratio">1</property>
    <property name="meta.media.0.codec.width">1920</property>
    <property name="meta.media.0.codec.height">1080</property>
    <property name="meta.media.0.codec.rotate">0</property>
    <property name="meta.media.0.codec.pix_fmt">yuv420p</property>
    <property name="meta.media.0.codec.sample_aspect_ratio">1</property>
    <property name="meta.media.0.codec.colorspace">709</property>
    <property name="meta.media.0.codec.color_trc">1</property>
    <property name="meta.media.0.codec.name">h264</property>
    <property name="meta.media.0.codec.long_name">H.264 / AVC / MPEG-4 AVC / MPEG-4 part 10</property>
    <property name="meta.media.0.codec.bit_rate">13965</property>
    <property name="meta.attr.0.stream.handler_name.markup">VideoHandler</property>
    <property name="meta.attr.0.stream.vendor_id.markup">[0][0][0][0]</property>
    <property name="meta.media.1.stream.type">audio</property>
    <property name="meta.media.1.codec.sample_fmt">fltp</property>
    <property name="meta.media.1.codec.sample_rate">48000</property>
    <property name="meta.media.1.codec.channels">2</property>
    <property name="meta.media.1.codec.layout">stereo</property>
    <property name="meta.media.1.codec.name">aac</property>
    <property name="meta.media.1.codec.long_name">AAC (Advanced Audio Coding)</property>
    <property name="meta.media.1.codec.bit_rate">356114</property>
    <property name="meta.attr.1.stream.handler_name.markup">SoundHandler</property>
    <property name="meta.attr.1.stream.vendor_id.markup">[0][0][0][0]</property>
    <property name="meta.attr.major_brand.markup">isom</property>
    <property name="meta.attr.minor_version.markup">512</property>
    <property name="meta.attr.compatible_brands.markup">isomiso2avc1mp41</property>
    <property name="meta.attr.encoder.markup">Lavf61.7.100</property>
    <property name="seekable">1</property>
    <property name="meta.media.sample_aspect_num">1</property>
    <property name="meta.media.sample_aspect_den">1</property>
    <property name="audio_index">1</property>
    <property name="video_index">0</property>
    <property name="creation_time">2025-12-13T23:41:11</property>
    <property name="vstream">0</property>
    <property name="meta.media.frame_rate_num">24</property>
    <property name="meta.media.frame_rate_den">1</property>
    <property name="meta.media.colorspace">709</property>
    <property name="meta.media.color_trc">1</property>
    <property name="meta.media.has_b_frames">2</property>
    <property name="meta.media.width">1920</property>
    <property name="meta.media.height">1080</property>
    <property name="meta.media.aspect_ratio">1</property>
    <property name="meta.media.color_range">mpeg</property>
    <property name="astream">0</property>
    <property name="shotcut:skipConvert">1</property>
    <property name="shotcut:hash">c127f6e757d5fe4c2fc92fb2c42bc0d8</property>
    <property name="meta.media.top_field_first">0</property>
    <property name="meta.media.progressive">1</property>
    <property name="shotcut:caption">marching_band.mp3</property>
    <property name="xml">was here</property>
    <filter id="filter23" in="00:00:44.458" out="00:01:06.417">
      <property name="window">75</property>
      <property name="max_gain">20dB</property>
      <property name="level">00:00:17.875=0;00:00:21.958=-60</property>
      <property name="mlt_service">volume</property>
      <property name="shotcut:filter">fadeOutVolume</property>
      <property name="shotcut:animOut">99</property>
    </filter>
    <filter id="filter24" in="00:00:44.458" out="00:01:06.417">
      <property name="window">75</property>
      <property name="max_gain">20dB</property>
      <property name="level">-20</property>
      <property name="mlt_service">volume</property>
    </filter>
  </chain>
  <chain id="chain33" out="00:00:01.875">
    <property name="length">00:00:01.917</property>
    <property name="eof">pause</property>
    <property name="resource">audio clips/whip-02-242215.mp3</property>
    <property name="mlt_service">avformat-novalidate</property>
    <property name="meta.media.nb_streams">1</property>
    <property name="meta.media.0.stream.type">audio</property>
    <property name="meta.media.0.codec.sample_fmt">fltp</property>
    <property name="meta.media.0.codec.sample_rate">48000</property>
    <property name="meta.media.0.codec.channels">2</property>
    <property name="meta.media.0.codec.layout">stereo</property>
    <property name="meta.media.0.codec.name">mp3float</property>
    <property name="meta.media.0.codec.long_name">MP3 (MPEG audio layer 3)</property>
    <property name="meta.media.0.codec.bit_rate">256000</property>
    <property name="seekable">1</property>
    <property name="audio_index">0</property>
    <property name="video_index">-1</property>
    <property name="creation_time">2025-12-14T18:23:08</property>
    <property name="astream">0</property>
    <property name="shotcut:skipConvert">1</property>
    <property name="shotcut:hash">813cfb16c990784a6a2ba5fa8a66035a</property>
    <property name="shotcut:caption">whip-02-242215.mp3</property>
    <property name="xml">was here</property>
  </chain>
  <chain id="chain34" out="00:00:01.875">
    <property name="length">00:00:01.917</property>
    <property name="eof">pause</property>
    <property name="resource">audio clips/whip-02-242215.mp3</property>
    <property name="mlt_service">avformat-novalidate</property>
    <property name="meta.media.nb_streams">1</property>
    <property name="meta.media.0.stream.type">audio</property>
    <property name="meta.media.0.codec.sample_fmt">fltp</property>
    <property name="meta.media.0.codec.sample_rate">48000</property>
    <property name="meta.media.0.codec.channels">2</property>
    <property name="meta.media.0.codec.layout">stereo</property>
    <property name="meta.media.0.codec.name">mp3float</property>
    <property name="meta.media.0.codec.long_name">MP3 (MPEG audio layer 3)</property>
    <property name="meta.media.0.codec.bit_rate">256000</property>
    <property name="seekable">1</property>
    <property name="audio_index">0</property>
    <property name="video_index">-1</property>
    <property name="creation_time">2025-12-14T18:23:08</property>
    <property name="astream">0</property>
    <property name="shotcut:skipConvert">1</property>
    <property name="shotcut:hash">813cfb16c990784a6a2ba5fa8a66035a</property>
    <property name="shotcut:caption">whip-02-242215.mp3</property>
    <property name="xml">was here</property>
  </chain>
  <chain id="chain35" out="00:00:01.875">
    <property name="length">00:00:01.917</property>
    <property name="eof">pause</property>
    <property name="resource">audio clips/whip-02-242215.mp3</property>
    <property name="mlt_service">avformat-novalidate</property>
    <property name="meta.media.nb_streams">1</property>
    <property name="meta.media.0.stream.type">audio</property>
    <property name="meta.media.0.codec.sample_fmt">fltp</property>
    <property name="meta.media.0.codec.sample_rate">48000</property>
    <property name="meta.media.0.codec.channels">2</property>
    <property name="meta.media.0.codec.layout">stereo</property>
    <property name="meta.media.0.codec.name">mp3float</property>
    <property name="meta.media.0.codec.long_name">MP3 (MPEG audio layer 3)</property>
    <property name="meta.media.0.codec.bit_rate">256000</property>
    <property name="seekable">1</property>
    <property name="audio_index">0</property>
    <property name="video_index">-1</property>
    <property name="creation_time">2025-12-14T18:23:08</property>
    <property name="astream">0</property>
    <property name="shotcut:skipConvert">1</property>
    <property name="shotcut:hash">813cfb16c990784a6a2ba5fa8a66035a</property>
    <property name="shotcut:caption">whip-02-242215.mp3</property>
    <property name="xml">was here</property>
  </chain>
  <chain id="chain36" out="00:00:01.875">
    <property name="length">00:00:01.917</property>
    <property name="eof">pause</property>
    <property name="resource">audio clips/whip-02-242215.mp3</property>
    <property name="mlt_service">avformat-novalidate</property>
    <property name="meta.media.nb_streams">1</property>
    <property name="meta.media.0.stream.type">audio</property>
    <property name="meta.media.0.codec.sample_fmt">fltp</property>
    <property name="meta.media.0.codec.sample_rate">48000</property>
    <property name="meta.media.0.codec.channels">2</property>
    <property name="meta.media.0.codec.layout">stereo</property>
    <property name="meta.media.0.codec.name">mp3float</property>
    <property name="meta.media.0.codec.long_name">MP3 (MPEG audio layer 3)</property>
    <property name="meta.media.0.codec.bit_rate">256000</property>
    <property name="seekable">1</property>
    <property name="audio_index">0</property>
    <property name="video_index">-1</property>
    <property name="creation_time">2025-12-14T18:23:08</property>
    <property name="astream">0</property>
    <property name="shotcut:skipConvert">1</property>
    <property name="shotcut:hash">813cfb16c990784a6a2ba5fa8a66035a</property>
    <property name="shotcut:caption">whip-02-242215.mp3</property>
    <property name="xml">was here</property>
  </chain>
  <chain id="chain37" out="00:00:04.750">
    <property name="length">00:00:04.792</property>
    <property name="eof">pause</property>
    <property name="resource">audio clips/vader quote.wav</property>
    <property name="mlt_service">avformat-novalidate</property>
    <property name="meta.media.nb_streams">1</property>
    <property name="meta.media.0.stream.type">audio</property>
    <property name="meta.media.0.codec.sample_fmt">s16</property>
    <property name="meta.media.0.codec.sample_rate">44100</property>
    <property name="meta.media.0.codec.channels">2</property>
    <property name="meta.media.0.codec.layout">independent</property>
    <property name="meta.media.0.codec.name">pcm_s16le</property>
    <property name="meta.media.0.codec.long_name">PCM signed 16-bit little-endian</property>
    <property name="meta.media.0.codec.bit_rate">1411200</property>
    <property name="seekable">1</property>
    <property name="audio_index">0</property>
    <property name="video_index">-1</property>
    <property name="creation_time">2025-12-01T04:06:14</property>
    <property name="astream">0</property>
    <property name="shotcut:skipConvert">1</property>
    <property name="shotcut:hash">525202f2ed0190868d8d012664a8fd48</property>
    <property name="shotcut:caption">vader quote.wav</property>
    <property name="xml">was here</property>
    <filter id="filter25" in="00:00:00.375" out="00:00:03.625">
      <property name="window">75</property>
      <property name="max_gain">20dB</property>
      <property name="level">4.5</property>
      <property name="mlt_service">volume</property>
    </filter>
  </chain>
  <chain id="chain38" out="00:00:07.667">
    <property name="length">00:00:07.708</property>
    <property name="eof">pause</property>
    <property name="resource">audio clips/extra-vader-line.wav</property>
    <property name="mlt_service">avformat-novalidate</property>
    <property name="meta.media.nb_streams">1</property>
    <property name="meta.media.0.stream.type">audio</property>
    <property name="meta.media.0.codec.sample_fmt">s16</property>
    <property name="meta.media.0.codec.sample_rate">44100</property>
    <property name="meta.media.0.codec.channels">2</property>
    <property name="meta.media.0.codec.layout">independent</property>
    <property name="meta.media.0.codec.name">pcm_s16le</property>
    <property name="meta.media.0.codec.long_name">PCM signed 16-bit little-endian</property>
    <property name="meta.media.0.codec.bit_rate">1411200</property>
    <property name="seekable">1</property>
    <property name="audio_index">0</property>
    <property name="video_index">-1</property>
    <property name="creation_time">2025-11-30T20:43:29</property>
    <property name="astream">0</property>
    <property name="shotcut:skipConvert">1</property>
    <property name="shotcut:hash">dd74af106d75ae19e9d2bbe522b8854c</property>
    <property name="shotcut:caption">extra-vader-line.wav</property>
    <property name="xml">was here</property>
    <filter id="filter26" in="00:00:00.542" out="00:00:07.667">
      <property name="window">75</property>
      <property name="max_gain">20dB</property>
      <property name="level">4.5</property>
      <property name="mlt_service">volume</property>
      <property name="shotcut:animIn">0</property>
      <property name="shotcut:animOut">0</property>
    </filter>
  </chain>
  <chain id="chain39" out="00:00:03.417">
    <property name="length">00:00:03.458</property>
    <property name="eof">pause</property>
    <property name="resource">audio clips/junior-no-other-choice.wav</property>
    <property name="mlt_service">avformat-novalidate</property>
    <property name="meta.media.nb_streams">1</property>
    <property name="meta.media.0.stream.type">audio</property>
    <property name="meta.media.0.codec.sample_fmt">s16</property>
    <property name="meta.media.0.codec.sample_rate">44100</property>
    <property name="meta.media.0.codec.channels">2</property>
    <property name="meta.media.0.codec.layout">independent</property>
    <property name="meta.media.0.codec.name">pcm_s16le</property>
    <property name="meta.media.0.codec.long_name">PCM signed 16-bit little-endian</property>
    <property name="meta.media.0.codec.bit_rate">1411200</property>
    <property name="seekable">1</property>
    <property name="audio_index">0</property>
    <property name="video_index">-1</property>
    <property name="creation_time">2025-12-14T21:30:56</property>
    <property name="astream">0</property>
    <property name="shotcut:skipConvert">1</property>
    <property name="shotcut:hash">fbe1ad36cbd3a76967929d0de31ce4fd</property>
    <property name="shotcut:caption">junior-no-other-choice.wav</property>
    <property name="xml">was here</property>
    <filter id="filter27" out="00:00:03.417">
      <property name="window">75</property>
      <property name="max_gain">20dB</property>
      <property name="level">6.1</property>
      <property name="mlt_service">volume</property>
    </filter>
  </chain>
  <chain id="chain40" out="00:00:00.958">
    <property name="length">00:00:01.000</property>
    <property name="eof">pause</property>
    <property name="resource">audio clips/YogurtLine2.wav</property>
    <property name="mlt_service">avformat-novalidate</property>
    <property name="meta.media.nb_streams">1</property>
    <property name="meta.media.0.stream.type">audio</property>
    <property name="meta.media.0.codec.sample_fmt">s16</property>
    <property name="meta.media.0.codec.sample_rate">44100</property>
    <property name="meta.media.0.codec.channels">2</property>
    <property name="meta.media.0.codec.layout">independent</property>
    <property name="meta.media.0.codec.name">pcm_s16le</property>
    <property name="meta.media.0.codec.long_name">PCM signed 16-bit little-endian</property>
    <property name="meta.media.0.codec.bit_rate">1411200</property>
    <property name="seekable">1</property>
    <property name="audio_index">0</property>
    <property name="video_index">-1</property>
    <property name="creation_time">2025-12-14T21:25:00</property>
    <property name="astream">0</property>
    <property name="shotcut:skipConvert">1</property>
    <property name="shotcut:hash">ca0f375301d15fb6bef3cc5c11c37787</property>
    <property name="shotcut:caption">YogurtLine2.wav</property>
    <property name="xml">was here</property>
    <filter id="filter28" out="00:00:00.958">
      <property name="window">75</property>
      <property name="max_gain">20dB</property>
      <property name="level">0</property>
      <property name="mlt_service">volume</property>
    </filter>
  </chain>
  <chain id="chain41" out="00:04:32.458">
    <property name="length">00:04:32.500</property>
    <property name="eof">pause</property>
    <property name="resource">audio clips/EX-LYD &amp; Sunnexo - Hyper Link - 01 Hyper Link.mp3</property>
    <property name="mlt_service">avformat-novalidate</property>
    <property name="meta.media.nb_streams">2</property>
    <property name="meta.media.0.stream.type">audio</property>
    <property name="meta.media.0.codec.sample_fmt">fltp</property>
    <property name="meta.media.0.codec.sample_rate">44100</property>
    <property name="meta.media.0.codec.channels">2</property>
    <property name="meta.media.0.codec.layout">stereo</property>
    <property name="meta.media.0.codec.name">mp3float</property>
    <property name="meta.media.0.codec.long_name">MP3 (MPEG audio layer 3)</property>
    <property name="meta.media.0.codec.bit_rate">267683</property>
    <property name="meta.attr.0.stream.encoder.markup">LAME3.99r</property>
    <property name="meta.media.1.stream.type">video</property>
    <property name="meta.media.1.stream.frame_rate">90000</property>
    <property name="meta.media.1.stream.sample_aspect_ratio">0</property>
    <property name="meta.media.1.codec.width">700</property>
    <property name="meta.media.1.codec.height">700</property>
    <property name="meta.media.1.codec.rotate">0</property>
    <property name="meta.media.1.codec.pix_fmt">yuvj444p</property>
    <property name="meta.media.1.codec.sample_aspect_ratio">1</property>
    <property name="meta.media.1.codec.colorspace">601</property>
    <property name="meta.media.1.codec.name">mjpeg</property>
    <property name="meta.media.1.codec.long_name">MJPEG (Motion JPEG)</property>
    <property name="meta.media.1.codec.bit_rate">0</property>
    <property name="meta.attr.1.stream.title.markup">cover</property>
    <property name="meta.attr.1.stream.comment.markup">Cover (front)</property>
    <property name="meta.attr.title.markup">Hyper Link</property>
    <property name="meta.attr.artist.markup">EX-LYD &amp; Sunnexo</property>
    <property name="meta.attr.track.markup">1</property>
    <property name="meta.attr.album.markup">Hyper Link</property>
    <property name="meta.attr.comment.markup">Visit https://sunnexo.bandcamp.com</property>
    <property name="meta.attr.album_artist.markup">EX-LYD &amp; Sunnexo</property>
    <property name="meta.attr.date.markup">2024</property>
    <property name="seekable">1</property>
    <property name="meta.media.sample_aspect_num">72</property>
    <property name="meta.media.sample_aspect_den">72</property>
    <property name="audio_index">0</property>
    <property name="video_index">1</property>
    <property name="creation_time">2025-12-13T22:23:15</property>
    <property name="vstream">0</property>
    <property name="meta.media.frame_rate_num">90000</property>
    <property name="meta.media.frame_rate_den">1</property>
    <property name="meta.media.colorspace">601</property>
    <property name="meta.media.color_trc">2</property>
    <property name="meta.media.has_b_frames">0</property>
    <property name="meta.media.width">700</property>
    <property name="meta.media.height">700</property>
    <property name="meta.media.aspect_ratio">1</property>
    <property name="meta.media.color_range">full</property>
    <property name="astream">0</property>
    <property name="shotcut:skipConvert">1</property>
    <property name="shotcut:hash">f9ae17ca6c0f4efd02ec2fbb31124928</property>
    <property name="meta.media.top_field_first">0</property>
    <property name="meta.media.progressive">1</property>
    <property name="shotcut:caption">EX-LYD &amp; Sunnexo - Hyper Link - 01 Hyper Link.mp3</property>
    <property name="xml">was here</property>
    <filter id="filter29" in="00:01:05.917" out="00:01:07.583">
      <property name="window">75</property>
      <property name="max_gain">20dB</property>
      <property name="level">-8.1</property>
      <property name="mlt_service">volume</property>
    </filter>
    <filter id="filter30" in="00:01:05.917" out="00:01:07.583">
      <property name="window">75</property>
      <property name="max_gain">20dB</property>
      <property name="level">0</property>
      <property name="mlt_service">volume</property>
      <property name="disable">1</property>
    </filter>
  </chain>
  <chain id="chain42" out="00:00:02.833">
    <property name="length">00:00:02.875</property>
    <property name="eof">pause</property>
    <property name="resource">audio clips/aurora-whats-going-on.wav</property>
    <property name="mlt_service">avformat-novalidate</property>
    <property name="meta.media.nb_streams">1</property>
    <property name="meta.media.0.stream.type">audio</property>
    <property name="meta.media.0.codec.sample_fmt">s16</property>
    <property name="meta.media.0.codec.sample_rate">44100</property>
    <property name="meta.media.0.codec.channels">1</property>
    <property name="meta.media.0.codec.layout">mono</property>
    <property name="meta.media.0.codec.name">pcm_s16le</property>
    <property name="meta.media.0.codec.long_name">PCM signed 16-bit little-endian</property>
    <property name="meta.media.0.codec.bit_rate">705600</property>
    <property name="seekable">1</property>
    <property name="audio_index">0</property>
    <property name="video_index">-1</property>
    <property name="creation_time">2025-12-15T01:44:45</property>
    <property name="astream">0</property>
    <property name="shotcut:skipConvert">1</property>
    <property name="shotcut:hash">1a40b74de2f29397a827d30cebbdaf7b</property>
    <property name="shotcut:caption">aurora-whats-going-on.wav</property>
    <property name="xml">was here</property>
  </chain>
  <chain id="chain43" out="00:00:02.083">
    <property name="length">00:00:02.125</property>
    <property name="eof">pause</property>
    <property name="resource">audio clips/YogurtLine3.wav</property>
    <property name="mlt_service">avformat-novalidate</property>
    <property name="meta.media.nb_streams">1</property>
    <property name="meta.media.0.stream.type">audio</property>
    <property name="meta.media.0.codec.sample_fmt">s16</property>
    <property name="meta.media.0.codec.sample_rate">44100</property>
    <property name="meta.media.0.codec.channels">2</property>
    <property name="meta.media.0.codec.layout">independent</property>
    <property name="meta.media.0.codec.name">pcm_s16le</property>
    <property name="meta.media.0.codec.long_name">PCM signed 16-bit little-endian</property>
    <property name="meta.media.0.codec.bit_rate">1411200</property>
    <property name="seekable">1</property>
    <property name="audio_index">0</property>
    <property name="video_index">-1</property>
    <property name="creation_time">2025-12-15T02:08:44</property>
    <property name="astream">0</property>
    <property name="shotcut:skipConvert">1</property>
    <property name="shotcut:hash">3dc531520c8627c25489284c1f0f5d68</property>
    <property name="shotcut:caption">YogurtLine3.wav</property>
    <property name="xml">was here</property>
    <filter id="filter31" out="00:00:02.083">
      <property name="window">75</property>
      <property name="max_gain">20dB</property>
      <property name="level">5.9</property>
      <property name="mlt_service">volume</property>
    </filter>
  </chain>
  <chain id="chain44" out="00:00:03.708">
    <property name="length">00:00:03.750</property>
    <property name="eof">pause</property>
    <property name="resource">audio clips/YogurtLine4.wav</property>
    <property name="mlt_service">avformat-novalidate</property>
    <property name="meta.media.nb_streams">1</property>
    <property name="meta.media.0.stream.type">audio</property>
    <property name="meta.media.0.codec.sample_fmt">s16</property>
    <property name="meta.media.0.codec.sample_rate">44100</property>
    <property name="meta.media.0.codec.channels">2</property>
    <property name="meta.media.0.codec.layout">independent</property>
    <property name="meta.media.0.codec.name">pcm_s16le</property>
    <property name="meta.media.0.codec.long_name">PCM signed 16-bit little-endian</property>
    <property name="meta.media.0.codec.bit_rate">1411200</property>
    <property name="seekable">1</property>
    <property name="audio_index">0</property>
    <property name="video_index">-1</property>
    <property name="creation_time">2025-12-15T02:12:03</property>
    <property name="astream">0</property>
    <property name="shotcut:skipConvert">1</property>
    <property name="shotcut:hash">649f4200455faa331609dbc1f285eab8</property>
    <property name="shotcut:caption">YogurtLine4.wav</property>
    <property name="xml">was here</property>
    <filter id="filter32" out="00:00:03.708">
      <property name="window">75</property>
      <property name="max_gain">20dB</property>
      <property name="level">4.5</property>
      <property name="mlt_service">volume</property>
    </filter>
  </chain>
  <chain id="chain45" out="00:00:01.167">
    <property name="length">00:00:01.208</property>
    <property name="eof">pause</property>
    <property name="resource">audio clips/zora_is_also_here.ogg</property>
    <property name="mlt_service">avformat-novalidate</property>
    <property name="meta.media.nb_streams">1</property>
    <property name="meta.media.0.stream.type">audio</property>
    <property name="meta.media.0.codec.sample_fmt">fltp</property>
    <property name="meta.media.0.codec.sample_rate">44100</property>
    <property name="meta.media.0.codec.channels">2</property>
    <property name="meta.media.0.codec.layout">stereo</property>
    <property name="meta.media.0.codec.name">vorbis</property>
    <property name="meta.media.0.codec.long_name">Vorbis</property>
    <property name="meta.media.0.codec.bit_rate">160000</property>
    <property name="seekable">1</property>
    <property name="audio_index">0</property>
    <property name="video_index">-1</property>
    <property name="creation_time">2025-12-01T03:22:00</property>
    <property name="astream">0</property>
    <property name="shotcut:skipConvert">1</property>
    <property name="shotcut:hash">17616aeddab2a43500956c4fa1a5dc07</property>
    <property name="shotcut:caption">zora_is_also_here.ogg</property>
    <property name="xml">was here</property>
  </chain>
  <chain id="chain46" out="00:00:01.375">
    <property name="length">00:00:01.417</property>
    <property name="eof">pause</property>
    <property name="resource">audio clips/junior-woah.wav</property>
    <property name="mlt_service">avformat-novalidate</property>
    <property name="meta.media.nb_streams">1</property>
    <property name="meta.media.0.stream.type">audio</property>
    <property name="meta.media.0.codec.sample_fmt">s16</property>
    <property name="meta.media.0.codec.sample_rate">44100</property>
    <property name="meta.media.0.codec.channels">2</property>
    <property name="meta.media.0.codec.layout">independent</property>
    <property name="meta.media.0.codec.name">pcm_s16le</property>
    <property name="meta.media.0.codec.long_name">PCM signed 16-bit little-endian</property>
    <property name="meta.media.0.codec.bit_rate">1411200</property>
    <property name="seekable">1</property>
    <property name="audio_index">0</property>
    <property name="video_index">-1</property>
    <property name="creation_time">2025-12-15T03:26:25</property>
    <property name="astream">0</property>
    <property name="shotcut:skipConvert">1</property>
    <property name="shotcut:hash">6a4bffc16c1911e564e03add09602979</property>
    <property name="shotcut:caption">junior-woah.wav</property>
    <property name="xml">was here</property>
    <filter id="filter33" out="00:00:01.375">
      <property name="window">75</property>
      <property name="max_gain">20dB</property>
      <property name="level">5.3</property>
      <property name="mlt_service">volume</property>
    </filter>
  </chain>
  <chain id="chain47" out="00:00:05.750">
    <property name="length">00:00:05.792</property>
    <property name="eof">pause</property>
    <property name="resource">audio clips/YogurtLine5.wav</property>
    <property name="mlt_service">avformat-novalidate</property>
    <property name="meta.media.nb_streams">1</property>
    <property name="meta.media.0.stream.type">audio</property>
    <property name="meta.media.0.codec.sample_fmt">s16</property>
    <property name="meta.media.0.codec.sample_rate">44100</property>
    <property name="meta.media.0.codec.channels">2</property>
    <property name="meta.media.0.codec.layout">independent</property>
    <property name="meta.media.0.codec.name">pcm_s16le</property>
    <property name="meta.media.0.codec.long_name">PCM signed 16-bit little-endian</property>
    <property name="meta.media.0.codec.bit_rate">1411200</property>
    <property name="seekable">1</property>
    <property name="audio_index">0</property>
    <property name="video_index">-1</property>
    <property name="creation_time">2025-12-15T03:15:09</property>
    <property name="astream">0</property>
    <property name="shotcut:skipConvert">1</property>
    <property name="shotcut:hash">ed2709238b502c5e5f848d005767965c</property>
    <property name="shotcut:caption">YogurtLine5.wav</property>
    <property name="xml">was here</property>
  </chain>
  <chain id="chain48" out="00:00:05.750">
    <property name="length">00:00:05.792</property>
    <property name="eof">pause</property>
    <property name="resource">audio clips/YogurtLine5.wav</property>
    <property name="mlt_service">avformat-novalidate</property>
    <property name="meta.media.nb_streams">1</property>
    <property name="meta.media.0.stream.type">audio</property>
    <property name="meta.media.0.codec.sample_fmt">s16</property>
    <property name="meta.media.0.codec.sample_rate">44100</property>
    <property name="meta.media.0.codec.channels">2</property>
    <property name="meta.media.0.codec.layout">independent</property>
    <property name="meta.media.0.codec.name">pcm_s16le</property>
    <property name="meta.media.0.codec.long_name">PCM signed 16-bit little-endian</property>
    <property name="meta.media.0.codec.bit_rate">1411200</property>
    <property name="seekable">1</property>
    <property name="audio_index">0</property>
    <property name="video_index">-1</property>
    <property name="creation_time">2025-12-15T03:15:09</property>
    <property name="astream">0</property>
    <property name="shotcut:skipConvert">1</property>
    <property name="shotcut:hash">ed2709238b502c5e5f848d005767965c</property>
    <property name="shotcut:caption">YogurtLine5.wav</property>
    <property name="xml">was here</property>
  </chain>
  <chain id="chain49" out="00:00:03.417">
    <property name="length">00:00:03.458</property>
    <property name="eof">pause</property>
    <property name="resource">audio clips/junior-breathe.wav</property>
    <property name="mlt_service">avformat-novalidate</property>
    <property name="meta.media.nb_streams">1</property>
    <property name="meta.media.0.stream.type">audio</property>
    <property name="meta.media.0.codec.sample_fmt">s16</property>
    <property name="meta.media.0.codec.sample_rate">44100</property>
    <property name="meta.media.0.codec.channels">2</property>
    <property name="meta.media.0.codec.layout">independent</property>
    <property name="meta.media.0.codec.name">pcm_s16le</property>
    <property name="meta.media.0.codec.long_name">PCM signed 16-bit little-endian</property>
    <property name="meta.media.0.codec.bit_rate">1411200</property>
    <property name="seekable">1</property>
    <property name="audio_index">0</property>
    <property name="video_index">-1</property>
    <property name="creation_time">2025-12-15T03:28:44</property>
    <property name="astream">0</property>
    <property name="shotcut:skipConvert">1</property>
    <property name="shotcut:hash">c44fe4e1f276f51c90dddeb75303e210</property>
    <property name="shotcut:caption">junior-breathe.wav</property>
    <property name="xml">was here</property>
    <filter id="filter34" out="00:00:03.417">
      <property name="window">75</property>
      <property name="max_gain">20dB</property>
      <property name="level">7.7</property>
      <property name="mlt_service">volume</property>
    </filter>
  </chain>
  <chain id="chain50" out="00:00:03.458">
    <property name="length">00:00:03.500</property>
    <property name="eof">pause</property>
    <property name="resource">audio clips/aurora-fucking-yelling.wav</property>
    <property name="mlt_service">avformat-novalidate</property>
    <property name="meta.media.nb_streams">1</property>
    <property name="meta.media.0.stream.type">audio</property>
    <property name="meta.media.0.codec.sample_fmt">s16</property>
    <property name="meta.media.0.codec.sample_rate">44100</property>
    <property name="meta.media.0.codec.channels">2</property>
    <property name="meta.media.0.codec.layout">independent</property>
    <property name="meta.media.0.codec.name">pcm_s16le</property>
    <property name="meta.media.0.codec.long_name">PCM signed 16-bit little-endian</property>
    <property name="meta.media.0.codec.bit_rate">1411200</property>
    <property name="seekable">1</property>
    <property name="audio_index">0</property>
    <property name="video_index">-1</property>
    <property name="creation_time">2025-12-16T01:01:25</property>
    <property name="astream">0</property>
    <property name="shotcut:skipConvert">1</property>
    <property name="shotcut:hash">ccee458042410391b653f8c8ea0b722d</property>
    <property name="shotcut:caption">aurora-fucking-yelling.wav</property>
    <property name="xml">was here</property>
    <filter id="filter35" out="00:00:03.458">
      <property name="window">75</property>
      <property name="max_gain">20dB</property>
      <property name="level">-5.3</property>
      <property name="mlt_service">volume</property>
    </filter>
  </chain>
  <chain id="chain51" out="00:00:03.208">
    <property name="length">00:00:03.250</property>
    <property name="eof">pause</property>
    <property name="resource">audio clips/bingo-pain.wav</property>
    <property name="mlt_service">avformat-novalidate</property>
    <property name="meta.media.nb_streams">1</property>
    <property name="meta.media.0.stream.type">audio</property>
    <property name="meta.media.0.codec.sample_fmt">s16</property>
    <property name="meta.media.0.codec.sample_rate">44100</property>
    <property name="meta.media.0.codec.channels">2</property>
    <property name="meta.media.0.codec.layout">independent</property>
    <property name="meta.media.0.codec.name">pcm_s16le</property>
    <property name="meta.media.0.codec.long_name">PCM signed 16-bit little-endian</property>
    <property name="meta.media.0.codec.bit_rate">1411200</property>
    <property name="seekable">1</property>
    <property name="audio_index">0</property>
    <property name="video_index">-1</property>
    <property name="creation_time">2025-12-17T09:02:51</property>
    <property name="astream">0</property>
    <property name="shotcut:skipConvert">1</property>
    <property name="shotcut:hash">217ce2c1e9fe1e24905840f2f5084ac9</property>
    <property name="shotcut:caption">bingo-pain.wav</property>
    <property name="xml">was here</property>
  </chain>
  <playlist id="playlist1">
    <property name="shotcut:audio">1</property>
    <property name="shotcut:name">A1</property>
    <entry producer="chain31" in="00:00:00.542" out="00:00:44.417"/>
    <entry producer="chain32" in="00:00:44.458" out="00:01:06.417"/>
    <blank length="00:00:00.042"/>
    <entry producer="chain33" in="00:00:00.208" out="00:00:01.875"/>
    <blank length="00:00:05.333"/>
    <entry producer="chain34" in="00:00:00.208" out="00:00:01.875"/>
    <blank length="00:00:05.333"/>
    <entry producer="chain35" in="00:00:00.250" out="00:00:01.875"/>
    <blank length="00:00:05.333"/>
    <entry producer="chain36" in="00:00:00.000" out="00:00:01.875"/>
    <blank length="00:00:12.250"/>
    <entry producer="chain37" in="00:00:00.375" out="00:00:03.625"/>
    <entry producer="chain38" in="00:00:00.542" out="00:00:07.667"/>
    <blank length="00:00:26.542"/>
    <entry producer="chain39" in="00:00:00.000" out="00:00:03.417"/>
    <blank length="00:00:00.583"/>
    <entry producer="chain40" in="00:00:00.000" out="00:00:00.958"/>
    <blank length="00:00:04.042"/>
    <entry producer="chain41" in="00:01:05.917" out="00:01:07.583"/>
    <blank length="00:00:17.250"/>
    <entry producer="chain42" in="00:00:00.000" out="00:00:02.833"/>
    <blank length="00:00:07.417"/>
    <entry producer="chain43" in="00:00:00.000" out="00:00:02.083"/>
    <blank length="00:00:00.875"/>
    <entry producer="chain44" in="00:00:00.000" out="00:00:03.708"/>
    <blank length="00:00:03.833"/>
    <entry producer="chain45" in="00:00:00.000" out="00:00:01.167"/>
    <blank length="00:00:17.750"/>
    <entry producer="chain46" in="00:00:00.000" out="00:00:01.375"/>
    <blank length="00:00:02.542"/>
    <entry producer="chain47" in="00:00:00.000" out="00:00:04.292"/>
    <blank length="00:00:00.917"/>
    <entry producer="chain48" in="00:00:04.333" out="00:00:05.750"/>
    <blank length="00:00:00.417"/>
    <entry producer="chain49" in="00:00:00.000" out="00:00:03.417"/>
    <blank length="00:01:05.792"/>
    <entry producer="chain50" in="00:00:00.000" out="00:00:03.458"/>
    <blank length="00:00:15.125"/>
    <entry producer="chain51" in="00:00:00.000" out="00:00:03.208"/>
  </playlist>
  <chain id="chain52" out="00:00:18.042">
    <property name="length">00:00:18.083</property>
    <property name="eof">pause</property>
    <property name="resource">audio clips/dvline1(TakeE).wav</property>
    <property name="mlt_service">avformat-novalidate</property>
    <property name="meta.media.nb_streams">1</property>
    <property name="meta.media.0.stream.type">audio</property>
    <property name="meta.media.0.codec.sample_fmt">s16</property>
    <property name="meta.media.0.codec.sample_rate">44100</property>
    <property name="meta.media.0.codec.channels">1</property>
    <property name="meta.media.0.codec.layout">mono</property>
    <property name="meta.media.0.codec.name">pcm_s16le</property>
    <property name="meta.media.0.codec.long_name">PCM signed 16-bit little-endian</property>
    <property name="meta.media.0.codec.bit_rate">705600</property>
    <property name="seekable">1</property>
    <property name="audio_index">0</property>
    <property name="video_index">-1</property>
    <property name="creation_time">2025-12-19T00:30:29</property>
    <property name="astream">0</property>
    <property name="shotcut:skipConvert">1</property>
    <property name="shotcut:hash">f40c0fb446b816caec5e02be0cdf405e</property>
    <property name="shotcut:caption">dvline1(TakeE).wav</property>
    <property name="xml">was here</property>
  </chain>
  <chain id="chain53" out="00:00:18.042">
    <property name="length">00:00:18.083</property>
    <property name="eof">pause</property>
    <property name="resource">audio clips/dvline1(TakeE).wav</property>
    <property name="mlt_service">avformat-novalidate</property>
    <property name="meta.media.nb_streams">1</property>
    <property name="meta.media.0.stream.type">audio</property>
    <property name="meta.media.0.codec.sample_fmt">s16</property>
    <property name="meta.media.0.codec.sample_rate">44100</property>
    <property name="meta.media.0.codec.channels">1</property>
    <property name="meta.media.0.codec.layout">mono</property>
    <property name="meta.media.0.codec.name">pcm_s16le</property>
    <property name="meta.media.0.codec.long_name">PCM signed 16-bit little-endian</property>
    <property name="meta.media.0.codec.bit_rate">705600</property>
    <property name="seekable">1</property>
    <property name="audio_index">0</property>
    <property name="video_index">-1</property>
    <property name="creation_time">2025-12-19T00:30:29</property>
    <property name="astream">0</property>
    <property name="shotcut:skipConvert">1</property>
    <property name="shotcut:hash">f40c0fb446b816caec5e02be0cdf405e</property>
    <property name="shotcut:caption">dvline1(TakeE).wav</property>
    <property name="xml">was here</property>
    <filter id="filter36" in="00:00:11.583" out="00:00:17.042">
      <property name="window">75</property>
      <property name="max_gain">20dB</property>
      <property name="level">3.2</property>
      <property name="mlt_service">volume</property>
    </filter>
  </chain>
  <chain id="chain54" out="00:00:11.667">
    <property name="length">00:00:11.708</property>
    <property name="eof">pause</property>
    <property name="resource">audio clips/dvline2(TakeF).wav</property>
    <property name="mlt_service">avformat-novalidate</property>
    <property name="meta.media.nb_streams">1</property>
    <property name="meta.media.0.stream.type">audio</property>
    <property name="meta.media.0.codec.sample_fmt">s16</property>
    <property name="meta.media.0.codec.sample_rate">44100</property>
    <property name="meta.media.0.codec.channels">1</property>
    <property name="meta.media.0.codec.layout">mono</property>
    <property name="meta.media.0.codec.name">pcm_s16le</property>
    <property name="meta.media.0.codec.long_name">PCM signed 16-bit little-endian</property>
    <property name="meta.media.0.codec.bit_rate">705600</property>
    <property name="seekable">1</property>
    <property name="audio_index">0</property>
    <property name="video_index">-1</property>
    <property name="creation_time">2025-12-19T00:38:12</property>
    <property name="astream">0</property>
    <property name="shotcut:skipConvert">1</property>
    <property name="shotcut:hash">98ccabdee18427ba7f4da3b77b9eb3f1</property>
    <property name="shotcut:caption">dvline2(TakeF).wav</property>
    <property name="xml">was here</property>
    <filter id="filter37" out="00:00:10.125">
      <property name="window">75</property>
      <property name="max_gain">20dB</property>
      <property name="level">4.1</property>
      <property name="mlt_service">volume</property>
    </filter>
  </chain>
  <chain id="chain55" out="00:00:09.417">
    <property name="length">00:00:09.458</property>
    <property name="eof">pause</property>
    <property name="resource">audio clips/dvline3(TakeA).wav</property>
    <property name="mlt_service">avformat-novalidate</property>
    <property name="meta.media.nb_streams">1</property>
    <property name="meta.media.0.stream.type">audio</property>
    <property name="meta.media.0.codec.sample_fmt">s16</property>
    <property name="meta.media.0.codec.sample_rate">44100</property>
    <property name="meta.media.0.codec.channels">1</property>
    <property name="meta.media.0.codec.layout">mono</property>
    <property name="meta.media.0.codec.name">pcm_s16le</property>
    <property name="meta.media.0.codec.long_name">PCM signed 16-bit little-endian</property>
    <property name="meta.media.0.codec.bit_rate">705600</property>
    <property name="seekable">1</property>
    <property name="audio_index">0</property>
    <property name="video_index">-1</property>
    <property name="creation_time">2025-12-19T00:46:29</property>
    <property name="astream">0</property>
    <property name="shotcut:skipConvert">1</property>
    <property name="shotcut:hash">4854eaa405958a2614e0d50bc92390b9</property>
    <property name="shotcut:caption">dvline3(TakeA).wav</property>
    <property name="xml">was here</property>
    <filter id="filter38" out="00:00:08.250">
      <property name="window">75</property>
      <property name="max_gain">20dB</property>
      <property name="level">3.2</property>
      <property name="mlt_service">volume</property>
    </filter>
  </chain>
  <producer id="producer72" in="00:00:00.000" out="00:00:01.958">
    <property name="length">00:00:02.000</property>
    <property name="eof">pause</property>
    <property name="resource">1.5:audio clips/studio-audience-awwww-sound-fx.mp3</property>
    <property name="aspect_ratio">1</property>
    <property name="meta.media.nb_streams">1</property>
    <property name="meta.media.0.stream.type">audio</property>
    <property name="meta.media.0.codec.sample_fmt">fltp</property>
    <property name="meta.media.0.codec.sample_rate">44100</property>
    <property name="meta.media.0.codec.channels">2</property>
    <property name="meta.media.0.codec.layout">stereo</property>
    <property name="meta.media.0.codec.name">mp3float</property>
    <property name="meta.media.0.codec.long_name">MP3 (MPEG audio layer 3)</property>
    <property name="meta.media.0.codec.bit_rate">128000</property>
    <property name="meta.attr.0.stream.encoder.markup">Lavc57.10</property>
    <property name="meta.attr.encoded_by.markup">Lavf52.16.0</property>
    <property name="meta.attr.encoder.markup">Lavf57.83.100</property>
    <property name="seekable">1</property>
    <property name="audio_index">0</property>
    <property name="video_index">-1</property>
    <property name="warp_speed">1.5</property>
    <property name="warp_resource">audio clips/studio-audience-awwww-sound-fx.mp3</property>
    <property name="mlt_service">timewarp</property>
    <property name="shotcut:producer">avformat</property>
    <property name="video_delay">0</property>
    <property name="astream">0</property>
    <property name="shotcut:hash">4f3b73f893dee3e6da192a675cbf5e51</property>
    <property name="shotcut:skipConvert">1</property>
    <property name="shotcut:caption">studio-audience-awwww-sound-fx.mp3 (1.5x)</property>
    <property name="xml">was here</property>
    <property name="warp_pitch">1</property>
  </producer>
  <producer id="producer73" in="00:00:00.000" out="00:00:00.750">
    <property name="length">00:00:00.792</property>
    <property name="eof">pause</property>
    <property name="resource">2:audio clips/gasp-6253.mp3</property>
    <property name="aspect_ratio">1</property>
    <property name="meta.media.nb_streams">1</property>
    <property name="meta.media.0.stream.type">audio</property>
    <property name="meta.media.0.codec.sample_fmt">fltp</property>
    <property name="meta.media.0.codec.sample_rate">24000</property>
    <property name="meta.media.0.codec.channels">2</property>
    <property name="meta.media.0.codec.layout">stereo</property>
    <property name="meta.media.0.codec.name">mp3float</property>
    <property name="meta.media.0.codec.long_name">MP3 (MPEG audio layer 3)</property>
    <property name="meta.media.0.codec.bit_rate">160000</property>
    <property name="seekable">1</property>
    <property name="audio_index">0</property>
    <property name="video_index">-1</property>
    <property name="warp_speed">2</property>
    <property name="warp_resource">audio clips/gasp-6253.mp3</property>
    <property name="mlt_service">timewarp</property>
    <property name="shotcut:producer">avformat</property>
    <property name="video_delay">0</property>
    <property name="astream">0</property>
    <property name="shotcut:hash">428f9ed28339ba66c71bd6b0f05afa31</property>
    <property name="shotcut:skipConvert">1</property>
    <property name="shotcut:caption">gasp-6253.mp3 (2x)</property>
    <property name="xml">was here</property>
    <property name="warp_pitch">1</property>
    <filter id="filter39" out="00:00:00.750">
      <property name="window">75</property>
      <property name="max_gain">20dB</property>
      <property name="level">5.4</property>
      <property name="mlt_service">volume</property>
    </filter>
  </producer>
  <chain id="chain56" out="00:00:09.125">
    <property name="length">00:00:09.167</property>
    <property name="eof">pause</property>
    <property name="resource">audio clips/dvline5(TakeF).wav</property>
    <property name="mlt_service">avformat-novalidate</property>
    <property name="meta.media.nb_streams">1</property>
    <property name="meta.media.0.stream.type">audio</property>
    <property name="meta.media.0.codec.sample_fmt">s16</property>
    <property name="meta.media.0.codec.sample_rate">44100</property>
    <property name="meta.media.0.codec.channels">1</property>
    <property name="meta.media.0.codec.layout">mono</property>
    <property name="meta.media.0.codec.name">pcm_s16le</property>
    <property name="meta.media.0.codec.long_name">PCM signed 16-bit little-endian</property>
    <property name="meta.media.0.codec.bit_rate">705600</property>
    <property name="seekable">1</property>
    <property name="audio_index">0</property>
    <property name="video_index">-1</property>
    <property name="creation_time">2025-12-19T00:57:00</property>
    <property name="astream">0</property>
    <property name="shotcut:skipConvert">1</property>
    <property name="shotcut:hash">d3ee628120dc09af07c19ec83a5fbf29</property>
    <property name="shotcut:caption">dvline5(TakeF).wav</property>
    <property name="xml">was here</property>
    <filter id="filter40" in="00:00:00.083" out="00:00:08.458">
      <property name="window">75</property>
      <property name="max_gain">20dB</property>
      <property name="level">4.6</property>
      <property name="mlt_service">volume</property>
    </filter>
  </chain>
  <chain id="chain57" out="00:00:10.958">
    <property name="length">00:00:11.000</property>
    <property name="eof">pause</property>
    <property name="resource">audio clips/dvline6(TakeB-F).wav</property>
    <property name="mlt_service">avformat-novalidate</property>
    <property name="meta.media.nb_streams">1</property>
    <property name="meta.media.0.stream.type">audio</property>
    <property name="meta.media.0.codec.sample_fmt">s16</property>
    <property name="meta.media.0.codec.sample_rate">44100</property>
    <property name="meta.media.0.codec.channels">2</property>
    <property name="meta.media.0.codec.layout">independent</property>
    <property name="meta.media.0.codec.name">pcm_s16le</property>
    <property name="meta.media.0.codec.long_name">PCM signed 16-bit little-endian</property>
    <property name="meta.media.0.codec.bit_rate">1411200</property>
    <property name="seekable">1</property>
    <property name="audio_index">0</property>
    <property name="video_index">-1</property>
    <property name="creation_time">2025-12-19T01:07:11</property>
    <property name="astream">0</property>
    <property name="shotcut:skipConvert">1</property>
    <property name="shotcut:hash">d5e8d3a87296a869c94e9a4bc067b507</property>
    <property name="shotcut:caption">dvline6(TakeB-F).wav</property>
    <property name="xml">was here</property>
  </chain>
  <chain id="chain58" out="00:00:10.042">
    <property name="length">00:00:10.083</property>
    <property name="eof">pause</property>
    <property name="resource">audio clips/aurora-not-enough-cards.mp3</property>
    <property name="mlt_service">avformat-novalidate</property>
    <property name="meta.media.nb_streams">1</property>
    <property name="meta.media.0.stream.type">audio</property>
    <property name="meta.media.0.codec.sample_fmt">fltp</property>
    <property name="meta.media.0.codec.sample_rate">44100</property>
    <property name="meta.media.0.codec.channels">1</property>
    <property name="meta.media.0.codec.layout">mono</property>
    <property name="meta.media.0.codec.name">mp3float</property>
    <property name="meta.media.0.codec.long_name">MP3 (MPEG audio layer 3)</property>
    <property name="meta.media.0.codec.bit_rate">64000</property>
    <property name="meta.attr.0.stream.encoder.markup">LAME3.100</property>
    <property name="seekable">1</property>
    <property name="audio_index">0</property>
    <property name="video_index">-1</property>
    <property name="creation_time">2025-12-13T22:23:37</property>
    <property name="astream">0</property>
    <property name="shotcut:skipConvert">1</property>
    <property name="shotcut:hash">79e6f47b4df628800cc8cf6a945bbebc</property>
    <property name="shotcut:caption">aurora-not-enough-cards.mp3</property>
    <property name="xml">was here</property>
  </chain>
  <chain id="chain59" out="00:00:04.042">
    <property name="length">00:00:04.083</property>
    <property name="eof">pause</property>
    <property name="resource">audio clips/YogurtLine1.wav</property>
    <property name="mlt_service">avformat-novalidate</property>
    <property name="meta.media.nb_streams">1</property>
    <property name="meta.media.0.stream.type">audio</property>
    <property name="meta.media.0.codec.sample_fmt">s16</property>
    <property name="meta.media.0.codec.sample_rate">44100</property>
    <property name="meta.media.0.codec.channels">1</property>
    <property name="meta.media.0.codec.layout">mono</property>
    <property name="meta.media.0.codec.name">pcm_s16le</property>
    <property name="meta.media.0.codec.long_name">PCM signed 16-bit little-endian</property>
    <property name="meta.media.0.codec.bit_rate">705600</property>
    <property name="seekable">1</property>
    <property name="audio_index">0</property>
    <property name="video_index">-1</property>
    <property name="creation_time">2025-12-14T19:05:26</property>
    <property name="astream">0</property>
    <property name="shotcut:skipConvert">1</property>
    <property name="shotcut:hash">4243e9e6f13b1ab7a7e845e5201f959d</property>
    <property name="shotcut:caption">YogurtLine1.wav</property>
    <property name="xml">was here</property>
    <filter id="filter41" out="00:00:04.042">
      <property name="window">75</property>
      <property name="max_gain">20dB</property>
      <property name="level">1.6</property>
      <property name="mlt_service">volume</property>
    </filter>
  </chain>
  <chain id="chain60" out="00:00:06.958">
    <property name="length">00:00:07.000</property>
    <property name="eof">pause</property>
    <property name="resource">audio clips/bingo-intro.wav</property>
    <property name="mlt_service">avformat-novalidate</property>
    <property name="meta.media.nb_streams">1</property>
    <property name="meta.media.0.stream.type">audio</property>
    <property name="meta.media.0.codec.sample_fmt">s16</property>
    <property name="meta.media.0.codec.sample_rate">44100</property>
    <property name="meta.media.0.codec.channels">2</property>
    <property name="meta.media.0.codec.layout">independent</property>
    <property name="meta.media.0.codec.name">pcm_s16le</property>
    <property name="meta.media.0.codec.long_name">PCM signed 16-bit little-endian</property>
    <property name="meta.media.0.codec.bit_rate">1411200</property>
    <property name="seekable">1</property>
    <property name="audio_index">0</property>
    <property name="video_index">-1</property>
    <property name="creation_time">2025-12-14T18:55:12</property>
    <property name="astream">0</property>
    <property name="shotcut:skipConvert">1</property>
    <property name="shotcut:hash">3507ff3121d2254eb56718900fa0fc5d</property>
    <property name="shotcut:caption">bingo-intro.wav</property>
    <property name="xml">was here</property>
    <filter id="filter42" out="00:00:06.958">
      <property name="window">75</property>
      <property name="max_gain">20dB</property>
      <property name="level">4.1</property>
      <property name="mlt_service">volume</property>
    </filter>
  </chain>
  <chain id="chain61" out="00:00:02.125">
    <property name="length">00:00:02.167</property>
    <property name="eof">pause</property>
    <property name="resource">audio clips/junior-intro.wav</property>
    <property name="mlt_service">avformat-novalidate</property>
    <property name="meta.media.nb_streams">1</property>
    <property name="meta.media.0.stream.type">audio</property>
    <property name="meta.media.0.codec.sample_fmt">s16</property>
    <property name="meta.media.0.codec.sample_rate">44100</property>
    <property name="meta.media.0.codec.channels">2</property>
    <property name="meta.media.0.codec.layout">independent</property>
    <property name="meta.media.0.codec.name">pcm_s16le</property>
    <property name="meta.media.0.codec.long_name">PCM signed 16-bit little-endian</property>
    <property name="meta.media.0.codec.bit_rate">1411200</property>
    <property name="seekable">1</property>
    <property name="audio_index">0</property>
    <property name="video_index">-1</property>
    <property name="creation_time">2025-12-14T19:17:43</property>
    <property name="astream">0</property>
    <property name="shotcut:skipConvert">1</property>
    <property name="shotcut:hash">526dff617d97556b4f5e913476ec7dc0</property>
    <property name="shotcut:caption">junior-intro.wav</property>
    <property name="xml">was here</property>
  </chain>
  <producer id="producer74" in="00:00:00.000" out="00:00:07.958">
    <property name="length">00:00:08.000</property>
    <property name="eof">pause</property>
    <property name="resource">0.75:audio clips/danger.wav</property>
    <property name="aspect_ratio">1</property>
    <property name="meta.media.nb_streams">1</property>
    <property name="meta.media.0.stream.type">audio</property>
    <property name="meta.media.0.codec.sample_fmt">s16</property>
    <property name="meta.media.0.codec.sample_rate">44100</property>
    <property name="meta.media.0.codec.channels">2</property>
    <property name="meta.media.0.codec.layout">independent</property>
    <property name="meta.media.0.codec.name">pcm_s16le</property>
    <property name="meta.media.0.codec.long_name">PCM signed 16-bit little-endian</property>
    <property name="meta.media.0.codec.bit_rate">1411200</property>
    <property name="seekable">1</property>
    <property name="audio_index">0</property>
    <property name="video_index">-1</property>
    <property name="warp_speed">0.75</property>
    <property name="warp_resource">audio clips/danger.wav</property>
    <property name="mlt_service">timewarp</property>
    <property name="shotcut:producer">avformat</property>
    <property name="video_delay">0</property>
    <property name="astream">0</property>
    <property name="shotcut:hash">6ec02ad21f7e48a51a65224c0cc52553</property>
    <property name="shotcut:skipConvert">1</property>
    <property name="shotcut:caption">danger.wav (0.75x)</property>
    <property name="xml">was here</property>
  </producer>
  <chain id="chain62" out="00:00:03.000">
    <property name="length">00:00:03.042</property>
    <property name="eof">pause</property>
    <property name="resource">audio clips/junior-ugh.wav</property>
    <property name="mlt_service">avformat-novalidate</property>
    <property name="meta.media.nb_streams">1</property>
    <property name="meta.media.0.stream.type">audio</property>
    <property name="meta.media.0.codec.sample_fmt">s16</property>
    <property name="meta.media.0.codec.sample_rate">44100</property>
    <property name="meta.media.0.codec.channels">2</property>
    <property name="meta.media.0.codec.layout">independent</property>
    <property name="meta.media.0.codec.name">pcm_s16le</property>
    <property name="meta.media.0.codec.long_name">PCM signed 16-bit little-endian</property>
    <property name="meta.media.0.codec.bit_rate">1411200</property>
    <property name="seekable">1</property>
    <property name="audio_index">0</property>
    <property name="video_index">-1</property>
    <property name="creation_time">2025-12-14T20:47:32</property>
    <property name="astream">0</property>
    <property name="shotcut:skipConvert">1</property>
    <property name="shotcut:hash">848fea924de7124a27d08c740ba55089</property>
    <property name="shotcut:caption">junior-ugh.wav</property>
    <property name="xml">was here</property>
    <filter id="filter43" in="00:00:00.625" out="00:00:03.000">
      <property name="window">75</property>
      <property name="max_gain">20dB</property>
      <property name="level">4.5</property>
      <property name="mlt_service">volume</property>
    </filter>
  </chain>
  <chain id="chain63" out="00:00:03.958">
    <property name="length">00:00:04.000</property>
    <property name="eof">pause</property>
    <property name="resource">audio clips/exclpoint.wav</property>
    <property name="mlt_service">avformat-novalidate</property>
    <property name="meta.media.nb_streams">1</property>
    <property name="meta.media.0.stream.type">audio</property>
    <property name="meta.media.0.codec.sample_fmt">s16</property>
    <property name="meta.media.0.codec.sample_rate">44100</property>
    <property name="meta.media.0.codec.channels">2</property>
    <property name="meta.media.0.codec.layout">independent</property>
    <property name="meta.media.0.codec.name">pcm_s16le</property>
    <property name="meta.media.0.codec.long_name">PCM signed 16-bit little-endian</property>
    <property name="meta.media.0.codec.bit_rate">1411200</property>
    <property name="seekable">1</property>
    <property name="audio_index">0</property>
    <property name="video_index">-1</property>
    <property name="creation_time">2025-12-14T21:58:46</property>
    <property name="astream">0</property>
    <property name="shotcut:skipConvert">1</property>
    <property name="shotcut:hash">af0a7ac6eacfb928d38d79560a5a9540</property>
    <property name="shotcut:caption">exclpoint.wav</property>
    <property name="xml">was here</property>
  </chain>
  <chain id="chain64" out="00:04:32.458">
    <property name="length">00:04:32.500</property>
    <property name="eof">pause</property>
    <property name="resource">audio clips/EX-LYD &amp; Sunnexo - Hyper Link - 01 Hyper Link.mp3</property>
    <property name="mlt_service">avformat-novalidate</property>
    <property name="meta.media.nb_streams">2</property>
    <property name="meta.media.0.stream.type">audio</property>
    <property name="meta.media.0.codec.sample_fmt">fltp</property>
    <property name="meta.media.0.codec.sample_rate">44100</property>
    <property name="meta.media.0.codec.channels">2</property>
    <property name="meta.media.0.codec.layout">stereo</property>
    <property name="meta.media.0.codec.name">mp3float</property>
    <property name="meta.media.0.codec.long_name">MP3 (MPEG audio layer 3)</property>
    <property name="meta.media.0.codec.bit_rate">267683</property>
    <property name="meta.attr.0.stream.encoder.markup">LAME3.99r</property>
    <property name="meta.media.1.stream.type">video</property>
    <property name="meta.media.1.stream.frame_rate">90000</property>
    <property name="meta.media.1.stream.sample_aspect_ratio">0</property>
    <property name="meta.media.1.codec.width">700</property>
    <property name="meta.media.1.codec.height">700</property>
    <property name="meta.media.1.codec.rotate">0</property>
    <property name="meta.media.1.codec.pix_fmt">yuvj444p</property>
    <property name="meta.media.1.codec.sample_aspect_ratio">1</property>
    <property name="meta.media.1.codec.colorspace">601</property>
    <property name="meta.media.1.codec.name">mjpeg</property>
    <property name="meta.media.1.codec.long_name">MJPEG (Motion JPEG)</property>
    <property name="meta.media.1.codec.bit_rate">0</property>
    <property name="meta.attr.1.stream.title.markup">cover</property>
    <property name="meta.attr.1.stream.comment.markup">Cover (front)</property>
    <property name="meta.attr.title.markup">Hyper Link</property>
    <property name="meta.attr.artist.markup">EX-LYD &amp; Sunnexo</property>
    <property name="meta.attr.track.markup">1</property>
    <property name="meta.attr.album.markup">Hyper Link</property>
    <property name="meta.attr.comment.markup">Visit https://sunnexo.bandcamp.com</property>
    <property name="meta.attr.album_artist.markup">EX-LYD &amp; Sunnexo</property>
    <property name="meta.attr.date.markup">2024</property>
    <property name="seekable">1</property>
    <property name="meta.media.sample_aspect_num">72</property>
    <property name="meta.media.sample_aspect_den">72</property>
    <property name="audio_index">0</property>
    <property name="video_index">1</property>
    <property name="creation_time">2025-12-13T22:23:15</property>
    <property name="vstream">0</property>
    <property name="meta.media.frame_rate_num">90000</property>
    <property name="meta.media.frame_rate_den">1</property>
    <property name="meta.media.colorspace">601</property>
    <property name="meta.media.color_trc">2</property>
    <property name="meta.media.has_b_frames">0</property>
    <property name="meta.media.width">700</property>
    <property name="meta.media.height">700</property>
    <property name="meta.media.aspect_ratio">1</property>
    <property name="meta.media.color_range">full</property>
    <property name="astream">0</property>
    <property name="shotcut:skipConvert">1</property>
    <property name="shotcut:hash">f9ae17ca6c0f4efd02ec2fbb31124928</property>
    <property name="meta.media.top_field_first">0</property>
    <property name="meta.media.progressive">1</property>
    <property name="shotcut:caption">EX-LYD &amp; Sunnexo - Hyper Link - 01 Hyper Link.mp3</property>
    <property name="xml">was here</property>
    <filter id="filter44" in="00:01:07.583" out="00:01:13.083">
      <property name="window">75</property>
      <property name="max_gain">20dB</property>
      <property name="level">-8.1</property>
      <property name="mlt_service">volume</property>
    </filter>
    <filter id="filter45" in="00:01:07.583" out="00:01:13.083">
      <property name="window">75</property>
      <property name="max_gain">20dB</property>
      <property name="level">0</property>
      <property name="mlt_service">volume</property>
      <property name="disable">1</property>
    </filter>
  </chain>
  <chain id="chain65" out="00:04:32.458">
    <property name="length">00:04:32.500</property>
    <property name="eof">pause</property>
    <property name="resource">audio clips/EX-LYD &amp; Sunnexo - Hyper Link - 01 Hyper Link.mp3</property>
    <property name="mlt_service">avformat-novalidate</property>
    <property name="meta.media.nb_streams">2</property>
    <property name="meta.media.0.stream.type">audio</property>
    <property name="meta.media.0.codec.sample_fmt">fltp</property>
    <property name="meta.media.0.codec.sample_rate">44100</property>
    <property name="meta.media.0.codec.channels">2</property>
    <property name="meta.media.0.codec.layout">stereo</property>
    <property name="meta.media.0.codec.name">mp3float</property>
    <property name="meta.media.0.codec.long_name">MP3 (MPEG audio layer 3)</property>
    <property name="meta.media.0.codec.bit_rate">267683</property>
    <property name="meta.attr.0.stream.encoder.markup">LAME3.99r</property>
    <property name="meta.media.1.stream.type">video</property>
    <property name="meta.media.1.stream.frame_rate">90000</property>
    <property name="meta.media.1.stream.sample_aspect_ratio">0</property>
    <property name="meta.media.1.codec.width">700</property>
    <property name="meta.media.1.codec.height">700</property>
    <property name="meta.media.1.codec.rotate">0</property>
    <property name="meta.media.1.codec.pix_fmt">yuvj444p</property>
    <property name="meta.media.1.codec.sample_aspect_ratio">1</property>
    <property name="meta.media.1.codec.colorspace">601</property>
    <property name="meta.media.1.codec.name">mjpeg</property>
    <property name="meta.media.1.codec.long_name">MJPEG (Motion JPEG)</property>
    <property name="meta.media.1.codec.bit_rate">0</property>
    <property name="meta.attr.1.stream.title.markup">cover</property>
    <property name="meta.attr.1.stream.comment.markup">Cover (front)</property>
    <property name="meta.attr.title.markup">Hyper Link</property>
    <property name="meta.attr.artist.markup">EX-LYD &amp; Sunnexo</property>
    <property name="meta.attr.track.markup">1</property>
    <property name="meta.attr.album.markup">Hyper Link</property>
    <property name="meta.attr.comment.markup">Visit https://sunnexo.bandcamp.com</property>
    <property name="meta.attr.album_artist.markup">EX-LYD &amp; Sunnexo</property>
    <property name="meta.attr.date.markup">2024</property>
    <property name="seekable">1</property>
    <property name="meta.media.sample_aspect_num">72</property>
    <property name="meta.media.sample_aspect_den">72</property>
    <property name="audio_index">0</property>
    <property name="video_index">1</property>
    <property name="creation_time">2025-12-13T22:23:15</property>
    <property name="vstream">0</property>
    <property name="meta.media.frame_rate_num">90000</property>
    <property name="meta.media.frame_rate_den">1</property>
    <property name="meta.media.colorspace">601</property>
    <property name="meta.media.color_trc">2</property>
    <property name="meta.media.has_b_frames">0</property>
    <property name="meta.media.width">700</property>
    <property name="meta.media.height">700</property>
    <property name="meta.media.aspect_ratio">1</property>
    <property name="meta.media.color_range">full</property>
    <property name="astream">0</property>
    <property name="shotcut:skipConvert">1</property>
    <property name="shotcut:hash">f9ae17ca6c0f4efd02ec2fbb31124928</property>
    <property name="meta.media.top_field_first">0</property>
    <property name="meta.media.progressive">1</property>
    <property name="shotcut:caption">EX-LYD &amp; Sunnexo - Hyper Link - 01 Hyper Link.mp3</property>
    <property name="xml">was here</property>
    <filter id="filter46" in="00:01:18.708" out="00:01:29.792">
      <property name="window">75</property>
      <property name="max_gain">20dB</property>
      <property name="level">-8.1</property>
      <property name="mlt_service">volume</property>
    </filter>
    <filter id="filter47" in="00:01:18.708" out="00:01:29.792">
      <property name="window">75</property>
      <property name="max_gain">20dB</property>
      <property name="level">0</property>
      <property name="mlt_service">volume</property>
      <property name="disable">1</property>
    </filter>
  </chain>
  <chain id="chain66" out="00:04:32.458">
    <property name="length">00:04:32.500</property>
    <property name="eof">pause</property>
    <property name="resource">audio clips/EX-LYD &amp; Sunnexo - Hyper Link - 01 Hyper Link.mp3</property>
    <property name="mlt_service">avformat-novalidate</property>
    <property name="meta.media.nb_streams">2</property>
    <property name="meta.media.0.stream.type">audio</property>
    <property name="meta.media.0.codec.sample_fmt">fltp</property>
    <property name="meta.media.0.codec.sample_rate">44100</property>
    <property name="meta.media.0.codec.channels">2</property>
    <property name="meta.media.0.codec.layout">stereo</property>
    <property name="meta.media.0.codec.name">mp3float</property>
    <property name="meta.media.0.codec.long_name">MP3 (MPEG audio layer 3)</property>
    <property name="meta.media.0.codec.bit_rate">267683</property>
    <property name="meta.attr.0.stream.encoder.markup">LAME3.99r</property>
    <property name="meta.media.1.stream.type">video</property>
    <property name="meta.media.1.stream.frame_rate">90000</property>
    <property name="meta.media.1.stream.sample_aspect_ratio">0</property>
    <property name="meta.media.1.codec.width">700</property>
    <property name="meta.media.1.codec.height">700</property>
    <property name="meta.media.1.codec.rotate">0</property>
    <property name="meta.media.1.codec.pix_fmt">yuvj444p</property>
    <property name="meta.media.1.codec.sample_aspect_ratio">1</property>
    <property name="meta.media.1.codec.colorspace">601</property>
    <property name="meta.media.1.codec.name">mjpeg</property>
    <property name="meta.media.1.codec.long_name">MJPEG (Motion JPEG)</property>
    <property name="meta.media.1.codec.bit_rate">0</property>
    <property name="meta.attr.1.stream.title.markup">cover</property>
    <property name="meta.attr.1.stream.comment.markup">Cover (front)</property>
    <property name="meta.attr.title.markup">Hyper Link</property>
    <property name="meta.attr.artist.markup">EX-LYD &amp; Sunnexo</property>
    <property name="meta.attr.track.markup">1</property>
    <property name="meta.attr.album.markup">Hyper Link</property>
    <property name="meta.attr.comment.markup">Visit https://sunnexo.bandcamp.com</property>
    <property name="meta.attr.album_artist.markup">EX-LYD &amp; Sunnexo</property>
    <property name="meta.attr.date.markup">2024</property>
    <property name="seekable">1</property>
    <property name="meta.media.sample_aspect_num">72</property>
    <property name="meta.media.sample_aspect_den">72</property>
    <property name="audio_index">0</property>
    <property name="video_index">1</property>
    <property name="creation_time">2025-12-13T22:23:15</property>
    <property name="vstream">0</property>
    <property name="meta.media.frame_rate_num">90000</property>
    <property name="meta.media.frame_rate_den">1</property>
    <property name="meta.media.colorspace">601</property>
    <property name="meta.media.color_trc">2</property>
    <property name="meta.media.has_b_frames">0</property>
    <property name="meta.media.width">700</property>
    <property name="meta.media.height">700</property>
    <property name="meta.media.aspect_ratio">1</property>
    <property name="meta.media.color_range">full</property>
    <property name="astream">0</property>
    <property name="shotcut:skipConvert">1</property>
    <property name="shotcut:hash">f9ae17ca6c0f4efd02ec2fbb31124928</property>
    <property name="meta.media.top_field_first">0</property>
    <property name="meta.media.progressive">1</property>
    <property name="shotcut:caption">EX-LYD &amp; Sunnexo - Hyper Link - 01 Hyper Link.mp3</property>
    <property name="xml">was here</property>
    <filter id="filter48" in="00:01:29.833" out="00:01:34.042">
      <property name="window">75</property>
      <property name="max_gain">20dB</property>
      <property name="level">-16.7</property>
      <property name="mlt_service">volume</property>
    </filter>
    <filter id="filter49" in="00:01:29.833" out="00:01:34.042">
      <property name="window">75</property>
      <property name="max_gain">20dB</property>
      <property name="level">0</property>
      <property name="mlt_service">volume</property>
      <property name="disable">1</property>
    </filter>
  </chain>
  <chain id="chain67" out="00:04:32.458">
    <property name="length">00:04:32.500</property>
    <property name="eof">pause</property>
    <property name="resource">audio clips/EX-LYD &amp; Sunnexo - Hyper Link - 01 Hyper Link.mp3</property>
    <property name="mlt_service">avformat-novalidate</property>
    <property name="meta.media.nb_streams">2</property>
    <property name="meta.media.0.stream.type">audio</property>
    <property name="meta.media.0.codec.sample_fmt">fltp</property>
    <property name="meta.media.0.codec.sample_rate">44100</property>
    <property name="meta.media.0.codec.channels">2</property>
    <property name="meta.media.0.codec.layout">stereo</property>
    <property name="meta.media.0.codec.name">mp3float</property>
    <property name="meta.media.0.codec.long_name">MP3 (MPEG audio layer 3)</property>
    <property name="meta.media.0.codec.bit_rate">267683</property>
    <property name="meta.attr.0.stream.encoder.markup">LAME3.99r</property>
    <property name="meta.media.1.stream.type">video</property>
    <property name="meta.media.1.stream.frame_rate">90000</property>
    <property name="meta.media.1.stream.sample_aspect_ratio">0</property>
    <property name="meta.media.1.codec.width">700</property>
    <property name="meta.media.1.codec.height">700</property>
    <property name="meta.media.1.codec.rotate">0</property>
    <property name="meta.media.1.codec.pix_fmt">yuvj444p</property>
    <property name="meta.media.1.codec.sample_aspect_ratio">1</property>
    <property name="meta.media.1.codec.colorspace">601</property>
    <property name="meta.media.1.codec.name">mjpeg</property>
    <property name="meta.media.1.codec.long_name">MJPEG (Motion JPEG)</property>
    <property name="meta.media.1.codec.bit_rate">0</property>
    <property name="meta.attr.1.stream.title.markup">cover</property>
    <property name="meta.attr.1.stream.comment.markup">Cover (front)</property>
    <property name="meta.attr.title.markup">Hyper Link</property>
    <property name="meta.attr.artist.markup">EX-LYD &amp; Sunnexo</property>
    <property name="meta.attr.track.markup">1</property>
    <property name="meta.attr.album.markup">Hyper Link</property>
    <property name="meta.attr.comment.markup">Visit https://sunnexo.bandcamp.com</property>
    <property name="meta.attr.album_artist.markup">EX-LYD &amp; Sunnexo</property>
    <property name="meta.attr.date.markup">2024</property>
    <property name="seekable">1</property>
    <property name="meta.media.sample_aspect_num">72</property>
    <property name="meta.media.sample_aspect_den">72</property>
    <property name="audio_index">0</property>
    <property name="video_index">1</property>
    <property name="creation_time">2025-12-13T22:23:15</property>
    <property name="vstream">0</property>
    <property name="meta.media.frame_rate_num">90000</property>
    <property name="meta.media.frame_rate_den">1</property>
    <property name="meta.media.colorspace">601</property>
    <property name="meta.media.color_trc">2</property>
    <property name="meta.media.has_b_frames">0</property>
    <property name="meta.media.width">700</property>
    <property name="meta.media.height">700</property>
    <property name="meta.media.aspect_ratio">1</property>
    <property name="meta.media.color_range">full</property>
    <property name="astream">0</property>
    <property name="shotcut:skipConvert">1</property>
    <property name="shotcut:hash">f9ae17ca6c0f4efd02ec2fbb31124928</property>
    <property name="meta.media.top_field_first">0</property>
    <property name="meta.media.progressive">1</property>
    <property name="shotcut:caption">EX-LYD &amp; Sunnexo - Hyper Link - 01 Hyper Link.mp3</property>
    <property name="xml">was here</property>
    <filter id="filter50" in="00:01:34.083" out="00:01:34.625">
      <property name="window">75</property>
      <property name="max_gain">20dB</property>
      <property name="level">-8</property>
      <property name="mlt_service">volume</property>
    </filter>
    <filter id="filter51" in="00:01:34.083" out="00:01:34.625">
      <property name="window">75</property>
      <property name="max_gain">20dB</property>
      <property name="level">0</property>
      <property name="mlt_service">volume</property>
      <property name="disable">1</property>
    </filter>
  </chain>
  <chain id="chain68" out="00:04:32.458">
    <property name="length">00:04:32.500</property>
    <property name="eof">pause</property>
    <property name="resource">audio clips/EX-LYD &amp; Sunnexo - Hyper Link - 01 Hyper Link.mp3</property>
    <property name="mlt_service">avformat-novalidate</property>
    <property name="meta.media.nb_streams">2</property>
    <property name="meta.media.0.stream.type">audio</property>
    <property name="meta.media.0.codec.sample_fmt">fltp</property>
    <property name="meta.media.0.codec.sample_rate">44100</property>
    <property name="meta.media.0.codec.channels">2</property>
    <property name="meta.media.0.codec.layout">stereo</property>
    <property name="meta.media.0.codec.name">mp3float</property>
    <property name="meta.media.0.codec.long_name">MP3 (MPEG audio layer 3)</property>
    <property name="meta.media.0.codec.bit_rate">267683</property>
    <property name="meta.attr.0.stream.encoder.markup">LAME3.99r</property>
    <property name="meta.media.1.stream.type">video</property>
    <property name="meta.media.1.stream.frame_rate">90000</property>
    <property name="meta.media.1.stream.sample_aspect_ratio">0</property>
    <property name="meta.media.1.codec.width">700</property>
    <property name="meta.media.1.codec.height">700</property>
    <property name="meta.media.1.codec.rotate">0</property>
    <property name="meta.media.1.codec.pix_fmt">yuvj444p</property>
    <property name="meta.media.1.codec.sample_aspect_ratio">1</property>
    <property name="meta.media.1.codec.colorspace">601</property>
    <property name="meta.media.1.codec.name">mjpeg</property>
    <property name="meta.media.1.codec.long_name">MJPEG (Motion JPEG)</property>
    <property name="meta.media.1.codec.bit_rate">0</property>
    <property name="meta.attr.1.stream.title.markup">cover</property>
    <property name="meta.attr.1.stream.comment.markup">Cover (front)</property>
    <property name="meta.attr.title.markup">Hyper Link</property>
    <property name="meta.attr.artist.markup">EX-LYD &amp; Sunnexo</property>
    <property name="meta.attr.track.markup">1</property>
    <property name="meta.attr.album.markup">Hyper Link</property>
    <property name="meta.attr.comment.markup">Visit https://sunnexo.bandcamp.com</property>
    <property name="meta.attr.album_artist.markup">EX-LYD &amp; Sunnexo</property>
    <property name="meta.attr.date.markup">2024</property>
    <property name="seekable">1</property>
    <property name="meta.media.sample_aspect_num">72</property>
    <property name="meta.media.sample_aspect_den">72</property>
    <property name="audio_index">0</property>
    <property name="video_index">1</property>
    <property name="creation_time">2025-12-13T22:23:15</property>
    <property name="vstream">0</property>
    <property name="meta.media.frame_rate_num">90000</property>
    <property name="meta.media.frame_rate_den">1</property>
    <property name="meta.media.colorspace">601</property>
    <property name="meta.media.color_trc">2</property>
    <property name="meta.media.has_b_frames">0</property>
    <property name="meta.media.width">700</property>
    <property name="meta.media.height">700</property>
    <property name="meta.media.aspect_ratio">1</property>
    <property name="meta.media.color_range">full</property>
    <property name="astream">0</property>
    <property name="shotcut:skipConvert">1</property>
    <property name="shotcut:hash">f9ae17ca6c0f4efd02ec2fbb31124928</property>
    <property name="meta.media.top_field_first">0</property>
    <property name="meta.media.progressive">1</property>
    <property name="shotcut:caption">EX-LYD &amp; Sunnexo - Hyper Link - 01 Hyper Link.mp3</property>
    <property name="xml">was here</property>
    <filter id="filter52" in="00:01:34.667" out="00:01:40.958">
      <property name="window">75</property>
      <property name="max_gain">20dB</property>
      <property name="level">-16.7</property>
      <property name="mlt_service">volume</property>
      <property name="disable">1</property>
    </filter>
    <filter id="filter53" in="00:01:34.667" out="00:01:40.958">
      <property name="window">75</property>
      <property name="max_gain">20dB</property>
      <property name="level">0</property>
      <property name="mlt_service">volume</property>
      <property name="disable">1</property>
    </filter>
    <filter id="filter54" in="00:01:36.042" out="00:01:40.958">
      <property name="window">75</property>
      <property name="max_gain">20dB</property>
      <property name="level">-8.1</property>
      <property name="mlt_service">volume</property>
      <property name="disable">0</property>
    </filter>
    <filter id="filter55" in="00:01:36.042" out="00:01:40.958">
      <property name="window">75</property>
      <property name="max_gain">20dB</property>
      <property name="level">0</property>
      <property name="mlt_service">volume</property>
      <property name="disable">1</property>
    </filter>
  </chain>
  <chain id="chain69" out="00:04:32.458">
    <property name="length">00:04:32.500</property>
    <property name="eof">pause</property>
    <property name="resource">audio clips/EX-LYD &amp; Sunnexo - Hyper Link - 01 Hyper Link.mp3</property>
    <property name="mlt_service">avformat-novalidate</property>
    <property name="meta.media.nb_streams">2</property>
    <property name="meta.media.0.stream.type">audio</property>
    <property name="meta.media.0.codec.sample_fmt">fltp</property>
    <property name="meta.media.0.codec.sample_rate">44100</property>
    <property name="meta.media.0.codec.channels">2</property>
    <property name="meta.media.0.codec.layout">stereo</property>
    <property name="meta.media.0.codec.name">mp3float</property>
    <property name="meta.media.0.codec.long_name">MP3 (MPEG audio layer 3)</property>
    <property name="meta.media.0.codec.bit_rate">267683</property>
    <property name="meta.attr.0.stream.encoder.markup">LAME3.99r</property>
    <property name="meta.media.1.stream.type">video</property>
    <property name="meta.media.1.stream.frame_rate">90000</property>
    <property name="meta.media.1.stream.sample_aspect_ratio">0</property>
    <property name="meta.media.1.codec.width">700</property>
    <property name="meta.media.1.codec.height">700</property>
    <property name="meta.media.1.codec.rotate">0</property>
    <property name="meta.media.1.codec.pix_fmt">yuvj444p</property>
    <property name="meta.media.1.codec.sample_aspect_ratio">1</property>
    <property name="meta.media.1.codec.colorspace">601</property>
    <property name="meta.media.1.codec.name">mjpeg</property>
    <property name="meta.media.1.codec.long_name">MJPEG (Motion JPEG)</property>
    <property name="meta.media.1.codec.bit_rate">0</property>
    <property name="meta.attr.1.stream.title.markup">cover</property>
    <property name="meta.attr.1.stream.comment.markup">Cover (front)</property>
    <property name="meta.attr.title.markup">Hyper Link</property>
    <property name="meta.attr.artist.markup">EX-LYD &amp; Sunnexo</property>
    <property name="meta.attr.track.markup">1</property>
    <property name="meta.attr.album.markup">Hyper Link</property>
    <property name="meta.attr.comment.markup">Visit https://sunnexo.bandcamp.com</property>
    <property name="meta.attr.album_artist.markup">EX-LYD &amp; Sunnexo</property>
    <property name="meta.attr.date.markup">2024</property>
    <property name="seekable">1</property>
    <property name="meta.media.sample_aspect_num">72</property>
    <property name="meta.media.sample_aspect_den">72</property>
    <property name="audio_index">0</property>
    <property name="video_index">1</property>
    <property name="creation_time">2025-12-13T22:23:15</property>
    <property name="vstream">0</property>
    <property name="meta.media.frame_rate_num">90000</property>
    <property name="meta.media.frame_rate_den">1</property>
    <property name="meta.media.colorspace">601</property>
    <property name="meta.media.color_trc">2</property>
    <property name="meta.media.has_b_frames">0</property>
    <property name="meta.media.width">700</property>
    <property name="meta.media.height">700</property>
    <property name="meta.media.aspect_ratio">1</property>
    <property name="meta.media.color_range">full</property>
    <property name="astream">0</property>
    <property name="shotcut:skipConvert">1</property>
    <property name="shotcut:hash">f9ae17ca6c0f4efd02ec2fbb31124928</property>
    <property name="meta.media.top_field_first">0</property>
    <property name="meta.media.progressive">1</property>
    <property name="shotcut:caption">EX-LYD &amp; Sunnexo - Hyper Link - 01 Hyper Link.mp3</property>
    <property name="xml">was here</property>
    <filter id="filter56" in="00:01:29.875" out="00:01:36.542">
      <property name="window">75</property>
      <property name="max_gain">20dB</property>
      <property name="level">-19.5</property>
      <property name="mlt_service">volume</property>
    </filter>
    <filter id="filter57" in="00:01:29.875" out="00:01:36.542">
      <property name="window">75</property>
      <property name="max_gain">20dB</property>
      <property name="level">0</property>
      <property name="mlt_service">volume</property>
      <property name="disable">1</property>
    </filter>
  </chain>
  <chain id="chain70" out="00:04:32.458">
    <property name="length">00:04:32.500</property>
    <property name="eof">pause</property>
    <property name="resource">audio clips/EX-LYD &amp; Sunnexo - Hyper Link - 01 Hyper Link.mp3</property>
    <property name="mlt_service">avformat-novalidate</property>
    <property name="meta.media.nb_streams">2</property>
    <property name="meta.media.0.stream.type">audio</property>
    <property name="meta.media.0.codec.sample_fmt">fltp</property>
    <property name="meta.media.0.codec.sample_rate">44100</property>
    <property name="meta.media.0.codec.channels">2</property>
    <property name="meta.media.0.codec.layout">stereo</property>
    <property name="meta.media.0.codec.name">mp3float</property>
    <property name="meta.media.0.codec.long_name">MP3 (MPEG audio layer 3)</property>
    <property name="meta.media.0.codec.bit_rate">267683</property>
    <property name="meta.attr.0.stream.encoder.markup">LAME3.99r</property>
    <property name="meta.media.1.stream.type">video</property>
    <property name="meta.media.1.stream.frame_rate">90000</property>
    <property name="meta.media.1.stream.sample_aspect_ratio">0</property>
    <property name="meta.media.1.codec.width">700</property>
    <property name="meta.media.1.codec.height">700</property>
    <property name="meta.media.1.codec.rotate">0</property>
    <property name="meta.media.1.codec.pix_fmt">yuvj444p</property>
    <property name="meta.media.1.codec.sample_aspect_ratio">1</property>
    <property name="meta.media.1.codec.colorspace">601</property>
    <property name="meta.media.1.codec.name">mjpeg</property>
    <property name="meta.media.1.codec.long_name">MJPEG (Motion JPEG)</property>
    <property name="meta.media.1.codec.bit_rate">0</property>
    <property name="meta.attr.1.stream.title.markup">cover</property>
    <property name="meta.attr.1.stream.comment.markup">Cover (front)</property>
    <property name="meta.attr.title.markup">Hyper Link</property>
    <property name="meta.attr.artist.markup">EX-LYD &amp; Sunnexo</property>
    <property name="meta.attr.track.markup">1</property>
    <property name="meta.attr.album.markup">Hyper Link</property>
    <property name="meta.attr.comment.markup">Visit https://sunnexo.bandcamp.com</property>
    <property name="meta.attr.album_artist.markup">EX-LYD &amp; Sunnexo</property>
    <property name="meta.attr.date.markup">2024</property>
    <property name="seekable">1</property>
    <property name="meta.media.sample_aspect_num">72</property>
    <property name="meta.media.sample_aspect_den">72</property>
    <property name="audio_index">0</property>
    <property name="video_index">1</property>
    <property name="creation_time">2025-12-13T22:23:15</property>
    <property name="vstream">0</property>
    <property name="meta.media.frame_rate_num">90000</property>
    <property name="meta.media.frame_rate_den">1</property>
    <property name="meta.media.colorspace">601</property>
    <property name="meta.media.color_trc">2</property>
    <property name="meta.media.has_b_frames">0</property>
    <property name="meta.media.width">700</property>
    <property name="meta.media.height">700</property>
    <property name="meta.media.aspect_ratio">1</property>
    <property name="meta.media.color_range">full</property>
    <property name="astream">0</property>
    <property name="shotcut:skipConvert">1</property>
    <property name="shotcut:hash">f9ae17ca6c0f4efd02ec2fbb31124928</property>
    <property name="meta.media.top_field_first">0</property>
    <property name="meta.media.progressive">1</property>
    <property name="shotcut:caption">EX-LYD &amp; Sunnexo - Hyper Link - 01 Hyper Link.mp3</property>
    <property name="xml">was here</property>
    <filter id="filter58" in="00:01:36.167" out="00:01:41.500">
      <property name="window">75</property>
      <property name="max_gain">20dB</property>
      <property name="level">00:00:00.458=-11.2;00:00:02.333=-11.2;00:00:03.833=-38.5;00:00:04.708=-38;00:00:05.208=-11.8</property>
      <property name="mlt_service">volume</property>
    </filter>
    <filter id="filter59" in="00:01:36.167" out="00:01:41.500">
      <property name="window">75</property>
      <property name="max_gain">20dB</property>
      <property name="level">0</property>
      <property name="mlt_service">volume</property>
      <property name="disable">1</property>
    </filter>
  </chain>
  <chain id="chain71" out="00:04:32.458">
    <property name="length">00:04:32.500</property>
    <property name="eof">pause</property>
    <property name="resource">audio clips/EX-LYD &amp; Sunnexo - Hyper Link - 01 Hyper Link.mp3</property>
    <property name="mlt_service">avformat-novalidate</property>
    <property name="meta.media.nb_streams">2</property>
    <property name="meta.media.0.stream.type">audio</property>
    <property name="meta.media.0.codec.sample_fmt">fltp</property>
    <property name="meta.media.0.codec.sample_rate">44100</property>
    <property name="meta.media.0.codec.channels">2</property>
    <property name="meta.media.0.codec.layout">stereo</property>
    <property name="meta.media.0.codec.name">mp3float</property>
    <property name="meta.media.0.codec.long_name">MP3 (MPEG audio layer 3)</property>
    <property name="meta.media.0.codec.bit_rate">267683</property>
    <property name="meta.attr.0.stream.encoder.markup">LAME3.99r</property>
    <property name="meta.media.1.stream.type">video</property>
    <property name="meta.media.1.stream.frame_rate">90000</property>
    <property name="meta.media.1.stream.sample_aspect_ratio">0</property>
    <property name="meta.media.1.codec.width">700</property>
    <property name="meta.media.1.codec.height">700</property>
    <property name="meta.media.1.codec.rotate">0</property>
    <property name="meta.media.1.codec.pix_fmt">yuvj444p</property>
    <property name="meta.media.1.codec.sample_aspect_ratio">1</property>
    <property name="meta.media.1.codec.colorspace">601</property>
    <property name="meta.media.1.codec.name">mjpeg</property>
    <property name="meta.media.1.codec.long_name">MJPEG (Motion JPEG)</property>
    <property name="meta.media.1.codec.bit_rate">0</property>
    <property name="meta.attr.1.stream.title.markup">cover</property>
    <property name="meta.attr.1.stream.comment.markup">Cover (front)</property>
    <property name="meta.attr.title.markup">Hyper Link</property>
    <property name="meta.attr.artist.markup">EX-LYD &amp; Sunnexo</property>
    <property name="meta.attr.track.markup">1</property>
    <property name="meta.attr.album.markup">Hyper Link</property>
    <property name="meta.attr.comment.markup">Visit https://sunnexo.bandcamp.com</property>
    <property name="meta.attr.album_artist.markup">EX-LYD &amp; Sunnexo</property>
    <property name="meta.attr.date.markup">2024</property>
    <property name="seekable">1</property>
    <property name="meta.media.sample_aspect_num">72</property>
    <property name="meta.media.sample_aspect_den">72</property>
    <property name="audio_index">0</property>
    <property name="video_index">1</property>
    <property name="creation_time">2025-12-13T22:23:15</property>
    <property name="vstream">0</property>
    <property name="meta.media.frame_rate_num">90000</property>
    <property name="meta.media.frame_rate_den">1</property>
    <property name="meta.media.colorspace">601</property>
    <property name="meta.media.color_trc">2</property>
    <property name="meta.media.has_b_frames">0</property>
    <property name="meta.media.width">700</property>
    <property name="meta.media.height">700</property>
    <property name="meta.media.aspect_ratio">1</property>
    <property name="meta.media.color_range">full</property>
    <property name="astream">0</property>
    <property name="shotcut:skipConvert">1</property>
    <property name="shotcut:hash">f9ae17ca6c0f4efd02ec2fbb31124928</property>
    <property name="meta.media.top_field_first">0</property>
    <property name="meta.media.progressive">1</property>
    <property name="shotcut:caption">EX-LYD &amp; Sunnexo - Hyper Link - 01 Hyper Link.mp3</property>
    <property name="xml">was here</property>
    <filter id="filter60" in="00:01:46.042" out="00:01:51.708">
      <property name="window">75</property>
      <property name="max_gain">20dB</property>
      <property name="level">-8.1</property>
      <property name="mlt_service">volume</property>
    </filter>
    <filter id="filter61" in="00:01:46.042" out="00:01:51.708">
      <property name="window">75</property>
      <property name="max_gain">20dB</property>
      <property name="level">0</property>
      <property name="mlt_service">volume</property>
      <property name="disable">1</property>
    </filter>
  </chain>
  <chain id="chain72" out="00:04:32.458">
    <property name="length">00:04:32.500</property>
    <property name="eof">pause</property>
    <property name="resource">audio clips/EX-LYD &amp; Sunnexo - Hyper Link - 01 Hyper Link.mp3</property>
    <property name="mlt_service">avformat-novalidate</property>
    <property name="meta.media.nb_streams">2</property>
    <property name="meta.media.0.stream.type">audio</property>
    <property name="meta.media.0.codec.sample_fmt">fltp</property>
    <property name="meta.media.0.codec.sample_rate">44100</property>
    <property name="meta.media.0.codec.channels">2</property>
    <property name="meta.media.0.codec.layout">stereo</property>
    <property name="meta.media.0.codec.name">mp3float</property>
    <property name="meta.media.0.codec.long_name">MP3 (MPEG audio layer 3)</property>
    <property name="meta.media.0.codec.bit_rate">267683</property>
    <property name="meta.attr.0.stream.encoder.markup">LAME3.99r</property>
    <property name="meta.media.1.stream.type">video</property>
    <property name="meta.media.1.stream.frame_rate">90000</property>
    <property name="meta.media.1.stream.sample_aspect_ratio">0</property>
    <property name="meta.media.1.codec.width">700</property>
    <property name="meta.media.1.codec.height">700</property>
    <property name="meta.media.1.codec.rotate">0</property>
    <property name="meta.media.1.codec.pix_fmt">yuvj444p</property>
    <property name="meta.media.1.codec.sample_aspect_ratio">1</property>
    <property name="meta.media.1.codec.colorspace">601</property>
    <property name="meta.media.1.codec.name">mjpeg</property>
    <property name="meta.media.1.codec.long_name">MJPEG (Motion JPEG)</property>
    <property name="meta.media.1.codec.bit_rate">0</property>
    <property name="meta.attr.1.stream.title.markup">cover</property>
    <property name="meta.attr.1.stream.comment.markup">Cover (front)</property>
    <property name="meta.attr.title.markup">Hyper Link</property>
    <property name="meta.attr.artist.markup">EX-LYD &amp; Sunnexo</property>
    <property name="meta.attr.track.markup">1</property>
    <property name="meta.attr.album.markup">Hyper Link</property>
    <property name="meta.attr.comment.markup">Visit https://sunnexo.bandcamp.com</property>
    <property name="meta.attr.album_artist.markup">EX-LYD &amp; Sunnexo</property>
    <property name="meta.attr.date.markup">2024</property>
    <property name="seekable">1</property>
    <property name="meta.media.sample_aspect_num">72</property>
    <property name="meta.media.sample_aspect_den">72</property>
    <property name="audio_index">0</property>
    <property name="video_index">1</property>
    <property name="creation_time">2025-12-13T22:23:15</property>
    <property name="vstream">0</property>
    <property name="meta.media.frame_rate_num">90000</property>
    <property name="meta.media.frame_rate_den">1</property>
    <property name="meta.media.colorspace">601</property>
    <property name="meta.media.color_trc">2</property>
    <property name="meta.media.has_b_frames">0</property>
    <property name="meta.media.width">700</property>
    <property name="meta.media.height">700</property>
    <property name="meta.media.aspect_ratio">1</property>
    <property name="meta.media.color_range">full</property>
    <property name="astream">0</property>
    <property name="shotcut:skipConvert">1</property>
    <property name="shotcut:hash">f9ae17ca6c0f4efd02ec2fbb31124928</property>
    <property name="meta.media.top_field_first">0</property>
    <property name="meta.media.progressive">1</property>
    <property name="shotcut:caption">EX-LYD &amp; Sunnexo - Hyper Link - 01 Hyper Link.mp3</property>
    <property name="xml">was here</property>
    <filter id="filter62" in="00:01:51.750" out="00:02:02.667">
      <property name="window">75</property>
      <property name="max_gain">20dB</property>
      <property name="level">-8.1</property>
      <property name="mlt_service">volume</property>
    </filter>
    <filter id="filter63" in="00:01:51.750" out="00:02:02.667">
      <property name="window">75</property>
      <property name="max_gain">20dB</property>
      <property name="level">0</property>
      <property name="mlt_service">volume</property>
      <property name="disable">1</property>
    </filter>
  </chain>
  <chain id="chain73" out="00:04:32.458">
    <property name="length">00:04:32.500</property>
    <property name="eof">pause</property>
    <property name="resource">audio clips/EX-LYD &amp; Sunnexo - Hyper Link - 01 Hyper Link.mp3</property>
    <property name="mlt_service">avformat-novalidate</property>
    <property name="meta.media.nb_streams">2</property>
    <property name="meta.media.0.stream.type">audio</property>
    <property name="meta.media.0.codec.sample_fmt">fltp</property>
    <property name="meta.media.0.codec.sample_rate">44100</property>
    <property name="meta.media.0.codec.channels">2</property>
    <property name="meta.media.0.codec.layout">stereo</property>
    <property name="meta.media.0.codec.name">mp3float</property>
    <property name="meta.media.0.codec.long_name">MP3 (MPEG audio layer 3)</property>
    <property name="meta.media.0.codec.bit_rate">267683</property>
    <property name="meta.attr.0.stream.encoder.markup">LAME3.99r</property>
    <property name="meta.media.1.stream.type">video</property>
    <property name="meta.media.1.stream.frame_rate">90000</property>
    <property name="meta.media.1.stream.sample_aspect_ratio">0</property>
    <property name="meta.media.1.codec.width">700</property>
    <property name="meta.media.1.codec.height">700</property>
    <property name="meta.media.1.codec.rotate">0</property>
    <property name="meta.media.1.codec.pix_fmt">yuvj444p</property>
    <property name="meta.media.1.codec.sample_aspect_ratio">1</property>
    <property name="meta.media.1.codec.colorspace">601</property>
    <property name="meta.media.1.codec.name">mjpeg</property>
    <property name="meta.media.1.codec.long_name">MJPEG (Motion JPEG)</property>
    <property name="meta.media.1.codec.bit_rate">0</property>
    <property name="meta.attr.1.stream.title.markup">cover</property>
    <property name="meta.attr.1.stream.comment.markup">Cover (front)</property>
    <property name="meta.attr.title.markup">Hyper Link</property>
    <property name="meta.attr.artist.markup">EX-LYD &amp; Sunnexo</property>
    <property name="meta.attr.track.markup">1</property>
    <property name="meta.attr.album.markup">Hyper Link</property>
    <property name="meta.attr.comment.markup">Visit https://sunnexo.bandcamp.com</property>
    <property name="meta.attr.album_artist.markup">EX-LYD &amp; Sunnexo</property>
    <property name="meta.attr.date.markup">2024</property>
    <property name="seekable">1</property>
    <property name="meta.media.sample_aspect_num">72</property>
    <property name="meta.media.sample_aspect_den">72</property>
    <property name="audio_index">0</property>
    <property name="video_index">1</property>
    <property name="creation_time">2025-12-13T22:23:15</property>
    <property name="vstream">0</property>
    <property name="meta.media.frame_rate_num">90000</property>
    <property name="meta.media.frame_rate_den">1</property>
    <property name="meta.media.colorspace">601</property>
    <property name="meta.media.color_trc">2</property>
    <property name="meta.media.has_b_frames">0</property>
    <property name="meta.media.width">700</property>
    <property name="meta.media.height">700</property>
    <property name="meta.media.aspect_ratio">1</property>
    <property name="meta.media.color_range">full</property>
    <property name="astream">0</property>
    <property name="shotcut:skipConvert">1</property>
    <property name="shotcut:hash">f9ae17ca6c0f4efd02ec2fbb31124928</property>
    <property name="meta.media.top_field_first">0</property>
    <property name="meta.media.progressive">1</property>
    <property name="shotcut:caption">EX-LYD &amp; Sunnexo - Hyper Link - 01 Hyper Link.mp3</property>
    <property name="xml">was here</property>
    <filter id="filter64" in="00:02:02.708" out="00:02:07.583">
      <property name="window">75</property>
      <property name="max_gain">20dB</property>
      <property name="level">-15.9</property>
      <property name="mlt_service">volume</property>
    </filter>
    <filter id="filter65" in="00:02:02.708" out="00:02:07.583">
      <property name="window">75</property>
      <property name="max_gain">20dB</property>
      <property name="level">0</property>
      <property name="mlt_service">volume</property>
      <property name="disable">1</property>
    </filter>
  </chain>
  <chain id="chain74" out="00:04:32.458">
    <property name="length">00:04:32.500</property>
    <property name="eof">pause</property>
    <property name="resource">audio clips/EX-LYD &amp; Sunnexo - Hyper Link - 01 Hyper Link.mp3</property>
    <property name="mlt_service">avformat-novalidate</property>
    <property name="meta.media.nb_streams">2</property>
    <property name="meta.media.0.stream.type">audio</property>
    <property name="meta.media.0.codec.sample_fmt">fltp</property>
    <property name="meta.media.0.codec.sample_rate">44100</property>
    <property name="meta.media.0.codec.channels">2</property>
    <property name="meta.media.0.codec.layout">stereo</property>
    <property name="meta.media.0.codec.name">mp3float</property>
    <property name="meta.media.0.codec.long_name">MP3 (MPEG audio layer 3)</property>
    <property name="meta.media.0.codec.bit_rate">267683</property>
    <property name="meta.attr.0.stream.encoder.markup">LAME3.99r</property>
    <property name="meta.media.1.stream.type">video</property>
    <property name="meta.media.1.stream.frame_rate">90000</property>
    <property name="meta.media.1.stream.sample_aspect_ratio">0</property>
    <property name="meta.media.1.codec.width">700</property>
    <property name="meta.media.1.codec.height">700</property>
    <property name="meta.media.1.codec.rotate">0</property>
    <property name="meta.media.1.codec.pix_fmt">yuvj444p</property>
    <property name="meta.media.1.codec.sample_aspect_ratio">1</property>
    <property name="meta.media.1.codec.colorspace">601</property>
    <property name="meta.media.1.codec.name">mjpeg</property>
    <property name="meta.media.1.codec.long_name">MJPEG (Motion JPEG)</property>
    <property name="meta.media.1.codec.bit_rate">0</property>
    <property name="meta.attr.1.stream.title.markup">cover</property>
    <property name="meta.attr.1.stream.comment.markup">Cover (front)</property>
    <property name="meta.attr.title.markup">Hyper Link</property>
    <property name="meta.attr.artist.markup">EX-LYD &amp; Sunnexo</property>
    <property name="meta.attr.track.markup">1</property>
    <property name="meta.attr.album.markup">Hyper Link</property>
    <property name="meta.attr.comment.markup">Visit https://sunnexo.bandcamp.com</property>
    <property name="meta.attr.album_artist.markup">EX-LYD &amp; Sunnexo</property>
    <property name="meta.attr.date.markup">2024</property>
    <property name="seekable">1</property>
    <property name="meta.media.sample_aspect_num">72</property>
    <property name="meta.media.sample_aspect_den">72</property>
    <property name="audio_index">0</property>
    <property name="video_index">1</property>
    <property name="creation_time">2025-12-13T22:23:15</property>
    <property name="vstream">0</property>
    <property name="meta.media.frame_rate_num">90000</property>
    <property name="meta.media.frame_rate_den">1</property>
    <property name="meta.media.colorspace">601</property>
    <property name="meta.media.color_trc">2</property>
    <property name="meta.media.has_b_frames">0</property>
    <property name="meta.media.width">700</property>
    <property name="meta.media.height">700</property>
    <property name="meta.media.aspect_ratio">1</property>
    <property name="meta.media.color_range">full</property>
    <property name="astream">0</property>
    <property name="shotcut:skipConvert">1</property>
    <property name="shotcut:hash">f9ae17ca6c0f4efd02ec2fbb31124928</property>
    <property name="meta.media.top_field_first">0</property>
    <property name="meta.media.progressive">1</property>
    <property name="shotcut:caption">EX-LYD &amp; Sunnexo - Hyper Link - 01 Hyper Link.mp3</property>
    <property name="xml">was here</property>
    <filter id="filter66" in="00:02:07.625" out="00:02:19.667">
      <property name="window">75</property>
      <property name="max_gain">20dB</property>
      <property name="level">-20.8</property>
      <property name="mlt_service">volume</property>
    </filter>
    <filter id="filter67" in="00:02:07.625" out="00:02:19.667">
      <property name="window">75</property>
      <property name="max_gain">20dB</property>
      <property name="level">0</property>
      <property name="mlt_service">volume</property>
      <property name="disable">1</property>
    </filter>
  </chain>
  <chain id="chain75" out="00:04:32.458">
    <property name="length">00:04:32.500</property>
    <property name="eof">pause</property>
    <property name="resource">audio clips/EX-LYD &amp; Sunnexo - Hyper Link - 01 Hyper Link.mp3</property>
    <property name="mlt_service">avformat-novalidate</property>
    <property name="meta.media.nb_streams">2</property>
    <property name="meta.media.0.stream.type">audio</property>
    <property name="meta.media.0.codec.sample_fmt">fltp</property>
    <property name="meta.media.0.codec.sample_rate">44100</property>
    <property name="meta.media.0.codec.channels">2</property>
    <property name="meta.media.0.codec.layout">stereo</property>
    <property name="meta.media.0.codec.name">mp3float</property>
    <property name="meta.media.0.codec.long_name">MP3 (MPEG audio layer 3)</property>
    <property name="meta.media.0.codec.bit_rate">267683</property>
    <property name="meta.attr.0.stream.encoder.markup">LAME3.99r</property>
    <property name="meta.media.1.stream.type">video</property>
    <property name="meta.media.1.stream.frame_rate">90000</property>
    <property name="meta.media.1.stream.sample_aspect_ratio">0</property>
    <property name="meta.media.1.codec.width">700</property>
    <property name="meta.media.1.codec.height">700</property>
    <property name="meta.media.1.codec.rotate">0</property>
    <property name="meta.media.1.codec.pix_fmt">yuvj444p</property>
    <property name="meta.media.1.codec.sample_aspect_ratio">1</property>
    <property name="meta.media.1.codec.colorspace">601</property>
    <property name="meta.media.1.codec.name">mjpeg</property>
    <property name="meta.media.1.codec.long_name">MJPEG (Motion JPEG)</property>
    <property name="meta.media.1.codec.bit_rate">0</property>
    <property name="meta.attr.1.stream.title.markup">cover</property>
    <property name="meta.attr.1.stream.comment.markup">Cover (front)</property>
    <property name="meta.attr.title.markup">Hyper Link</property>
    <property name="meta.attr.artist.markup">EX-LYD &amp; Sunnexo</property>
    <property name="meta.attr.track.markup">1</property>
    <property name="meta.attr.album.markup">Hyper Link</property>
    <property name="meta.attr.comment.markup">Visit https://sunnexo.bandcamp.com</property>
    <property name="meta.attr.album_artist.markup">EX-LYD &amp; Sunnexo</property>
    <property name="meta.attr.date.markup">2024</property>
    <property name="seekable">1</property>
    <property name="meta.media.sample_aspect_num">72</property>
    <property name="meta.media.sample_aspect_den">72</property>
    <property name="audio_index">0</property>
    <property name="video_index">1</property>
    <property name="creation_time">2025-12-13T22:23:15</property>
    <property name="vstream">0</property>
    <property name="meta.media.frame_rate_num">90000</property>
    <property name="meta.media.frame_rate_den">1</property>
    <property name="meta.media.colorspace">601</property>
    <property name="meta.media.color_trc">2</property>
    <property name="meta.media.has_b_frames">0</property>
    <property name="meta.media.width">700</property>
    <property name="meta.media.height">700</property>
    <property name="meta.media.aspect_ratio">1</property>
    <property name="meta.media.color_range">full</property>
    <property name="astream">0</property>
    <property name="shotcut:skipConvert">1</property>
    <property name="shotcut:hash">f9ae17ca6c0f4efd02ec2fbb31124928</property>
    <property name="meta.media.top_field_first">0</property>
    <property name="meta.media.progressive">1</property>
    <property name="shotcut:caption">EX-LYD &amp; Sunnexo - Hyper Link - 01 Hyper Link.mp3</property>
    <property name="xml">was here</property>
    <filter id="filter68" in="00:02:19.708" out="00:02:24.792">
      <property name="window">75</property>
      <property name="max_gain">20dB</property>
      <property name="level">-13.2</property>
      <property name="mlt_service">volume</property>
    </filter>
    <filter id="filter69" in="00:02:19.708" out="00:02:24.792">
      <property name="window">75</property>
      <property name="max_gain">20dB</property>
      <property name="level">0</property>
      <property name="mlt_service">volume</property>
      <property name="disable">1</property>
    </filter>
  </chain>
  <chain id="chain76" out="00:04:32.458">
    <property name="length">00:04:32.500</property>
    <property name="eof">pause</property>
    <property name="resource">audio clips/EX-LYD &amp; Sunnexo - Hyper Link - 01 Hyper Link.mp3</property>
    <property name="mlt_service">avformat-novalidate</property>
    <property name="meta.media.nb_streams">2</property>
    <property name="meta.media.0.stream.type">audio</property>
    <property name="meta.media.0.codec.sample_fmt">fltp</property>
    <property name="meta.media.0.codec.sample_rate">44100</property>
    <property name="meta.media.0.codec.channels">2</property>
    <property name="meta.media.0.codec.layout">stereo</property>
    <property name="meta.media.0.codec.name">mp3float</property>
    <property name="meta.media.0.codec.long_name">MP3 (MPEG audio layer 3)</property>
    <property name="meta.media.0.codec.bit_rate">267683</property>
    <property name="meta.attr.0.stream.encoder.markup">LAME3.99r</property>
    <property name="meta.media.1.stream.type">video</property>
    <property name="meta.media.1.stream.frame_rate">90000</property>
    <property name="meta.media.1.stream.sample_aspect_ratio">0</property>
    <property name="meta.media.1.codec.width">700</property>
    <property name="meta.media.1.codec.height">700</property>
    <property name="meta.media.1.codec.rotate">0</property>
    <property name="meta.media.1.codec.pix_fmt">yuvj444p</property>
    <property name="meta.media.1.codec.sample_aspect_ratio">1</property>
    <property name="meta.media.1.codec.colorspace">601</property>
    <property name="meta.media.1.codec.name">mjpeg</property>
    <property name="meta.media.1.codec.long_name">MJPEG (Motion JPEG)</property>
    <property name="meta.media.1.codec.bit_rate">0</property>
    <property name="meta.attr.1.stream.title.markup">cover</property>
    <property name="meta.attr.1.stream.comment.markup">Cover (front)</property>
    <property name="meta.attr.title.markup">Hyper Link</property>
    <property name="meta.attr.artist.markup">EX-LYD &amp; Sunnexo</property>
    <property name="meta.attr.track.markup">1</property>
    <property name="meta.attr.album.markup">Hyper Link</property>
    <property name="meta.attr.comment.markup">Visit https://sunnexo.bandcamp.com</property>
    <property name="meta.attr.album_artist.markup">EX-LYD &amp; Sunnexo</property>
    <property name="meta.attr.date.markup">2024</property>
    <property name="seekable">1</property>
    <property name="meta.media.sample_aspect_num">72</property>
    <property name="meta.media.sample_aspect_den">72</property>
    <property name="audio_index">0</property>
    <property name="video_index">1</property>
    <property name="creation_time">2025-12-13T22:23:15</property>
    <property name="vstream">0</property>
    <property name="meta.media.frame_rate_num">90000</property>
    <property name="meta.media.frame_rate_den">1</property>
    <property name="meta.media.colorspace">601</property>
    <property name="meta.media.color_trc">2</property>
    <property name="meta.media.has_b_frames">0</property>
    <property name="meta.media.width">700</property>
    <property name="meta.media.height">700</property>
    <property name="meta.media.aspect_ratio">1</property>
    <property name="meta.media.color_range">full</property>
    <property name="astream">0</property>
    <property name="shotcut:skipConvert">1</property>
    <property name="shotcut:hash">f9ae17ca6c0f4efd02ec2fbb31124928</property>
    <property name="meta.media.top_field_first">0</property>
    <property name="meta.media.progressive">1</property>
    <property name="shotcut:caption">EX-LYD &amp; Sunnexo - Hyper Link - 01 Hyper Link.mp3</property>
    <property name="xml">was here</property>
    <filter id="filter70" in="00:02:48.542" out="00:02:57.542">
      <property name="window">75</property>
      <property name="max_gain">20dB</property>
      <property name="level">-11.2</property>
      <property name="mlt_service">volume</property>
    </filter>
    <filter id="filter71" in="00:02:48.542" out="00:02:57.542">
      <property name="window">75</property>
      <property name="max_gain">20dB</property>
      <property name="level">0</property>
      <property name="mlt_service">volume</property>
      <property name="disable">1</property>
    </filter>
  </chain>
  <tractor id="tractor3" in="00:00:00.000" out="00:00:00.708">
    <property name="shotcut:transition">lumaMix</property>
    <track producer="chain75" in="00:02:24.083" out="00:02:24.792"/>
    <track producer="chain76" in="00:02:48.542" out="00:02:49.250"/>
    <transition id="transition6" out="00:00:00.708">
      <property name="a_track">0</property>
      <property name="b_track">1</property>
      <property name="factory">loader</property>
      <property name="mlt_service">luma</property>
      <property name="alpha_over">1</property>
      <property name="fix_background_alpha">1</property>
    </transition>
    <transition id="transition7" out="00:00:00.708">
      <property name="a_track">0</property>
      <property name="b_track">1</property>
      <property name="mlt_service">mix</property>
      <property name="start">-1</property>
      <property name="accepts_blanks">1</property>
    </transition>
  </tractor>
  <chain id="chain77" out="00:04:32.458">
    <property name="length">00:04:32.500</property>
    <property name="eof">pause</property>
    <property name="resource">audio clips/EX-LYD &amp; Sunnexo - Hyper Link - 01 Hyper Link.mp3</property>
    <property name="mlt_service">avformat-novalidate</property>
    <property name="meta.media.nb_streams">2</property>
    <property name="meta.media.0.stream.type">audio</property>
    <property name="meta.media.0.codec.sample_fmt">fltp</property>
    <property name="meta.media.0.codec.sample_rate">44100</property>
    <property name="meta.media.0.codec.channels">2</property>
    <property name="meta.media.0.codec.layout">stereo</property>
    <property name="meta.media.0.codec.name">mp3float</property>
    <property name="meta.media.0.codec.long_name">MP3 (MPEG audio layer 3)</property>
    <property name="meta.media.0.codec.bit_rate">267683</property>
    <property name="meta.attr.0.stream.encoder.markup">LAME3.99r</property>
    <property name="meta.media.1.stream.type">video</property>
    <property name="meta.media.1.stream.frame_rate">90000</property>
    <property name="meta.media.1.stream.sample_aspect_ratio">0</property>
    <property name="meta.media.1.codec.width">700</property>
    <property name="meta.media.1.codec.height">700</property>
    <property name="meta.media.1.codec.rotate">0</property>
    <property name="meta.media.1.codec.pix_fmt">yuvj444p</property>
    <property name="meta.media.1.codec.sample_aspect_ratio">1</property>
    <property name="meta.media.1.codec.colorspace">601</property>
    <property name="meta.media.1.codec.name">mjpeg</property>
    <property name="meta.media.1.codec.long_name">MJPEG (Motion JPEG)</property>
    <property name="meta.media.1.codec.bit_rate">0</property>
    <property name="meta.attr.1.stream.title.markup">cover</property>
    <property name="meta.attr.1.stream.comment.markup">Cover (front)</property>
    <property name="meta.attr.title.markup">Hyper Link</property>
    <property name="meta.attr.artist.markup">EX-LYD &amp; Sunnexo</property>
    <property name="meta.attr.track.markup">1</property>
    <property name="meta.attr.album.markup">Hyper Link</property>
    <property name="meta.attr.comment.markup">Visit https://sunnexo.bandcamp.com</property>
    <property name="meta.attr.album_artist.markup">EX-LYD &amp; Sunnexo</property>
    <property name="meta.attr.date.markup">2024</property>
    <property name="seekable">1</property>
    <property name="meta.media.sample_aspect_num">72</property>
    <property name="meta.media.sample_aspect_den">72</property>
    <property name="audio_index">0</property>
    <property name="video_index">1</property>
    <property name="creation_time">2025-12-13T22:23:15</property>
    <property name="vstream">0</property>
    <property name="meta.media.frame_rate_num">90000</property>
    <property name="meta.media.frame_rate_den">1</property>
    <property name="meta.media.colorspace">601</property>
    <property name="meta.media.color_trc">2</property>
    <property name="meta.media.has_b_frames">0</property>
    <property name="meta.media.width">700</property>
    <property name="meta.media.height">700</property>
    <property name="meta.media.aspect_ratio">1</property>
    <property name="meta.media.color_range">full</property>
    <property name="astream">0</property>
    <property name="shotcut:skipConvert">1</property>
    <property name="shotcut:hash">f9ae17ca6c0f4efd02ec2fbb31124928</property>
    <property name="meta.media.top_field_first">0</property>
    <property name="meta.media.progressive">1</property>
    <property name="shotcut:caption">EX-LYD &amp; Sunnexo - Hyper Link - 01 Hyper Link.mp3</property>
    <property name="xml">was here</property>
    <filter id="filter72" in="00:02:57.583" out="00:02:57.833">
      <property name="window">75</property>
      <property name="max_gain">20dB</property>
      <property name="level">-11.7</property>
      <property name="mlt_service">volume</property>
    </filter>
    <filter id="filter73" in="00:02:57.583" out="00:02:57.833">
      <property name="window">75</property>
      <property name="max_gain">20dB</property>
      <property name="level">0</property>
      <property name="mlt_service">volume</property>
      <property name="disable">1</property>
    </filter>
  </chain>
  <chain id="chain83" out="00:04:32.458">
    <property name="length">00:04:32.500</property>
    <property name="eof">pause</property>
    <property name="resource">audio clips/EX-LYD &amp; Sunnexo - Hyper Link - 01 Hyper Link.mp3</property>
    <property name="mlt_service">avformat-novalidate</property>
    <property name="meta.media.nb_streams">2</property>
    <property name="meta.media.0.stream.type">audio</property>
    <property name="meta.media.0.codec.sample_fmt">fltp</property>
    <property name="meta.media.0.codec.sample_rate">44100</property>
    <property name="meta.media.0.codec.channels">2</property>
    <property name="meta.media.0.codec.layout">stereo</property>
    <property name="meta.media.0.codec.name">mp3float</property>
    <property name="meta.media.0.codec.long_name">MP3 (MPEG audio layer 3)</property>
    <property name="meta.media.0.codec.bit_rate">267683</property>
    <property name="meta.attr.0.stream.encoder.markup">LAME3.99r</property>
    <property name="meta.media.1.stream.type">video</property>
    <property name="meta.media.1.stream.frame_rate">90000</property>
    <property name="meta.media.1.stream.sample_aspect_ratio">0</property>
    <property name="meta.media.1.codec.width">700</property>
    <property name="meta.media.1.codec.height">700</property>
    <property name="meta.media.1.codec.rotate">0</property>
    <property name="meta.media.1.codec.pix_fmt">yuvj444p</property>
    <property name="meta.media.1.codec.sample_aspect_ratio">1</property>
    <property name="meta.media.1.codec.colorspace">601</property>
    <property name="meta.media.1.codec.name">mjpeg</property>
    <property name="meta.media.1.codec.long_name">MJPEG (Motion JPEG)</property>
    <property name="meta.media.1.codec.bit_rate">0</property>
    <property name="meta.attr.1.stream.title.markup">cover</property>
    <property name="meta.attr.1.stream.comment.markup">Cover (front)</property>
    <property name="meta.attr.title.markup">Hyper Link</property>
    <property name="meta.attr.artist.markup">EX-LYD &amp; Sunnexo</property>
    <property name="meta.attr.track.markup">1</property>
    <property name="meta.attr.album.markup">Hyper Link</property>
    <property name="meta.attr.comment.markup">Visit https://sunnexo.bandcamp.com</property>
    <property name="meta.attr.album_artist.markup">EX-LYD &amp; Sunnexo</property>
    <property name="meta.attr.date.markup">2024</property>
    <property name="seekable">1</property>
    <property name="meta.media.sample_aspect_num">72</property>
    <property name="meta.media.sample_aspect_den">72</property>
    <property name="audio_index">0</property>
    <property name="video_index">1</property>
    <property name="creation_time">2025-12-13T22:23:15</property>
    <property name="vstream">0</property>
    <property name="meta.media.frame_rate_num">90000</property>
    <property name="meta.media.frame_rate_den">1</property>
    <property name="meta.media.colorspace">601</property>
    <property name="meta.media.color_trc">2</property>
    <property name="meta.media.has_b_frames">0</property>
    <property name="meta.media.width">700</property>
    <property name="meta.media.height">700</property>
    <property name="meta.media.aspect_ratio">1</property>
    <property name="meta.media.color_range">full</property>
    <property name="astream">0</property>
    <property name="shotcut:skipConvert">1</property>
    <property name="shotcut:hash">f9ae17ca6c0f4efd02ec2fbb31124928</property>
    <property name="meta.media.top_field_first">0</property>
    <property name="meta.media.progressive">1</property>
    <property name="shotcut:caption">EX-LYD &amp; Sunnexo - Hyper Link - 01 Hyper Link.mp3</property>
    <property name="xml">was here</property>
    <filter id="filter74" in="00:02:57.875" out="00:03:19.958">
      <property name="window">75</property>
      <property name="max_gain">20dB</property>
      <property name="level">-11.7</property>
      <property name="mlt_service">volume</property>
    </filter>
  </chain>
  <chain id="chain91" out="00:04:32.458">
    <property name="length">00:04:32.500</property>
    <property name="eof">pause</property>
    <property name="resource">audio clips/EX-LYD &amp; Sunnexo - Hyper Link - 01 Hyper Link.mp3</property>
    <property name="mlt_service">avformat-novalidate</property>
    <property name="meta.media.nb_streams">2</property>
    <property name="meta.media.0.stream.type">audio</property>
    <property name="meta.media.0.codec.sample_fmt">fltp</property>
    <property name="meta.media.0.codec.sample_rate">44100</property>
    <property name="meta.media.0.codec.channels">2</property>
    <property name="meta.media.0.codec.layout">stereo</property>
    <property name="meta.media.0.codec.name">mp3float</property>
    <property name="meta.media.0.codec.long_name">MP3 (MPEG audio layer 3)</property>
    <property name="meta.media.0.codec.bit_rate">267683</property>
    <property name="meta.attr.0.stream.encoder.markup">LAME3.99r</property>
    <property name="meta.media.1.stream.type">video</property>
    <property name="meta.media.1.stream.frame_rate">90000</property>
    <property name="meta.media.1.stream.sample_aspect_ratio">0</property>
    <property name="meta.media.1.codec.width">700</property>
    <property name="meta.media.1.codec.height">700</property>
    <property name="meta.media.1.codec.rotate">0</property>
    <property name="meta.media.1.codec.pix_fmt">yuvj444p</property>
    <property name="meta.media.1.codec.sample_aspect_ratio">1</property>
    <property name="meta.media.1.codec.colorspace">601</property>
    <property name="meta.media.1.codec.name">mjpeg</property>
    <property name="meta.media.1.codec.long_name">MJPEG (Motion JPEG)</property>
    <property name="meta.media.1.codec.bit_rate">0</property>
    <property name="meta.attr.1.stream.title.markup">cover</property>
    <property name="meta.attr.1.stream.comment.markup">Cover (front)</property>
    <property name="meta.attr.title.markup">Hyper Link</property>
    <property name="meta.attr.artist.markup">EX-LYD &amp; Sunnexo</property>
    <property name="meta.attr.track.markup">1</property>
    <property name="meta.attr.album.markup">Hyper Link</property>
    <property name="meta.attr.comment.markup">Visit https://sunnexo.bandcamp.com</property>
    <property name="meta.attr.album_artist.markup">EX-LYD &amp; Sunnexo</property>
    <property name="meta.attr.date.markup">2024</property>
    <property name="seekable">1</property>
    <property name="meta.media.sample_aspect_num">72</property>
    <property name="meta.media.sample_aspect_den">72</property>
    <property name="audio_index">0</property>
    <property name="video_index">1</property>
    <property name="creation_time">2025-12-13T22:23:15</property>
    <property name="vstream">0</property>
    <property name="meta.media.frame_rate_num">90000</property>
    <property name="meta.media.frame_rate_den">1</property>
    <property name="meta.media.colorspace">601</property>
    <property name="meta.media.color_trc">2</property>
    <property name="meta.media.has_b_frames">0</property>
    <property name="meta.media.width">700</property>
    <property name="meta.media.height">700</property>
    <property name="meta.media.aspect_ratio">1</property>
    <property name="meta.media.color_range">full</property>
    <property name="astream">0</property>
    <property name="shotcut:skipConvert">1</property>
    <property name="shotcut:hash">f9ae17ca6c0f4efd02ec2fbb31124928</property>
    <property name="meta.media.top_field_first">0</property>
    <property name="meta.media.progressive">1</property>
    <property name="shotcut:caption">EX-LYD &amp; Sunnexo - Hyper Link - 01 Hyper Link.mp3</property>
    <property name="xml">was here</property>
    <filter id="filter75" in="00:03:20.000" out="00:03:25.583">
      <property name="window">75</property>
      <property name="max_gain">20dB</property>
      <property name="level">-11.4</property>
      <property name="mlt_service">volume</property>
    </filter>
    <filter id="filter76" in="00:03:20.000" out="00:03:25.583">
      <property name="window">75</property>
      <property name="max_gain">20dB</property>
      <property name="level">0</property>
      <property name="mlt_service">volume</property>
      <property name="disable">1</property>
    </filter>
  </chain>
  <chain id="chain92" out="00:04:32.458">
    <property name="length">00:04:32.500</property>
    <property name="eof">pause</property>
    <property name="resource">audio clips/EX-LYD &amp; Sunnexo - Hyper Link - 01 Hyper Link.mp3</property>
    <property name="mlt_service">avformat-novalidate</property>
    <property name="meta.media.nb_streams">2</property>
    <property name="meta.media.0.stream.type">audio</property>
    <property name="meta.media.0.codec.sample_fmt">fltp</property>
    <property name="meta.media.0.codec.sample_rate">44100</property>
    <property name="meta.media.0.codec.channels">2</property>
    <property name="meta.media.0.codec.layout">stereo</property>
    <property name="meta.media.0.codec.name">mp3float</property>
    <property name="meta.media.0.codec.long_name">MP3 (MPEG audio layer 3)</property>
    <property name="meta.media.0.codec.bit_rate">267683</property>
    <property name="meta.attr.0.stream.encoder.markup">LAME3.99r</property>
    <property name="meta.media.1.stream.type">video</property>
    <property name="meta.media.1.stream.frame_rate">90000</property>
    <property name="meta.media.1.stream.sample_aspect_ratio">0</property>
    <property name="meta.media.1.codec.width">700</property>
    <property name="meta.media.1.codec.height">700</property>
    <property name="meta.media.1.codec.rotate">0</property>
    <property name="meta.media.1.codec.pix_fmt">yuvj444p</property>
    <property name="meta.media.1.codec.sample_aspect_ratio">1</property>
    <property name="meta.media.1.codec.colorspace">601</property>
    <property name="meta.media.1.codec.name">mjpeg</property>
    <property name="meta.media.1.codec.long_name">MJPEG (Motion JPEG)</property>
    <property name="meta.media.1.codec.bit_rate">0</property>
    <property name="meta.attr.1.stream.title.markup">cover</property>
    <property name="meta.attr.1.stream.comment.markup">Cover (front)</property>
    <property name="meta.attr.title.markup">Hyper Link</property>
    <property name="meta.attr.artist.markup">EX-LYD &amp; Sunnexo</property>
    <property name="meta.attr.track.markup">1</property>
    <property name="meta.attr.album.markup">Hyper Link</property>
    <property name="meta.attr.comment.markup">Visit https://sunnexo.bandcamp.com</property>
    <property name="meta.attr.album_artist.markup">EX-LYD &amp; Sunnexo</property>
    <property name="meta.attr.date.markup">2024</property>
    <property name="seekable">1</property>
    <property name="meta.media.sample_aspect_num">72</property>
    <property name="meta.media.sample_aspect_den">72</property>
    <property name="audio_index">0</property>
    <property name="video_index">1</property>
    <property name="creation_time">2025-12-13T22:23:15</property>
    <property name="vstream">0</property>
    <property name="meta.media.frame_rate_num">90000</property>
    <property name="meta.media.frame_rate_den">1</property>
    <property name="meta.media.colorspace">601</property>
    <property name="meta.media.color_trc">2</property>
    <property name="meta.media.has_b_frames">0</property>
    <property name="meta.media.width">700</property>
    <property name="meta.media.height">700</property>
    <property name="meta.media.aspect_ratio">1</property>
    <property name="meta.media.color_range">full</property>
    <property name="astream">0</property>
    <property name="shotcut:skipConvert">1</property>
    <property name="shotcut:hash">f9ae17ca6c0f4efd02ec2fbb31124928</property>
    <property name="meta.media.top_field_first">0</property>
    <property name="meta.media.progressive">1</property>
    <property name="shotcut:caption">EX-LYD &amp; Sunnexo - Hyper Link - 01 Hyper Link.mp3</property>
    <property name="xml">was here</property>
    <filter id="filter77" in="00:03:31.208" out="00:03:36.708">
      <property name="window">75</property>
      <property name="max_gain">20dB</property>
      <property name="level">-11.4</property>
      <property name="mlt_service">volume</property>
    </filter>
    <filter id="filter78" in="00:03:31.208" out="00:03:36.708">
      <property name="window">75</property>
      <property name="max_gain">20dB</property>
      <property name="level">0</property>
      <property name="mlt_service">volume</property>
      <property name="disable">1</property>
    </filter>
  </chain>
  <chain id="chain93" out="00:04:32.458">
    <property name="length">00:04:32.500</property>
    <property name="eof">pause</property>
    <property name="resource">audio clips/EX-LYD &amp; Sunnexo - Hyper Link - 01 Hyper Link.mp3</property>
    <property name="mlt_service">avformat-novalidate</property>
    <property name="meta.media.nb_streams">2</property>
    <property name="meta.media.0.stream.type">audio</property>
    <property name="meta.media.0.codec.sample_fmt">fltp</property>
    <property name="meta.media.0.codec.sample_rate">44100</property>
    <property name="meta.media.0.codec.channels">2</property>
    <property name="meta.media.0.codec.layout">stereo</property>
    <property name="meta.media.0.codec.name">mp3float</property>
    <property name="meta.media.0.codec.long_name">MP3 (MPEG audio layer 3)</property>
    <property name="meta.media.0.codec.bit_rate">267683</property>
    <property name="meta.attr.0.stream.encoder.markup">LAME3.99r</property>
    <property name="meta.media.1.stream.type">video</property>
    <property name="meta.media.1.stream.frame_rate">90000</property>
    <property name="meta.media.1.stream.sample_aspect_ratio">0</property>
    <property name="meta.media.1.codec.width">700</property>
    <property name="meta.media.1.codec.height">700</property>
    <property name="meta.media.1.codec.rotate">0</property>
    <property name="meta.media.1.codec.pix_fmt">yuvj444p</property>
    <property name="meta.media.1.codec.sample_aspect_ratio">1</property>
    <property name="meta.media.1.codec.colorspace">601</property>
    <property name="meta.media.1.codec.name">mjpeg</property>
    <property name="meta.media.1.codec.long_name">MJPEG (Motion JPEG)</property>
    <property name="meta.media.1.codec.bit_rate">0</property>
    <property name="meta.attr.1.stream.title.markup">cover</property>
    <property name="meta.attr.1.stream.comment.markup">Cover (front)</property>
    <property name="meta.attr.title.markup">Hyper Link</property>
    <property name="meta.attr.artist.markup">EX-LYD &amp; Sunnexo</property>
    <property name="meta.attr.track.markup">1</property>
    <property name="meta.attr.album.markup">Hyper Link</property>
    <property name="meta.attr.comment.markup">Visit https://sunnexo.bandcamp.com</property>
    <property name="meta.attr.album_artist.markup">EX-LYD &amp; Sunnexo</property>
    <property name="meta.attr.date.markup">2024</property>
    <property name="seekable">1</property>
    <property name="meta.media.sample_aspect_num">72</property>
    <property name="meta.media.sample_aspect_den">72</property>
    <property name="audio_index">0</property>
    <property name="video_index">1</property>
    <property name="creation_time">2025-12-13T22:23:15</property>
    <property name="vstream">0</property>
    <property name="meta.media.frame_rate_num">90000</property>
    <property name="meta.media.frame_rate_den">1</property>
    <property name="meta.media.colorspace">601</property>
    <property name="meta.media.color_trc">2</property>
    <property name="meta.media.has_b_frames">0</property>
    <property name="meta.media.width">700</property>
    <property name="meta.media.height">700</property>
    <property name="meta.media.aspect_ratio">1</property>
    <property name="meta.media.color_range">full</property>
    <property name="astream">0</property>
    <property name="shotcut:skipConvert">1</property>
    <property name="shotcut:hash">f9ae17ca6c0f4efd02ec2fbb31124928</property>
    <property name="meta.media.top_field_first">0</property>
    <property name="meta.media.progressive">1</property>
    <property name="shotcut:caption">EX-LYD &amp; Sunnexo - Hyper Link - 01 Hyper Link.mp3</property>
    <property name="xml">was here</property>
    <filter id="filter79" in="00:03:36.750" out="00:03:42.125">
      <property name="window">75</property>
      <property name="max_gain">20dB</property>
      <property name="level">-11.4</property>
      <property name="mlt_service">volume</property>
    </filter>
    <filter id="filter80" in="00:03:36.750" out="00:03:42.125">
      <property name="window">75</property>
      <property name="max_gain">20dB</property>
      <property name="level">0</property>
      <property name="mlt_service">volume</property>
      <property name="disable">1</property>
    </filter>
  </chain>
  <chain id="chain94" out="00:04:32.458">
    <property name="length">00:04:32.500</property>
    <property name="eof">pause</property>
    <property name="resource">audio clips/EX-LYD &amp; Sunnexo - Hyper Link - 01 Hyper Link.mp3</property>
    <property name="mlt_service">avformat-novalidate</property>
    <property name="meta.media.nb_streams">2</property>
    <property name="meta.media.0.stream.type">audio</property>
    <property name="meta.media.0.codec.sample_fmt">fltp</property>
    <property name="meta.media.0.codec.sample_rate">44100</property>
    <property name="meta.media.0.codec.channels">2</property>
    <property name="meta.media.0.codec.layout">stereo</property>
    <property name="meta.media.0.codec.name">mp3float</property>
    <property name="meta.media.0.codec.long_name">MP3 (MPEG audio layer 3)</property>
    <property name="meta.media.0.codec.bit_rate">267683</property>
    <property name="meta.attr.0.stream.encoder.markup">LAME3.99r</property>
    <property name="meta.media.1.stream.type">video</property>
    <property name="meta.media.1.stream.frame_rate">90000</property>
    <property name="meta.media.1.stream.sample_aspect_ratio">0</property>
    <property name="meta.media.1.codec.width">700</property>
    <property name="meta.media.1.codec.height">700</property>
    <property name="meta.media.1.codec.rotate">0</property>
    <property name="meta.media.1.codec.pix_fmt">yuvj444p</property>
    <property name="meta.media.1.codec.sample_aspect_ratio">1</property>
    <property name="meta.media.1.codec.colorspace">601</property>
    <property name="meta.media.1.codec.name">mjpeg</property>
    <property name="meta.media.1.codec.long_name">MJPEG (Motion JPEG)</property>
    <property name="meta.media.1.codec.bit_rate">0</property>
    <property name="meta.attr.1.stream.title.markup">cover</property>
    <property name="meta.attr.1.stream.comment.markup">Cover (front)</property>
    <property name="meta.attr.title.markup">Hyper Link</property>
    <property name="meta.attr.artist.markup">EX-LYD &amp; Sunnexo</property>
    <property name="meta.attr.track.markup">1</property>
    <property name="meta.attr.album.markup">Hyper Link</property>
    <property name="meta.attr.comment.markup">Visit https://sunnexo.bandcamp.com</property>
    <property name="meta.attr.album_artist.markup">EX-LYD &amp; Sunnexo</property>
    <property name="meta.attr.date.markup">2024</property>
    <property name="seekable">1</property>
    <property name="meta.media.sample_aspect_num">72</property>
    <property name="meta.media.sample_aspect_den">72</property>
    <property name="audio_index">0</property>
    <property name="video_index">1</property>
    <property name="creation_time">2025-12-13T22:23:15</property>
    <property name="vstream">0</property>
    <property name="meta.media.frame_rate_num">90000</property>
    <property name="meta.media.frame_rate_den">1</property>
    <property name="meta.media.colorspace">601</property>
    <property name="meta.media.color_trc">2</property>
    <property name="meta.media.has_b_frames">0</property>
    <property name="meta.media.width">700</property>
    <property name="meta.media.height">700</property>
    <property name="meta.media.aspect_ratio">1</property>
    <property name="meta.media.color_range">full</property>
    <property name="astream">0</property>
    <property name="shotcut:skipConvert">1</property>
    <property name="shotcut:hash">f9ae17ca6c0f4efd02ec2fbb31124928</property>
    <property name="meta.media.top_field_first">0</property>
    <property name="meta.media.progressive">1</property>
    <property name="shotcut:caption">EX-LYD &amp; Sunnexo - Hyper Link - 01 Hyper Link.mp3</property>
    <property name="xml">was here</property>
    <filter id="filter81" in="00:03:47.792" out="00:04:04.125">
      <property name="window">75</property>
      <property name="max_gain">20dB</property>
      <property name="level">-11.4</property>
      <property name="mlt_service">volume</property>
    </filter>
    <filter id="filter82" in="00:03:47.792" out="00:04:04.125">
      <property name="window">75</property>
      <property name="max_gain">20dB</property>
      <property name="level">0</property>
      <property name="mlt_service">volume</property>
      <property name="disable">1</property>
    </filter>
  </chain>
  <chain id="chain95" out="00:04:32.458">
    <property name="length">00:04:32.500</property>
    <property name="eof">pause</property>
    <property name="resource">audio clips/EX-LYD &amp; Sunnexo - Hyper Link - 01 Hyper Link.mp3</property>
    <property name="mlt_service">avformat-novalidate</property>
    <property name="meta.media.nb_streams">2</property>
    <property name="meta.media.0.stream.type">audio</property>
    <property name="meta.media.0.codec.sample_fmt">fltp</property>
    <property name="meta.media.0.codec.sample_rate">44100</property>
    <property name="meta.media.0.codec.channels">2</property>
    <property name="meta.media.0.codec.layout">stereo</property>
    <property name="meta.media.0.codec.name">mp3float</property>
    <property name="meta.media.0.codec.long_name">MP3 (MPEG audio layer 3)</property>
    <property name="meta.media.0.codec.bit_rate">267683</property>
    <property name="meta.attr.0.stream.encoder.markup">LAME3.99r</property>
    <property name="meta.media.1.stream.type">video</property>
    <property name="meta.media.1.stream.frame_rate">90000</property>
    <property name="meta.media.1.stream.sample_aspect_ratio">0</property>
    <property name="meta.media.1.codec.width">700</property>
    <property name="meta.media.1.codec.height">700</property>
    <property name="meta.media.1.codec.rotate">0</property>
    <property name="meta.media.1.codec.pix_fmt">yuvj444p</property>
    <property name="meta.media.1.codec.sample_aspect_ratio">1</property>
    <property name="meta.media.1.codec.colorspace">601</property>
    <property name="meta.media.1.codec.name">mjpeg</property>
    <property name="meta.media.1.codec.long_name">MJPEG (Motion JPEG)</property>
    <property name="meta.media.1.codec.bit_rate">0</property>
    <property name="meta.attr.1.stream.title.markup">cover</property>
    <property name="meta.attr.1.stream.comment.markup">Cover (front)</property>
    <property name="meta.attr.title.markup">Hyper Link</property>
    <property name="meta.attr.artist.markup">EX-LYD &amp; Sunnexo</property>
    <property name="meta.attr.track.markup">1</property>
    <property name="meta.attr.album.markup">Hyper Link</property>
    <property name="meta.attr.comment.markup">Visit https://sunnexo.bandcamp.com</property>
    <property name="meta.attr.album_artist.markup">EX-LYD &amp; Sunnexo</property>
    <property name="meta.attr.date.markup">2024</property>
    <property name="seekable">1</property>
    <property name="meta.media.sample_aspect_num">72</property>
    <property name="meta.media.sample_aspect_den">72</property>
    <property name="audio_index">0</property>
    <property name="video_index">1</property>
    <property name="creation_time">2025-12-13T22:23:15</property>
    <property name="vstream">0</property>
    <property name="meta.media.frame_rate_num">90000</property>
    <property name="meta.media.frame_rate_den">1</property>
    <property name="meta.media.colorspace">601</property>
    <property name="meta.media.color_trc">2</property>
    <property name="meta.media.has_b_frames">0</property>
    <property name="meta.media.width">700</property>
    <property name="meta.media.height">700</property>
    <property name="meta.media.aspect_ratio">1</property>
    <property name="meta.media.color_range">full</property>
    <property name="astream">0</property>
    <property name="shotcut:skipConvert">1</property>
    <property name="shotcut:hash">f9ae17ca6c0f4efd02ec2fbb31124928</property>
    <property name="meta.media.top_field_first">0</property>
    <property name="meta.media.progressive">1</property>
    <property name="shotcut:caption">EX-LYD &amp; Sunnexo - Hyper Link - 01 Hyper Link.mp3</property>
    <property name="xml">was here</property>
    <filter id="filter83" in="00:04:15.375" out="00:04:20.833">
      <property name="window">75</property>
      <property name="max_gain">20dB</property>
      <property name="level">-11.4</property>
      <property name="mlt_service">volume</property>
    </filter>
    <filter id="filter84" in="00:04:15.375" out="00:04:20.833">
      <property name="window">75</property>
      <property name="max_gain">20dB</property>
      <property name="level">0</property>
      <property name="mlt_service">volume</property>
      <property name="disable">1</property>
    </filter>
  </chain>
  <chain id="chain96" out="00:04:32.458">
    <property name="length">00:04:32.500</property>
    <property name="eof">pause</property>
    <property name="resource">audio clips/EX-LYD &amp; Sunnexo - Hyper Link - 01 Hyper Link.mp3</property>
    <property name="mlt_service">avformat-novalidate</property>
    <property name="meta.media.nb_streams">2</property>
    <property name="meta.media.0.stream.type">audio</property>
    <property name="meta.media.0.codec.sample_fmt">fltp</property>
    <property name="meta.media.0.codec.sample_rate">44100</property>
    <property name="meta.media.0.codec.channels">2</property>
    <property name="meta.media.0.codec.layout">stereo</property>
    <property name="meta.media.0.codec.name">mp3float</property>
    <property name="meta.media.0.codec.long_name">MP3 (MPEG audio layer 3)</property>
    <property name="meta.media.0.codec.bit_rate">267683</property>
    <property name="meta.attr.0.stream.encoder.markup">LAME3.99r</property>
    <property name="meta.media.1.stream.type">video</property>
    <property name="meta.media.1.stream.frame_rate">90000</property>
    <property name="meta.media.1.stream.sample_aspect_ratio">0</property>
    <property name="meta.media.1.codec.width">700</property>
    <property name="meta.media.1.codec.height">700</property>
    <property name="meta.media.1.codec.rotate">0</property>
    <property name="meta.media.1.codec.pix_fmt">yuvj444p</property>
    <property name="meta.media.1.codec.sample_aspect_ratio">1</property>
    <property name="meta.media.1.codec.colorspace">601</property>
    <property name="meta.media.1.codec.name">mjpeg</property>
    <property name="meta.media.1.codec.long_name">MJPEG (Motion JPEG)</property>
    <property name="meta.media.1.codec.bit_rate">0</property>
    <property name="meta.attr.1.stream.title.markup">cover</property>
    <property name="meta.attr.1.stream.comment.markup">Cover (front)</property>
    <property name="meta.attr.title.markup">Hyper Link</property>
    <property name="meta.attr.artist.markup">EX-LYD &amp; Sunnexo</property>
    <property name="meta.attr.track.markup">1</property>
    <property name="meta.attr.album.markup">Hyper Link</property>
    <property name="meta.attr.comment.markup">Visit https://sunnexo.bandcamp.com</property>
    <property name="meta.attr.album_artist.markup">EX-LYD &amp; Sunnexo</property>
    <property name="meta.attr.date.markup">2024</property>
    <property name="seekable">1</property>
    <property name="meta.media.sample_aspect_num">72</property>
    <property name="meta.media.sample_aspect_den">72</property>
    <property name="audio_index">0</property>
    <property name="video_index">1</property>
    <property name="creation_time">2025-12-13T22:23:15</property>
    <property name="vstream">0</property>
    <property name="meta.media.frame_rate_num">90000</property>
    <property name="meta.media.frame_rate_den">1</property>
    <property name="meta.media.colorspace">601</property>
    <property name="meta.media.color_trc">2</property>
    <property name="meta.media.has_b_frames">0</property>
    <property name="meta.media.width">700</property>
    <property name="meta.media.height">700</property>
    <property name="meta.media.aspect_ratio">1</property>
    <property name="meta.media.color_range">full</property>
    <property name="astream">0</property>
    <property name="shotcut:skipConvert">1</property>
    <property name="shotcut:hash">f9ae17ca6c0f4efd02ec2fbb31124928</property>
    <property name="meta.media.top_field_first">0</property>
    <property name="meta.media.progressive">1</property>
    <property name="shotcut:caption">EX-LYD &amp; Sunnexo - Hyper Link - 01 Hyper Link.mp3</property>
    <property name="xml">was here</property>
    <filter id="filter85" in="00:04:20.875" out="00:04:26.167">
      <property name="window">75</property>
      <property name="max_gain">20dB</property>
      <property name="level">-11.4</property>
      <property name="mlt_service">volume</property>
    </filter>
    <filter id="filter91" in="00:04:20.875" out="00:04:26.167">
      <property name="window">75</property>
      <property name="max_gain">20dB</property>
      <property name="level">0</property>
      <property name="mlt_service">volume</property>
      <property name="disable">1</property>
    </filter>
  </chain>
  <chain id="chain97" out="00:04:32.458">
    <property name="length">00:04:32.500</property>
    <property name="eof">pause</property>
    <property name="resource">audio clips/EX-LYD &amp; Sunnexo - Hyper Link - 01 Hyper Link.mp3</property>
    <property name="mlt_service">avformat-novalidate</property>
    <property name="meta.media.nb_streams">2</property>
    <property name="meta.media.0.stream.type">audio</property>
    <property name="meta.media.0.codec.sample_fmt">fltp</property>
    <property name="meta.media.0.codec.sample_rate">44100</property>
    <property name="meta.media.0.codec.channels">2</property>
    <property name="meta.media.0.codec.layout">stereo</property>
    <property name="meta.media.0.codec.name">mp3float</property>
    <property name="meta.media.0.codec.long_name">MP3 (MPEG audio layer 3)</property>
    <property name="meta.media.0.codec.bit_rate">267683</property>
    <property name="meta.attr.0.stream.encoder.markup">LAME3.99r</property>
    <property name="meta.media.1.stream.type">video</property>
    <property name="meta.media.1.stream.frame_rate">90000</property>
    <property name="meta.media.1.stream.sample_aspect_ratio">0</property>
    <property name="meta.media.1.codec.width">700</property>
    <property name="meta.media.1.codec.height">700</property>
    <property name="meta.media.1.codec.rotate">0</property>
    <property name="meta.media.1.codec.pix_fmt">yuvj444p</property>
    <property name="meta.media.1.codec.sample_aspect_ratio">1</property>
    <property name="meta.media.1.codec.colorspace">601</property>
    <property name="meta.media.1.codec.name">mjpeg</property>
    <property name="meta.media.1.codec.long_name">MJPEG (Motion JPEG)</property>
    <property name="meta.media.1.codec.bit_rate">0</property>
    <property name="meta.attr.1.stream.title.markup">cover</property>
    <property name="meta.attr.1.stream.comment.markup">Cover (front)</property>
    <property name="meta.attr.title.markup">Hyper Link</property>
    <property name="meta.attr.artist.markup">EX-LYD &amp; Sunnexo</property>
    <property name="meta.attr.track.markup">1</property>
    <property name="meta.attr.album.markup">Hyper Link</property>
    <property name="meta.attr.comment.markup">Visit https://sunnexo.bandcamp.com</property>
    <property name="meta.attr.album_artist.markup">EX-LYD &amp; Sunnexo</property>
    <property name="meta.attr.date.markup">2024</property>
    <property name="seekable">1</property>
    <property name="meta.media.sample_aspect_num">72</property>
    <property name="meta.media.sample_aspect_den">72</property>
    <property name="audio_index">0</property>
    <property name="video_index">1</property>
    <property name="creation_time">2025-12-13T22:23:15</property>
    <property name="vstream">0</property>
    <property name="meta.media.frame_rate_num">90000</property>
    <property name="meta.media.frame_rate_den">1</property>
    <property name="meta.media.colorspace">601</property>
    <property name="meta.media.color_trc">2</property>
    <property name="meta.media.has_b_frames">0</property>
    <property name="meta.media.width">700</property>
    <property name="meta.media.height">700</property>
    <property name="meta.media.aspect_ratio">1</property>
    <property name="meta.media.color_range">full</property>
    <property name="astream">0</property>
    <property name="shotcut:skipConvert">1</property>
    <property name="shotcut:hash">f9ae17ca6c0f4efd02ec2fbb31124928</property>
    <property name="meta.media.top_field_first">0</property>
    <property name="meta.media.progressive">1</property>
    <property name="shotcut:caption">EX-LYD &amp; Sunnexo - Hyper Link - 01 Hyper Link.mp3</property>
    <property name="xml">was here</property>
    <filter id="filter92" in="00:04:26.208" out="00:04:29.083">
      <property name="window">75</property>
      <property name="max_gain">20dB</property>
      <property name="level">00:00:01.792=-11.3;00:00:02.917=-19.58</property>
      <property name="mlt_service">volume</property>
    </filter>
    <filter id="filter93" in="00:04:26.208" out="00:04:29.083">
      <property name="window">75</property>
      <property name="max_gain">20dB</property>
      <property name="level">0</property>
      <property name="mlt_service">volume</property>
      <property name="disable">1</property>
    </filter>
    <filter id="filter94" in="00:04:28.917" out="00:04:29.083">
      <property name="window">75</property>
      <property name="max_gain">20dB</property>
      <property name="level">-11.4</property>
      <property name="mlt_service">volume</property>
      <property name="disable">1</property>
    </filter>
    <filter id="filter95" in="00:04:28.917" out="00:04:29.083">
      <property name="window">75</property>
      <property name="max_gain">20dB</property>
      <property name="level">0</property>
      <property name="mlt_service">volume</property>
      <property name="disable">1</property>
    </filter>
  </chain>
  <chain id="chain106" out="00:00:08.250">
    <property name="length">00:00:08.292</property>
    <property name="eof">pause</property>
    <property name="resource">audio clips/emulatingendpart.wav</property>
    <property name="mlt_service">avformat-novalidate</property>
    <property name="meta.media.nb_streams">1</property>
    <property name="meta.media.0.stream.type">audio</property>
    <property name="meta.media.0.codec.sample_fmt">s16</property>
    <property name="meta.media.0.codec.sample_rate">44100</property>
    <property name="meta.media.0.codec.channels">2</property>
    <property name="meta.media.0.codec.layout">independent</property>
    <property name="meta.media.0.codec.name">pcm_s16le</property>
    <property name="meta.media.0.codec.long_name">PCM signed 16-bit little-endian</property>
    <property name="meta.media.0.codec.bit_rate">1411200</property>
    <property name="seekable">1</property>
    <property name="audio_index">0</property>
    <property name="video_index">-1</property>
    <property name="creation_time">2025-12-19T02:50:41</property>
    <property name="astream">0</property>
    <property name="shotcut:skipConvert">1</property>
    <property name="shotcut:hash">c3800ae4ce859a42601cd5166a73a0e3</property>
    <property name="shotcut:caption">emulatingendpart.wav</property>
    <property name="xml">was here</property>
    <filter id="filter110" in="00:00:02.125" out="00:00:05.333">
      <property name="window">75</property>
      <property name="max_gain">20dB</property>
      <property name="level">-20.9</property>
      <property name="mlt_service">volume</property>
    </filter>
    <filter id="filter111" in="00:00:02.125" out="00:00:05.333">
      <property name="mlt_service">ladspa.1891</property>
      <property name="0">5975</property>
      <property name="1">1</property>
      <property name="wetness">0.533</property>
      <property name="instances">2</property>
    </filter>
  </chain>
  <chain id="chain98" out="00:04:32.458">
    <property name="length">00:04:32.500</property>
    <property name="eof">pause</property>
    <property name="resource">audio clips/EX-LYD &amp; Sunnexo - Hyper Link - 01 Hyper Link.mp3</property>
    <property name="mlt_service">avformat-novalidate</property>
    <property name="meta.media.nb_streams">2</property>
    <property name="meta.media.0.stream.type">audio</property>
    <property name="meta.media.0.codec.sample_fmt">fltp</property>
    <property name="meta.media.0.codec.sample_rate">44100</property>
    <property name="meta.media.0.codec.channels">2</property>
    <property name="meta.media.0.codec.layout">stereo</property>
    <property name="meta.media.0.codec.name">mp3float</property>
    <property name="meta.media.0.codec.long_name">MP3 (MPEG audio layer 3)</property>
    <property name="meta.media.0.codec.bit_rate">267683</property>
    <property name="meta.attr.0.stream.encoder.markup">LAME3.99r</property>
    <property name="meta.media.1.stream.type">video</property>
    <property name="meta.media.1.stream.frame_rate">90000</property>
    <property name="meta.media.1.stream.sample_aspect_ratio">0</property>
    <property name="meta.media.1.codec.width">700</property>
    <property name="meta.media.1.codec.height">700</property>
    <property name="meta.media.1.codec.rotate">0</property>
    <property name="meta.media.1.codec.pix_fmt">yuvj444p</property>
    <property name="meta.media.1.codec.sample_aspect_ratio">1</property>
    <property name="meta.media.1.codec.colorspace">601</property>
    <property name="meta.media.1.codec.name">mjpeg</property>
    <property name="meta.media.1.codec.long_name">MJPEG (Motion JPEG)</property>
    <property name="meta.media.1.codec.bit_rate">0</property>
    <property name="meta.attr.1.stream.title.markup">cover</property>
    <property name="meta.attr.1.stream.comment.markup">Cover (front)</property>
    <property name="meta.attr.title.markup">Hyper Link</property>
    <property name="meta.attr.artist.markup">EX-LYD &amp; Sunnexo</property>
    <property name="meta.attr.track.markup">1</property>
    <property name="meta.attr.album.markup">Hyper Link</property>
    <property name="meta.attr.comment.markup">Visit https://sunnexo.bandcamp.com</property>
    <property name="meta.attr.album_artist.markup">EX-LYD &amp; Sunnexo</property>
    <property name="meta.attr.date.markup">2024</property>
    <property name="seekable">1</property>
    <property name="meta.media.sample_aspect_num">72</property>
    <property name="meta.media.sample_aspect_den">72</property>
    <property name="audio_index">0</property>
    <property name="video_index">1</property>
    <property name="creation_time">2025-12-13T22:23:15</property>
    <property name="vstream">0</property>
    <property name="meta.media.frame_rate_num">90000</property>
    <property name="meta.media.frame_rate_den">1</property>
    <property name="meta.media.colorspace">601</property>
    <property name="meta.media.color_trc">2</property>
    <property name="meta.media.has_b_frames">0</property>
    <property name="meta.media.width">700</property>
    <property name="meta.media.height">700</property>
    <property name="meta.media.aspect_ratio">1</property>
    <property name="meta.media.color_range">full</property>
    <property name="astream">0</property>
    <property name="shotcut:skipConvert">1</property>
    <property name="shotcut:hash">f9ae17ca6c0f4efd02ec2fbb31124928</property>
    <property name="meta.media.top_field_first">0</property>
    <property name="meta.media.progressive">1</property>
    <property name="shotcut:caption">EX-LYD &amp; Sunnexo - Hyper Link - 01 Hyper Link.mp3</property>
    <property name="xml">was here</property>
    <filter id="filter96" in="00:04:29.875" out="00:04:31.792">
      <property name="window">75</property>
      <property name="max_gain">20dB</property>
      <property name="level">-11.4</property>
      <property name="mlt_service">volume</property>
    </filter>
    <filter id="filter97" in="00:04:29.875" out="00:04:31.792">
      <property name="window">75</property>
      <property name="max_gain">20dB</property>
      <property name="level">0</property>
      <property name="mlt_service">volume</property>
      <property name="disable">1</property>
    </filter>
  </chain>
  <chain id="chain99" out="00:04:32.458">
    <property name="length">00:04:32.500</property>
    <property name="eof">pause</property>
    <property name="resource">audio clips/EX-LYD &amp; Sunnexo - Hyper Link - 01 Hyper Link.mp3</property>
    <property name="mlt_service">avformat-novalidate</property>
    <property name="meta.media.nb_streams">2</property>
    <property name="meta.media.0.stream.type">audio</property>
    <property name="meta.media.0.codec.sample_fmt">fltp</property>
    <property name="meta.media.0.codec.sample_rate">44100</property>
    <property name="meta.media.0.codec.channels">2</property>
    <property name="meta.media.0.codec.layout">stereo</property>
    <property name="meta.media.0.codec.name">mp3float</property>
    <property name="meta.media.0.codec.long_name">MP3 (MPEG audio layer 3)</property>
    <property name="meta.media.0.codec.bit_rate">267683</property>
    <property name="meta.attr.0.stream.encoder.markup">LAME3.99r</property>
    <property name="meta.media.1.stream.type">video</property>
    <property name="meta.media.1.stream.frame_rate">90000</property>
    <property name="meta.media.1.stream.sample_aspect_ratio">0</property>
    <property name="meta.media.1.codec.width">700</property>
    <property name="meta.media.1.codec.height">700</property>
    <property name="meta.media.1.codec.rotate">0</property>
    <property name="meta.media.1.codec.pix_fmt">yuvj444p</property>
    <property name="meta.media.1.codec.sample_aspect_ratio">1</property>
    <property name="meta.media.1.codec.colorspace">601</property>
    <property name="meta.media.1.codec.name">mjpeg</property>
    <property name="meta.media.1.codec.long_name">MJPEG (Motion JPEG)</property>
    <property name="meta.media.1.codec.bit_rate">0</property>
    <property name="meta.attr.1.stream.title.markup">cover</property>
    <property name="meta.attr.1.stream.comment.markup">Cover (front)</property>
    <property name="meta.attr.title.markup">Hyper Link</property>
    <property name="meta.attr.artist.markup">EX-LYD &amp; Sunnexo</property>
    <property name="meta.attr.track.markup">1</property>
    <property name="meta.attr.album.markup">Hyper Link</property>
    <property name="meta.attr.comment.markup">Visit https://sunnexo.bandcamp.com</property>
    <property name="meta.attr.album_artist.markup">EX-LYD &amp; Sunnexo</property>
    <property name="meta.attr.date.markup">2024</property>
    <property name="seekable">1</property>
    <property name="meta.media.sample_aspect_num">72</property>
    <property name="meta.media.sample_aspect_den">72</property>
    <property name="audio_index">0</property>
    <property name="video_index">1</property>
    <property name="creation_time">2025-12-13T22:23:15</property>
    <property name="vstream">0</property>
    <property name="meta.media.frame_rate_num">90000</property>
    <property name="meta.media.frame_rate_den">1</property>
    <property name="meta.media.colorspace">601</property>
    <property name="meta.media.color_trc">2</property>
    <property name="meta.media.has_b_frames">0</property>
    <property name="meta.media.width">700</property>
    <property name="meta.media.height">700</property>
    <property name="meta.media.aspect_ratio">1</property>
    <property name="meta.media.color_range">full</property>
    <property name="astream">0</property>
    <property name="shotcut:skipConvert">1</property>
    <property name="shotcut:hash">f9ae17ca6c0f4efd02ec2fbb31124928</property>
    <property name="meta.media.top_field_first">0</property>
    <property name="meta.media.progressive">1</property>
    <property name="shotcut:caption">EX-LYD &amp; Sunnexo - Hyper Link - 01 Hyper Link.mp3</property>
    <property name="xml">was here</property>
    <filter id="filter98" in="00:04:31.833" out="00:04:32.458">
      <property name="window">75</property>
      <property name="max_gain">20dB</property>
      <property name="level">-11.4</property>
      <property name="mlt_service">volume</property>
    </filter>
    <filter id="filter99" in="00:04:31.833" out="00:04:32.458">
      <property name="window">75</property>
      <property name="max_gain">20dB</property>
      <property name="level">0</property>
      <property name="mlt_service">volume</property>
      <property name="disable">1</property>
    </filter>
  </chain>
  <chain id="chain100" out="00:00:24.875">
    <property name="length">00:00:24.917</property>
    <property name="eof">pause</property>
    <property name="resource">audio clips/spanish-flea.wav</property>
    <property name="mlt_service">avformat-novalidate</property>
    <property name="meta.media.nb_streams">1</property>
    <property name="meta.media.0.stream.type">audio</property>
    <property name="meta.media.0.codec.sample_fmt">s16</property>
    <property name="meta.media.0.codec.sample_rate">44100</property>
    <property name="meta.media.0.codec.channels">2</property>
    <property name="meta.media.0.codec.layout">independent</property>
    <property name="meta.media.0.codec.name">pcm_s16le</property>
    <property name="meta.media.0.codec.long_name">PCM signed 16-bit little-endian</property>
    <property name="meta.media.0.codec.bit_rate">1411200</property>
    <property name="seekable">1</property>
    <property name="audio_index">0</property>
    <property name="video_index">-1</property>
    <property name="creation_time">2025-12-18T02:22:12</property>
    <property name="astream">0</property>
    <property name="shotcut:skipConvert">1</property>
    <property name="shotcut:hash">cddcffa7db98858c99dba618555dbf05</property>
    <property name="shotcut:caption">spanish-flea.wav</property>
    <property name="xml">was here</property>
  </chain>
  <playlist id="playlist2">
    <property name="shotcut:audio">1</property>
    <property name="shotcut:name">A2</property>
    <blank length="00:00:00.167"/>
    <entry producer="chain52" in="00:00:01.833" out="00:00:07.000"/>
    <blank length="00:00:00.625"/>
    <entry producer="chain53" in="00:00:11.583" out="00:00:17.042"/>
    <blank length="00:00:00.333"/>
    <entry producer="chain54" in="00:00:00.000" out="00:00:10.125"/>
    <entry producer="chain55" in="00:00:00.000" out="00:00:08.250"/>
    <blank length="00:00:04.125"/>
    <entry producer="producer72" in="00:00:00.000" out="00:00:01.958"/>
    <blank length="00:00:01.875"/>
    <entry producer="producer73" in="00:00:00.000" out="00:00:00.750"/>
    <blank length="00:00:07.125"/>
    <entry producer="chain56" in="00:00:00.083" out="00:00:08.458"/>
    <blank length="00:00:00.083"/>
    <entry producer="chain57" in="00:00:00.000" out="00:00:10.958"/>
    <blank length="00:00:01.500"/>
    <entry producer="chain58" in="00:00:03.042" out="00:00:06.667"/>
    <blank length="00:00:03.708"/>
    <entry producer="chain59" in="00:00:00.000" out="00:00:04.042"/>
    <blank length="00:00:01.667"/>
    <entry producer="chain60" in="00:00:00.000" out="00:00:06.958"/>
    <blank length="00:00:01.292"/>
    <entry producer="chain61" in="00:00:00.000" out="00:00:02.125"/>
    <blank length="00:00:06.875"/>
    <entry producer="producer74" in="00:00:00.000" out="00:00:07.958"/>
    <blank length="00:00:06.000"/>
    <entry producer="chain62" in="00:00:00.625" out="00:00:03.000"/>
    <blank length="00:00:25.000"/>
    <entry producer="chain63" in="00:00:00.000" out="00:00:00.708"/>
    <blank length="00:00:09.167"/>
    <entry producer="chain64" in="00:01:07.583" out="00:01:13.083"/>
    <entry producer="chain65" in="00:01:18.708" out="00:01:29.792"/>
    <entry producer="chain66" in="00:01:29.833" out="00:01:34.042"/>
    <entry producer="chain67" in="00:01:34.083" out="00:01:34.625"/>
    <entry producer="chain68" in="00:01:34.667" out="00:01:40.958"/>
    <entry producer="chain69" in="00:01:29.875" out="00:01:36.542"/>
    <entry producer="chain70" in="00:01:36.167" out="00:01:41.417"/>
    <entry producer="chain71" in="00:01:46.042" out="00:01:51.708"/>
    <entry producer="chain72" in="00:01:51.750" out="00:02:02.667"/>
    <entry producer="chain73" in="00:02:02.708" out="00:02:07.583"/>
    <entry producer="chain74" in="00:02:07.625" out="00:02:19.667"/>
    <entry producer="chain75" in="00:02:19.708" out="00:02:24.042"/>
    <entry producer="tractor3" in="00:00:00.000" out="00:00:00.708"/>
    <entry producer="chain76" in="00:02:49.292" out="00:02:57.542"/>
    <entry producer="chain77" in="00:02:57.583" out="00:02:57.833"/>
    <entry producer="chain83" in="00:02:57.875" out="00:03:19.958"/>
    <entry producer="chain91" in="00:03:20.000" out="00:03:25.583"/>
    <entry producer="chain92" in="00:03:31.208" out="00:03:36.708"/>
    <entry producer="chain93" in="00:03:36.750" out="00:03:42.125"/>
    <entry producer="chain94" in="00:03:47.792" out="00:04:04.125"/>
    <entry producer="chain95" in="00:04:15.375" out="00:04:20.833"/>
    <entry producer="chain96" in="00:04:20.875" out="00:04:26.167"/>
    <entry producer="chain97" in="00:04:26.208" out="00:04:29.083"/>
    <entry producer="chain106" in="00:00:02.125" out="00:00:05.333"/>
    <entry producer="chain98" in="00:04:29.875" out="00:04:31.792"/>
    <entry producer="chain99" in="00:04:31.833" out="00:04:32.458"/>
    <blank length="00:00:01.083"/>
    <entry producer="chain100" in="00:00:00.000" out="00:00:13.125"/>
  </playlist>
  <chain id="chain101" out="00:00:15.500">
    <property name="length">00:00:15.542</property>
    <property name="eof">pause</property>
    <property name="resource">audio clips/dvline4(TakeE-H).wav</property>
    <property name="mlt_service">avformat-novalidate</property>
    <property name="meta.media.nb_streams">1</property>
    <property name="meta.media.0.stream.type">audio</property>
    <property name="meta.media.0.codec.sample_fmt">s16</property>
    <property name="meta.media.0.codec.sample_rate">44100</property>
    <property name="meta.media.0.codec.channels">2</property>
    <property name="meta.media.0.codec.layout">independent</property>
    <property name="meta.media.0.codec.name">pcm_s16le</property>
    <property name="meta.media.0.codec.long_name">PCM signed 16-bit little-endian</property>
    <property name="meta.media.0.codec.bit_rate">1411200</property>
    <property name="seekable">1</property>
    <property name="audio_index">0</property>
    <property name="video_index">-1</property>
    <property name="creation_time">2025-12-19T01:30:16</property>
    <property name="astream">0</property>
    <property name="shotcut:skipConvert">1</property>
    <property name="shotcut:hash">1da878db525420abdcdcf7a05e3daf4b</property>
    <property name="shotcut:caption">dvline4(TakeE-H).wav</property>
    <property name="xml">was here</property>
  </chain>
  <chain id="chain102" out="00:00:15.500">
    <property name="length">00:00:15.542</property>
    <property name="eof">pause</property>
    <property name="resource">audio clips/dvline4(TakeE-H).wav</property>
    <property name="mlt_service">avformat-novalidate</property>
    <property name="meta.media.nb_streams">1</property>
    <property name="meta.media.0.stream.type">audio</property>
    <property name="meta.media.0.codec.sample_fmt">s16</property>
    <property name="meta.media.0.codec.sample_rate">44100</property>
    <property name="meta.media.0.codec.channels">2</property>
    <property name="meta.media.0.codec.layout">independent</property>
    <property name="meta.media.0.codec.name">pcm_s16le</property>
    <property name="meta.media.0.codec.long_name">PCM signed 16-bit little-endian</property>
    <property name="meta.media.0.codec.bit_rate">1411200</property>
    <property name="seekable">1</property>
    <property name="audio_index">0</property>
    <property name="video_index">-1</property>
    <property name="creation_time">2025-12-19T01:30:16</property>
    <property name="astream">0</property>
    <property name="shotcut:skipConvert">1</property>
    <property name="shotcut:hash">1da878db525420abdcdcf7a05e3daf4b</property>
    <property name="shotcut:caption">dvline4(TakeE-H).wav</property>
    <property name="xml">was here</property>
  </chain>
  <chain id="chain103" out="00:00:15.500">
    <property name="length">00:00:15.542</property>
    <property name="eof">pause</property>
    <property name="resource">audio clips/dvline4(TakeE-H).wav</property>
    <property name="mlt_service">avformat-novalidate</property>
    <property name="meta.media.nb_streams">1</property>
    <property name="meta.media.0.stream.type">audio</property>
    <property name="meta.media.0.codec.sample_fmt">s16</property>
    <property name="meta.media.0.codec.sample_rate">44100</property>
    <property name="meta.media.0.codec.channels">2</property>
    <property name="meta.media.0.codec.layout">independent</property>
    <property name="meta.media.0.codec.name">pcm_s16le</property>
    <property name="meta.media.0.codec.long_name">PCM signed 16-bit little-endian</property>
    <property name="meta.media.0.codec.bit_rate">1411200</property>
    <property name="seekable">1</property>
    <property name="audio_index">0</property>
    <property name="video_index">-1</property>
    <property name="creation_time">2025-12-19T01:30:16</property>
    <property name="astream">0</property>
    <property name="shotcut:skipConvert">1</property>
    <property name="shotcut:hash">1da878db525420abdcdcf7a05e3daf4b</property>
    <property name="shotcut:caption">dvline4(TakeE-H).wav</property>
    <property name="xml">was here</property>
  </chain>
  <chain id="chain104" out="00:00:47.583">
    <property name="length">00:00:47.625</property>
    <property name="eof">pause</property>
    <property name="resource">audio clips/riotous-yelling.wav</property>
    <property name="mlt_service">avformat-novalidate</property>
    <property name="meta.media.nb_streams">1</property>
    <property name="meta.media.0.stream.type">audio</property>
    <property name="meta.media.0.codec.sample_fmt">s16</property>
    <property name="meta.media.0.codec.sample_rate">44100</property>
    <property name="meta.media.0.codec.channels">2</property>
    <property name="meta.media.0.codec.layout">independent</property>
    <property name="meta.media.0.codec.name">pcm_s16le</property>
    <property name="meta.media.0.codec.long_name">PCM signed 16-bit little-endian</property>
    <property name="meta.media.0.codec.bit_rate">1411200</property>
    <property name="seekable">1</property>
    <property name="audio_index">0</property>
    <property name="video_index">-1</property>
    <property name="creation_time">2025-12-14T19:01:46</property>
    <property name="astream">0</property>
    <property name="shotcut:skipConvert">1</property>
    <property name="shotcut:hash">201e497c124594f87cc2b4003485f060</property>
    <property name="shotcut:caption">riotous-yelling.wav</property>
    <property name="xml">was here</property>
    <filter id="filter100" out="00:00:35.625">
      <property name="window">75</property>
      <property name="max_gain">20dB</property>
      <property name="level">00:00:00.000l=-60;00:00:02.250=0</property>
      <property name="mlt_service">volume</property>
      <property name="shotcut:filter">fadeInVolume</property>
      <property name="shotcut:animIn">55</property>
    </filter>
    <filter id="filter101" out="00:00:35.625">
      <property name="window">75</property>
      <property name="max_gain">20dB</property>
      <property name="level">-12.6</property>
      <property name="mlt_service">volume</property>
    </filter>
    <filter id="filter102" out="00:00:35.625">
      <property name="window">75</property>
      <property name="max_gain">20dB</property>
      <property name="level">00:00:33.958=0;00:00:35.625=-60</property>
      <property name="mlt_service">volume</property>
      <property name="shotcut:filter">fadeOutVolume</property>
      <property name="shotcut:animOut">41</property>
    </filter>
  </chain>
  <chain id="chain105" out="00:04:32.458">
    <property name="length">00:04:32.500</property>
    <property name="eof">pause</property>
    <property name="resource">audio clips/EX-LYD &amp; Sunnexo - Hyper Link - 01 Hyper Link.mp3</property>
    <property name="mlt_service">avformat-novalidate</property>
    <property name="meta.media.nb_streams">2</property>
    <property name="meta.media.0.stream.type">audio</property>
    <property name="meta.media.0.codec.sample_fmt">fltp</property>
    <property name="meta.media.0.codec.sample_rate">44100</property>
    <property name="meta.media.0.codec.channels">2</property>
    <property name="meta.media.0.codec.layout">stereo</property>
    <property name="meta.media.0.codec.name">mp3float</property>
    <property name="meta.media.0.codec.long_name">MP3 (MPEG audio layer 3)</property>
    <property name="meta.media.0.codec.bit_rate">267683</property>
    <property name="meta.attr.0.stream.encoder.markup">LAME3.99r</property>
    <property name="meta.media.1.stream.type">video</property>
    <property name="meta.media.1.stream.frame_rate">90000</property>
    <property name="meta.media.1.stream.sample_aspect_ratio">0</property>
    <property name="meta.media.1.codec.width">700</property>
    <property name="meta.media.1.codec.height">700</property>
    <property name="meta.media.1.codec.rotate">0</property>
    <property name="meta.media.1.codec.pix_fmt">yuvj444p</property>
    <property name="meta.media.1.codec.sample_aspect_ratio">1</property>
    <property name="meta.media.1.codec.colorspace">601</property>
    <property name="meta.media.1.codec.name">mjpeg</property>
    <property name="meta.media.1.codec.long_name">MJPEG (Motion JPEG)</property>
    <property name="meta.media.1.codec.bit_rate">0</property>
    <property name="meta.attr.1.stream.title.markup">cover</property>
    <property name="meta.attr.1.stream.comment.markup">Cover (front)</property>
    <property name="meta.attr.title.markup">Hyper Link</property>
    <property name="meta.attr.artist.markup">EX-LYD &amp; Sunnexo</property>
    <property name="meta.attr.track.markup">1</property>
    <property name="meta.attr.album.markup">Hyper Link</property>
    <property name="meta.attr.comment.markup">Visit https://sunnexo.bandcamp.com</property>
    <property name="meta.attr.album_artist.markup">EX-LYD &amp; Sunnexo</property>
    <property name="meta.attr.date.markup">2024</property>
    <property name="seekable">1</property>
    <property name="meta.media.sample_aspect_num">72</property>
    <property name="meta.media.sample_aspect_den">72</property>
    <property name="audio_index">0</property>
    <property name="video_index">1</property>
    <property name="creation_time">2025-12-13T22:23:15</property>
    <property name="vstream">0</property>
    <property name="meta.media.frame_rate_num">90000</property>
    <property name="meta.media.frame_rate_den">1</property>
    <property name="meta.media.colorspace">601</property>
    <property name="meta.media.color_trc">2</property>
    <property name="meta.media.has_b_frames">0</property>
    <property name="meta.media.width">700</property>
    <property name="meta.media.height">700</property>
    <property name="meta.media.aspect_ratio">1</property>
    <property name="meta.media.color_range">full</property>
    <property name="astream">0</property>
    <property name="shotcut:skipConvert">1</property>
    <property name="shotcut:hash">f9ae17ca6c0f4efd02ec2fbb31124928</property>
    <property name="meta.media.top_field_first">0</property>
    <property name="meta.media.progressive">1</property>
    <property name="shotcut:caption">EX-LYD &amp; Sunnexo - Hyper Link - 01 Hyper Link.mp3</property>
    <property name="xml">was here</property>
    <filter id="filter103" in="00:00:25.958" out="00:00:34.500">
      <property name="window">75</property>
      <property name="max_gain">20dB</property>
      <property name="level">00:00:00.000=-60;00:00:04.625=0</property>
      <property name="mlt_service">volume</property>
      <property name="shotcut:filter">fadeInVolume</property>
      <property name="shotcut:animIn">112</property>
    </filter>
    <filter id="filter104" in="00:00:25.958" out="00:00:34.500">
      <property name="window">75</property>
      <property name="max_gain">20dB</property>
      <property name="level">-11.8</property>
      <property name="mlt_service">volume</property>
    </filter>
    <filter id="filter105" in="00:00:34.708" out="00:00:34.500">
      <property name="window">75</property>
      <property name="max_gain">20dB</property>
      <property name="level">0</property>
      <property name="mlt_service">volume</property>
      <property name="disable">1</property>
    </filter>
  </chain>
  <chain id="chain107" out="00:04:32.458">
    <property name="length">00:04:32.500</property>
    <property name="eof">pause</property>
    <property name="resource">audio clips/EX-LYD &amp; Sunnexo - Hyper Link - 01 Hyper Link.mp3</property>
    <property name="mlt_service">avformat-novalidate</property>
    <property name="meta.media.nb_streams">2</property>
    <property name="meta.media.0.stream.type">audio</property>
    <property name="meta.media.0.codec.sample_fmt">fltp</property>
    <property name="meta.media.0.codec.sample_rate">44100</property>
    <property name="meta.media.0.codec.channels">2</property>
    <property name="meta.media.0.codec.layout">stereo</property>
    <property name="meta.media.0.codec.name">mp3float</property>
    <property name="meta.media.0.codec.long_name">MP3 (MPEG audio layer 3)</property>
    <property name="meta.media.0.codec.bit_rate">267683</property>
    <property name="meta.attr.0.stream.encoder.markup">LAME3.99r</property>
    <property name="meta.media.1.stream.type">video</property>
    <property name="meta.media.1.stream.frame_rate">90000</property>
    <property name="meta.media.1.stream.sample_aspect_ratio">0</property>
    <property name="meta.media.1.codec.width">700</property>
    <property name="meta.media.1.codec.height">700</property>
    <property name="meta.media.1.codec.rotate">0</property>
    <property name="meta.media.1.codec.pix_fmt">yuvj444p</property>
    <property name="meta.media.1.codec.sample_aspect_ratio">1</property>
    <property name="meta.media.1.codec.colorspace">601</property>
    <property name="meta.media.1.codec.name">mjpeg</property>
    <property name="meta.media.1.codec.long_name">MJPEG (Motion JPEG)</property>
    <property name="meta.media.1.codec.bit_rate">0</property>
    <property name="meta.attr.1.stream.title.markup">cover</property>
    <property name="meta.attr.1.stream.comment.markup">Cover (front)</property>
    <property name="meta.attr.title.markup">Hyper Link</property>
    <property name="meta.attr.artist.markup">EX-LYD &amp; Sunnexo</property>
    <property name="meta.attr.track.markup">1</property>
    <property name="meta.attr.album.markup">Hyper Link</property>
    <property name="meta.attr.comment.markup">Visit https://sunnexo.bandcamp.com</property>
    <property name="meta.attr.album_artist.markup">EX-LYD &amp; Sunnexo</property>
    <property name="meta.attr.date.markup">2024</property>
    <property name="seekable">1</property>
    <property name="meta.media.sample_aspect_num">72</property>
    <property name="meta.media.sample_aspect_den">72</property>
    <property name="audio_index">0</property>
    <property name="video_index">1</property>
    <property name="creation_time">2025-12-13T22:23:15</property>
    <property name="vstream">0</property>
    <property name="meta.media.frame_rate_num">90000</property>
    <property name="meta.media.frame_rate_den">1</property>
    <property name="meta.media.colorspace">601</property>
    <property name="meta.media.color_trc">2</property>
    <property name="meta.media.has_b_frames">0</property>
    <property name="meta.media.width">700</property>
    <property name="meta.media.height">700</property>
    <property name="meta.media.aspect_ratio">1</property>
    <property name="meta.media.color_range">full</property>
    <property name="astream">0</property>
    <property name="shotcut:skipConvert">1</property>
    <property name="shotcut:hash">f9ae17ca6c0f4efd02ec2fbb31124928</property>
    <property name="meta.media.top_field_first">0</property>
    <property name="meta.media.progressive">1</property>
    <property name="shotcut:caption">EX-LYD &amp; Sunnexo - Hyper Link - 01 Hyper Link.mp3</property>
    <property name="xml">was here</property>
    <filter id="filter106" in="00:00:34.667" out="00:00:46.375">
      <property name="window">75</property>
      <property name="max_gain">20dB</property>
      <property name="level">-11.4</property>
      <property name="mlt_service">volume</property>
    </filter>
    <filter id="filter107" in="00:00:34.667" out="00:00:46.375">
      <property name="window">75</property>
      <property name="max_gain">20dB</property>
      <property name="level">0</property>
      <property name="mlt_service">volume</property>
      <property name="disable">1</property>
    </filter>
  </chain>
  <chain id="chain108" out="00:04:32.458">
    <property name="length">00:04:32.500</property>
    <property name="eof">pause</property>
    <property name="resource">audio clips/EX-LYD &amp; Sunnexo - Hyper Link - 01 Hyper Link.mp3</property>
    <property name="mlt_service">avformat-novalidate</property>
    <property name="meta.media.nb_streams">2</property>
    <property name="meta.media.0.stream.type">audio</property>
    <property name="meta.media.0.codec.sample_fmt">fltp</property>
    <property name="meta.media.0.codec.sample_rate">44100</property>
    <property name="meta.media.0.codec.channels">2</property>
    <property name="meta.media.0.codec.layout">stereo</property>
    <property name="meta.media.0.codec.name">mp3float</property>
    <property name="meta.media.0.codec.long_name">MP3 (MPEG audio layer 3)</property>
    <property name="meta.media.0.codec.bit_rate">267683</property>
    <property name="meta.attr.0.stream.encoder.markup">LAME3.99r</property>
    <property name="meta.media.1.stream.type">video</property>
    <property name="meta.media.1.stream.frame_rate">90000</property>
    <property name="meta.media.1.stream.sample_aspect_ratio">0</property>
    <property name="meta.media.1.codec.width">700</property>
    <property name="meta.media.1.codec.height">700</property>
    <property name="meta.media.1.codec.rotate">0</property>
    <property name="meta.media.1.codec.pix_fmt">yuvj444p</property>
    <property name="meta.media.1.codec.sample_aspect_ratio">1</property>
    <property name="meta.media.1.codec.colorspace">601</property>
    <property name="meta.media.1.codec.name">mjpeg</property>
    <property name="meta.media.1.codec.long_name">MJPEG (Motion JPEG)</property>
    <property name="meta.media.1.codec.bit_rate">0</property>
    <property name="meta.attr.1.stream.title.markup">cover</property>
    <property name="meta.attr.1.stream.comment.markup">Cover (front)</property>
    <property name="meta.attr.title.markup">Hyper Link</property>
    <property name="meta.attr.artist.markup">EX-LYD &amp; Sunnexo</property>
    <property name="meta.attr.track.markup">1</property>
    <property name="meta.attr.album.markup">Hyper Link</property>
    <property name="meta.attr.comment.markup">Visit https://sunnexo.bandcamp.com</property>
    <property name="meta.attr.album_artist.markup">EX-LYD &amp; Sunnexo</property>
    <property name="meta.attr.date.markup">2024</property>
    <property name="seekable">1</property>
    <property name="meta.media.sample_aspect_num">72</property>
    <property name="meta.media.sample_aspect_den">72</property>
    <property name="audio_index">0</property>
    <property name="video_index">1</property>
    <property name="creation_time">2025-12-13T22:23:15</property>
    <property name="vstream">0</property>
    <property name="meta.media.frame_rate_num">90000</property>
    <property name="meta.media.frame_rate_den">1</property>
    <property name="meta.media.colorspace">601</property>
    <property name="meta.media.color_trc">2</property>
    <property name="meta.media.has_b_frames">0</property>
    <property name="meta.media.width">700</property>
    <property name="meta.media.height">700</property>
    <property name="meta.media.aspect_ratio">1</property>
    <property name="meta.media.color_range">full</property>
    <property name="astream">0</property>
    <property name="shotcut:skipConvert">1</property>
    <property name="shotcut:hash">f9ae17ca6c0f4efd02ec2fbb31124928</property>
    <property name="meta.media.top_field_first">0</property>
    <property name="meta.media.progressive">1</property>
    <property name="shotcut:caption">EX-LYD &amp; Sunnexo - Hyper Link - 01 Hyper Link.mp3</property>
    <property name="xml">was here</property>
    <filter id="filter108" in="00:00:48.000" out="00:01:02.083">
      <property name="window">75</property>
      <property name="max_gain">20dB</property>
      <property name="level">-13.8</property>
      <property name="mlt_service">volume</property>
    </filter>
    <filter id="filter109" in="00:00:48.000" out="00:01:02.083">
      <property name="window">75</property>
      <property name="max_gain">20dB</property>
      <property name="level">0</property>
      <property name="mlt_service">volume</property>
      <property name="disable">1</property>
    </filter>
  </chain>
  <tractor id="tractor1" in="00:00:00.000" out="00:00:00.750">
    <property name="shotcut:transition">lumaMix</property>
    <track producer="chain107" in="00:00:45.625" out="00:00:46.375"/>
    <track producer="chain108" in="00:00:48.000" out="00:00:48.750"/>
    <transition id="transition2" out="00:00:00.750">
      <property name="a_track">0</property>
      <property name="b_track">1</property>
      <property name="factory">loader</property>
      <property name="mlt_service">luma</property>
      <property name="alpha_over">1</property>
      <property name="fix_background_alpha">1</property>
    </transition>
    <transition id="transition3" out="00:00:00.750">
      <property name="a_track">0</property>
      <property name="b_track">1</property>
      <property name="mlt_service">mix</property>
      <property name="start">-1</property>
      <property name="accepts_blanks">1</property>
    </transition>
  </tractor>
  <chain id="chain109" out="00:04:32.458">
    <property name="length">00:04:32.500</property>
    <property name="eof">pause</property>
    <property name="resource">audio clips/EX-LYD &amp; Sunnexo - Hyper Link - 01 Hyper Link.mp3</property>
    <property name="mlt_service">avformat-novalidate</property>
    <property name="meta.media.nb_streams">2</property>
    <property name="meta.media.0.stream.type">audio</property>
    <property name="meta.media.0.codec.sample_fmt">fltp</property>
    <property name="meta.media.0.codec.sample_rate">44100</property>
    <property name="meta.media.0.codec.channels">2</property>
    <property name="meta.media.0.codec.layout">stereo</property>
    <property name="meta.media.0.codec.name">mp3float</property>
    <property name="meta.media.0.codec.long_name">MP3 (MPEG audio layer 3)</property>
    <property name="meta.media.0.codec.bit_rate">267683</property>
    <property name="meta.attr.0.stream.encoder.markup">LAME3.99r</property>
    <property name="meta.media.1.stream.type">video</property>
    <property name="meta.media.1.stream.frame_rate">90000</property>
    <property name="meta.media.1.stream.sample_aspect_ratio">0</property>
    <property name="meta.media.1.codec.width">700</property>
    <property name="meta.media.1.codec.height">700</property>
    <property name="meta.media.1.codec.rotate">0</property>
    <property name="meta.media.1.codec.pix_fmt">yuvj444p</property>
    <property name="meta.media.1.codec.sample_aspect_ratio">1</property>
    <property name="meta.media.1.codec.colorspace">601</property>
    <property name="meta.media.1.codec.name">mjpeg</property>
    <property name="meta.media.1.codec.long_name">MJPEG (Motion JPEG)</property>
    <property name="meta.media.1.codec.bit_rate">0</property>
    <property name="meta.attr.1.stream.title.markup">cover</property>
    <property name="meta.attr.1.stream.comment.markup">Cover (front)</property>
    <property name="meta.attr.title.markup">Hyper Link</property>
    <property name="meta.attr.artist.markup">EX-LYD &amp; Sunnexo</property>
    <property name="meta.attr.track.markup">1</property>
    <property name="meta.attr.album.markup">Hyper Link</property>
    <property name="meta.attr.comment.markup">Visit https://sunnexo.bandcamp.com</property>
    <property name="meta.attr.album_artist.markup">EX-LYD &amp; Sunnexo</property>
    <property name="meta.attr.date.markup">2024</property>
    <property name="seekable">1</property>
    <property name="meta.media.sample_aspect_num">72</property>
    <property name="meta.media.sample_aspect_den">72</property>
    <property name="audio_index">0</property>
    <property name="video_index">1</property>
    <property name="creation_time">2025-12-13T22:23:15</property>
    <property name="vstream">0</property>
    <property name="meta.media.frame_rate_num">90000</property>
    <property name="meta.media.frame_rate_den">1</property>
    <property name="meta.media.colorspace">601</property>
    <property name="meta.media.color_trc">2</property>
    <property name="meta.media.has_b_frames">0</property>
    <property name="meta.media.width">700</property>
    <property name="meta.media.height">700</property>
    <property name="meta.media.aspect_ratio">1</property>
    <property name="meta.media.color_range">full</property>
    <property name="astream">0</property>
    <property name="shotcut:skipConvert">1</property>
    <property name="shotcut:hash">f9ae17ca6c0f4efd02ec2fbb31124928</property>
    <property name="meta.media.top_field_first">0</property>
    <property name="meta.media.progressive">1</property>
    <property name="shotcut:caption">EX-LYD &amp; Sunnexo - Hyper Link - 01 Hyper Link.mp3</property>
    <property name="xml">was here</property>
    <filter id="filter112" in="00:01:02.125" out="00:01:05.875">
      <property name="window">75</property>
      <property name="max_gain">20dB</property>
      <property name="level">-8.1</property>
      <property name="mlt_service">volume</property>
    </filter>
    <filter id="filter113" in="00:01:02.125" out="00:01:05.875">
      <property name="window">75</property>
      <property name="max_gain">20dB</property>
      <property name="level">0</property>
      <property name="mlt_service">volume</property>
      <property name="disable">1</property>
    </filter>
  </chain>
  <playlist id="playlist3">
    <property name="shotcut:audio">1</property>
    <property name="shotcut:name">A3</property>
    <blank length="00:00:30.292"/>
    <entry producer="chain101" in="00:00:00.000" out="00:00:04.875"/>
    <blank length="00:00:00.458"/>
    <entry producer="chain102" in="00:00:04.917" out="00:00:07.875"/>
    <blank length="00:00:00.333"/>
    <entry producer="chain103" in="00:00:07.917" out="00:00:14.792"/>
    <blank length="00:00:17.333"/>
    <entry producer="chain104" in="00:00:00.000" out="00:00:35.625"/>
    <blank length="00:00:10.917"/>
    <entry producer="chain105" in="00:00:25.958" out="00:00:34.500"/>
    <entry producer="chain107" in="00:00:34.667" out="00:00:45.583"/>
    <entry producer="tractor1" in="00:00:00.000" out="00:00:00.750"/>
    <entry producer="chain108" in="00:00:48.792" out="00:01:02.083"/>
    <entry producer="chain109" in="00:01:02.125" out="00:01:05.875"/>
  </playlist>
  <chain id="chain111" out="00:00:08.958">
    <property name="length">00:00:09.000</property>
    <property name="eof">pause</property>
    <property name="resource">rendered animations/2kindergarteners-explanation.mkv</property>
    <property name="mlt_service">avformat-novalidate</property>
    <property name="meta.media.nb_streams">1</property>
    <property name="meta.media.0.stream.type">video</property>
    <property name="meta.media.0.stream.frame_rate">24</property>
    <property name="meta.media.0.stream.sample_aspect_ratio">1</property>
    <property name="meta.media.0.codec.width">1920</property>
    <property name="meta.media.0.codec.height">1080</property>
    <property name="meta.media.0.codec.rotate">0</property>
    <property name="meta.media.0.codec.pix_fmt">yuv420p</property>
    <property name="meta.media.0.codec.sample_aspect_ratio">1</property>
    <property name="meta.media.0.codec.colorspace">709</property>
    <property name="meta.media.0.codec.name">h264</property>
    <property name="meta.media.0.codec.long_name">H.264 / AVC / MPEG-4 AVC / MPEG-4 part 10</property>
    <property name="meta.media.0.codec.bit_rate">0</property>
    <property name="meta.attr.0.stream.ENCODER.markup">Lavc58.134.100 libopenh264</property>
    <property name="meta.attr.0.stream.DURATION.markup">00:00:09.000000000</property>
    <property name="meta.attr.ENCODER.markup">Lavf58.76.100</property>
    <property name="seekable">1</property>
    <property name="meta.media.sample_aspect_num">1</property>
    <property name="meta.media.sample_aspect_den">1</property>
    <property name="audio_index">-1</property>
    <property name="video_index">0</property>
    <property name="creation_time">2025-12-13T23:24:49</property>
    <property name="vstream">0</property>
    <property name="meta.media.frame_rate_num">24</property>
    <property name="meta.media.frame_rate_den">1</property>
    <property name="meta.media.colorspace">709</property>
    <property name="meta.media.color_trc">2</property>
    <property name="meta.media.has_b_frames">0</property>
    <property name="meta.media.width">1920</property>
    <property name="meta.media.height">1080</property>
    <property name="meta.media.aspect_ratio">1</property>
    <property name="meta.media.color_range">mpeg</property>
    <property name="shotcut:skipConvert">1</property>
    <property name="shotcut:hash">902f3618dfffe40381f3ae32f9f8519c</property>
    <property name="meta.media.top_field_first">0</property>
    <property name="meta.media.progressive">1</property>
    <property name="shotcut:caption">2kindergarteners-explanation.mkv</property>
    <property name="xml">was here</property>
  </chain>
  <chain id="chain112" out="00:00:08.958">
    <property name="length">00:00:09.000</property>
    <property name="eof">pause</property>
    <property name="resource">rendered animations/2kindergarteners-explanation.mkv</property>
    <property name="mlt_service">avformat-novalidate</property>
    <property name="meta.media.nb_streams">1</property>
    <property name="meta.media.0.stream.type">video</property>
    <property name="meta.media.0.stream.frame_rate">24</property>
    <property name="meta.media.0.stream.sample_aspect_ratio">1</property>
    <property name="meta.media.0.codec.width">1920</property>
    <property name="meta.media.0.codec.height">1080</property>
    <property name="meta.media.0.codec.rotate">0</property>
    <property name="meta.media.0.codec.pix_fmt">yuv420p</property>
    <property name="meta.media.0.codec.sample_aspect_ratio">1</property>
    <property name="meta.media.0.codec.colorspace">709</property>
    <property name="meta.media.0.codec.name">h264</property>
    <property name="meta.media.0.codec.long_name">H.264 / AVC / MPEG-4 AVC / MPEG-4 part 10</property>
    <property name="meta.media.0.codec.bit_rate">0</property>
    <property name="meta.attr.0.stream.ENCODER.markup">Lavc58.134.100 libopenh264</property>
    <property name="meta.attr.0.stream.DURATION.markup">00:00:09.000000000</property>
    <property name="meta.attr.ENCODER.markup">Lavf58.76.100</property>
    <property name="seekable">1</property>
    <property name="meta.media.sample_aspect_num">1</property>
    <property name="meta.media.sample_aspect_den">1</property>
    <property name="audio_index">-1</property>
    <property name="video_index">0</property>
    <property name="creation_time">2025-12-13T23:24:49</property>
    <property name="vstream">0</property>
    <property name="meta.media.frame_rate_num">24</property>
    <property name="meta.media.frame_rate_den">1</property>
    <property name="meta.media.colorspace">709</property>
    <property name="meta.media.color_trc">2</property>
    <property name="meta.media.has_b_frames">0</property>
    <property name="meta.media.width">1920</property>
    <property name="meta.media.height">1080</property>
    <property name="meta.media.aspect_ratio">1</property>
    <property name="meta.media.color_range">mpeg</property>
    <property name="shotcut:skipConvert">1</property>
    <property name="shotcut:hash">902f3618dfffe40381f3ae32f9f8519c</property>
    <property name="meta.media.top_field_first">0</property>
    <property name="meta.media.progressive">1</property>
    <property name="shotcut:caption">2kindergarteners-explanation.mkv</property>
    <property name="xml">was here</property>
  </chain>
  <chain id="chain113" out="00:00:08.958">
    <property name="length">00:00:09.000</property>
    <property name="eof">pause</property>
    <property name="resource">rendered animations/2kindergarteners-explanation.mkv</property>
    <property name="mlt_service">avformat-novalidate</property>
    <property name="meta.media.nb_streams">1</property>
    <property name="meta.media.0.stream.type">video</property>
    <property name="meta.media.0.stream.frame_rate">24</property>
    <property name="meta.media.0.stream.sample_aspect_ratio">1</property>
    <property name="meta.media.0.codec.width">1920</property>
    <property name="meta.media.0.codec.height">1080</property>
    <property name="meta.media.0.codec.rotate">0</property>
    <property name="meta.media.0.codec.pix_fmt">yuv420p</property>
    <property name="meta.media.0.codec.sample_aspect_ratio">1</property>
    <property name="meta.media.0.codec.colorspace">709</property>
    <property name="meta.media.0.codec.name">h264</property>
    <property name="meta.media.0.codec.long_name">H.264 / AVC / MPEG-4 AVC / MPEG-4 part 10</property>
    <property name="meta.media.0.codec.bit_rate">0</property>
    <property name="meta.attr.0.stream.ENCODER.markup">Lavc58.134.100 libopenh264</property>
    <property name="meta.attr.0.stream.DURATION.markup">00:00:09.000000000</property>
    <property name="meta.attr.ENCODER.markup">Lavf58.76.100</property>
    <property name="seekable">1</property>
    <property name="meta.media.sample_aspect_num">1</property>
    <property name="meta.media.sample_aspect_den">1</property>
    <property name="audio_index">-1</property>
    <property name="video_index">0</property>
    <property name="creation_time">2025-12-13T23:24:49</property>
    <property name="vstream">0</property>
    <property name="meta.media.frame_rate_num">24</property>
    <property name="meta.media.frame_rate_den">1</property>
    <property name="meta.media.colorspace">709</property>
    <property name="meta.media.color_trc">2</property>
    <property name="meta.media.has_b_frames">0</property>
    <property name="meta.media.width">1920</property>
    <property name="meta.media.height">1080</property>
    <property name="meta.media.aspect_ratio">1</property>
    <property name="meta.media.color_range">mpeg</property>
    <property name="shotcut:skipConvert">1</property>
    <property name="shotcut:hash">902f3618dfffe40381f3ae32f9f8519c</property>
    <property name="meta.media.top_field_first">0</property>
    <property name="meta.media.progressive">1</property>
    <property name="shotcut:caption">2kindergarteners-explanation.mkv</property>
    <property name="xml">was here</property>
  </chain>
  <chain id="chain114" out="00:00:08.958">
    <property name="length">00:00:09.000</property>
    <property name="eof">pause</property>
    <property name="resource">rendered animations/2kindergarteners-explanation.mkv</property>
    <property name="mlt_service">avformat-novalidate</property>
    <property name="meta.media.nb_streams">1</property>
    <property name="meta.media.0.stream.type">video</property>
    <property name="meta.media.0.stream.frame_rate">24</property>
    <property name="meta.media.0.stream.sample_aspect_ratio">1</property>
    <property name="meta.media.0.codec.width">1920</property>
    <property name="meta.media.0.codec.height">1080</property>
    <property name="meta.media.0.codec.rotate">0</property>
    <property name="meta.media.0.codec.pix_fmt">yuv420p</property>
    <property name="meta.media.0.codec.sample_aspect_ratio">1</property>
    <property name="meta.media.0.codec.colorspace">709</property>
    <property name="meta.media.0.codec.name">h264</property>
    <property name="meta.media.0.codec.long_name">H.264 / AVC / MPEG-4 AVC / MPEG-4 part 10</property>
    <property name="meta.media.0.codec.bit_rate">0</property>
    <property name="meta.attr.0.stream.ENCODER.markup">Lavc58.134.100 libopenh264</property>
    <property name="meta.attr.0.stream.DURATION.markup">00:00:09.000000000</property>
    <property name="meta.attr.ENCODER.markup">Lavf58.76.100</property>
    <property name="seekable">1</property>
    <property name="meta.media.sample_aspect_num">1</property>
    <property name="meta.media.sample_aspect_den">1</property>
    <property name="audio_index">-1</property>
    <property name="video_index">0</property>
    <property name="creation_time">2025-12-13T23:24:49</property>
    <property name="vstream">0</property>
    <property name="meta.media.frame_rate_num">24</property>
    <property name="meta.media.frame_rate_den">1</property>
    <property name="meta.media.colorspace">709</property>
    <property name="meta.media.color_trc">2</property>
    <property name="meta.media.has_b_frames">0</property>
    <property name="meta.media.width">1920</property>
    <property name="meta.media.height">1080</property>
    <property name="meta.media.aspect_ratio">1</property>
    <property name="meta.media.color_range">mpeg</property>
    <property name="shotcut:skipConvert">1</property>
    <property name="shotcut:hash">902f3618dfffe40381f3ae32f9f8519c</property>
    <property name="meta.media.top_field_first">0</property>
    <property name="meta.media.progressive">1</property>
    <property name="shotcut:caption">2kindergarteners-explanation.mkv</property>
    <property name="xml">was here</property>
  </chain>
  <chain id="chain115" out="00:00:08.958">
    <property name="length">00:00:09.000</property>
    <property name="eof">pause</property>
    <property name="resource">rendered animations/2kindergarteners-explanation.mkv</property>
    <property name="mlt_service">avformat-novalidate</property>
    <property name="meta.media.nb_streams">1</property>
    <property name="meta.media.0.stream.type">video</property>
    <property name="meta.media.0.stream.frame_rate">24</property>
    <property name="meta.media.0.stream.sample_aspect_ratio">1</property>
    <property name="meta.media.0.codec.width">1920</property>
    <property name="meta.media.0.codec.height">1080</property>
    <property name="meta.media.0.codec.rotate">0</property>
    <property name="meta.media.0.codec.pix_fmt">yuv420p</property>
    <property name="meta.media.0.codec.sample_aspect_ratio">1</property>
    <property name="meta.media.0.codec.colorspace">709</property>
    <property name="meta.media.0.codec.name">h264</property>
    <property name="meta.media.0.codec.long_name">H.264 / AVC / MPEG-4 AVC / MPEG-4 part 10</property>
    <property name="meta.media.0.codec.bit_rate">0</property>
    <property name="meta.attr.0.stream.ENCODER.markup">Lavc58.134.100 libopenh264</property>
    <property name="meta.attr.0.stream.DURATION.markup">00:00:09.000000000</property>
    <property name="meta.attr.ENCODER.markup">Lavf58.76.100</property>
    <property name="seekable">1</property>
    <property name="meta.media.sample_aspect_num">1</property>
    <property name="meta.media.sample_aspect_den">1</property>
    <property name="audio_index">-1</property>
    <property name="video_index">0</property>
    <property name="creation_time">2025-12-13T23:24:49</property>
    <property name="vstream">0</property>
    <property name="meta.media.frame_rate_num">24</property>
    <property name="meta.media.frame_rate_den">1</property>
    <property name="meta.media.colorspace">709</property>
    <property name="meta.media.color_trc">2</property>
    <property name="meta.media.has_b_frames">0</property>
    <property name="meta.media.width">1920</property>
    <property name="meta.media.height">1080</property>
    <property name="meta.media.aspect_ratio">1</property>
    <property name="meta.media.color_range">mpeg</property>
    <property name="shotcut:skipConvert">1</property>
    <property name="shotcut:hash">902f3618dfffe40381f3ae32f9f8519c</property>
    <property name="meta.media.top_field_first">0</property>
    <property name="meta.media.progressive">1</property>
    <property name="shotcut:caption">2kindergarteners-explanation.mkv</property>
    <property name="xml">was here</property>
  </chain>
  <chain id="chain116" out="00:00:08.958">
    <property name="length">00:00:09.000</property>
    <property name="eof">pause</property>
    <property name="resource">rendered animations/2kindergarteners-explanation.mkv</property>
    <property name="mlt_service">avformat-novalidate</property>
    <property name="meta.media.nb_streams">1</property>
    <property name="meta.media.0.stream.type">video</property>
    <property name="meta.media.0.stream.frame_rate">24</property>
    <property name="meta.media.0.stream.sample_aspect_ratio">1</property>
    <property name="meta.media.0.codec.width">1920</property>
    <property name="meta.media.0.codec.height">1080</property>
    <property name="meta.media.0.codec.rotate">0</property>
    <property name="meta.media.0.codec.pix_fmt">yuv420p</property>
    <property name="meta.media.0.codec.sample_aspect_ratio">1</property>
    <property name="meta.media.0.codec.colorspace">709</property>
    <property name="meta.media.0.codec.name">h264</property>
    <property name="meta.media.0.codec.long_name">H.264 / AVC / MPEG-4 AVC / MPEG-4 part 10</property>
    <property name="meta.media.0.codec.bit_rate">0</property>
    <property name="meta.attr.0.stream.ENCODER.markup">Lavc58.134.100 libopenh264</property>
    <property name="meta.attr.0.stream.DURATION.markup">00:00:09.000000000</property>
    <property name="meta.attr.ENCODER.markup">Lavf58.76.100</property>
    <property name="seekable">1</property>
    <property name="meta.media.sample_aspect_num">1</property>
    <property name="meta.media.sample_aspect_den">1</property>
    <property name="audio_index">-1</property>
    <property name="video_index">0</property>
    <property name="creation_time">2025-12-13T23:24:49</property>
    <property name="vstream">0</property>
    <property name="meta.media.frame_rate_num">24</property>
    <property name="meta.media.frame_rate_den">1</property>
    <property name="meta.media.colorspace">709</property>
    <property name="meta.media.color_trc">2</property>
    <property name="meta.media.has_b_frames">0</property>
    <property name="meta.media.width">1920</property>
    <property name="meta.media.height">1080</property>
    <property name="meta.media.aspect_ratio">1</property>
    <property name="meta.media.color_range">mpeg</property>
    <property name="shotcut:skipConvert">1</property>
    <property name="shotcut:hash">902f3618dfffe40381f3ae32f9f8519c</property>
    <property name="meta.media.top_field_first">0</property>
    <property name="meta.media.progressive">1</property>
    <property name="shotcut:caption">2kindergarteners-explanation.mkv</property>
    <property name="xml">was here</property>
  </chain>
  <producer id="producer78" in="00:00:00.000" out="03:59:59.958">
    <property name="length">04:00:00.000</property>
    <property name="eof">pause</property>
    <property name="resource">rendered animations/3.1character-intros-junior4.png</property>
    <property name="ttl">1</property>
    <property name="aspect_ratio">1</property>
    <property name="meta.media.progressive">1</property>
    <property name="seekable">1</property>
    <property name="format">2</property>
    <property name="meta.media.width">1920</property>
    <property name="meta.media.height">1080</property>
    <property name="mlt_service">qimage</property>
    <property name="creation_time">2025-12-14T21:01:24</property>
    <property name="shotcut:skipConvert">1</property>
    <property name="shotcut:hash">28deb09d7dcc34422f4517ff8535ed13</property>
    <property name="shotcut:caption">3.1character-intros-junior4.png</property>
    <property name="xml">was here</property>
    <filter id="filter118" out="00:00:02.750">
      <property name="start">1</property>
      <property name="level">1</property>
      <property name="mlt_service">brightness</property>
      <property name="shotcut:filter">fadeInBrightness</property>
      <property name="alpha">00:00:00.000=0;00:00:00.958=1</property>
      <property name="shotcut:animIn">00:00:01.000</property>
    </filter>
  </producer>
  <chain id="chain117" out="00:00:05.958">
    <property name="length">00:00:06.000</property>
    <property name="eof">pause</property>
    <property name="resource">rendered animations/9.1JuniorTired.mkv</property>
    <property name="mlt_service">avformat-novalidate</property>
    <property name="meta.media.nb_streams">1</property>
    <property name="meta.media.0.stream.type">video</property>
    <property name="meta.media.0.stream.frame_rate">24</property>
    <property name="meta.media.0.stream.sample_aspect_ratio">1</property>
    <property name="meta.media.0.codec.width">1920</property>
    <property name="meta.media.0.codec.height">1080</property>
    <property name="meta.media.0.codec.rotate">0</property>
    <property name="meta.media.0.codec.pix_fmt">yuv420p</property>
    <property name="meta.media.0.codec.sample_aspect_ratio">1</property>
    <property name="meta.media.0.codec.colorspace">709</property>
    <property name="meta.media.0.codec.name">h264</property>
    <property name="meta.media.0.codec.long_name">H.264 / AVC / MPEG-4 AVC / MPEG-4 part 10</property>
    <property name="meta.media.0.codec.bit_rate">0</property>
    <property name="meta.attr.0.stream.ENCODER.markup">Lavc58.134.100 libopenh264</property>
    <property name="meta.attr.0.stream.DURATION.markup">00:00:06.000000000</property>
    <property name="meta.attr.ENCODER.markup">Lavf58.76.100</property>
    <property name="seekable">1</property>
    <property name="meta.media.sample_aspect_num">1</property>
    <property name="meta.media.sample_aspect_den">1</property>
    <property name="audio_index">-1</property>
    <property name="video_index">0</property>
    <property name="creation_time">2025-12-15T02:34:29</property>
    <property name="vstream">0</property>
    <property name="meta.media.frame_rate_num">24</property>
    <property name="meta.media.frame_rate_den">1</property>
    <property name="meta.media.colorspace">709</property>
    <property name="meta.media.color_trc">2</property>
    <property name="meta.media.has_b_frames">0</property>
    <property name="meta.media.width">1920</property>
    <property name="meta.media.height">1080</property>
    <property name="meta.media.aspect_ratio">1</property>
    <property name="meta.media.color_range">mpeg</property>
    <property name="shotcut:skipConvert">1</property>
    <property name="shotcut:hash">a5d4504e2c0542bd7992c5760147011a</property>
    <property name="meta.media.top_field_first">0</property>
    <property name="meta.media.progressive">1</property>
    <property name="shotcut:caption">9.1JuniorTired.mkv</property>
    <property name="xml">was here</property>
    <filter id="filter119" out="00:00:05.958">
      <property name="start">1</property>
      <property name="level">1</property>
      <property name="mlt_service">brightness</property>
      <property name="shotcut:filter">fadeOutBrightness</property>
      <property name="alpha">00:00:05.333=1;00:00:05.958=0</property>
      <property name="shotcut:animOut">16</property>
    </filter>
  </chain>
  <producer id="producer80" in="00:00:00.000" out="00:00:11.458">
    <property name="length">00:00:11.500</property>
    <property name="eof">pause</property>
    <property name="resource">0.25:rendered animations/10wowspace.mkv</property>
    <property name="aspect_ratio">1</property>
    <property name="meta.media.nb_streams">1</property>
    <property name="meta.media.0.stream.type">video</property>
    <property name="meta.media.0.stream.frame_rate">24</property>
    <property name="meta.media.0.stream.sample_aspect_ratio">1</property>
    <property name="meta.media.0.codec.width">1920</property>
    <property name="meta.media.0.codec.height">1080</property>
    <property name="meta.media.0.codec.rotate">0</property>
    <property name="meta.media.0.codec.pix_fmt">yuv420p</property>
    <property name="meta.media.0.codec.sample_aspect_ratio">1</property>
    <property name="meta.media.0.codec.colorspace">709</property>
    <property name="meta.media.0.codec.name">h264</property>
    <property name="meta.media.0.codec.long_name">H.264 / AVC / MPEG-4 AVC / MPEG-4 part 10</property>
    <property name="meta.media.0.codec.bit_rate">0</property>
    <property name="meta.attr.0.stream.ENCODER.markup">Lavc58.134.100 libopenh264</property>
    <property name="meta.attr.0.stream.DURATION.markup">00:00:02.875000000</property>
    <property name="meta.attr.ENCODER.markup">Lavf58.76.100</property>
    <property name="seekable">1</property>
    <property name="meta.media.sample_aspect_num">1</property>
    <property name="meta.media.sample_aspect_den">1</property>
    <property name="audio_index">-1</property>
    <property name="video_index">0</property>
    <property name="warp_speed">0.25</property>
    <property name="warp_resource">rendered animations/10wowspace.mkv</property>
    <property name="mlt_service">timewarp</property>
    <property name="shotcut:producer">avformat</property>
    <property name="video_delay">0</property>
    <property name="vstream">0</property>
    <property name="shotcut:hash">ea1b59dbbf3d291b31ecd09748579c69</property>
    <property name="shotcut:skipConvert">1</property>
    <property name="shotcut:caption">10wowspace.mkv (0.25x)</property>
    <property name="xml">was here</property>
    <property name="meta.media.frame_rate_num">24</property>
    <property name="meta.media.frame_rate_den">1</property>
    <property name="meta.media.colorspace">709</property>
    <property name="meta.media.color_trc">2</property>
    <property name="meta.media.has_b_frames">0</property>
    <property name="meta.media.width">1920</property>
    <property name="meta.media.height">1080</property>
    <property name="meta.media.aspect_ratio">1</property>
    <property name="meta.media.color_range">mpeg</property>
    <property name="meta.media.top_field_first">0</property>
    <property name="meta.media.progressive">1</property>
    <filter id="filter120" out="00:00:10.625">
      <property name="start">1</property>
      <property name="level">1</property>
      <property name="mlt_service">brightness</property>
      <property name="shotcut:filter">fadeInBrightness</property>
      <property name="alpha">00:00:00.000=0;00:00:00.958=1</property>
      <property name="shotcut:animIn">00:00:01.000</property>
    </filter>
    <filter id="filter121" out="00:00:10.625">
      <property name="start">1</property>
      <property name="level">1</property>
      <property name="mlt_service">brightness</property>
      <property name="shotcut:filter">fadeOutBrightness</property>
      <property name="alpha">00:00:09.958=1;00:00:10.625=0</property>
      <property name="shotcut:animOut">17</property>
    </filter>
  </producer>
  <chain id="chain118" out="00:00:16.958">
    <property name="length">00:00:17.000</property>
    <property name="eof">pause</property>
    <property name="resource">rendered animations/11peptalk.mkv</property>
    <property name="mlt_service">avformat-novalidate</property>
    <property name="meta.media.nb_streams">1</property>
    <property name="meta.media.0.stream.type">video</property>
    <property name="meta.media.0.stream.frame_rate">24</property>
    <property name="meta.media.0.stream.sample_aspect_ratio">1</property>
    <property name="meta.media.0.codec.width">1920</property>
    <property name="meta.media.0.codec.height">1080</property>
    <property name="meta.media.0.codec.rotate">0</property>
    <property name="meta.media.0.codec.pix_fmt">yuv420p</property>
    <property name="meta.media.0.codec.sample_aspect_ratio">1</property>
    <property name="meta.media.0.codec.colorspace">709</property>
    <property name="meta.media.0.codec.name">h264</property>
    <property name="meta.media.0.codec.long_name">H.264 / AVC / MPEG-4 AVC / MPEG-4 part 10</property>
    <property name="meta.media.0.codec.bit_rate">0</property>
    <property name="meta.attr.0.stream.ENCODER.markup">Lavc58.134.100 libopenh264</property>
    <property name="meta.attr.0.stream.DURATION.markup">00:00:17.000000000</property>
    <property name="meta.attr.ENCODER.markup">Lavf58.76.100</property>
    <property name="seekable">1</property>
    <property name="meta.media.sample_aspect_num">1</property>
    <property name="meta.media.sample_aspect_den">1</property>
    <property name="audio_index">-1</property>
    <property name="video_index">0</property>
    <property name="creation_time">2025-12-15T03:40:48</property>
    <property name="vstream">0</property>
    <property name="meta.media.frame_rate_num">24</property>
    <property name="meta.media.frame_rate_den">1</property>
    <property name="meta.media.colorspace">709</property>
    <property name="meta.media.color_trc">2</property>
    <property name="meta.media.has_b_frames">0</property>
    <property name="meta.media.width">1920</property>
    <property name="meta.media.height">1080</property>
    <property name="meta.media.aspect_ratio">1</property>
    <property name="meta.media.color_range">mpeg</property>
    <property name="shotcut:skipConvert">1</property>
    <property name="shotcut:hash">e55a3f548546845e26f7f1698b78e15d</property>
    <property name="meta.media.top_field_first">0</property>
    <property name="meta.media.progressive">1</property>
    <property name="shotcut:caption">11peptalk.mkv</property>
    <property name="xml">was here</property>
    <filter id="filter122" out="00:00:16.958">
      <property name="start">1</property>
      <property name="level">1</property>
      <property name="mlt_service">brightness</property>
      <property name="shotcut:filter">fadeInBrightness</property>
      <property name="alpha">00:00:00.000=0;00:00:00.958=1</property>
      <property name="shotcut:animIn">00:00:01.000</property>
    </filter>
  </chain>
  <producer id="producer81" in="00:00:00.000" out="03:59:59.958">
    <property name="length">04:00:00.000</property>
    <property name="eof">pause</property>
    <property name="resource">rendered animations/17nowstandrealcool.png</property>
    <property name="ttl">1</property>
    <property name="aspect_ratio">1</property>
    <property name="meta.media.progressive">1</property>
    <property name="seekable">1</property>
    <property name="format">2</property>
    <property name="meta.media.width">1920</property>
    <property name="meta.media.height">1080</property>
    <property name="mlt_service">qimage</property>
    <property name="creation_time">2025-12-16T02:18:26</property>
    <property name="shotcut:skipConvert">1</property>
    <property name="shotcut:hash">304817ba0a603c5634263d773a4f955a</property>
    <property name="shotcut:caption">17nowstandrealcool.png</property>
    <property name="meta.shotcut.vui">1</property>
    <property name="xml">was here</property>
    <filter id="filter123" out="00:00:08.417">
      <property name="start">1</property>
      <property name="level">1</property>
      <property name="mlt_service">brightness</property>
      <property name="shotcut:filter">fadeInBrightness</property>
      <property name="alpha">00:00:00.000=0;00:00:01.000=1</property>
      <property name="shotcut:animIn">00:00:01.042</property>
    </filter>
    <filter id="filter124" out="00:00:08.417">
      <property name="background">color:#00000000</property>
      <property name="mlt_service">affine</property>
      <property name="shotcut:filter">affineSizePosition</property>
      <property name="transition.fix_rotate_x">0</property>
      <property name="transition.fill">1</property>
      <property name="transition.distort">0</property>
      <property name="transition.rect">00:00:00.000=-578.311 -7.33868 3072 1728 1;00:00:02.792=-92.5329 -0.837881 2112 1188 1;00:00:08.375=0.851141 -2.93768 1930.82 1086.08 1;00:00:08.458=1.50513</property>
      <property name="transition.valign">middle</property>
      <property name="transition.halign">center</property>
      <property name="shotcut:animIn">00:00:00.000</property>
      <property name="shotcut:animOut">00:00:00.000</property>
      <property name="transition.threads">0</property>
    </filter>
  </producer>
  <playlist id="playlist4">
    <property name="shotcut:video">1</property>
    <property name="shotcut:name">V2</property>
    <blank length="00:00:40.625"/>
    <entry producer="chain111" in="00:00:05.000" out="00:00:05.917"/>
    <entry producer="chain112" in="00:00:05.000" out="00:00:05.917"/>
    <entry producer="chain113" in="00:00:05.000" out="00:00:05.917"/>
    <entry producer="chain114" in="00:00:05.000" out="00:00:05.917"/>
    <entry producer="chain115" in="00:00:05.000" out="00:00:05.917"/>
    <entry producer="chain116" in="00:00:05.000" out="00:00:05.458"/>
    <blank length="00:00:46.125"/>
    <entry producer="producer78" in="00:00:00.000" out="00:00:02.750"/>
    <blank length="00:01:33.625"/>
    <entry producer="chain117" in="00:00:00.000" out="00:00:05.958"/>
    <entry producer="producer80" in="00:00:00.000" out="00:00:10.625"/>
    <entry producer="chain118" in="00:00:00.000" out="00:00:16.958"/>
    <blank length="00:01:19.667"/>
    <entry producer="producer81" in="00:00:00.000" out="00:00:08.417"/>
  </playlist>
  <producer id="producer82" in="00:00:00.000" out="03:59:59.958">
    <property name="length">04:00:00.000</property>
    <property name="eof">pause</property>
    <property name="resource">rendered animations/purple.png</property>
    <property name="ttl">1</property>
    <property name="aspect_ratio">1</property>
    <property name="meta.media.progressive">1</property>
    <property name="seekable">1</property>
    <property name="format">2</property>
    <property name="meta.media.width">1920</property>
    <property name="meta.media.height">1080</property>
    <property name="mlt_service">qimage</property>
    <property name="creation_time">2025-12-18T02:55:59</property>
    <property name="shotcut:skipConvert">1</property>
    <property name="shotcut:hash">3c28d53aadc37f080d699690cbd318dc</property>
    <property name="shotcut:caption">purple.png</property>
    <property name="xml">was here</property>
    <filter id="filter125" out="00:00:44.583">
      <property name="start">1</property>
      <property name="level">1</property>
      <property name="mlt_service">brightness</property>
      <property name="shotcut:filter">brightnessOpacity</property>
      <property name="alpha">0.1</property>
      <property name="opacity">0.1</property>
    </filter>
  </producer>
  <producer id="producer83" in="00:00:00.000" out="03:59:59.958">
    <property name="length">04:00:00.000</property>
    <property name="eof">pause</property>
    <property name="resource">rendered animations/purple.png</property>
    <property name="ttl">1</property>
    <property name="aspect_ratio">1</property>
    <property name="meta.media.progressive">1</property>
    <property name="seekable">1</property>
    <property name="format">2</property>
    <property name="meta.media.width">1920</property>
    <property name="meta.media.height">1080</property>
    <property name="mlt_service">qimage</property>
    <property name="creation_time">2025-12-18T02:55:59</property>
    <property name="shotcut:skipConvert">1</property>
    <property name="shotcut:hash">3c28d53aadc37f080d699690cbd318dc</property>
    <property name="shotcut:caption">purple.png</property>
    <property name="xml">was here</property>
    <filter id="filter126" in="00:00:35.042" out="00:00:49.500">
      <property name="start">1</property>
      <property name="level">1</property>
      <property name="mlt_service">brightness</property>
      <property name="shotcut:filter">brightnessOpacity</property>
      <property name="alpha">0.1</property>
      <property name="opacity">0.1</property>
    </filter>
  </producer>
  <producer id="producer84" in="00:00:00.000" out="03:59:59.958">
    <property name="length">04:00:00.000</property>
    <property name="eof">pause</property>
    <property name="resource">rendered animations/purple.png</property>
    <property name="ttl">1</property>
    <property name="aspect_ratio">1</property>
    <property name="meta.media.progressive">1</property>
    <property name="seekable">1</property>
    <property name="format">2</property>
    <property name="meta.media.width">1920</property>
    <property name="meta.media.height">1080</property>
    <property name="mlt_service">qimage</property>
    <property name="creation_time">2025-12-18T02:55:59</property>
    <property name="shotcut:skipConvert">1</property>
    <property name="shotcut:hash">3c28d53aadc37f080d699690cbd318dc</property>
    <property name="shotcut:caption">purple.png</property>
    <property name="xml">was here</property>
    <filter id="filter127" in="00:00:49.542" out="00:01:01.083">
      <property name="start">1</property>
      <property name="level">1</property>
      <property name="mlt_service">brightness</property>
      <property name="shotcut:filter">brightnessOpacity</property>
      <property name="alpha">0.1</property>
      <property name="opacity">0.1</property>
    </filter>
  </producer>
  <producer id="producer85" in="00:00:00.000" out="03:59:59.958">
    <property name="length">04:00:00.000</property>
    <property name="eof">pause</property>
    <property name="resource">rendered animations/purple.png</property>
    <property name="ttl">1</property>
    <property name="aspect_ratio">1</property>
    <property name="meta.media.progressive">1</property>
    <property name="seekable">1</property>
    <property name="format">2</property>
    <property name="meta.media.width">1920</property>
    <property name="meta.media.height">1080</property>
    <property name="mlt_service">qimage</property>
    <property name="creation_time">2025-12-18T02:55:59</property>
    <property name="shotcut:skipConvert">1</property>
    <property name="shotcut:hash">3c28d53aadc37f080d699690cbd318dc</property>
    <property name="shotcut:caption">purple.png</property>
    <property name="xml">was here</property>
    <filter id="filter128" in="00:01:01.125" out="00:01:31.750">
      <property name="start">1</property>
      <property name="level">1</property>
      <property name="mlt_service">brightness</property>
      <property name="shotcut:filter">brightnessOpacity</property>
      <property name="alpha">0.1</property>
      <property name="opacity">0.1</property>
    </filter>
  </producer>
  <producer id="producer86" in="00:00:00.000" out="03:59:59.958">
    <property name="length">04:00:00.000</property>
    <property name="eof">pause</property>
    <property name="resource">rendered animations/purple.png</property>
    <property name="ttl">1</property>
    <property name="aspect_ratio">1</property>
    <property name="meta.media.progressive">1</property>
    <property name="seekable">1</property>
    <property name="format">2</property>
    <property name="meta.media.width">1920</property>
    <property name="meta.media.height">1080</property>
    <property name="mlt_service">qimage</property>
    <property name="creation_time">2025-12-18T02:55:59</property>
    <property name="shotcut:skipConvert">1</property>
    <property name="shotcut:hash">3c28d53aadc37f080d699690cbd318dc</property>
    <property name="shotcut:caption">purple.png</property>
    <property name="xml">was here</property>
    <filter id="filter129" in="00:01:31.792" out="00:01:56.875">
      <property name="start">1</property>
      <property name="level">1</property>
      <property name="mlt_service">brightness</property>
      <property name="shotcut:filter">brightnessOpacity</property>
      <property name="alpha">0.1</property>
      <property name="opacity">0.1</property>
    </filter>
  </producer>
  <producer id="producer87" in="00:00:00.000" out="03:59:59.958">
    <property name="length">04:00:00.000</property>
    <property name="eof">pause</property>
    <property name="resource">rendered animations/purple.png</property>
    <property name="ttl">1</property>
    <property name="aspect_ratio">1</property>
    <property name="meta.media.progressive">1</property>
    <property name="seekable">1</property>
    <property name="format">2</property>
    <property name="meta.media.width">1920</property>
    <property name="meta.media.height">1080</property>
    <property name="mlt_service">qimage</property>
    <property name="creation_time">2025-12-18T02:55:59</property>
    <property name="shotcut:skipConvert">1</property>
    <property name="shotcut:hash">3c28d53aadc37f080d699690cbd318dc</property>
    <property name="shotcut:caption">purple.png</property>
    <property name="xml">was here</property>
    <filter id="filter130" in="00:01:56.917" out="00:02:26.458">
      <property name="start">1</property>
      <property name="level">1</property>
      <property name="mlt_service">brightness</property>
      <property name="shotcut:filter">brightnessOpacity</property>
      <property name="alpha">0.1</property>
      <property name="opacity">0.1</property>
    </filter>
  </producer>
  <producer id="producer88" in="00:00:00.000" out="03:59:59.958">
    <property name="length">04:00:00.000</property>
    <property name="eof">pause</property>
    <property name="resource">rendered animations/purple.png</property>
    <property name="ttl">1</property>
    <property name="aspect_ratio">1</property>
    <property name="meta.media.progressive">1</property>
    <property name="seekable">1</property>
    <property name="format">2</property>
    <property name="meta.media.width">1920</property>
    <property name="meta.media.height">1080</property>
    <property name="mlt_service">qimage</property>
    <property name="creation_time">2025-12-18T02:55:59</property>
    <property name="shotcut:skipConvert">1</property>
    <property name="shotcut:hash">3c28d53aadc37f080d699690cbd318dc</property>
    <property name="shotcut:caption">purple.png</property>
    <property name="xml">was here</property>
    <filter id="filter131" in="00:02:24.500" out="00:02:26.292">
      <property name="start">1</property>
      <property name="level">1</property>
      <property name="mlt_service">brightness</property>
      <property name="shotcut:filter">brightnessOpacity</property>
      <property name="alpha">0.1</property>
      <property name="opacity">0.1</property>
    </filter>
  </producer>
  <producer id="producer89" in="00:00:00.000" out="03:59:59.958">
    <property name="length">04:00:00.000</property>
    <property name="eof">pause</property>
    <property name="resource">rendered animations/purple.png</property>
    <property name="ttl">1</property>
    <property name="aspect_ratio">1</property>
    <property name="meta.media.progressive">1</property>
    <property name="seekable">1</property>
    <property name="format">2</property>
    <property name="meta.media.width">1920</property>
    <property name="meta.media.height">1080</property>
    <property name="mlt_service">qimage</property>
    <property name="creation_time">2025-12-18T02:55:59</property>
    <property name="shotcut:skipConvert">1</property>
    <property name="shotcut:hash">3c28d53aadc37f080d699690cbd318dc</property>
    <property name="shotcut:caption">purple.png</property>
    <property name="xml">was here</property>
    <filter id="filter132" in="00:02:26.667" out="00:02:31.042">
      <property name="start">1</property>
      <property name="level">1</property>
      <property name="mlt_service">brightness</property>
      <property name="shotcut:filter">brightnessOpacity</property>
      <property name="alpha">0.1</property>
      <property name="opacity">0.1</property>
    </filter>
  </producer>
  <producer id="producer90" in="00:00:00.000" out="03:59:59.958">
    <property name="length">04:00:00.000</property>
    <property name="eof">pause</property>
    <property name="resource">rendered animations/purple.png</property>
    <property name="ttl">1</property>
    <property name="aspect_ratio">1</property>
    <property name="meta.media.progressive">1</property>
    <property name="seekable">1</property>
    <property name="format">2</property>
    <property name="meta.media.width">1920</property>
    <property name="meta.media.height">1080</property>
    <property name="mlt_service">qimage</property>
    <property name="creation_time">2025-12-18T02:55:59</property>
    <property name="shotcut:skipConvert">1</property>
    <property name="shotcut:hash">3c28d53aadc37f080d699690cbd318dc</property>
    <property name="shotcut:caption">purple.png</property>
    <property name="xml">was here</property>
    <filter id="filter133" in="00:02:29.542" out="00:02:50.583">
      <property name="start">1</property>
      <property name="level">1</property>
      <property name="mlt_service">brightness</property>
      <property name="shotcut:filter">brightnessOpacity</property>
      <property name="alpha">0.1</property>
      <property name="opacity">0.1</property>
    </filter>
  </producer>
  <producer id="producer91" in="00:00:00.000" out="03:59:59.958">
    <property name="length">04:00:00.000</property>
    <property name="eof">pause</property>
    <property name="resource">rendered animations/purple.png</property>
    <property name="ttl">1</property>
    <property name="aspect_ratio">1</property>
    <property name="meta.media.progressive">1</property>
    <property name="seekable">1</property>
    <property name="format">2</property>
    <property name="meta.media.width">1920</property>
    <property name="meta.media.height">1080</property>
    <property name="mlt_service">qimage</property>
    <property name="creation_time">2025-12-18T02:55:59</property>
    <property name="shotcut:skipConvert">1</property>
    <property name="shotcut:hash">3c28d53aadc37f080d699690cbd318dc</property>
    <property name="shotcut:caption">purple.png</property>
    <property name="xml">was here</property>
    <filter id="filter134" in="00:02:50.625" out="00:02:51.167">
      <property name="start">1</property>
      <property name="level">1</property>
      <property name="mlt_service">brightness</property>
      <property name="shotcut:filter">brightnessOpacity</property>
      <property name="alpha">0.1</property>
      <property name="opacity">0.1</property>
    </filter>
  </producer>
  <producer id="producer92" in="00:00:00.000" out="03:59:59.958">
    <property name="length">04:00:00.000</property>
    <property name="eof">pause</property>
    <property name="resource">rendered animations/purple.png</property>
    <property name="ttl">1</property>
    <property name="aspect_ratio">1</property>
    <property name="meta.media.progressive">1</property>
    <property name="seekable">1</property>
    <property name="format">2</property>
    <property name="meta.media.width">1920</property>
    <property name="meta.media.height">1080</property>
    <property name="mlt_service">qimage</property>
    <property name="creation_time">2025-12-18T02:55:59</property>
    <property name="shotcut:skipConvert">1</property>
    <property name="shotcut:hash">3c28d53aadc37f080d699690cbd318dc</property>
    <property name="shotcut:caption">purple.png</property>
    <property name="xml">was here</property>
    <filter id="filter135" in="00:02:54.125" out="00:04:59.167">
      <property name="start">1</property>
      <property name="level">1</property>
      <property name="mlt_service">brightness</property>
      <property name="shotcut:filter">brightnessOpacity</property>
      <property name="alpha">0.1</property>
      <property name="opacity">0.1</property>
    </filter>
  </producer>
  <producer id="producer56" in="00:00:00.000" out="03:59:59.958">
    <property name="length">04:00:00.000</property>
    <property name="eof">pause</property>
    <property name="resource">rendered animations/purple.png</property>
    <property name="ttl">1</property>
    <property name="aspect_ratio">1</property>
    <property name="meta.media.progressive">1</property>
    <property name="seekable">1</property>
    <property name="format">2</property>
    <property name="meta.media.width">1920</property>
    <property name="meta.media.height">1080</property>
    <property name="mlt_service">qimage</property>
    <property name="creation_time">2025-12-18T02:55:59</property>
    <property name="shotcut:skipConvert">1</property>
    <property name="shotcut:hash">3c28d53aadc37f080d699690cbd318dc</property>
    <property name="shotcut:caption">purple.png</property>
    <property name="xml">was here</property>
    <filter id="filter19" in="00:04:59.208" out="00:05:00.375">
      <property name="start">1</property>
      <property name="level">1</property>
      <property name="mlt_service">brightness</property>
      <property name="shotcut:filter">brightnessOpacity</property>
      <property name="alpha">0.1</property>
      <property name="opacity">0.1</property>
    </filter>
  </producer>
  <producer id="producer57" in="00:00:00.000" out="03:59:59.958">
    <property name="length">04:00:00.000</property>
    <property name="eof">pause</property>
    <property name="resource">rendered animations/purple.png</property>
    <property name="ttl">1</property>
    <property name="aspect_ratio">1</property>
    <property name="meta.media.progressive">1</property>
    <property name="seekable">1</property>
    <property name="format">2</property>
    <property name="meta.media.width">1920</property>
    <property name="meta.media.height">1080</property>
    <property name="mlt_service">qimage</property>
    <property name="creation_time">2025-12-18T02:55:59</property>
    <property name="shotcut:skipConvert">1</property>
    <property name="shotcut:hash">3c28d53aadc37f080d699690cbd318dc</property>
    <property name="shotcut:caption">purple.png</property>
    <property name="xml">was here</property>
    <filter id="filter114" in="00:05:00.000" out="00:05:00.375">
      <property name="start">1</property>
      <property name="level">1</property>
      <property name="mlt_service">brightness</property>
      <property name="shotcut:filter">brightnessOpacity</property>
      <property name="alpha">0.1</property>
      <property name="opacity">0.1</property>
    </filter>
    <filter id="filter115" in="00:05:00.000" out="00:05:00.375">
      <property name="start">1</property>
      <property name="level">0</property>
      <property name="mlt_service">brightness</property>
    </filter>
  </producer>
  <playlist id="playlist5">
    <property name="shotcut:video">1</property>
    <property name="shotcut:name">V3</property>
    <entry producer="producer82" in="00:00:00.000" out="00:00:44.583"/>
    <entry producer="producer83" in="00:00:35.042" out="00:00:49.500"/>
    <entry producer="producer84" in="00:00:49.542" out="00:01:01.083"/>
    <entry producer="producer85" in="00:01:01.125" out="00:01:31.750"/>
    <entry producer="producer86" in="00:01:31.792" out="00:01:56.875"/>
    <entry producer="producer87" in="00:01:56.917" out="00:02:26.458"/>
    <entry producer="producer88" in="00:02:24.500" out="00:02:26.292"/>
    <entry producer="producer89" in="00:02:26.667" out="00:02:31.042"/>
    <entry producer="producer90" in="00:02:29.542" out="00:02:50.583"/>
    <entry producer="producer91" in="00:02:50.667" out="00:02:51.167"/>
    <entry producer="producer92" in="00:02:54.125" out="00:04:59.167"/>
    <entry producer="producer56" in="00:04:59.208" out="00:05:00.375"/>
    <blank length="00:00:16.000"/>
    <entry producer="producer57" in="00:05:00.000" out="00:05:00.375"/>
  </playlist>
  <tractor id="tractor5" title="Shotcut version 25.01.25" in="00:00:00.000" out="00:05:26.625">
    <property name="shotcut">1</property>
    <property name="shotcut:scaleFactor">2.81322</property>
    <property name="shotcut:projectAudioChannels">2</property>
    <property name="shotcut:projectFolder">0</property>
    <property name="shotcut:skipConvert">0</property>
    <properties name="shotcut:markers">
      <properties name="0">
        <property name="text">Marker 1</property>
        <property name="start">00:03:35.208</property>
        <property name="end">00:03:35.208</property>
        <property name="color">#008000</property>
      </properties>
      <properties name="1">
        <property name="text">Marker 2</property>
        <property name="start">00:03:32.542</property>
        <property name="end">00:03:32.542</property>
        <property name="color">#008000</property>
      </properties>
      <properties name="2">
        <property name="text">Marker 3</property>
        <property name="start">00:03:29.750</property>
        <property name="end">00:03:29.750</property>
        <property name="color">#008000</property>
      </properties>
      <properties name="3">
        <property name="text">Marker 4</property>
        <property name="start">00:03:37.958</property>
        <property name="end">00:03:37.958</property>
        <property name="color">#008000</property>
      </properties>
      <properties name="4">
        <property name="text">Marker 5</property>
        <property name="start">00:03:40.875</property>
        <property name="end">00:03:40.875</property>
        <property name="color">#008000</property>
      </properties>
      <properties name="5">
        <property name="text">Marker 6</property>
        <property name="start">00:03:43.583</property>
        <property name="end">00:03:43.583</property>
        <property name="color">#008000</property>
      </properties>
      <properties name="6">
        <property name="text">Marker 7</property>
        <property name="start">00:03:47.667</property>
        <property name="end">00:03:47.667</property>
        <property name="color">#008000</property>
      </properties>
      <properties name="7">
        <property name="text">Marker 8</property>
        <property name="start">00:03:48.917</property>
        <property name="end">00:03:48.917</property>
        <property name="color">#008000</property>
      </properties>
      <properties name="8">
        <property name="text">Marker 9</property>
        <property name="start">00:04:19.083</property>
        <property name="end">00:04:19.083</property>
        <property name="color">#008000</property>
      </properties>
      <properties name="9">
        <property name="text">Marker 10</property>
        <property name="start">00:03:57.208</property>
        <property name="end">00:03:57.208</property>
        <property name="color">#008000</property>
      </properties>
      <properties name="10">
        <property name="text">Marker 11</property>
        <property name="start">00:04:02.708</property>
        <property name="end">00:04:02.708</property>
        <property name="color">#008000</property>
      </properties>
      <properties name="11">
        <property name="text">Marker 12</property>
        <property name="start">00:04:10.917</property>
        <property name="end">00:04:10.917</property>
        <property name="color">#008000</property>
      </properties>
      <properties name="13">
        <property name="text">Marker 14</property>
        <property name="start">00:01:45.958</property>
        <property name="end">00:01:45.958</property>
        <property name="color">#008000</property>
      </properties>
      <properties name="14">
        <property name="text">Marker 15</property>
        <property name="start">00:04:24.500</property>
        <property name="end">00:04:24.500</property>
        <property name="color">#008000</property>
      </properties>
      <properties name="12">
        <property name="text">Marker 13</property>
        <property name="start">00:03:56.417</property>
        <property name="end">00:03:56.417</property>
        <property name="color">#008000</property>
      </properties>
      <properties name="15">
        <property name="text">Marker 16</property>
        <property name="start">00:03:56.750</property>
        <property name="end">00:03:56.750</property>
        <property name="color">#008000</property>
      </properties>
      <properties name="16">
        <property name="text">Marker 17</property>
        <property name="start">00:01:56.917</property>
        <property name="end">00:01:56.917</property>
        <property name="color">#008000</property>
      </properties>
      <properties name="17">
        <property name="text">Marker 18</property>
        <property name="start">00:02:26.333</property>
        <property name="end">00:02:26.333</property>
        <property name="color">#008000</property>
      </properties>
      <properties name="18">
        <property name="text">Marker 19</property>
        <property name="start">00:02:27.667</property>
        <property name="end">00:02:27.667</property>
        <property name="color">#008000</property>
      </properties>
      <properties name="19">
        <property name="text">Marker 20</property>
        <property name="start">00:02:51.833</property>
        <property name="end">00:02:51.833</property>
        <property name="color">#008000</property>
      </properties>
      <properties name="20">
        <property name="text">Marker 21</property>
        <property name="start">00:00:19.917</property>
        <property name="end">00:00:19.917</property>
        <property name="color">#008000</property>
      </properties>
      <properties name="21">
        <property name="text">Marker 22</property>
        <property name="start">00:00:43.917</property>
        <property name="end">00:00:43.917</property>
        <property name="color">#008000</property>
      </properties>
      <properties name="22">
        <property name="text">Marker 23</property>
        <property name="start">00:00:54.333</property>
        <property name="end">00:00:54.333</property>
        <property name="color">#008000</property>
      </properties>
      <properties name="23">
        <property name="text">Marker 24</property>
        <property name="start">00:03:05.792</property>
        <property name="end">00:03:05.792</property>
        <property name="color">#008000</property>
      </properties>
      <properties name="24">
        <property name="text">Marker 25</property>
        <property name="start">00:00:18.625</property>
        <property name="end">00:00:18.625</property>
        <property name="color">#008000</property>
      </properties>
      <properties name="25">
        <property name="text">Marker 26</property>
        <property name="start">00:00:29.958</property>
        <property name="end">00:00:29.958</property>
        <property name="color">#008000</property>
      </properties>
      <properties name="26">
        <property name="text">Marker 27</property>
        <property name="start">00:00:11.917</property>
        <property name="end">00:00:11.917</property>
        <property name="color">#008000</property>
      </properties>
      <properties name="27">
        <property name="text">Marker 28</property>
        <property name="start">00:00:05.542</property>
        <property name="end">00:00:05.542</property>
        <property name="color">#008000</property>
      </properties>
    </properties>
    <property name="meta.shotcut.vui">1</property>
    <track producer="background"/>
    <track producer="playlist0"/>
    <track producer="playlist1" hide="video"/>
    <track producer="playlist2" hide="video"/>
    <track producer="playlist3" hide="video"/>
    <track producer="playlist4"/>
    <track producer="playlist5"/>
    <transition id="transition10">
      <property name="a_track">0</property>
      <property name="b_track">1</property>
      <property name="mlt_service">mix</property>
      <property name="always_active">1</property>
      <property name="sum">1</property>
    </transition>
    <transition id="transition11">
      <property name="a_track">0</property>
      <property name="b_track">1</property>
      <property name="version">0.1</property>
      <property name="mlt_service">frei0r.cairoblend</property>
      <property name="threads">0</property>
      <property name="disable">1</property>
    </transition>
    <transition id="transition12">
      <property name="a_track">0</property>
      <property name="b_track">2</property>
      <property name="mlt_service">mix</property>
      <property name="always_active">1</property>
      <property name="sum">1</property>
    </transition>
    <transition id="transition13">
      <property name="a_track">0</property>
      <property name="b_track">3</property>
      <property name="mlt_service">mix</property>
      <property name="always_active">1</property>
      <property name="sum">1</property>
    </transition>
    <transition id="transition14">
      <property name="a_track">0</property>
      <property name="b_track">4</property>
      <property name="mlt_service">mix</property>
      <property name="always_active">1</property>
      <property name="sum">1</property>
    </transition>
    <transition id="transition15">
      <property name="a_track">0</property>
      <property name="b_track">5</property>
      <property name="mlt_service">mix</property>
      <property name="always_active">1</property>
      <property name="sum">1</property>
    </transition>
    <transition id="transition16">
      <property name="a_track">1</property>
      <property name="b_track">5</property>
      <property name="version">0.1</property>
      <property name="mlt_service">frei0r.cairoblend</property>
      <property name="threads">0</property>
      <property name="disable">0</property>
    </transition>
    <transition id="transition4">
      <property name="a_track">0</property>
      <property name="b_track">6</property>
      <property name="mlt_service">mix</property>
      <property name="always_active">1</property>
      <property name="sum">1</property>
    </transition>
    <transition id="transition5">
      <property name="a_track">1</property>
      <property name="b_track">6</property>
      <property name="version">0.1</property>
      <property name="mlt_service">frei0r.cairoblend</property>
      <property name="threads">0</property>
      <property name="disable">0</property>
    </transition>
    <filter id="filter136">
      <property name="feed">aurora-intro</property>
      <property name="lang">eng</property>
      <property name="mlt_service">subtitle_feed</property>
      <property name="shotcut:hidden">1</property>
      <property name="text">1
00:00:00,291 --&gt; 00:00:01,416
Dell-Vin: Welcome back, viewers,

2
00:00:01,458 --&gt; 00:00:02,791
To the first inaugeral

3
00:00:02,833 --&gt; 00:00:03,375
To the first inaugeral God

4
00:00:03,416 --&gt; 00:00:03,958
To the first inaugeral God Game

5
00:00:04,000 --&gt; 00:00:05,500
To the first inaugeral God Game
City Tournament!

6
00:00:14,250 --&gt; 00:00:15,791
Underhanded, cunning...

7
00:00:15,833 --&gt; 00:00:18,541
... and a bit too young to be here...

8
00:00:18,583 --&gt; 00:00:19,958
Introducing...

9
00:00:20,000 --&gt; 00:00:21,666
The Nap Timers!!!

10
00:00:22,250 --&gt; 00:00:24,708
And that's all thanks to their 
unique method of attack:

11
00:00:24,833 --&gt; 00:00:27,750
Normally, tournament participants
MUST agree to a match

12
00:00:27,833 --&gt; 00:00:29,833
BEFORE damage can be dealt to each other.

13
00:00:30,500 --&gt; 00:00:33,333
But this group has a special ability,
to start a match

14
00:00:33,500 --&gt; 00:00:34,625
With a hug!

15
00:00:34,666 --&gt; 00:00:35,750
Crowd: Awww!

16
00:00:35,875 --&gt; 00:00:36,791
Dell-Vin: Which they abuse 

17
00:00:36,833 --&gt; 00:00:38,250
to gain a pre-emptive strike!

18
00:00:38,291 --&gt; 00:00:39,125
Crowd: Gasp!

19
00:00:39,166 --&gt; 00:00:40,625
They are, at least,

20
00:00:40,666 --&gt; 00:00:43,125
Just as vulnerable to these
pre-emptive strikes,

21
00:00:43,166 --&gt; 00:00:45,416
So this ability was judged
to be within the rules.

22
00:00:46,375 --&gt; 00:00:47,541
All have fallen

23
00:00:47,583 --&gt; 00:00:50,208
Before these 
masterful tactitians!

24
00:00:50,708 --&gt; 00:00:51,875
Just like the night,

25
00:00:51,916 --&gt; 00:00:54,458
Victory seems inevitable for
the Nap Timers!

26
00:00:55,041 --&gt; 00:00:56,833
The air is tense,

27
00:00:56,875 --&gt; 00:00:58,458
it seems our rising stars

28
00:00:58,500 --&gt; 00:01:00,500
have gotten in a little over their heads

29
00:01:00,958 --&gt; 00:01:02,625
Is there ANYTHING they can do

30
00:01:02,666 --&gt; 00:01:03,541
to get the upper hand

31
00:01:03,583 --&gt; 00:01:05,583
on these ferocious battlers?

32
00:01:07,250 --&gt; 00:01:10,500
Oh, Gosh, I don't think I have enough 
cards for all of them!

33
00:01:14,542 --&gt; 00:01:16,542
Aint how I thought this'd go,

34
00:01:16,542 --&gt; 00:01:18,542
but ain't that how it always is?

35
00:01:20,542 --&gt; 00:01:22,167
467...

36
00:01:22,209 --&gt; 00:01:23,584
4-473...

37
00:01:23,625 --&gt; 00:01:24,417
4-473... Ahk,

38
00:01:24,459 --&gt; 00:01:26,000
4-473... Ahk, 472...

39
00:01:26,042 --&gt; 00:01:27,042
477...

40
00:01:28,625 --&gt; 00:01:30,292
Ahh, TITWIEB*...

41
00:01:41,250 --&gt; 00:01:42,584
Vader: Search your feelings,

42
00:01:42,625 --&gt; 00:01:44,000
you KNOW it to be true

43
00:01:44,584 --&gt; 00:01:45,542
Also.

44
00:01:45,584 --&gt; 00:01:48,500
Can we get a KitKat
at the next opportunity?

45
00:01:48,667 --&gt; 00:01:50,292
I would much enjoy it.

46
00:01:50,334 --&gt; 00:01:51,459
Perchance.

47
00:01:51,542 --&gt; 00:01:53,542
Junior: *Exasperated groan*

48
00:02:18,792 --&gt; 00:02:19,834
Junior: I guess....

49
00:02:19,875 --&gt; 00:02:21,875
if there's no other choice...

50
00:02:22,292 --&gt; 00:02:23,459
Yogurt: Junior, wait!

51
00:02:46,458 --&gt; 00:02:47,875
Aurora: Yogurt, what's going on, 

52
00:02:47,916 --&gt; 00:02:49,124
I thought we were losing??

53
00:02:56,750 --&gt; 00:02:58,750
Yogurt: Junior's the one we're losing...

54
00:02:59,666 --&gt; 00:03:01,666
Aurora, I got an idea!

55
00:03:01,708 --&gt; 00:03:03,500
Gonna need some of your item cards!

56
00:03:07,833 --&gt; 00:03:09,124
Zora: I'm also here!

57
00:03:26,500 --&gt; 00:03:27,708
Junior: Woah....

58
00:03:30,208 --&gt; 00:03:31,958
Yogurt: Some fancy fightin' Vades,

59
00:03:32,000 --&gt; 00:03:34,500
But we gotta get through this 
together, as a team.

60
00:03:35,583 --&gt; 00:03:37,167
Take a deep breathe.

61
00:03:38,208 --&gt; 00:03:39,583
Junior: *Inhale*

62
00:03:40,250 --&gt; 00:03:41,250
*Exhale*

63
00:04:46,833 --&gt; 00:04:49,875
Aurora: *wailing in total fear*

64
00:05:05,208 --&gt; 00:05:06,499
Bingo: Ohh......

65
00:05:06,541 --&gt; 00:05:08,541
My coins............

</property>
    </filter>
    <filter id="filter137">
      <property name="feed">high</property>
      <property name="lang">eng</property>
      <property name="mlt_service">subtitle_feed</property>
      <property name="shotcut:hidden">1</property>
      <property name="text">1
00:00:06,083 --&gt; 00:00:07,541
It's been a long and windy journey

2
00:00:07,583 --&gt; 00:00:08,291
for our contestants,

3
00:00:08,333 --&gt; 00:00:11,375
But we are fast approaching
this competitions Zenith!

4
00:00:11,958 --&gt; 00:00:14,208
One team swiftly rose through the ranks,

</property>
    </filter>
    <filter id="filter138" out="00:05:26.625">
      <property name="geometry">408 838 1152 191 1</property>
      <property name="family">Nirmala UI</property>
      <property name="size">68</property>
      <property name="weight">700</property>
      <property name="style">normal</property>
      <property name="fgcolour">#fffff700</property>
      <property name="bgcolour">#ff939393</property>
      <property name="olcolour">#aa000000</property>
      <property name="pad">4</property>
      <property name="halign">center</property>
      <property name="valign">bottom</property>
      <property name="outline">4</property>
      <property name="opacity">0.72</property>
      <property name="mlt_service">subtitle</property>
      <property name="shotcut:filter">subtitles</property>
      <property name="shotcut:usePointSize">1</property>
      <property name="feed">aurora-intro</property>
      <property name="shotcut:pointSize">51</property>
      <property name="shotcut:animIn">0</property>
      <property name="shotcut:animOut">0</property>
    </filter>
    <filter id="filter139" out="00:05:26.625">
      <property name="geometry">384 672 1152 216 1</property>
      <property name="family">Verdana</property>
      <property name="size">54</property>
      <property name="weight">700</property>
      <property name="style">normal</property>
      <property name="fgcolour">#ffffff00</property>
      <property name="bgcolour">#ffa7a4aa</property>
      <property name="olcolour">#aa000000</property>
      <property name="pad">0</property>
      <property name="halign">center</property>
      <property name="valign">bottom</property>
      <property name="outline">3</property>
      <property name="opacity">0.72</property>
      <property name="mlt_service">subtitle</property>
      <property name="shotcut:filter">subtitles</property>
      <property name="shotcut:usePointSize">1</property>
      <property name="feed">high</property>
      <property name="shotcut:pointSize">41</property>
      <property name="shotcut:animIn">0</property>
      <property name="shotcut:animOut">0</property>
    </filter>
  </tractor>
</mlt>
